<svg width="1440" height="1024" viewBox="0 0 1440 1024" fill="none" xmlns="http://www.w3.org/2000/svg">
<g clip-path="url(#clip0_56_65)">
<rect width="1440" height="1024" fill="#FAFAFA"/>
<path fill-rule="evenodd" clip-rule="evenodd" d="M262.731 581.794C353.083 590.117 426.649 652.08 461.381 748.059C509.885 882.097 565.001 1052.27 465.379 1141.8C360.154 1236.36 217.047 1154.9 108.829 1064.89C0.317199 974.63 -112.437 843.805 -66.4461 699.44C-22.8556 562.611 136.071 570.127 262.731 581.794Z" fill="#E2E0EC"/>
<path fill-rule="evenodd" clip-rule="evenodd" d="M1496.94 -130.455C1592.51 -28.958 1561.17 128.284 1489.08 246.863C1424.85 352.521 1304.99 409.679 1183.41 385.289C1059.84 360.501 959.222 263.348 946.341 137.985C933.928 17.178 1021.15 -81.3821 1130.01 -134.453C1251.32 -193.6 1403.98 -229.17 1496.94 -130.455Z" fill="#E2E0EC"/>
</g>
<defs>
<clipPath id="clip0_56_65">
<rect width="1440" height="1024" fill="white"/>
</clipPath>
</defs>
</svg>
