<svg width="370" height="138" viewBox="0 0 370 138" fill="none" xmlns="http://www.w3.org/2000/svg">
<path d="M127.71 12C136.62 12 141.38 16.3 141.38 24.29C141.38 32.28 136.62 36.58 127.86 36.58C119.72 36.58 114.65 32.12 114.65 24.44C114.65 16.3 119.87 12 127.71 12Z" fill="#462C6B"/>
<path d="M335.74 12C344.65 12 349.41 16.3 349.41 24.29C349.41 32.28 344.65 36.58 335.89 36.58C327.75 36.58 322.68 32.12 322.68 24.44C322.68 16.3 327.9 12 335.74 12Z" fill="#462C6B"/>
<path d="M20.01 12.85H62.11C87.46 12.85 96.68 22.84 96.68 39.43C96.68 53.72 89.61 62.48 77.47 65.7V66.01C91.76 67.24 102.05 74.15 102.05 92.28C102.05 111.02 89.76 123.32 60.87 123.32H20V12.85H20.01ZM55.5 58.18C66.41 58.18 74.24 54.34 74.24 43.89C74.24 34.06 68.4 31.91 59.34 31.91H43.82V58.18H55.5ZM57.96 104.27C70.25 104.27 77.47 101.2 77.47 89.67C77.47 77.84 67.94 76.61 59.95 76.61H43.82V104.27H57.96Z" fill="#462C6B"/>
<path d="M138.78 49.27V123.33H115.89V49.27H138.78Z" fill="#462C6B"/>
<path d="M176.88 92.13C177.49 100.27 182.1 106.88 196.39 106.88C204.07 106.88 214.06 104.58 219.13 102.27H219.9L217.9 120.25C213.14 122.4 203.76 125.17 192.7 125.17C163.82 125.17 152.75 108.88 152.75 86.45C152.75 59.72 169.34 47.42 189.78 47.42C213.6 47.42 222.51 62.02 222.51 81.84C222.51 84.61 222.36 89.37 222.2 92.13H176.88ZM176.72 78H200.69C200.84 68.78 197.77 63.71 189.47 63.71C181.95 63.71 176.88 68.63 176.72 78Z" fill="#462C6B"/>
<path d="M306.71 76V123.32H283.82V79.07C283.82 70.31 281.05 66.16 272.91 66.16C262.77 66.16 259.08 72.46 259.08 79.22V123.32H236.19V49.26H256.93L257.7 57.56L258.16 57.71C261.54 52.03 268.76 47.42 279.98 47.42C299.02 47.42 306.71 58.33 306.71 76Z" fill="#462C6B"/>
<path d="M346.81 49.27V123.33H323.92V49.27H346.81Z" fill="#462C6B"/>
</svg>
