<svg width="294" height="115" viewBox="0 0 294 115" fill="none" xmlns="http://www.w3.org/2000/svg">
<path d="M102.931 12.585C109.774 12.585 113.43 16.0047 113.43 22.3588C113.43 28.713 109.774 32.1326 103.046 32.1326C96.794 32.1326 92.9001 28.5857 92.9001 22.4781C92.9001 16.0047 96.9092 12.585 102.931 12.585Z" fill="#462C6B"/>
<path d="M262.706 12.585C269.549 12.585 273.205 16.0047 273.205 22.3588C273.205 28.713 269.549 32.1326 262.821 32.1326C256.569 32.1326 252.675 28.5857 252.675 22.4781C252.675 16.0047 256.685 12.585 262.706 12.585Z" fill="#462C6B"/>
<path d="M20.2128 13.261H52.5472C72.017 13.261 79.0984 21.2057 79.0984 34.3991C79.0984 45.7634 73.6683 52.7299 64.3443 55.2907V55.5372C75.3196 56.5154 83.2227 62.0106 83.2227 76.4288C83.2227 91.332 73.7835 101.114 51.5949 101.114H20.2051V13.261H20.2128ZM47.4705 49.3103C55.8498 49.3103 61.8636 46.2565 61.8636 37.946C61.8636 30.1285 57.3782 28.4187 50.4198 28.4187H38.4998V49.3103H47.4705ZM49.3599 85.964C58.7991 85.964 64.3443 83.5225 64.3443 74.3531C64.3443 64.9452 57.0249 63.967 50.8883 63.967H38.4998V85.964H49.3599Z" fill="#462C6B"/>
<path d="M111.433 42.2245V101.122H93.8524V42.2245H111.433Z" fill="#462C6B"/>
<path d="M140.695 76.3095C141.164 82.783 144.704 88.0397 155.68 88.0397C161.578 88.0397 169.251 86.2105 173.145 84.3735H173.736L172.2 98.6723C168.544 100.382 161.34 102.585 152.846 102.585C130.665 102.585 122.162 89.6302 122.162 71.7924C122.162 50.535 134.904 40.7533 150.603 40.7533C168.898 40.7533 175.741 52.3641 175.741 68.1263C175.741 70.3291 175.626 74.1146 175.503 76.3095H140.695ZM140.572 65.0724H158.982C159.097 57.7401 156.74 53.7081 150.365 53.7081C144.589 53.7081 140.695 57.6208 140.572 65.0724Z" fill="#462C6B"/>
<path d="M240.41 63.4819V101.114H222.829V65.9234C222.829 58.9569 220.702 55.6565 214.45 55.6565C206.662 55.6565 203.828 60.6667 203.828 66.0427V101.114H186.248V42.2166H202.177L202.768 48.8173L203.121 48.9365C205.717 44.4194 211.263 40.7533 219.88 40.7533C234.504 40.7533 240.41 49.4296 240.41 63.4819Z" fill="#462C6B"/>
<path d="M271.208 42.2245V101.122H253.628V42.2245H271.208Z" fill="#462C6B"/>
</svg>
