<svg width="1440" height="1024" viewBox="0 0 1440 1024" fill="none" xmlns="http://www.w3.org/2000/svg">
<g clip-path="url(#clip0_36_65)">
<rect width="1440" height="1024" fill="white"/>
<path fill-rule="evenodd" clip-rule="evenodd" d="M252.844 666.056C343.226 673.318 416.816 727.387 451.56 811.139C500.08 928.101 555.214 1076.6 455.559 1154.72C350.299 1237.24 207.145 1166.15 98.8909 1087.6C-9.65708 1008.85 -122.449 894.687 -76.4426 768.714C-32.8376 649.317 126.142 655.876 252.844 666.056Z" fill="#E2E0EC"/>
<path fill-rule="evenodd" clip-rule="evenodd" d="M767.336 271.387C857.287 271.997 969.273 266.925 997.63 352.18C1026.24 438.204 934.593 502.662 862.638 557.91C780.237 621.178 687.272 713.123 599.08 658.193C499.693 596.29 480.54 456.282 527.211 348.99C564.27 263.793 674.328 270.756 767.336 271.387Z" fill="#F1EFF5"/>
<path fill-rule="evenodd" clip-rule="evenodd" d="M1484.69 -143.821C1573.81 -49.1976 1544.14 97.8156 1476.47 208.795C1416.17 307.68 1303.98 361.374 1190.37 338.866C1074.91 315.991 981.064 225.439 969.315 108.32C957.993 -4.54327 1039.77 -96.8501 1141.66 -146.698C1255.22 -202.255 1398.02 -235.851 1484.69 -143.821Z" fill="#E2E0EC"/>
</g>
<defs>
<clipPath id="clip0_36_65">
<rect width="1440" height="1024" fill="white"/>
</clipPath>
</defs>
</svg>
