<?xml version="1.0" encoding="utf-8"?>
<!-- Generator: Adobe Illustrator 26.3.1, SVG Export Plug-In . SVG Version: 6.00 Build 0)  -->
<svg version="1.1" id="Layer_1" xmlns="http://www.w3.org/2000/svg" xmlns:xlink="http://www.w3.org/1999/xlink" x="0px" y="0px"
	 viewBox="0 0 595.28 841.89" style="enable-background:new 0 0 595.28 841.89;" xml:space="preserve">
<style type="text/css">
	.st0{fill:#462C6B;}
	.st1{fill:#007890;}
</style>
<g>
	<path class="st0" d="M367.71,332.12c11.4,0,17.6-5.6,17.6-16c0-10.4-6.2-16-17.8-16c-10.2,0-17,5.6-17,16.2
		C350.51,326.32,357.11,332.12,367.71,332.12z"/>
	<path class="st0" d="M226.69,509.88c-10.2,0-17,5.6-17,16.2c0,10,6.6,15.8,17.2,15.8c11.4,0,17.6-5.6,17.6-16
		C244.49,515.48,238.29,509.88,226.69,509.88z"/>
	<path class="st1" d="M354.08,440.84c0,11.78-9.58,21.36-21.36,21.36s-21.36-9.58-21.36-21.36v-20.12v-9.49V400.6
		c0-27.05-22.01-49.06-49.06-49.06s-49.06,22.01-49.06,49.06v89.29h27.69V400.6c0-11.78,9.58-21.36,21.36-21.36
		c11.78,0,21.36,9.58,21.36,21.36v10.63v9.49v20.12c0,27.05,22.01,49.06,49.06,49.06s49.06-22.01,49.06-49.06V351.7h-27.69V440.84z"
		/>
</g>
<g>
	<path class="st0" d="M367.71,332.12c11.4,0,17.6-5.6,17.6-16c0-10.4-6.2-16-17.8-16c-10.2,0-17,5.6-17,16.2
		C350.51,326.32,357.11,332.12,367.71,332.12z"/>
	<path class="st0" d="M226.69,509.88c-10.2,0-17,5.6-17,16.2c0,10,6.6,15.8,17.2,15.8c11.4,0,17.6-5.6,17.6-16
		C244.49,515.48,238.29,509.88,226.69,509.88z"/>
</g>
</svg>
