<svg width="476" height="465" viewBox="0 0 476 465" fill="none" xmlns="http://www.w3.org/2000/svg">
<g clip-path="url(#clip0_58_638)">
<mask id="mask0_58_638" style="mask-type:luminance" maskUnits="userSpaceOnUse" x="0" y="0" width="476" height="465">
<path d="M476 0H0V465H476V0Z" fill="white"/>
</mask>
<g mask="url(#mask0_58_638)">
<path d="M378.556 17.9724H295.444V104.609H378.556V17.9724Z" fill="#E0E0E0"/>
<path d="M372.936 17.9724H289.824V104.609H372.936V17.9724Z" fill="#FAFAFA"/>
<path d="M372.955 104.628H289.787V17.9535H372.955V104.628ZM289.843 104.572H372.898V18.0101H289.843V104.591V104.572Z" fill="#E0E0E0"/>
<path d="M361.753 29.6271H300.989V92.9736H361.753V29.6271Z" fill="#FAFAFA"/>
<mask id="mask1_58_638" style="mask-type:luminance" maskUnits="userSpaceOnUse" x="21" y="-1" width="477" height="466">
<path d="M497.273 -0.848633H21.2729V464.151H497.273V-0.848633Z" fill="white"/>
</mask>
<g mask="url(#mask1_58_638)">
<path d="M300.989 93.3885C300.555 94.0297 300.046 94.6143 299.48 95.1235C298.5 96.1419 297.142 97.5374 295.614 99.0461C294.087 100.555 292.691 101.894 291.654 102.837C291.126 103.384 290.541 103.893 289.9 104.308C290.334 103.667 290.824 103.082 291.39 102.573C292.37 101.554 293.728 100.159 295.256 98.6501C296.783 97.1414 298.198 95.8024 299.235 94.8406C299.763 94.2937 300.348 93.8034 300.989 93.3885Z" fill="#E0E0E0"/>
<path d="M361.753 93.2376C362.394 93.6714 362.978 94.1805 363.488 94.7274C364.506 95.6892 365.901 97.0659 367.41 98.5935C368.919 100.121 370.258 101.535 371.22 102.554C371.767 103.082 372.257 103.666 372.672 104.308C372.031 103.874 371.446 103.384 370.937 102.818C369.918 101.856 368.523 100.479 367.014 98.9518C365.505 97.4243 364.166 96.0098 363.205 94.9726C362.658 94.4446 362.167 93.8599 361.753 93.2188" fill="#E0E0E0"/>
<path d="M361.583 29.7968C362.017 29.1556 362.526 28.571 363.091 28.0618C364.072 27.0434 365.43 25.6479 366.958 24.1392C368.485 22.6305 369.881 21.2915 370.918 20.3486C371.446 19.8017 372.031 19.3113 372.672 18.8965C372.238 19.5377 371.748 20.1223 371.182 20.6315C370.201 21.6498 368.843 23.0454 367.316 24.5541C365.788 26.0628 364.374 27.4017 363.337 28.3635C362.809 28.9104 362.224 29.4008 361.583 29.8157" fill="#E0E0E0"/>
<path d="M300.819 29.9477C300.178 29.5139 299.593 29.0047 299.084 28.439C298.066 27.4772 296.67 26.1005 295.162 24.5729C293.653 23.0454 292.314 21.631 291.352 20.6126C290.805 20.0846 290.315 19.4999 289.9 18.8587C290.541 19.2925 291.126 19.7828 291.635 20.3486C292.653 21.3104 294.049 22.6871 295.558 24.2146C297.066 25.7422 298.405 27.1566 299.367 28.1938C299.914 28.7219 300.404 29.3065 300.819 29.9477Z" fill="#E0E0E0"/>
<path d="M361.583 92.9547C361.583 92.9547 361.583 92.8416 361.583 92.653C361.583 92.4644 361.583 92.1438 361.583 91.7666C361.583 90.9746 361.583 89.8242 361.564 88.3532C361.564 85.3547 361.526 80.9794 361.507 75.435C361.47 64.346 361.432 48.5424 361.394 29.6082L361.62 29.8345L301.027 29.8723L301.291 29.6082C301.291 52.8611 301.272 74.6052 301.253 92.9547L301.027 92.7284L344.911 92.8416L357.245 92.8982H360.508L361.356 92.9359C361.451 92.9359 361.545 92.9359 361.658 92.9359C361.564 92.9359 361.488 92.9359 361.394 92.9359H360.583L357.358 92.9736L345.081 93.0302L301.064 93.1433H300.838V92.917C300.838 74.5675 300.819 52.8233 300.8 29.5705V29.3065H301.083L361.677 29.3442H361.903V29.5705C361.847 48.5613 361.809 64.4026 361.79 75.5481C361.771 81.0737 361.752 85.4112 361.734 88.4098C361.734 89.8808 361.715 90.9934 361.715 91.7855C361.715 92.1438 361.715 92.4267 361.715 92.653C361.715 92.7473 361.715 92.8416 361.715 92.9359" fill="#E0E0E0"/>
<path d="M341.517 51.1638H321.243V71.4369H341.517V51.1638Z" fill="#EBEBEB"/>
<path d="M256.01 0H195.548V63.0259H256.01V0Z" fill="#E0E0E0"/>
<path d="M251.918 0H191.456V63.0259H251.918V0Z" fill="#FAFAFA"/>
<path d="M251.937 63.0636H191.437V0H251.937V63.0636ZM191.475 63.0259H251.899V0.0377175H191.475V63.0259Z" fill="#E0E0E0"/>
<path d="M243.79 8.48642H199.584V54.5583H243.79V8.48642Z" fill="#FAFAFA"/>
<path d="M199.584 54.8789C199.264 55.3504 198.905 55.7653 198.491 56.1425C197.774 56.8968 196.793 57.8963 195.681 58.9901C194.568 60.0839 193.549 61.0646 192.795 61.7624C192.418 62.1584 191.984 62.5167 191.513 62.8185C191.814 62.347 192.192 61.9321 192.588 61.5549C193.285 60.8006 194.285 59.8011 195.398 58.7073C196.51 57.6135 197.529 56.6328 198.283 55.935C198.66 55.539 199.094 55.1807 199.547 54.8789" fill="#E0E0E0"/>
<path d="M243.79 54.7658C244.261 55.0864 244.676 55.4447 245.053 55.8596C245.789 56.5762 246.807 57.5569 247.901 58.6695C248.995 59.7822 249.975 60.8006 250.654 61.5549C251.05 61.9321 251.409 62.3658 251.711 62.8373C251.258 62.5356 250.824 62.1584 250.447 61.7435C249.693 61.0269 248.693 60.0462 247.599 58.9336C246.505 57.8209 245.525 56.8025 244.827 56.0482C244.431 55.671 244.073 55.2372 243.771 54.7846" fill="#E0E0E0"/>
<path d="M243.658 8.61845C243.978 8.14699 244.337 7.73209 244.752 7.35492C245.468 6.61943 246.449 5.60106 247.562 4.50725C248.674 3.41344 249.693 2.43279 250.447 1.73501C250.824 1.33898 251.258 0.980664 251.729 0.678925C251.428 1.15039 251.05 1.56529 250.636 1.94246C249.919 2.69681 248.938 3.69632 247.826 4.79013C246.713 5.88394 245.676 6.86459 244.94 7.56237C244.563 7.9584 244.129 8.31671 243.677 8.61845" fill="#E0E0E0"/>
<path d="M199.471 8.73161C199 8.41101 198.585 8.05269 198.208 7.6378C197.453 6.92117 196.454 5.94051 195.36 4.82785C194.266 3.71518 193.285 2.69681 192.607 1.94246C192.21 1.56528 191.852 1.13153 191.55 0.660065C192.022 0.961805 192.437 1.33898 192.814 1.73501C193.568 2.45165 194.568 3.4323 195.662 4.54497C196.755 5.65763 197.736 6.676 198.434 7.43035C198.83 7.80753 199.188 8.24128 199.49 8.69389" fill="#E0E0E0"/>
<path d="M243.658 54.5583C243.658 54.5583 243.658 54.4075 243.658 54.332C243.658 54.1812 243.658 53.9549 243.658 53.6908C243.658 53.1062 243.658 52.2764 243.639 51.2015C243.639 49.0139 243.62 45.8456 243.601 41.8098C243.582 33.7383 243.544 22.2345 243.507 8.48644L243.677 8.65617H199.603L199.792 8.48644C199.792 25.4027 199.773 41.2252 199.773 54.5583L199.603 54.3886L231.512 54.4829L240.471 54.5206H242.847L243.469 54.5395C243.545 54.5395 243.62 54.5395 243.677 54.5395C243.62 54.5395 243.545 54.5395 243.488 54.5395H242.884L240.546 54.5772L231.626 54.6149L199.603 54.6903H199.433V54.5206C199.433 41.1686 199.433 25.365 199.415 8.44872V8.26013H243.695L243.865 8.27899V8.44872C243.827 22.2533 243.79 33.7949 243.771 41.8853C243.752 45.9022 243.733 49.0704 243.733 51.2392C243.733 52.2953 243.733 53.1251 243.714 53.6908C243.714 53.9549 243.714 54.1623 243.714 54.3132C243.714 54.3886 243.714 54.4452 243.714 54.5206" fill="#E0E0E0"/>
<path d="M229.061 24.1581H214.313V38.9056H229.061V24.1581Z" fill="#EBEBEB"/>
<path d="M383.308 362.578C388.834 359.976 395.057 359.221 401.055 360.428C404.336 360.711 407.429 362.088 409.824 364.351C412.012 366.765 412.426 371.027 409.918 373.101C408.296 374.195 406.335 374.704 404.393 374.497C399.697 374.44 394.492 373.611 390.739 376.439C388.608 378.042 387.174 380.72 384.628 381.512C382.007 382.116 379.291 380.909 377.971 378.552C376.745 376.194 376.481 373.479 377.217 370.933C377.839 367.349 380.083 364.257 383.308 362.578Z" fill="white"/>
<path d="M370.937 338.703C374.237 343.418 380.649 341.852 383.629 338.986C386.609 336.119 387.853 331.933 389.004 327.954C391.625 318.864 394.265 309.34 392.304 300.08C391.833 297.27 390.607 294.649 388.74 292.499C386.816 290.349 383.893 289.369 381.064 289.953C377.839 290.802 375.821 293.97 374.369 296.987C370.088 305.889 367.844 315.639 367.806 325.502C367.504 330.122 368.579 334.724 370.918 338.703" fill="white"/>
<path d="M361.866 345.473C365.298 340.966 366.297 335.063 364.544 329.689C362.733 324.389 359.489 319.693 355.19 316.129C350.305 311.773 344.61 308.416 338.443 306.247C336.048 305.285 333.483 304.852 330.918 304.965C328.316 305.116 325.939 306.549 324.6 308.793C322.846 312.15 324.525 316.223 326.354 319.561C329.579 325.426 333.257 331.027 337.349 336.308C340.649 340.551 344.421 344.757 349.456 346.68C354.492 348.604 359.697 348.378 362.356 344.889" fill="#EBEBEB"/>
<path d="M370.711 409.819C370.88 409.122 370.993 408.405 371.012 407.669C371.163 406.104 371.352 404.162 371.578 401.823C371.88 398.938 372.313 396.09 372.898 393.242C373.671 389.791 374.709 386.397 376.01 383.115C377.292 379.834 379.027 376.741 381.177 373.95C382.931 371.668 385.156 369.82 387.702 368.519C389.437 367.651 391.286 367.085 393.209 366.803C393.926 366.765 394.643 366.67 395.34 366.501C394.624 366.406 393.888 366.406 393.171 366.463C391.191 366.614 389.249 367.123 387.438 367.953C384.742 369.216 382.384 371.102 380.555 373.441C378.311 376.27 376.519 379.419 375.199 382.776C373.879 386.114 372.842 389.546 372.106 393.054C371.559 395.92 371.182 398.825 370.975 401.748C370.786 404.237 370.71 406.236 370.692 407.632C370.635 408.348 370.635 409.084 370.729 409.8" fill="#E0E0E0"/>
<path d="M371.125 405.331C371.182 405.01 371.201 404.671 371.182 404.331V401.484C371.182 399.013 371.182 395.449 371.314 391.036C371.54 382.21 372.295 372.724 373.766 359.353C375.161 346.775 377.028 332.14 378.99 322.616C379.404 320.448 379.838 318.505 380.234 316.808C380.63 315.111 380.951 313.621 381.253 312.433C381.517 311.301 381.743 310.396 381.913 309.679C382.007 309.359 382.064 309.038 382.082 308.699C381.932 309 381.818 309.302 381.743 309.623L380.913 312.357C380.536 313.545 380.178 314.998 379.744 316.714C379.31 318.43 378.839 320.353 378.367 322.522C375.934 333.781 374.105 345.153 372.879 356.619C371.408 370.027 370.748 382.229 370.692 391.074C370.635 395.487 370.729 399.07 370.842 401.54C370.918 402.691 370.974 403.634 371.012 404.388C371.012 404.727 371.05 405.048 371.125 405.369" fill="#E0E0E0"/>
<path d="M371.182 381.776C371.257 380.796 371.239 379.796 371.163 378.797C371.05 376.892 370.786 374.139 370.258 370.744C369.598 366.784 368.73 362.88 367.636 359.014C366.354 354.28 364.713 349.641 362.733 345.134C359.339 336.855 354.454 329.255 348.344 322.73C347.288 321.617 346.137 320.561 344.949 319.58C344.421 319.146 343.968 318.713 343.497 318.354L342.177 317.449C341.385 316.846 340.555 316.318 339.669 315.846C342.554 318.109 345.289 320.561 347.872 323.163C353.794 329.764 358.528 337.307 361.903 345.492C363.846 349.962 365.505 354.544 366.826 359.24C367.938 363.069 368.881 366.935 369.617 370.838C370.239 374.176 370.578 376.911 370.805 378.797C370.842 379.777 370.974 380.777 371.163 381.739" fill="#E0E0E0"/>
<path d="M348.419 423.322L350.777 455.646H392.304L394.661 423.322H348.419Z" fill="white"/>
<path d="M399.602 410.574H344.402V423.322H399.602V410.574Z" fill="white"/>
<path d="M344.402 454.401V457.928H398.697V454.401H344.402Z" fill="#E3E2E2"/>
<path d="M349.551 464.151L347.005 457.928H396.717L393.756 464.151H349.551Z" fill="white"/>
<path d="M393.888 433.883C393.832 433.996 393.775 434.09 393.7 434.185L393.077 435.015L390.663 438.107L390.55 438.239L390.456 438.089L384.515 429.866H384.855L379.008 438.145L378.82 438.409L378.612 438.164L371.672 429.904H372.068L371.691 430.394L365.487 438.164L365.279 438.428L365.091 438.164L359.244 429.885H359.584L352.38 438.107L352.248 438.258L352.153 438.089L349.89 434.298L349.306 433.28C349.23 433.166 349.174 433.053 349.136 432.921C349.23 433.016 349.306 433.129 349.381 433.242L350.022 434.222L352.398 437.938H352.172L359.263 429.602L359.452 429.395L359.621 429.621L365.524 437.862H365.128L371.314 430.055L371.691 429.564L371.899 429.319L372.106 429.564L379.027 437.843H378.631L384.534 429.621L384.704 429.376L384.874 429.621L390.682 437.938H390.475L392.983 434.92L393.662 434.147C393.662 434.147 393.813 433.977 393.907 433.902" fill="#E3E2E2"/>
<path d="M395.246 423.096C395.246 423.247 384.836 423.36 372.012 423.36C359.188 423.36 348.778 423.247 348.778 423.096C348.778 422.945 359.188 422.832 372.012 422.832C384.836 422.832 395.246 422.945 395.246 423.096Z" fill="#F5F5F5"/>
<path d="M397.339 458.267C397.339 458.418 386.024 458.531 372.087 458.531C358.15 458.531 346.835 458.418 346.835 458.267C346.835 458.117 358.132 458.003 372.087 458.003C386.043 458.003 397.339 458.117 397.339 458.267Z" fill="#F5F5F5"/>
<path d="M149.099 438.843V462.643H222.29V438.843H149.099Z" fill="#F5F5F5"/>
<path d="M146.025 432.186V438.843H224.836V432.186H146.025Z" fill="#E0E0E0"/>
<path d="M185.44 462.643H222.29V438.843H224.855V432.186H183.912V438.221L185.459 462.643H185.44Z" fill="#EBEBEB"/>
<path d="M174.181 442.671H159.339V446.254H174.181V442.671Z" fill="#E0E0E0"/>
<path d="M176.463 450.743H157.416V458.305H176.463V450.743Z" fill="white"/>
<path d="M210.768 432.318V463.303H306.043V432.318H210.768Z" fill="#F5F5F5"/>
<path d="M206.751 423.643V432.299H309.343V423.643H206.751Z" fill="#E0E0E0"/>
<path d="M258.066 463.284H306.024V432.299H309.362V423.643H256.067V431.507L258.066 463.284Z" fill="#E0E0E0"/>
<path d="M243.394 437.315H224.082V441.973H243.394V437.315Z" fill="#E0E0E0"/>
<path d="M246.392 447.801H221.593V457.645H246.392V447.801Z" fill="white"/>
<path d="M221.706 399.843V423.643H294.898V399.843H221.706Z" fill="#F5F5F5"/>
<path d="M218.632 393.205V399.843H297.443V393.186H218.632V393.205Z" fill="#E0E0E0"/>
<path d="M258.028 423.643H294.879V399.843H297.443V393.186H256.501V399.221L258.028 423.643Z" fill="#EBEBEB"/>
<path d="M246.769 403.69H231.927V407.273H246.769V403.69Z" fill="#E0E0E0"/>
<path d="M249.07 411.743H230.023V419.305H249.07V411.743Z" fill="white"/>
</g>
<mask id="mask2_58_638" style="mask-type:luminance" maskUnits="userSpaceOnUse" x="-65" y="0" width="477" height="465">
<path d="M411.634 0H-64.3656V465H411.634V0Z" fill="white"/>
</mask>
<g mask="url(#mask2_58_638)">
<path d="M329.259 354.28L229.023 354.224C216.972 354.224 207.203 344.436 207.203 332.385L207.26 81.1114C207.26 69.0607 217.048 59.273 229.099 59.273L329.334 59.3296C341.385 59.3296 351.154 69.1173 351.154 81.168L351.097 332.442C351.097 344.493 341.328 354.28 329.259 354.261" fill="#455A64"/>
<path d="M329.24 68.2309H309.815C307.156 68.2875 305.044 70.494 305.1 73.1531V76.6796C305.157 79.3387 303.045 81.5452 300.385 81.6018H262.517C259.858 81.5075 257.745 79.301 257.802 76.6419V73.1153C257.859 70.4563 255.746 68.2498 253.087 68.1743H229.25C220.801 68.1743 213.955 75.0201 213.955 83.4499L213.898 328.708C213.898 337.157 220.725 344.002 229.174 344.002L329.202 344.059C337.651 344.059 344.497 337.213 344.497 328.783L344.534 83.5254C344.534 75.0766 337.707 68.2309 329.259 68.2309" fill="white"/>
<path d="M329.428 68.4195C329.428 68.4195 329.598 68.4195 329.956 68.4195C330.484 68.4195 330.994 68.4572 331.503 68.5327C333.54 68.7778 335.501 69.4567 337.255 70.5128C338.556 71.2672 339.744 72.229 340.763 73.3416C342.007 74.6806 342.988 76.227 343.686 77.9243C344.478 79.9045 344.874 82.0167 344.836 84.1477V91.3706C344.836 111.813 344.874 141.384 344.893 177.913C344.912 214.443 344.893 257.969 344.911 306.266V329.255C344.949 330.839 344.742 332.404 344.327 333.932C343.893 335.459 343.233 336.93 342.366 338.25C341.479 339.571 340.404 340.777 339.178 341.796C336.651 343.833 333.558 345.04 330.315 345.228C327.09 345.322 323.903 345.247 320.678 345.266H261.046L240.546 345.228H230.192C226.647 345.436 223.139 344.455 220.197 342.475C217.274 340.438 215.143 337.477 214.125 334.083C213.634 332.404 213.427 330.65 213.483 328.896V303.211C213.483 289.633 213.483 276.262 213.483 263.117C213.483 236.828 213.502 211.463 213.502 187.305C213.502 163.147 213.521 140.196 213.54 118.697C213.54 107.947 213.54 97.594 213.559 87.5988V83.8837C213.559 83.2613 213.615 82.639 213.653 82.0167C213.766 81.4132 213.804 80.7908 213.974 80.1874C214.54 77.7923 215.652 75.567 217.218 73.6811C220.31 70.0036 224.931 67.9669 229.721 68.1366H243.092H249.523H252.672C253.747 68.08 254.803 68.3818 255.69 68.9853C256.557 69.5887 257.217 70.4562 257.576 71.4558C257.859 72.4364 257.972 73.4736 257.896 74.492V75.9819C257.896 76.4722 257.896 76.9625 257.934 77.4528C258.047 78.3958 258.462 79.301 259.084 80.0176C259.688 80.7343 260.518 81.2435 261.423 81.4698C261.876 81.5829 262.347 81.6206 262.8 81.6018H269.74L289.975 81.6395H298.896C299.593 81.6395 300.31 81.6961 300.989 81.6395C301.668 81.564 302.309 81.3377 302.875 80.9794C303.969 80.2817 304.761 79.169 305.025 77.8866C305.138 77.2643 305.176 76.6419 305.138 76.0196V74.1903C305.119 73.5868 305.138 73.0022 305.213 72.3987C305.308 71.8141 305.515 71.2672 305.798 70.758C306.345 69.7773 307.212 69.0041 308.25 68.5892C309.23 68.2875 310.268 68.1743 311.286 68.2686H321.244L327.354 68.3252C328.731 68.3252 329.447 68.3441 329.447 68.3441C329.447 68.3441 328.749 68.3441 327.354 68.3629H321.244L311.286 68.4006C310.268 68.3064 309.249 68.4006 308.287 68.7212C307.269 69.1361 306.439 69.8716 305.911 70.8334C305.628 71.3238 305.44 71.8707 305.345 72.4364C305.27 73.021 305.251 73.6057 305.27 74.1903V76.0196C305.308 76.6608 305.27 77.2831 305.157 77.9243C304.874 79.2444 304.082 80.3948 302.931 81.1303C302.347 81.5075 301.668 81.7338 300.97 81.8281C300.253 81.8846 299.575 81.8469 298.858 81.8658H262.743C262.253 81.8658 261.781 81.8281 261.291 81.7338C260.329 81.4886 259.462 80.9606 258.82 80.2062C258.16 79.4519 257.745 78.5089 257.613 77.5094C257.557 77.0191 257.538 76.5099 257.557 76.0196V74.5297C257.632 73.5491 257.557 72.5496 257.255 71.5878C256.916 70.6448 256.293 69.8339 255.482 69.2493C254.634 68.6835 253.634 68.4006 252.616 68.4572H229.664C224.95 68.2875 220.424 70.2865 217.406 73.9074C215.879 75.7556 214.785 77.9432 214.257 80.2817C214.106 80.8663 214.049 81.4698 213.955 82.0732C213.917 82.6767 213.879 83.2802 213.879 83.9025V328.915C213.823 330.631 214.03 332.329 214.502 333.988C215.482 337.307 217.576 340.174 220.424 342.154C223.29 344.097 226.722 345.04 230.174 344.832H261.027L301.121 344.87H320.659C323.884 344.87 327.109 344.926 330.277 344.851C333.426 344.662 336.444 343.493 338.895 341.513C340.102 340.513 341.14 339.363 342.007 338.062C342.856 336.761 343.497 335.346 343.912 333.856C344.327 332.366 344.515 330.82 344.478 329.293V306.304C344.497 257.988 344.534 214.48 344.553 177.951C344.572 141.422 344.61 111.851 344.647 91.4083C344.647 88.8624 344.647 86.4485 344.647 84.1854C344.685 82.0921 344.308 79.9988 343.535 78.0563C342.856 76.3779 341.875 74.8315 340.649 73.4925C339.65 72.3798 338.481 71.418 337.179 70.6637C335.444 69.5887 333.483 68.9098 331.465 68.6458C330.956 68.5704 330.428 68.5138 329.919 68.4949C329.579 68.4761 329.391 68.4572 329.391 68.4572" fill="#263238"/>
<path d="M332.389 93.2753C332.389 93.2753 329.862 93.4073 326.731 93.4451C323.601 93.4828 321.074 93.445 321.074 93.3696C321.074 93.2942 323.601 93.2376 326.731 93.1999C329.862 93.1622 332.389 93.1999 332.389 93.2753Z" fill="#263238"/>
<path d="M332.408 96.1796C332.408 96.1796 329.881 96.3116 326.75 96.3493C323.62 96.387 321.093 96.3493 321.093 96.2739C321.093 96.1984 323.62 96.1418 326.75 96.1041C329.881 96.0664 332.408 96.1041 332.408 96.1796Z" fill="#263238"/>
<path d="M332.446 99.065C332.446 99.065 329.919 99.197 326.788 99.2347C323.657 99.2724 321.13 99.2347 321.13 99.1593C321.13 99.0838 323.657 99.0272 326.788 98.9895C329.919 98.9518 332.446 98.9895 332.446 99.065Z" fill="#263238"/>
<path d="M229.381 102.365C229.381 102.365 229.532 102.365 229.608 102.365H230.268L232.682 102.29L232.606 102.365C232.606 101.837 232.606 101.253 232.569 100.611C232.569 100.291 232.55 99.9702 232.569 99.593C232.644 99.197 232.965 98.8764 233.38 98.8387C233.776 98.8387 234.115 98.8198 234.53 98.8387C234.983 98.9141 235.322 99.3101 235.322 99.7816C235.322 100.593 235.341 101.46 235.36 102.346L235.247 102.233L238.302 102.196L238.189 102.309C238.189 101.083 238.17 99.8193 238.151 98.5181V97.5563C238.113 97.2734 237.962 97.0094 237.717 96.8396L236.378 95.5195L235.096 94.256L234.473 93.6336C234.266 93.4262 234.096 93.2187 233.851 93.1622C233.606 93.1056 233.361 93.1622 233.153 93.2942C232.965 93.4451 232.776 93.6714 232.587 93.8599L231.494 94.9537C230.815 95.6704 230.098 96.3116 229.57 96.9339C229.419 97.2922 229.363 97.6883 229.419 98.0654V99.1404C229.419 99.8004 229.419 100.385 229.419 100.875C229.419 101.328 229.419 101.686 229.419 101.988C229.419 102.252 229.419 102.384 229.419 102.384C229.419 102.271 229.4 102.139 229.4 102.026C229.4 101.724 229.381 101.366 229.363 100.932C229.363 100.423 229.344 99.8382 229.325 99.1781C229.325 98.8387 229.325 98.4615 229.306 98.0843C229.306 97.8957 229.306 97.6883 229.306 97.4808C229.306 97.2545 229.363 97.0282 229.476 96.8396C230.042 96.1418 230.72 95.5384 231.399 94.8029L232.493 93.6902C232.682 93.5016 232.852 93.313 233.078 93.1056C233.323 92.917 233.662 92.8604 233.964 92.9359C234.247 93.0302 234.511 93.2187 234.7 93.4639L235.322 94.0674L236.604 95.3309L237.943 96.651C238.075 96.7642 238.189 96.8962 238.283 97.0282C238.377 97.1791 238.434 97.3677 238.434 97.5374V98.5181C238.434 99.8193 238.453 101.083 238.471 102.328V102.441H235.303L235.19 102.46V102.346C235.19 101.46 235.19 100.611 235.19 99.7816C235.19 99.4233 234.926 99.1027 234.568 99.0461C234.209 99.0461 233.794 99.0461 233.455 99.0461C233.134 99.0838 232.87 99.329 232.795 99.6496C232.757 99.9513 232.795 100.31 232.795 100.63V102.46H230.268L229.627 102.441C229.551 102.441 229.495 102.441 229.419 102.441" fill="#263238"/>
<path d="M321.658 214.499H235.303V232.132H321.658V214.499Z" fill="#EBEBEB"/>
<path d="M321.658 240.091H235.303V257.724H321.658V240.091Z" fill="#EBEBEB"/>
<path d="M301.724 293.253H258.387C253.521 293.253 249.579 289.293 249.579 284.428C249.579 279.562 253.521 275.62 258.387 275.62H301.724C306.59 275.62 310.55 279.562 310.55 284.428C310.55 289.293 306.609 293.253 301.743 293.253H301.724Z" fill="#5238A0"/>
<path d="M247.222 227.191H243.413C243.035 227.191 242.734 226.89 242.734 226.512C242.734 225.117 243.865 223.966 245.28 223.966H245.355C246.751 223.966 247.901 225.098 247.901 226.512C247.901 226.89 247.599 227.191 247.222 227.191Z" fill="#E0E0E0"/>
<path d="M246.826 222.646C246.826 223.476 246.147 224.174 245.317 224.174C244.488 224.174 243.809 223.495 243.809 222.665C243.809 221.835 244.488 221.156 245.317 221.138C246.147 221.138 246.845 221.816 246.845 222.646" fill="#E0E0E0"/>
<path d="M247.58 249.181H243.035V252.405H247.58V249.181Z" fill="#E0E0E0"/>
<path d="M248.108 249.878H246.581V248.879C246.581 248.162 245.996 247.596 245.299 247.596C244.601 247.596 244.016 248.181 244.016 248.879V249.878H242.489V248.879C242.489 247.332 243.752 246.069 245.317 246.069C246.864 246.069 248.127 247.332 248.127 248.879V249.878H248.108Z" fill="#E0E0E0"/>
<path d="M255.633 304.059V305.587H257.651V305.945H255.633V307.586H255.218V303.701H257.877V304.059H255.614H255.633Z" fill="#E0E0E0"/>
<path d="M258.255 306.134C258.255 305.323 258.915 304.644 259.744 304.644C260.555 304.644 261.234 305.304 261.234 306.134C261.234 306.945 260.574 307.605 259.744 307.624C258.952 307.661 258.292 307.039 258.255 306.247C258.255 306.209 258.255 306.172 258.255 306.134ZM260.819 306.134C260.8 305.53 260.291 305.078 259.688 305.097C259.084 305.116 258.632 305.625 258.651 306.228C258.669 306.813 259.16 307.265 259.744 307.265C260.329 307.265 260.819 306.813 260.838 306.228C260.838 306.19 260.838 306.172 260.838 306.134" fill="#E0E0E0"/>
<path d="M263.497 304.663V305.04H263.403C262.875 305.021 262.441 305.417 262.422 305.926C262.422 305.983 262.422 306.04 262.422 306.115V307.605H262.026V304.682H262.404V305.248C262.611 304.852 263.045 304.606 263.497 304.644" fill="#E0E0E0"/>
<path d="M266.873 304.682V307.247C266.986 307.944 266.496 308.604 265.798 308.699C265.666 308.718 265.534 308.718 265.402 308.699C264.912 308.718 264.421 308.567 264.044 308.246L264.252 307.944C264.572 308.208 264.987 308.359 265.402 308.34C266.138 308.34 266.477 308.001 266.477 307.284V306.907C266.213 307.284 265.798 307.492 265.346 307.473C264.572 307.511 263.893 306.907 263.856 306.134C263.818 305.361 264.421 304.682 265.195 304.644C265.251 304.644 265.289 304.644 265.346 304.644C265.798 304.625 266.251 304.852 266.496 305.229V304.663H266.873V304.682ZM266.496 306.077C266.515 305.474 266.043 304.946 265.421 304.927C264.817 304.908 264.289 305.38 264.271 306.002C264.252 306.605 264.723 307.133 265.346 307.152C265.346 307.152 265.364 307.152 265.383 307.152C265.949 307.19 266.458 306.756 266.496 306.172C266.496 306.134 266.496 306.115 266.496 306.077Z" fill="#E0E0E0"/>
<path d="M267.684 306.134C267.684 305.323 268.344 304.644 269.174 304.644C269.985 304.644 270.664 305.304 270.664 306.134C270.664 306.945 270.004 307.605 269.174 307.624C268.382 307.661 267.722 307.039 267.684 306.247C267.684 306.209 267.684 306.172 267.684 306.153M270.249 306.153C270.23 305.549 269.721 305.097 269.117 305.116C268.514 305.134 268.061 305.644 268.08 306.247C268.099 306.832 268.589 307.284 269.174 307.284C269.759 307.284 270.249 306.832 270.268 306.247C270.268 306.209 270.268 306.19 270.268 306.153" fill="#E0E0E0"/>
<path d="M273.002 307.416C272.832 307.548 272.606 307.624 272.38 307.624C271.946 307.661 271.569 307.36 271.531 306.945C271.531 306.888 271.531 306.832 271.531 306.775V305.002H271.003V304.663H271.531V304.022H271.927V304.663H272.814V305.002H271.927V306.737C271.89 307.001 272.059 307.228 272.323 307.265C272.361 307.265 272.399 307.265 272.436 307.265C272.587 307.265 272.757 307.209 272.87 307.115L273.002 307.397V307.416Z" fill="#E0E0E0"/>
<path d="M278.132 306.134C278.17 306.907 277.566 307.586 276.793 307.624C276.755 307.624 276.717 307.624 276.68 307.624C276.227 307.624 275.812 307.416 275.567 307.039V308.661H275.171V304.663H275.548V305.248C275.793 304.851 276.227 304.625 276.68 304.644C277.453 304.625 278.113 305.229 278.132 306.002C278.132 306.04 278.132 306.077 278.132 306.115M277.736 306.115C277.717 305.512 277.208 305.04 276.604 305.059C276.001 305.078 275.529 305.587 275.548 306.19C275.567 306.775 276.057 307.247 276.642 307.247C277.227 307.247 277.717 306.775 277.736 306.19C277.736 306.172 277.736 306.134 277.736 306.115Z" fill="#E0E0E0"/>
<path d="M281.112 305.794V307.605H280.734V307.152C280.508 307.492 280.131 307.662 279.735 307.643C279.075 307.643 278.66 307.303 278.66 306.794C278.66 306.341 278.943 305.964 279.791 305.964H280.716V305.776C280.716 305.266 280.433 305.002 279.886 305.002C279.527 305.002 279.188 305.116 278.905 305.342L278.735 305.04C279.075 304.776 279.49 304.644 279.923 304.644C280.489 304.569 281.017 304.946 281.093 305.512C281.093 305.587 281.093 305.681 281.093 305.776M280.697 306.7V306.228H279.791C279.226 306.228 279.037 306.455 279.037 306.756C279.037 307.096 279.301 307.303 279.773 307.303C280.169 307.322 280.546 307.077 280.697 306.7Z" fill="#E0E0E0"/>
<path d="M281.791 307.265L281.96 306.945C282.262 307.152 282.62 307.284 282.997 307.265C283.563 307.265 283.79 307.077 283.79 306.794C283.79 306.04 281.904 306.624 281.904 305.474C281.904 305.002 282.319 304.644 283.054 304.644C283.412 304.644 283.771 304.738 284.091 304.908L283.922 305.229C283.676 305.059 283.375 304.965 283.054 304.984C282.526 304.984 282.3 305.191 282.3 305.474C282.3 306.266 284.186 305.662 284.186 306.794C284.186 307.303 283.733 307.624 282.979 307.624C282.545 307.624 282.13 307.511 281.791 307.265Z" fill="#E0E0E0"/>
<path d="M284.506 307.265L284.676 306.945C284.978 307.152 285.336 307.284 285.713 307.265C286.279 307.265 286.505 307.077 286.505 306.794C286.505 306.04 284.619 306.624 284.619 305.474C284.619 305.002 285.034 304.644 285.77 304.644C286.128 304.644 286.486 304.738 286.807 304.908L286.637 305.229C286.373 305.059 286.09 304.965 285.77 304.984C285.242 304.984 285.015 305.191 285.015 305.474C285.015 306.266 286.901 305.662 286.901 306.794C286.901 307.303 286.449 307.624 285.694 307.624C285.261 307.624 284.846 307.511 284.506 307.265Z" fill="#E0E0E0"/>
<path d="M291.842 304.663L290.73 307.586H290.353L289.428 305.191L288.504 307.586H288.127L287.033 304.663H287.41L288.335 307.152L289.278 304.663H289.617L290.541 307.152L291.465 304.663H291.842Z" fill="#E0E0E0"/>
<path d="M292.069 306.134C292.069 305.323 292.729 304.644 293.558 304.644C294.369 304.644 295.048 305.304 295.048 306.134C295.048 306.945 294.388 307.605 293.558 307.624C292.766 307.661 292.106 307.039 292.069 306.247C292.069 306.209 292.069 306.172 292.069 306.153M294.633 306.153C294.615 305.549 294.105 305.097 293.502 305.116C292.898 305.134 292.446 305.644 292.465 306.247C292.484 306.832 292.974 307.284 293.558 307.284C294.143 307.284 294.633 306.832 294.652 306.247C294.652 306.209 294.652 306.19 294.652 306.153" fill="#E0E0E0"/>
<path d="M297.311 304.663V305.04H297.217C296.689 305.021 296.255 305.417 296.237 305.926C296.237 305.983 296.237 306.04 296.237 306.115V307.605H295.84V304.682H296.218V305.248C296.425 304.852 296.859 304.606 297.311 304.644" fill="#E0E0E0"/>
<path d="M300.649 303.475V307.586H300.272V307.001C300.027 307.397 299.593 307.624 299.141 307.605C298.33 307.567 297.67 306.888 297.707 306.058C297.726 305.285 298.368 304.663 299.141 304.625C299.593 304.625 300.008 304.833 300.253 305.21V303.456H300.649V303.475ZM300.253 306.134C300.235 305.53 299.725 305.078 299.122 305.097C298.518 305.116 298.066 305.625 298.085 306.228C298.104 306.813 298.594 307.265 299.178 307.265C299.763 307.265 300.253 306.813 300.253 306.209C300.253 306.19 300.253 306.153 300.253 306.134Z" fill="#E0E0E0"/>
<path d="M303.516 304.701C303.516 304.305 303.195 304.022 302.63 304.022C302.234 304.003 301.838 304.173 301.574 304.474L301.272 304.248C301.611 303.852 302.139 303.645 302.649 303.663C303.422 303.663 303.931 304.041 303.931 304.625C303.931 305.568 302.913 305.625 302.913 306.417H302.498C302.498 305.512 303.516 305.417 303.516 304.682M302.422 307.322C302.422 307.152 302.573 307.039 302.743 307.058C302.894 307.058 303.007 307.19 303.007 307.322C303.007 307.492 302.856 307.605 302.686 307.586C302.535 307.586 302.422 307.454 302.422 307.322Z" fill="#E0E0E0"/>
<path d="M258.255 195.81V203.052H257.406L253.068 197.64V203.052H252.012V195.81H252.861L257.198 201.223V195.81H258.236H258.255Z" fill="#263238"/>
<path d="M260.122 195.886C260.122 195.527 260.423 195.226 260.782 195.226C261.14 195.226 261.423 195.546 261.404 195.905C261.404 196.263 261.083 196.546 260.725 196.527C260.386 196.527 260.103 196.225 260.103 195.886M260.273 197.583H261.272V203.071H260.273V197.583Z" fill="#263238"/>
<path d="M262.668 200.318C262.63 198.809 263.837 197.545 265.345 197.526C265.421 197.526 265.496 197.526 265.553 197.526C266.458 197.47 267.307 197.922 267.778 198.696L267.024 199.186C266.703 198.677 266.138 198.375 265.534 198.394C264.459 198.432 263.629 199.318 263.667 200.393C263.705 201.411 264.516 202.222 265.534 202.26C266.138 202.26 266.703 201.977 267.024 201.468L267.778 201.939C267.307 202.713 266.458 203.165 265.553 203.109C264.044 203.184 262.743 202.034 262.649 200.525C262.649 200.45 262.649 200.374 262.649 200.318" fill="#263238"/>
<path d="M271.135 200.506L270.004 201.562V203.071H269.004V195.395H270.004V200.318L273.002 197.583H274.209L271.908 199.846L274.454 203.071H273.229L271.173 200.506H271.135Z" fill="#263238"/>
<path d="M280.47 199.903V203.052H279.735V199.978C279.867 199.148 279.282 198.375 278.452 198.243C278.339 198.243 278.207 198.224 278.094 198.243C277.113 198.168 276.265 198.903 276.189 199.884C276.189 199.997 276.189 200.091 276.189 200.204V203.052H275.454V197.602H276.152V198.601C276.604 197.904 277.396 197.508 278.226 197.564C279.377 197.47 280.376 198.319 280.47 199.45C280.47 199.601 280.47 199.752 280.47 199.884" fill="#263238"/>
<path d="M286.581 199.695V203.071H285.883V202.222C285.468 202.845 284.751 203.184 284.016 203.128C282.79 203.128 282.036 202.486 282.036 201.543C282.036 200.695 282.583 199.997 284.129 199.997H285.864V199.658C285.864 198.733 285.336 198.224 284.318 198.224C283.657 198.224 283.016 198.451 282.507 198.865L282.168 198.319C282.79 197.828 283.582 197.564 284.374 197.583C285.43 197.432 286.411 198.149 286.562 199.205C286.581 199.356 286.581 199.525 286.562 199.695M285.826 201.43V200.544H284.11C283.054 200.544 282.715 200.959 282.715 201.525C282.715 202.166 283.224 202.543 284.091 202.543C284.846 202.581 285.543 202.147 285.826 201.43Z" fill="#263238"/>
<path d="M297.557 199.903V203.052H296.821V199.978C296.821 198.828 296.237 198.243 295.256 198.243C294.294 198.187 293.464 198.941 293.427 199.903C293.427 199.997 293.427 200.11 293.427 200.204V203.052H292.691V199.978C292.691 198.828 292.106 198.243 291.126 198.243C290.164 198.205 289.334 198.941 289.296 199.922C289.296 200.016 289.296 200.11 289.296 200.223V203.071H288.561V197.621H289.259V198.62C289.692 197.941 290.447 197.545 291.258 197.583C292.088 197.526 292.861 197.979 293.2 198.733C293.653 197.979 294.483 197.545 295.35 197.583C296.482 197.489 297.462 198.337 297.557 199.469C297.557 199.62 297.557 199.771 297.557 199.903Z" fill="#263238"/>
<path d="M304.308 200.563H299.744C299.82 201.675 300.763 202.524 301.875 202.449C302.516 202.467 303.12 202.203 303.535 201.732L303.95 202.203C302.856 203.354 301.027 203.392 299.876 202.298C299.329 201.77 299.009 201.072 298.99 200.318C298.914 198.865 300.027 197.64 301.46 197.564C301.517 197.564 301.574 197.564 301.649 197.564C303.082 197.545 304.27 198.677 304.289 200.11C304.289 200.186 304.289 200.261 304.289 200.336C304.289 200.393 304.289 200.487 304.289 200.563M299.725 200.016H303.591C303.516 198.941 302.592 198.149 301.517 198.224C300.555 198.3 299.782 199.054 299.725 200.016Z" fill="#263238"/>
<path d="M271.06 316.11L271.248 315.714C271.569 315.978 271.984 316.129 272.399 316.129C273.002 316.129 273.266 315.903 273.266 315.582C273.266 314.734 271.135 315.262 271.135 313.96C271.135 313.413 271.55 312.961 272.474 312.961C272.87 312.961 273.266 313.055 273.606 313.281L273.436 313.677C273.153 313.489 272.814 313.395 272.474 313.395C271.871 313.395 271.626 313.64 271.626 313.96C271.626 314.809 273.757 314.281 273.757 315.582C273.757 316.129 273.323 316.582 272.399 316.582C271.908 316.582 271.437 316.431 271.06 316.148" fill="#5238A0"/>
<path d="M274.36 313.036C274.36 312.867 274.511 312.716 274.681 312.716C274.85 312.716 275.001 312.848 275.001 313.017C275.001 313.206 274.869 313.338 274.681 313.357C274.492 313.357 274.36 313.225 274.341 313.036M274.436 313.866H274.926V316.525H274.436V313.866Z" fill="#5238A0"/>
<path d="M278.396 313.866V316.167C278.49 316.827 278.038 317.449 277.378 317.543C277.264 317.543 277.132 317.543 277.019 317.543C276.567 317.562 276.114 317.43 275.756 317.147L275.982 316.77C276.265 316.997 276.642 317.129 277 317.11C277.623 317.11 277.906 316.827 277.906 316.223V316.016C277.66 316.299 277.302 316.45 276.944 316.431C276.227 316.469 275.624 315.922 275.586 315.205C275.548 314.488 276.095 313.885 276.812 313.847C276.849 313.847 276.906 313.847 276.944 313.847C277.321 313.847 277.679 313.998 277.924 314.281V313.866H278.377H278.396ZM277.924 315.13C277.943 314.62 277.566 314.187 277.057 314.168C276.548 314.149 276.114 314.526 276.095 315.035C276.076 315.544 276.453 315.978 276.963 315.997C276.963 315.997 277 315.997 277.019 315.997C277.491 316.035 277.887 315.676 277.924 315.205C277.924 315.167 277.924 315.148 277.924 315.111" fill="#5238A0"/>
<path d="M281.847 314.998V316.525H281.357V315.054C281.357 314.526 281.093 314.281 280.64 314.281C280.206 314.243 279.829 314.583 279.791 315.016C279.791 315.073 279.791 315.111 279.791 315.167V316.544H279.301V313.885H279.754V314.281C279.98 313.998 280.338 313.828 280.716 313.847C281.281 313.809 281.772 314.224 281.828 314.79C281.828 314.866 281.828 314.922 281.828 314.998" fill="#5238A0"/>
<path d="M286.581 313.866V316.525H286.128V316.129C285.921 316.412 285.581 316.563 285.223 316.563C284.657 316.619 284.129 316.205 284.073 315.62C284.073 315.544 284.073 315.469 284.073 315.394V313.866H284.563V315.337C284.563 315.865 284.827 316.129 285.279 316.129C285.713 316.148 286.09 315.827 286.109 315.394C286.109 315.337 286.109 315.299 286.109 315.243V313.866H286.6H286.581Z" fill="#5238A0"/>
<path d="M290.258 315.186C290.296 315.903 289.749 316.506 289.032 316.544C288.995 316.544 288.938 316.544 288.9 316.544C288.542 316.544 288.203 316.393 287.976 316.11V317.487H287.486V313.847H287.939V314.262C288.165 313.96 288.504 313.809 288.882 313.809C289.598 313.772 290.202 314.338 290.221 315.035C290.221 315.073 290.221 315.111 290.221 315.148M289.73 315.148C289.711 314.658 289.278 314.281 288.787 314.3C288.297 314.319 287.92 314.752 287.939 315.243C287.957 315.714 288.353 316.091 288.825 316.091C289.315 316.091 289.711 315.714 289.73 315.224C289.73 315.205 289.73 315.167 289.73 315.148Z" fill="#5238A0"/>
<path d="M271.437 285.54L271.663 285.031C272.003 285.276 272.399 285.408 272.814 285.408C273.361 285.408 273.587 285.22 273.587 284.956C273.587 284.201 271.494 284.692 271.494 283.39C271.494 282.825 271.946 282.334 272.908 282.334C273.323 282.334 273.719 282.429 274.077 282.655L273.87 283.164C273.568 282.994 273.247 282.9 272.908 282.881C272.361 282.881 272.154 283.089 272.154 283.353C272.154 284.107 274.247 283.617 274.247 284.899C274.247 285.465 273.794 285.936 272.833 285.936C272.342 285.936 271.852 285.804 271.456 285.521" fill="white"/>
<path d="M274.737 282.41C274.737 282.202 274.907 282.032 275.114 282.032C275.114 282.032 275.114 282.032 275.133 282.032C275.341 282.032 275.529 282.183 275.529 282.391C275.529 282.617 275.36 282.787 275.133 282.806C274.907 282.806 274.737 282.636 274.718 282.41M274.813 283.221H275.435V285.899H274.813V283.221Z" fill="white"/>
<path d="M278.943 283.239V285.521C279.037 286.219 278.547 286.841 277.849 286.936C277.736 286.936 277.604 286.936 277.491 286.936C277.019 286.955 276.567 286.823 276.189 286.559L276.472 286.087C276.755 286.295 277.114 286.408 277.453 286.408C278.038 286.408 278.302 286.144 278.302 285.597V285.465C278.075 285.71 277.736 285.842 277.396 285.823C276.68 285.861 276.076 285.314 276.039 284.597C276.001 283.881 276.548 283.277 277.264 283.239C277.302 283.239 277.359 283.239 277.396 283.239C277.755 283.221 278.094 283.353 278.321 283.617V283.258H278.924L278.943 283.239ZM278.321 284.503C278.339 284.05 278 283.654 277.547 283.635C277.095 283.617 276.699 283.956 276.68 284.409C276.661 284.861 277 285.257 277.453 285.276C277.453 285.276 277.491 285.276 277.51 285.276C277.924 285.314 278.283 284.993 278.321 284.578C278.321 284.56 278.321 284.522 278.321 284.503Z" fill="white"/>
<path d="M282.413 284.39V285.936H281.79V284.484C281.79 284.013 281.564 283.767 281.149 283.767C280.753 283.749 280.414 284.032 280.395 284.428C280.395 284.484 280.395 284.522 280.395 284.578V285.936H279.773V283.258H280.376V283.598C280.621 283.334 280.942 283.202 281.3 283.221C281.885 283.183 282.375 283.617 282.432 284.182C282.432 284.258 282.432 284.314 282.432 284.39" fill="white"/>
<path d="M284.525 282.41C284.525 282.202 284.695 282.032 284.902 282.032C284.902 282.032 284.902 282.032 284.921 282.032C285.129 282.032 285.317 282.183 285.317 282.391C285.317 282.617 285.147 282.787 284.921 282.806C284.695 282.806 284.525 282.636 284.506 282.41M284.601 283.221H285.223V285.899H284.601V283.221Z" fill="white"/>
<path d="M288.693 284.39V285.936H288.071V284.484C288.071 284.013 287.844 283.767 287.429 283.767C287.033 283.749 286.694 284.032 286.675 284.428C286.675 284.484 286.675 284.522 286.675 284.578V285.936H286.053V283.258H286.656V283.598C286.901 283.334 287.222 283.202 287.58 283.221C288.165 283.183 288.655 283.617 288.712 284.182C288.712 284.258 288.712 284.314 288.712 284.39" fill="white"/>
</g>
<mask id="mask3_58_638" style="mask-type:luminance" maskUnits="userSpaceOnUse" x="-65" y="0" width="477" height="465">
<path d="M411.634 0H-64.3656V465H411.634V0Z" fill="white"/>
</mask>
<g mask="url(#mask3_58_638)">
<path d="M301.234 157.546C297.33 174.311 280.565 184.74 263.78 180.836C246.996 176.933 236.586 160.167 240.489 143.383C244.393 126.618 261.159 116.189 277.943 120.092C294.709 123.996 305.138 140.762 301.234 157.546Z" fill="#5238A0"/>
<path d="M278.415 165.146L257.576 160.28L258.179 157.716C259.575 151.983 265.346 148.456 271.098 149.833C276.774 151.209 280.301 156.867 279.018 162.562L278.434 165.127L278.415 165.146Z" fill="white"/>
<path d="M278.415 145.778C277.623 149.154 274.247 151.266 270.871 150.474C267.495 149.682 265.383 146.306 266.175 142.93C266.967 139.555 270.343 137.443 273.719 138.235C277.095 139.027 279.207 142.402 278.415 145.778Z" fill="white"/>
<path d="M259.103 179.083C259.103 179.083 257.595 173.01 256.425 171.992C254.407 170.257 252.823 168.069 251.824 165.617C251.409 164.052 250.221 164.354 250.221 164.354L251.277 170.37L241.168 161.714C240.621 162.808 240.64 164.109 241.206 165.184C242.168 167.107 241.772 166.881 241.772 166.881C241.772 166.881 240.282 167.466 240.753 168.786C241.149 169.804 241.602 170.822 242.111 171.784C241.282 172.482 240.829 173.519 240.867 174.594C240.395 175.499 240.169 176.518 240.169 177.536C240.169 179.309 242.715 183.118 242.715 183.118L257.01 193.208L264.723 183.345L259.103 179.064V179.083Z" fill="#B78876"/>
<path d="M247.882 167.466C249.693 169.427 251.71 171.2 253.879 172.765C252.069 170.804 250.051 169.031 247.882 167.466Z" fill="#AA6550"/>
<path d="M241.677 166.183C243.148 168.673 244.827 171.03 246.732 173.218C245.261 170.728 243.582 168.371 241.677 166.183Z" fill="#AA6550"/>
<path d="M241.677 171.124C242.243 172.614 243.054 173.991 244.091 175.198C243.526 173.708 242.715 172.331 241.677 171.124Z" fill="#AA6550"/>
<path d="M240.848 174.311C240.753 174.368 240.999 174.953 241.338 175.65C241.678 176.348 241.96 176.914 242.074 176.876C242.187 176.838 242.055 176.197 241.715 175.481C241.376 174.764 240.961 174.255 240.867 174.311" fill="#AA6550"/>
<path d="M304.063 114.359C304.233 113.077 304.478 111.814 304.855 110.569C305.044 109.984 305.364 109.456 305.817 109.022C306.288 108.57 306.911 108.853 307.288 109.513C308.702 112.606 308.702 116.132 307.288 119.225C306.892 119.866 306.288 120.149 305.817 119.715C305.383 119.282 305.044 118.754 304.855 118.169C304.497 116.924 304.233 115.661 304.063 114.378C303.969 114.718 303.95 115.076 303.988 115.434C303.988 116.415 304.157 117.377 304.44 118.301C304.629 118.98 304.987 119.602 305.477 120.111C305.817 120.432 306.307 120.545 306.741 120.413C307.156 120.243 307.514 119.942 307.759 119.546C309.362 116.283 309.362 112.455 307.759 109.192C307.514 108.796 307.175 108.494 306.741 108.325C306.288 108.193 305.798 108.306 305.477 108.626C304.987 109.136 304.61 109.758 304.44 110.437C304.157 111.361 304.006 112.342 303.988 113.303C303.95 113.662 303.988 114.02 304.063 114.359Z" fill="#263238"/>
<path d="M331.126 162.374C324.657 162.883 318.999 158.055 318.471 151.587C318.471 151.436 318.452 151.285 318.452 151.134C318.188 144.741 317.962 138.272 317.962 138.272C317.962 138.272 308.269 137.386 307.533 127.806C306.798 118.225 307.062 96.0664 307.062 96.0664C317.868 90.5785 330.805 91.3706 340.857 98.1409L340.348 131.917L340.404 150.078C340.366 156.169 337.198 161.902 331.126 162.374Z" fill="#B78876"/>
<path d="M318.792 122.054C318.792 122.054 318.754 122.242 318.924 122.469C319.188 122.789 319.584 122.997 319.999 122.997C321.394 122.902 322.488 121.752 322.469 120.338C322.507 119.602 322.262 118.867 321.753 118.32C321.357 117.886 320.829 117.584 320.244 117.452C319.263 117.245 318.679 117.622 318.735 117.679C318.754 117.792 319.32 117.641 320.112 117.924C321.149 118.263 321.828 119.225 321.772 120.319C321.772 121.394 321.017 122.318 319.98 122.525C319.169 122.582 318.848 121.997 318.773 122.073" fill="#AA6550"/>
<path d="M304.025 113.907C308.287 115.019 312.644 115.736 317.038 116.038C312.776 114.925 308.419 114.209 304.025 113.907Z" fill="#263238"/>
<path d="M359.678 116.208C359.753 112.285 357.207 108.777 353.455 107.627C355.114 105.27 354.548 102.007 352.191 100.347C351.55 99.8948 350.814 99.593 350.041 99.461C349.683 99.4044 349.343 99.3667 348.985 99.3667C348.834 99.1593 348.646 98.9707 348.457 98.801C345.458 96.1419 345.175 92.0307 341.743 89.9751C338.367 87.9006 334.124 87.8817 330.711 89.8996C328.448 88.7681 326.335 87.2971 324.072 86.1467C320.961 84.5626 317.151 83.6197 314.02 85.2038C311.776 86.3353 310.286 88.5795 308.118 89.8242C305.025 91.5969 300.8 91.2197 299.311 95.7647C298.801 97.3488 298.82 99.065 299.367 100.649C301.668 106.439 308.231 109.249 314.02 106.929C314.247 106.835 314.492 106.74 314.718 106.627C314.285 108.853 314.36 111.153 314.926 113.341C315.284 114.397 315.416 116.019 317.076 116.038C318.547 113.907 321.394 113.266 323.62 114.586C325.864 116.132 326.675 119.074 325.506 121.545C324.506 123.336 322.809 124.637 320.81 125.109C318.98 125.505 317.736 127.221 317.943 129.088C318.226 131.502 322.243 132.388 324.053 134.369C326.882 137.461 333.049 138.763 337.217 139.234C340.744 139.649 340.857 139.724 342.365 137.575C343.478 137.575 344.591 137.405 345.647 137.065C350.871 135.104 353.907 129.635 352.776 124.166C356.623 123.355 359.471 120.092 359.735 116.17" fill="#263238"/>
<path d="M339.97 119.923C339.556 120.074 339.122 120.168 338.669 120.206C337.443 120.338 336.217 120.168 335.086 119.696C333.37 119.036 331.974 117.735 331.22 116.057C330.277 114.001 330.296 111.625 331.276 109.588L331.371 109.4L331.484 109.55C329.315 109.814 327.109 109.664 324.978 109.136C323.224 108.664 321.696 107.646 320.583 106.212C319.829 105.251 319.376 104.1 319.282 102.893C319.244 102.46 319.282 102.007 319.376 101.592C319.339 102.026 319.339 102.46 319.358 102.893C319.49 104.081 319.942 105.194 320.697 106.118C321.79 107.514 323.299 108.494 325.015 108.947C327.109 109.475 329.296 109.607 331.446 109.343H331.635L331.54 109.494L331.446 109.664C330.484 111.644 330.466 113.945 331.371 115.944C332.106 117.584 333.464 118.867 335.124 119.527C336.236 119.998 337.443 120.187 338.65 120.092C339.499 120.017 339.952 119.866 339.952 119.885" fill="#455A64"/>
<path d="M348.193 111.927C348.193 111.927 348.551 111.587 349.06 110.852C349.758 109.814 350.192 108.626 350.324 107.382C350.55 105.534 350.06 103.685 348.966 102.196C347.533 100.423 345.383 99.3856 343.101 99.3667C342.177 99.3667 341.253 99.5176 340.404 99.8759L340.272 99.9325V99.8005C339.989 97.8769 338.952 96.1419 337.387 95.0104C336.123 94.1051 334.596 93.6525 333.049 93.728C332.012 93.7657 331.012 94.0297 330.088 94.4823C329.447 94.8029 329.127 95.0669 329.108 95.0481C329.391 94.8029 329.711 94.5955 330.051 94.4257C330.975 93.9354 331.993 93.6525 333.03 93.596C334.614 93.5017 336.199 93.9543 337.481 94.8783C339.103 96.0476 340.178 97.8203 340.442 99.8005L340.291 99.7062C341.177 99.3479 342.12 99.1593 343.082 99.1781C345.421 99.1781 347.646 100.272 349.098 102.101C350.23 103.629 350.72 105.552 350.456 107.438C350.305 108.702 349.834 109.909 349.098 110.927C348.834 111.304 348.514 111.644 348.155 111.946" fill="#455A64"/>
<path d="M338.82 127.07C338.707 127.164 338.575 127.259 338.443 127.334C338.066 127.542 337.632 127.693 337.198 127.73C336.519 127.825 335.84 127.73 335.218 127.485C334.407 127.183 333.728 126.618 333.294 125.863L333.445 125.901C332.804 126.448 332.069 126.863 331.276 127.146C330.183 127.523 328.995 127.579 327.863 127.353C326.939 127.146 326.071 126.75 325.336 126.165C324.827 125.788 324.393 125.316 324.035 124.807C323.903 124.619 323.789 124.411 323.695 124.204C324.167 124.901 324.751 125.524 325.43 126.033C327.09 127.278 329.24 127.598 331.201 126.938C331.974 126.674 332.691 126.278 333.294 125.75L333.389 125.675L333.445 125.788C333.841 126.504 334.482 127.051 335.256 127.353C335.859 127.598 336.519 127.693 337.16 127.636C337.745 127.561 338.292 127.391 338.801 127.089" fill="#455A64"/>
<path d="M354.492 115.472C353.7 113.775 352.153 112.568 350.324 112.21C348.532 112.285 346.797 112.832 345.27 113.756C344.987 113.284 344.534 112.926 344.006 112.794C341.63 112.398 339.386 113.982 338.99 116.358C338.763 117.697 339.178 119.074 340.102 120.055C338.009 121.281 337.292 123.959 338.499 126.071C339.706 128.183 342.403 128.881 344.515 127.674C345.27 127.24 345.892 126.58 346.269 125.769C347.967 127.674 350.871 127.843 352.776 126.146C354.435 124.656 354.812 122.205 353.643 120.3C355.001 119.074 355.34 117.075 354.511 115.453" fill="#5238A0"/>
<path d="M343.818 118.81C343.233 118.056 342.535 117.377 341.762 116.811C341.196 116.434 340.574 116.17 339.914 116.038C339.405 115.944 339.084 115.962 339.084 115.925C339.367 115.849 339.65 115.83 339.952 115.887C340.649 115.981 341.309 116.226 341.894 116.622C342.479 117 342.988 117.49 343.403 118.037C343.591 118.263 343.742 118.508 343.837 118.791" fill="white"/>
<path d="M343.704 112.87C343.931 113.058 344.119 113.266 344.27 113.511C344.666 114.077 344.987 114.718 345.213 115.378C345.571 116.302 345.628 117.339 345.364 118.301C345.402 117.339 345.289 116.377 345.006 115.453C344.647 114.548 344.214 113.68 343.686 112.87" fill="white"/>
<path d="M347.985 112.53C348.4 113.228 348.495 114.058 348.287 114.831C348.136 115.623 347.684 116.321 347.043 116.792C347.514 116.189 347.872 115.51 348.08 114.793C348.212 114.039 348.193 113.284 348.004 112.549" fill="white"/>
<path d="M351.644 112.643C351.889 113.511 351.814 114.435 351.418 115.246C351.135 115.83 350.701 116.302 350.135 116.622C349.928 116.773 349.664 116.868 349.4 116.886C350.173 116.509 350.795 115.906 351.21 115.17C351.437 114.623 351.588 114.02 351.625 113.416C351.663 112.945 351.625 112.662 351.625 112.662" fill="white"/>
<path d="M338.575 121.545C339.141 121.111 339.838 120.903 340.555 120.941C341.253 120.866 341.969 120.998 342.592 121.318C341.913 121.224 341.234 121.167 340.555 121.167C339.876 121.205 339.197 121.337 338.556 121.563" fill="white"/>
<path d="M338.575 126.203C338.575 125.958 338.669 125.712 338.782 125.505C339.009 124.939 339.367 124.449 339.838 124.072C340.536 123.562 341.423 123.393 342.271 123.619C341.46 123.619 340.668 123.827 339.97 124.241C339.537 124.6 339.178 125.052 338.914 125.562C338.82 125.788 338.707 125.995 338.575 126.203Z" fill="white"/>
<path d="M364.336 123.921C364.713 123.883 365.072 123.808 365.43 123.713C366.392 123.374 367.222 122.733 367.768 121.865C368.617 120.602 368.825 119.018 368.297 117.603C367.655 115.868 366.316 114.473 364.619 113.737C362.903 113.039 361.036 112.851 359.207 113.171C357.717 113.416 356.265 113.869 354.888 114.491C353.7 115.019 352.776 115.491 352.134 115.812L351.399 116.189C351.399 116.189 351.229 116.283 351.135 116.302C351.21 116.245 351.286 116.189 351.38 116.151L352.116 115.736C352.757 115.397 353.662 114.887 354.85 114.341C356.227 113.699 357.679 113.228 359.188 112.964C361.055 112.624 362.959 112.813 364.713 113.53C366.467 114.284 367.844 115.736 368.485 117.528C369.013 119.018 368.787 120.658 367.882 121.941C367.316 122.808 366.448 123.468 365.449 123.77C365.091 123.883 364.713 123.94 364.336 123.902" fill="#455A64"/>
<path d="M364.827 124.091C367.863 123.468 369.277 119.414 367.844 116.66C366.166 113.963 363.091 112.474 359.942 112.851C356.868 113.266 353.926 114.435 351.399 116.245C349.079 115.321 346.439 116.321 345.326 118.546C342.686 118.263 340.31 120.168 340.008 122.808C339.763 125.147 341.234 127.334 343.497 127.975C340.046 130.767 339.499 135.821 342.271 139.272C345.062 142.723 350.117 143.27 353.568 140.498C354.605 139.649 355.435 138.574 355.944 137.329C359.791 139.498 364.657 138.121 366.826 134.274C368.749 130.842 367.901 126.523 364.808 124.072" fill="#263238"/>
<path d="M367.712 130.257C367.787 130.616 367.787 130.993 367.674 131.351C367.391 132.37 366.656 133.218 365.694 133.671C364.242 134.369 362.601 134.576 361.017 134.237C358.98 133.841 357.17 132.652 356.001 130.917L356.189 130.861C356.076 132.558 355.095 134.086 353.587 134.897C351.984 135.783 350.022 135.802 348.4 134.934C347.024 134.255 345.911 133.143 345.232 131.747C344.911 131.087 344.761 130.352 344.761 129.616C344.761 128.9 345.025 128.202 345.515 127.674L345.609 127.843C343.026 128.39 340.498 126.75 339.952 124.166C339.631 122.638 340.084 121.035 341.159 119.885C341.969 119.055 343.063 118.546 344.214 118.452C344.629 118.395 345.043 118.433 345.44 118.527C345.043 118.489 344.629 118.471 344.233 118.527C343.101 118.659 342.045 119.168 341.253 119.979C339.518 121.846 339.612 124.769 341.479 126.504C342.573 127.542 344.119 127.957 345.59 127.636L345.911 127.561L345.685 127.806C344.836 128.918 344.742 130.446 345.44 131.653C346.1 132.992 347.175 134.067 348.514 134.727C350.079 135.557 351.946 135.538 353.492 134.689C354.926 133.916 355.869 132.464 356.001 130.842V130.521L356.189 130.785C357.321 132.464 359.075 133.633 361.074 134.048C362.62 134.387 364.242 134.218 365.656 133.539C366.599 133.105 367.316 132.313 367.618 131.313C367.712 130.955 367.75 130.597 367.712 130.238" fill="#455A64"/>
<path d="M365.788 122.94C366.015 122.638 366.184 122.261 366.241 121.884C366.373 120.828 365.939 119.772 365.109 119.112C362.356 116.736 358.226 116.943 355.718 119.583C355.322 119.998 354.982 120.451 354.718 120.96L354.53 121.299V120.922C354.398 119.206 353.436 117.641 351.927 116.792C350.72 116.113 349.268 115.981 347.967 116.453C347.099 116.754 346.307 117.264 345.704 117.961C345.27 118.452 345.119 118.791 345.1 118.772C345.232 118.452 345.421 118.169 345.647 117.905C346.25 117.169 347.043 116.622 347.929 116.302C349.268 115.793 350.777 115.906 352.04 116.604C353.605 117.49 354.624 119.112 354.737 120.903L354.53 120.847C354.812 120.338 355.171 119.866 355.567 119.432C356.925 117.98 358.848 117.188 360.847 117.245C362.469 117.301 364.016 117.905 365.223 118.98C366.071 119.678 366.505 120.79 366.335 121.884C366.279 122.167 366.165 122.45 365.996 122.695C365.939 122.789 365.864 122.865 365.788 122.921" fill="#455A64"/>
<path d="M365.656 132.52C365.656 132.822 365.619 133.124 365.543 133.426C365.355 134.274 364.996 135.066 364.487 135.764C363.695 136.858 362.563 137.65 361.262 138.008C359.584 138.461 357.773 138.197 356.302 137.292L356.434 137.254C354.869 140.215 351.852 142.101 348.514 142.176C345.553 142.176 342.762 140.743 341.064 138.31C339.612 136.368 339.141 133.878 339.782 131.54C340.253 129.974 341.498 128.749 343.063 128.296C343.478 128.183 343.912 128.126 344.346 128.164C344.497 128.164 344.647 128.202 344.798 128.239C344.233 128.164 343.648 128.221 343.082 128.371C341.555 128.843 340.366 130.05 339.914 131.577C339.31 133.859 339.782 136.292 341.215 138.178C342.894 140.554 345.609 141.95 348.495 141.95C350.173 141.912 351.795 141.403 353.209 140.479C354.492 139.649 355.529 138.499 356.246 137.16L356.302 137.065L356.397 137.122C357.83 138.027 359.584 138.291 361.206 137.857C362.469 137.518 363.582 136.764 364.374 135.708C364.883 135.029 365.26 134.255 365.468 133.426C365.6 132.86 365.619 132.539 365.637 132.539" fill="#455A64"/>
<path d="M359.772 125.354C359.659 125.58 359.508 125.769 359.339 125.958C358.867 126.467 358.301 126.863 357.66 127.127C356.698 127.523 355.623 127.579 354.624 127.259C353.398 126.882 352.361 126.014 351.776 124.864L351.908 124.92C351.757 124.977 351.606 125.052 351.437 125.09C350.154 125.486 348.759 125.373 347.552 124.769C346.571 124.279 345.779 123.487 345.308 122.506C344.987 121.846 344.798 121.149 344.779 120.413C344.779 120.149 344.779 119.885 344.836 119.621C344.798 120.602 345.006 121.563 345.44 122.431C345.93 123.374 346.684 124.128 347.646 124.581C348.815 125.147 350.135 125.241 351.38 124.864C351.531 124.826 351.682 124.751 351.814 124.713L351.908 124.675L351.946 124.769C352.512 125.863 353.492 126.693 354.662 127.07C355.623 127.372 356.642 127.334 357.585 126.976C358.433 126.636 359.188 126.071 359.753 125.354" fill="#455A64"/>
<path d="M371.239 393.639L374.275 449.97L353.869 454.892L349.815 399.881L371.239 393.639Z" fill="#B78876"/>
<path d="M374.878 449.479L378.348 464.755H354.869L353.869 454.797L374.878 449.479Z" fill="#5238A0"/>
<path d="M354.398 462.548C355.529 462.737 356.679 462.794 357.811 462.737C359.923 462.756 362.846 462.699 366.071 462.586L374.313 462.228C375.463 462.228 376.595 462.152 377.726 461.964C376.595 461.775 375.444 461.719 374.313 461.775C372.2 461.775 369.277 461.813 366.052 461.926L357.811 462.266C356.661 462.266 355.529 462.341 354.398 462.53" fill="#263238"/>
<path d="M364.336 452.459C364.129 455.759 364.336 459.078 364.996 462.322C365.204 459.022 364.996 455.703 364.336 452.459Z" fill="#263238"/>
<g opacity="0.6">
<mask id="mask4_58_638" style="mask-type:luminance" maskUnits="userSpaceOnUse" x="354" y="461" width="25" height="4">
<path d="M378.348 461.964H354.643V464.774H378.348V461.964Z" fill="white"/>
</mask>
<g mask="url(#mask4_58_638)">
<path d="M378.348 464.774H354.869L354.643 462.548L377.915 461.964L378.33 464.51" fill="white"/>
</g>
</g>
<path d="M293.766 421.021L288.806 458.343L270.739 457.079L274.53 422.87L293.747 421.021H293.766Z" fill="#B78876"/>
<path d="M270.569 453.025C270.569 453.025 250.277 459.889 249.938 463.586L288.731 464.717L289.07 454.571L287.637 454.854C281.885 456.004 275.925 455.363 270.551 453.025" fill="#5238A0"/>
<g opacity="0.6">
<mask id="mask5_58_638" style="mask-type:luminance" maskUnits="userSpaceOnUse" x="282" y="456" width="4" height="4">
<path d="M285.638 456.268H282.62V459.286H285.638V456.268Z" fill="white"/>
</mask>
<g mask="url(#mask5_58_638)">
<path d="M284.544 456.344C285.317 456.608 285.751 457.4 285.581 458.192C285.355 458.965 284.563 459.437 283.771 459.248C282.96 458.965 282.488 458.135 282.677 457.287C282.997 456.495 283.884 456.118 284.695 456.4" fill="white"/>
</g>
</g>
<g opacity="0.6">
<mask id="mask6_58_638" style="mask-type:luminance" maskUnits="userSpaceOnUse" x="249" y="461" width="40" height="4">
<path d="M288.749 461.568H249.938V464.717H288.749V461.568Z" fill="white"/>
</mask>
<g mask="url(#mask6_58_638)">
<path d="M288.75 464.717V461.568L251.541 461.662C251.541 461.662 249.787 462.36 249.957 463.586L288.75 464.717Z" fill="white"/>
</g>
</g>
<path d="M269.947 452.817C269.947 453.006 270.89 453.119 271.814 453.76C272.738 454.401 273.21 455.212 273.379 455.137C273.549 455.099 273.304 453.968 272.191 453.213C271.079 452.459 269.928 452.648 269.966 452.817" fill="#263238"/>
<path d="M265.836 454.383C265.779 454.571 266.59 454.911 267.213 455.721C267.835 456.532 267.986 457.4 268.174 457.4C268.344 457.438 268.514 456.325 267.722 455.325C266.93 454.326 265.836 454.194 265.817 454.383" fill="#263238"/>
<path d="M263.384 459.192C263.554 459.229 263.837 458.305 263.384 457.249C262.932 456.193 262.064 455.759 261.97 455.91C261.875 456.061 262.422 456.646 262.781 457.513C263.139 458.381 263.196 459.173 263.384 459.192Z" fill="#263238"/>
<path d="M270.362 452.723C271.003 452.912 271.663 452.93 272.305 452.761C273.002 452.648 273.7 452.459 274.36 452.195C274.756 452.025 275.133 451.837 275.492 451.629C275.718 451.516 275.925 451.365 276.095 451.195C276.359 450.931 276.397 450.517 276.208 450.196C276.02 449.932 275.718 449.762 275.397 449.743C275.152 449.743 274.907 449.743 274.662 449.819C274.247 449.913 273.832 450.026 273.436 450.196C272.776 450.479 272.154 450.856 271.607 451.327C270.683 452.138 270.362 452.836 270.419 452.874C270.475 452.912 270.966 452.365 271.89 451.705C272.437 451.327 273.021 451.007 273.644 450.781C274.021 450.649 274.398 450.535 274.775 450.46C275.19 450.366 275.529 450.366 275.643 450.554C275.68 450.63 275.68 450.649 275.586 450.762C275.454 450.894 275.303 451.007 275.152 451.082C274.813 451.29 274.473 451.478 274.115 451.648C273.512 451.931 272.87 452.157 272.21 452.308C271.588 452.402 270.966 452.534 270.362 452.723Z" fill="#263238"/>
<path d="M270.607 453.006C270.984 452.459 271.192 451.818 271.173 451.139C271.267 449.988 271.022 448.838 270.513 447.801C270.324 447.273 269.853 446.877 269.306 446.782C268.948 446.782 268.627 446.99 268.476 447.292C268.363 447.518 268.288 447.763 268.25 448.008C268.174 448.442 268.156 448.876 268.212 449.31C268.306 450.045 268.57 450.743 268.985 451.346C269.721 452.384 270.494 452.629 270.513 452.553C270.588 452.459 269.928 452.082 269.381 451.101C269.061 450.535 268.872 449.913 268.816 449.253C268.778 448.876 268.816 448.499 268.891 448.121C268.966 447.707 269.136 447.386 269.287 447.424C269.476 447.424 269.796 447.744 269.947 448.084C270.136 448.423 270.287 448.781 270.4 449.159C270.607 449.781 270.701 450.441 270.72 451.101C270.739 452.233 270.513 452.949 270.626 452.968" fill="#263238"/>
<path d="M356.151 232.095C356.151 232.095 370.465 256.026 370.465 270.321L373.992 444.614L351.361 450.007L334.105 279.675C334.105 279.675 292.295 450.46 290.956 450.46C289.617 450.46 269.023 446.764 269.023 446.764L300.235 232.849L356.132 232.076L356.151 232.095Z" fill="#263238"/>
<path d="M347.231 275.017C347.231 275.168 347.231 275.319 347.269 275.451C347.307 275.771 347.382 276.186 347.457 276.733C347.646 277.884 347.91 279.543 348.231 281.655C348.928 285.917 349.909 292.103 351.059 299.741C353.36 314.979 356.227 336.138 358.641 359.617C361.055 383.096 362.507 404.369 363.355 419.796C363.77 427.509 364.072 433.751 364.261 438.07C364.355 440.201 364.449 441.86 364.487 443.048C364.525 443.595 364.544 444.01 364.562 444.331C364.449 444.331 364.355 444.463 364.374 444.576C364.374 444.689 364.506 444.783 364.619 444.765C364.732 444.765 364.826 444.633 364.808 444.519C364.808 444.425 364.713 444.35 364.619 444.331C364.619 444.01 364.619 443.576 364.619 443.03C364.6 441.86 364.544 440.182 364.506 438.051C364.412 433.732 364.166 427.49 363.808 419.758C363.091 404.313 361.677 383.002 359.282 359.542C356.887 336.082 353.926 314.922 351.512 299.665C350.305 292.028 349.268 285.861 348.495 281.618C348.117 279.524 347.816 277.884 347.589 276.714L347.344 275.451C347.325 275.3 347.288 275.168 347.231 275.017Z" fill="#455A64"/>
<path d="M311.418 277.902C311.248 277.865 304.346 316.129 295.991 363.333C287.637 410.536 281.017 448.857 281.187 448.876C281.357 448.895 288.259 410.668 296.614 363.446C304.968 316.223 311.588 277.94 311.418 277.902Z" fill="#455A64"/>
<path d="M334.897 279.411C334.992 279.279 335.086 279.128 335.124 278.977C335.256 278.694 335.463 278.261 335.708 277.695C336.368 276.092 336.915 274.451 337.387 272.773C338.895 267.228 339.442 261.476 339.009 255.762C338.895 254.084 338.669 252.462 338.405 250.897C338.141 249.331 337.726 247.86 337.33 246.465C336.538 243.674 335.708 241.203 334.992 239.129C334.275 237.054 333.672 235.395 333.219 234.263L332.691 232.962C332.634 232.811 332.559 232.66 332.465 232.509C332.465 232.679 332.521 232.83 332.578 233L333.011 234.339L334.614 239.261C335.275 241.335 336.067 243.825 336.84 246.616C337.217 248.011 337.613 249.463 337.877 251.01C338.141 252.556 338.349 254.159 338.462 255.819C338.895 261.476 338.405 267.191 337.01 272.697C336.482 274.81 335.897 276.488 335.501 277.638C335.256 278.223 335.048 278.826 334.879 279.43" fill="#455A64"/>
<path d="M328.504 250.142C328.485 250.256 328.466 250.369 328.466 250.482C328.466 250.727 328.429 251.029 328.41 251.406C328.372 252.255 328.316 253.424 328.259 254.838C328.146 257.837 328.014 261.986 327.825 266.964L327.976 266.757L319.263 270.302H319.508L312.436 266.021L311.984 265.739L312.116 265.946C311.588 260.194 311.079 254.782 310.645 250.124L310.4 250.388L323.412 250.256L327.127 250.199H328.127C328.24 250.18 328.372 250.161 328.485 250.142C328.07 250.105 327.656 250.086 327.222 250.086L323.563 250.029L310.381 249.897H310.117V250.161C310.55 254.838 311.041 260.232 311.55 266.003V266.135L311.682 266.21L312.135 266.493L319.226 270.793L319.339 270.868L319.471 270.812L328.165 267.21L328.316 267.153V267.002C328.391 261.967 328.466 257.742 328.504 254.725C328.504 253.311 328.504 252.179 328.523 251.33C328.523 250.934 328.523 250.557 328.504 250.161" fill="#455A64"/>
<path d="M361.243 245.541C361.281 245.937 361.319 246.333 361.394 246.71C361.526 247.502 361.677 248.577 361.885 249.897L363.695 261.099L363.789 260.873L357.208 265.757L357.434 265.72L349.438 263.494L349.023 263.381L349.211 263.57C347.684 258.365 346.25 253.462 345.006 249.237L344.836 249.539L356.661 246.729L360.017 245.899C360.81 245.711 361.224 245.579 361.243 245.56C360.847 245.597 360.47 245.673 360.093 245.767L356.755 246.465L344.723 249.067L344.478 249.124L344.553 249.369C345.779 253.594 347.193 258.516 348.702 263.721L348.74 263.872L348.891 263.909L349.306 264.022L357.302 266.229L357.434 266.267L357.528 266.191L364.072 261.269L364.185 261.175V261.043L362.092 249.727C361.847 248.445 361.639 247.389 361.488 246.616C361.432 246.257 361.356 245.899 361.262 245.56" fill="#455A64"/>
<path d="M315.548 276.035C321.922 277.789 328.391 279.204 334.916 280.241C328.542 278.487 322.073 277.073 315.548 276.035Z" fill="#455A64"/>
<path d="M343.686 276.79C344.497 276.903 345.345 276.903 346.156 276.79C348.136 276.62 350.098 276.318 352.04 275.866C353.983 275.432 355.887 274.847 357.736 274.131C358.528 273.867 359.263 273.508 359.961 273.056C359.15 273.225 358.377 273.471 357.604 273.772C356.17 274.244 354.152 274.828 351.908 275.338C349.664 275.847 347.608 276.205 346.1 276.413C345.289 276.469 344.478 276.601 343.667 276.79" fill="#455A64"/>
<path d="M315.605 147.249L318.094 142.119L339.763 141.309L343.158 147.966H315.944" fill="#5238A0"/>
<path d="M262.328 180.818L251.635 191.133L279.037 215.65L287.071 196.734L262.347 180.799L262.328 180.818Z" fill="#5238A0"/>
<path d="M369.032 211.972L348.174 203.674L352.832 186.4L369.843 192.189L369.051 211.991L369.032 211.972Z" fill="#5238A0"/>
<path d="M280.621 216.649C275.416 214.066 274.096 207.861 276.623 202.637L298.236 156.433C298.726 155.283 299.48 154.265 300.404 153.454C305.308 149.097 311.739 146.891 318.283 147.324L340.819 146.74C340.819 146.74 358.528 146.74 365.166 160.695C365.656 161.714 375.953 182.138 382.742 195.584C385.666 201.317 383.384 208.314 377.669 211.237C371.936 214.16 364.94 211.878 362.017 206.164C361.922 205.975 361.828 205.768 361.734 205.579L354.36 189.134L349.72 212.689L356.397 232.095L300.499 232.868L304.798 206.918L306.156 188.399L294.822 211.784C292.276 217.045 285.939 219.233 280.697 216.687C280.659 216.687 280.64 216.649 280.602 216.649" fill="#5238A0"/>
<g opacity="0.2">
<mask id="mask7_58_638" style="mask-type:luminance" maskUnits="userSpaceOnUse" x="315" y="195" width="34" height="20">
<path d="M348.174 195.263H315.963V214.405H348.174V195.263Z" fill="white"/>
</mask>
<g mask="url(#mask7_58_638)">
<path d="M347.853 212.255C343.629 215.423 337.387 214.367 332.163 213.5C326.882 212.727 322.036 210.105 318.509 206.088C316.849 204.353 315.944 202.034 315.963 199.639C316.095 197.168 318.151 195.263 320.621 195.282C323.318 195.603 324.619 198.639 325.92 201.015C330.296 208.691 339.046 212.802 347.74 211.256C347.74 211.256 348.589 211.671 347.835 212.236" fill="black"/>
</g>
</g>
<g opacity="0.2">
<mask id="mask8_58_638" style="mask-type:luminance" maskUnits="userSpaceOnUse" x="304" y="175" width="10" height="36">
<path d="M313.342 175.877H304.421V210.614H313.342V175.877Z" fill="white"/>
</mask>
<g mask="url(#mask8_58_638)">
<path d="M313.342 175.877C312.021 186.513 312.606 185.702 310.4 196.188C309.306 201.336 307.986 206.73 304.421 210.614L306.175 188.418L313.342 175.877Z" fill="black"/>
</g>
</g>
<path d="M356.415 232.113L358.018 227.436L353.851 224.664L302.573 220.44L298.952 227.229L300.517 232.868L356.415 232.113Z" fill="#5238A0"/>
<path d="M354.511 191.416C354.794 192.321 355.171 193.208 355.642 194.038C356.415 195.622 357.566 197.79 358.924 200.091C360.282 202.392 361.639 204.448 362.658 205.881C363.167 206.692 363.752 207.446 364.412 208.144C364.016 207.276 363.525 206.447 362.978 205.673C362.054 204.184 360.753 202.128 359.395 199.808C358.037 197.489 356.849 195.377 355.982 193.849C355.567 192.982 355.076 192.171 354.492 191.397" fill="#263238"/>
<path d="M359.433 200.28C359.093 202.92 359.942 205.56 361.753 207.503C361.885 207.408 360.942 205.975 360.319 203.976C359.697 201.977 359.603 200.28 359.452 200.28" fill="#263238"/>
<path d="M304.176 153.774C304.176 153.774 305.119 154.208 306.515 155.075C310.192 157.339 312.681 161.129 313.285 165.391C313.53 167.013 313.455 168.05 313.549 168.05C313.775 167.164 313.813 166.24 313.662 165.353C313.247 160.884 310.626 156.905 306.703 154.736C305.93 154.246 305.062 153.925 304.176 153.774Z" fill="#263238"/>
<path d="M349.815 212.934C349.966 212.972 352.474 202.26 355.435 189.021C358.396 175.782 360.659 165.014 360.508 164.976C360.357 164.939 357.849 175.65 354.888 188.908C351.927 202.166 349.664 212.915 349.815 212.953" fill="#263238"/>
<path d="M275.586 199.111C277.264 197.583 278.886 196.018 280.452 194.377C278.396 195.452 276.717 197.093 275.586 199.111Z" fill="#263238"/>
<path d="M294.37 212.651C294.69 212.199 294.992 211.727 295.218 211.237C295.746 210.313 296.463 208.955 297.349 207.258C299.122 203.882 301.479 199.186 304.044 193.981C306.609 188.776 308.985 184.08 310.739 180.704L312.814 176.706C313.096 176.235 313.323 175.726 313.53 175.217C313.191 175.65 312.889 176.122 312.625 176.612C312.078 177.517 311.324 178.875 310.4 180.535C308.551 183.873 306.138 188.55 303.573 193.755L297.029 207.107L295.048 211.161C294.784 211.652 294.558 212.142 294.37 212.67" fill="#263238"/>
<path d="M314.53 198.356C314.53 198.356 314.53 198.488 314.53 198.733C314.567 199.092 314.624 199.431 314.699 199.771C314.982 201.034 315.454 202.26 316.095 203.373C318.283 207.088 321.583 210.011 325.524 211.746C329.447 213.406 333.615 214.443 337.858 214.82C339.48 215.009 340.781 215.103 341.687 215.159C342.158 215.216 342.629 215.235 343.101 215.197C342.648 215.065 342.177 214.99 341.705 214.952L337.896 214.424C333.709 213.934 329.636 212.859 325.751 211.237C321.904 209.54 318.641 206.73 316.416 203.165C315.567 201.638 314.926 200.035 314.492 198.337" fill="#263238"/>
<path d="M325.77 225.475C325.77 225.626 332.691 226.229 341.253 226.833C349.815 227.436 356.774 227.795 356.774 227.644C356.774 227.493 349.853 226.89 341.291 226.286C332.729 225.683 325.77 225.324 325.77 225.475Z" fill="#263238"/>
<path d="M316.83 221.307C315.718 224.721 315.322 228.342 315.718 231.925C315.869 231.925 315.944 229.53 316.265 226.607C316.585 223.684 317 221.345 316.849 221.307" fill="#263238"/>
<path d="M313.228 217.969C312.964 218.648 312.813 219.365 312.757 220.082C312.323 223.552 312.568 227.097 313.492 230.473C313.643 231.189 313.888 231.868 314.247 232.509C314.417 232.472 313.436 229.303 313.172 225.287C312.87 221.27 313.398 218.007 313.228 217.969Z" fill="#263238"/>
<path d="M315.548 147.607C315.548 147.758 320.565 147.607 326.731 147.249C332.898 146.891 337.896 146.495 337.877 146.344C337.858 146.193 332.861 146.344 326.694 146.702C320.527 147.06 315.529 147.457 315.548 147.607Z" fill="#263238"/>
<path d="M316.868 147.249C316.623 147.306 316.378 147.343 316.133 147.362L314.039 147.683L310.739 148.267C309.287 148.475 307.872 148.909 306.571 149.55C304.987 150.323 303.497 151.304 302.139 152.454C300.612 153.793 299.329 155.396 298.33 157.169C296.406 161.016 294.445 165.391 292.295 169.917L281.3 193.114L277.924 200.129L276.981 202.015C276.887 202.241 276.755 202.449 276.623 202.656C276.68 202.411 276.774 202.185 276.887 201.958L277.736 200.016L280.961 192.925C283.695 186.947 287.524 178.724 291.805 169.672C293.973 165.146 295.935 160.827 297.896 156.924C298.914 155.113 300.253 153.472 301.838 152.115C303.233 150.945 304.761 149.965 306.401 149.192C307.759 148.569 309.211 148.154 310.682 147.966C311.965 147.758 313.078 147.589 314.002 147.475C314.926 147.362 315.623 147.287 316.114 147.249C316.359 147.211 316.604 147.211 316.849 147.249" fill="#263238"/>
<path d="M300.386 203.316C300.386 203.316 300.235 203.316 300.159 203.316L299.499 203.222C298.933 203.128 298.104 202.996 297.104 202.807C294.464 202.373 291.88 201.6 289.41 200.525C286.939 199.431 284.77 197.734 283.13 195.603C282.451 194.717 281.923 193.717 281.583 192.661C281.602 192.661 281.715 192.944 281.979 193.472C282.338 194.188 282.771 194.886 283.262 195.527C284.921 197.621 287.071 199.261 289.504 200.355C291.956 201.411 294.502 202.185 297.142 202.675L299.518 203.146L300.159 203.278C300.159 203.278 300.31 203.316 300.386 203.335" fill="#FAFAFA"/>
<path d="M276.303 190.926C276.114 191.001 275.907 191.077 275.699 191.114C275.303 191.209 274.756 191.379 274.077 191.624C270.513 192.887 267.439 195.245 265.27 198.337C264.855 198.922 264.553 199.412 264.346 199.771C264.252 199.959 264.139 200.129 264.007 200.299C264.082 200.11 264.157 199.922 264.271 199.733C264.535 199.224 264.818 198.715 265.138 198.243C267.269 195.056 270.381 192.68 274.021 191.473C274.568 191.284 275.114 191.133 275.68 191.02C275.888 190.964 276.095 190.945 276.303 190.926Z" fill="#FAFAFA"/>
<path d="M311.625 177.366C311.625 177.366 311.493 177.366 311.418 177.366L310.814 177.329C310.305 177.291 309.551 177.197 308.646 177.046C303.874 176.235 299.348 174.425 295.312 171.765C294.539 171.256 293.936 170.804 293.54 170.483L293.087 170.106C292.974 170.012 292.936 169.974 292.936 169.974C293.012 169.993 293.068 170.03 293.125 170.087L293.615 170.426C294.03 170.728 294.652 171.143 295.426 171.652C299.48 174.236 303.988 176.028 308.702 176.914C309.607 177.084 310.343 177.197 310.852 177.272L311.437 177.366C311.437 177.366 311.569 177.385 311.644 177.404" fill="#FAFAFA"/>
<path d="M359.112 153.868C359.112 153.868 358.415 153.736 357.151 153.68C355.359 153.604 353.568 153.718 351.795 154.038C349.551 154.397 346.929 155.075 343.987 155.679C340.781 156.358 337.5 156.622 334.237 156.452C330.767 156.32 327.467 155.905 324.487 155.622C321.847 155.339 319.188 155.207 316.51 155.245C314.718 155.283 312.927 155.471 311.173 155.811L309.74 156.15C309.419 156.226 309.23 156.245 309.23 156.245C309.23 156.245 309.4 156.188 309.721 156.094L311.135 155.717C312.908 155.358 314.699 155.132 316.491 155.075C319.15 155.019 321.828 155.132 324.487 155.415C327.486 155.679 330.767 156.075 334.237 156.226C337.5 156.396 340.744 156.132 343.95 155.471C346.892 154.868 349.532 154.208 351.776 153.868C353.549 153.567 355.359 153.472 357.151 153.586C357.641 153.623 358.132 153.68 358.603 153.755C358.924 153.812 359.112 153.85 359.112 153.85" fill="#FAFAFA"/>
<path d="M356.585 180.836C356.585 180.836 356.434 180.855 356.133 180.893L354.812 180.987L349.947 181.327C345.836 181.572 340.159 182.043 333.879 182.175C328.504 182.345 323.129 182.006 317.83 181.138C315.642 180.761 313.474 180.233 311.361 179.535C311.361 179.535 311.512 179.554 311.814 179.648L313.096 179.988C314.209 180.271 315.831 180.648 317.868 181.006C323.167 181.836 328.542 182.157 333.898 181.987C340.178 181.855 345.854 181.421 349.966 181.195L354.831 180.931L356.151 180.874C356.453 180.874 356.623 180.874 356.623 180.874" fill="#FAFAFA"/>
<path d="M376.33 183.401C376.33 183.401 376.236 183.533 376.18 183.571L375.746 184.061C375.369 184.476 374.784 185.061 374.03 185.74C370.069 189.285 365.317 191.793 360.168 193.076C359.188 193.321 358.377 193.472 357.811 193.547L357.17 193.642C357.17 193.642 357.019 193.66 356.943 193.642C357.019 193.604 357.094 193.585 357.17 193.585L357.811 193.453C358.358 193.359 359.169 193.17 360.131 192.906C365.223 191.548 369.956 189.059 373.935 185.589C374.69 184.929 375.293 184.363 375.689 183.967L376.161 183.514C376.161 183.514 376.274 183.401 376.33 183.364" fill="#FAFAFA"/>
<path d="M367.09 167.145C367.09 167.145 367.014 167.258 366.844 167.428C366.599 167.673 366.335 167.899 366.071 168.107C364.298 169.521 362.205 170.502 359.961 170.955C359.621 171.03 359.282 171.068 358.943 171.105C358.811 171.124 358.697 171.124 358.565 171.105C358.565 171.068 359.093 170.992 359.923 170.785C362.111 170.257 364.148 169.295 365.958 167.956C366.656 167.447 367.052 167.088 367.071 167.107" fill="#FAFAFA"/>
<path d="M383.742 200.336C383.139 201.223 382.422 202.053 381.649 202.788C380.8 203.599 379.895 204.334 378.933 204.995C376.538 206.598 373.86 207.71 371.031 208.219C369.881 208.427 368.711 208.54 367.542 208.54C366.467 208.54 365.392 208.465 364.336 208.257C364.412 208.257 364.487 208.257 364.562 208.257L365.204 208.314C365.977 208.389 366.769 208.408 367.542 208.389C372.747 208.257 377.745 206.22 381.554 202.675C382.139 202.147 382.667 201.581 383.176 200.978L383.591 200.487C383.591 200.487 383.685 200.374 383.742 200.318" fill="#FAFAFA"/>
<path d="M341.479 143.458C341.479 143.458 341.309 143.458 341.215 143.458L340.48 143.421L337.82 143.308C335.576 143.232 332.465 143.232 329.032 143.44C325.6 143.647 322.507 144.043 320.282 144.383L317.66 144.816L316.944 144.929C316.944 144.929 316.868 145.043 316.793 145.043C316.717 145.043 316.68 144.967 316.68 144.892C316.68 144.816 316.755 144.779 316.83 144.779C316.887 144.779 316.925 144.835 316.944 144.892L317.66 144.722C318.283 144.59 319.169 144.401 320.282 144.213C326.071 143.213 331.974 142.855 337.839 143.138C338.971 143.194 339.876 143.251 340.498 143.326L341.215 143.402C341.215 143.402 341.385 143.402 341.46 143.44" fill="#FAFAFA"/>
<path d="M314.643 203.052C314.511 203.052 314.379 203.052 314.247 203.052C313.983 203.033 313.624 202.977 313.172 202.901C310.833 202.449 308.608 201.525 306.647 200.167C306.269 199.903 305.987 199.676 305.798 199.507C305.609 199.337 305.496 199.243 305.515 199.224C305.534 199.205 305.987 199.525 306.741 200.016C308.721 201.298 310.909 202.222 313.21 202.731C314.096 202.939 314.643 203.014 314.643 203.052Z" fill="#FAFAFA"/>
<path d="M350.739 207.182C350.645 207.201 350.531 207.22 350.418 207.239L349.513 207.352C348.74 207.446 347.608 207.559 346.194 207.672C343.403 207.918 339.518 208.163 335.237 208.276C330.956 208.389 327.071 208.295 324.261 208.182C322.865 208.125 321.715 208.069 320.942 208.012L320.036 207.937C319.923 207.937 319.829 207.937 319.716 207.899C319.829 207.899 319.923 207.899 320.036 207.899H320.942L324.261 208.031C327.071 208.106 330.937 208.144 335.218 208.05C339.499 207.955 343.365 207.729 346.156 207.522L349.475 207.258L350.381 207.182C350.494 207.182 350.588 207.182 350.701 207.182" fill="#FAFAFA"/>
<path d="M312.417 227.286C312.248 227.342 312.078 227.399 311.889 227.418C311.55 227.493 311.06 227.568 310.437 227.663C307.231 228.097 303.987 228.078 300.8 227.606C300.197 227.512 299.706 227.418 299.367 227.342C299.197 227.323 299.009 227.267 298.839 227.21C299.028 227.21 299.197 227.21 299.367 227.267L300.819 227.455C304.006 227.851 307.231 227.87 310.418 227.512L311.871 227.342C312.04 227.304 312.229 227.286 312.399 227.304" fill="#FAFAFA"/>
<path d="M315.812 225.173C315.001 224.381 313.87 223.985 312.738 224.117C313.888 223.684 315.171 224.117 315.812 225.173Z" fill="#FAFAFA"/>
<path d="M349.551 227.719C349.438 227.757 349.324 227.776 349.211 227.795L348.231 227.983C347.382 228.153 346.156 228.36 344.647 228.587C336.727 229.756 328.693 230.114 320.697 229.662C319.169 229.567 317.924 229.473 317.076 229.379L316.095 229.285C315.982 229.285 315.869 229.266 315.755 229.228C315.869 229.228 315.982 229.228 316.095 229.228L317.076 229.285C317.924 229.341 319.169 229.417 320.697 229.492C323.771 229.624 328.014 229.699 332.691 229.492C337.368 229.285 341.592 228.832 344.629 228.417C346.156 228.21 347.382 228.021 348.231 227.889L349.211 227.738C349.324 227.719 349.438 227.7 349.551 227.7" fill="#FAFAFA"/>
</g>
<mask id="mask9_58_638" style="mask-type:luminance" maskUnits="userSpaceOnUse" x="51" y="-2" width="477" height="466">
<path d="M527.843 -1.603H51.8433V463.397H527.843V-1.603Z" fill="white"/>
</mask>
<g mask="url(#mask9_58_638)">
<path d="M148.571 395.147C149.344 391.828 151.551 389.037 154.568 387.491C157.774 386.114 161.489 386.887 164.752 388.094C167.92 389.565 171.277 390.565 174.728 391.093C178.217 391.3 182.14 389.659 183.177 386.321C184.158 383.191 182.272 379.853 179.914 377.59C171.711 369.688 158.642 369.933 150.74 378.137C148.665 380.287 147.081 382.87 146.1 385.699" fill="#E8505B"/>
<path d="M148.571 395.147C149.344 391.828 151.551 389.037 154.568 387.491C157.774 386.114 161.489 386.887 164.752 388.094C167.92 389.565 171.277 390.565 174.728 391.093C178.217 391.3 182.14 389.659 183.177 386.321C184.158 383.191 182.272 379.853 179.914 377.59C171.711 369.688 158.642 369.933 150.74 378.137C148.665 380.287 147.081 382.87 146.1 385.699" fill="#2E2360"/>
<path d="M120.999 409.14C115.888 404.294 116.152 395.845 118.698 389.282C121.565 382.776 126.638 377.477 133.012 374.346C145.289 367.896 159.849 367.425 172.541 373.064C166.317 373.328 160.641 376.666 157.378 381.965C154.587 386.604 153.965 392.262 151.645 397.165C146.232 408.65 132.786 413.912 120.999 409.14Z" fill="#5238A0"/>
<path d="M118.547 379.985C112.89 373.309 112.135 362.597 112.965 353.884C113.795 345.171 115.813 336.421 114.436 327.765C113.625 322.654 111.645 317.77 110.966 312.621C110.287 307.473 111.249 301.664 115.228 298.345C119.811 294.536 127.015 295.441 131.768 299.005C136.52 302.57 139.292 308.208 141.31 313.809C145.742 326.124 147.364 339.778 143.724 352.338C140.084 364.898 131.541 376.138 119.019 379.947" fill="#5238A0"/>
<path d="M115.832 434.751C115.813 434.487 115.794 434.241 115.813 433.977C115.813 433.468 115.813 432.733 115.851 431.771C115.926 429.847 116.115 427.094 116.53 423.68C117.039 419.701 117.755 415.741 118.698 411.837C119.868 407.047 121.697 402.427 124.092 398.127C126.506 393.827 129.486 389.867 132.918 386.321C135.709 383.436 138.821 380.852 142.178 378.627C143.592 377.646 144.95 376.911 146.138 376.232C147.345 375.591 148.401 375.082 149.25 374.667L151.287 373.818C151.513 373.705 151.758 373.611 152.003 373.554C151.777 373.686 151.551 373.818 151.324 373.912L149.325 374.836C148.477 375.27 147.439 375.817 146.251 376.477C145.101 377.175 143.743 377.929 142.347 378.929C134.974 383.964 128.863 390.621 124.488 398.372C119.283 407.462 117.869 417.023 116.831 423.737C116.36 427.132 116.134 429.885 116.002 431.79C115.945 432.714 115.907 433.449 115.869 433.996C115.869 434.26 115.832 434.505 115.794 434.769" fill="#263238"/>
<path d="M67.0625 353.658C56.5958 359.976 56.6335 365.709 58.3874 371.14C60.1413 376.571 66.5533 380.324 71.8716 378.306C74.7947 376.911 77.2464 374.685 78.9248 371.913C80.5844 369.141 82.6966 366.671 85.1483 364.577C87.7131 362.484 91.2963 362.201 94.1628 363.842" fill="#E8505B"/>
<path d="M67.0625 353.658C56.5958 359.976 56.6335 365.709 58.3874 371.14C60.1413 376.571 66.5533 380.324 71.8716 378.306C74.7947 376.911 77.2464 374.685 78.9248 371.913C80.5844 369.141 82.6966 366.671 85.1483 364.577C87.7131 362.484 91.2963 362.201 94.1628 363.842" fill="#2E2360"/>
<path d="M59.2172 360.579C61.9517 356.807 68.7032 355.714 72.9842 357.599C77.2652 359.485 80.3769 363.219 83.168 366.953C85.9592 370.687 88.6937 374.629 92.5598 377.231C96.4259 379.834 101.838 380.777 105.704 378.155C108.194 376.307 109.816 373.497 110.174 370.423C110.514 367.368 110.306 364.275 109.552 361.296C108.628 356.902 107.119 352.319 103.611 349.547C99.6885 346.435 94.276 346.284 89.2783 346.454C83.5264 346.416 77.8121 347.284 72.3619 349.056C66.6664 351.074 61.9517 355.204 59.2172 360.598" fill="#5238A0"/>
<path d="M107.138 426.377C107.138 426.377 107.1 426.226 107.119 426.151C107.119 425.962 107.1 425.755 107.081 425.472C107.062 424.85 107.025 423.982 106.987 422.87C106.93 420.569 106.836 417.325 106.704 413.327C106.572 409.291 106.421 404.501 106.119 399.183C105.818 393.865 105.422 388.019 104.611 381.927C104.271 378.966 103.687 376.024 102.876 373.158C102.046 370.518 100.971 367.934 99.6696 365.482C98.5003 363.257 97.1425 361.126 95.6149 359.127C94.2759 357.392 92.8049 355.77 91.2019 354.28C88.8634 352.13 86.2232 350.32 83.3755 348.943C82.8663 348.717 82.4137 348.472 82.0176 348.321L80.9992 347.925L80.3769 347.661C80.3769 347.661 80.226 347.604 80.1694 347.567C80.2449 347.567 80.3203 347.585 80.3957 347.623L81.037 347.831L82.0742 348.189C82.4891 348.34 82.9417 348.566 83.4509 348.774C86.374 350.113 89.052 351.885 91.4282 354.035C93.0501 355.525 94.5588 357.147 95.9355 358.901C97.482 360.9 98.8775 363.05 100.047 365.294C101.367 367.764 102.461 370.348 103.309 373.026C104.139 375.911 104.724 378.872 105.063 381.871C105.874 387.981 106.251 393.846 106.534 399.164C106.817 404.482 106.93 409.291 107.025 413.327C107.119 417.363 107.138 420.625 107.157 422.888V425.491C107.157 425.774 107.157 425.981 107.157 426.17C107.157 426.245 107.157 426.321 107.138 426.396" fill="#263238"/>
<path d="M110.891 431.092C110.4 429.621 110.004 428.131 109.74 426.604C109.024 422.436 108.854 418.193 109.269 413.987C109.91 407.745 111.249 401.616 113.248 395.675C115.398 388.943 118.302 381.739 120.792 374.007C122.017 370.254 123.036 366.425 123.809 362.54C124.507 358.92 124.997 355.28 125.299 351.602C125.77 345.379 125.884 339.137 125.638 332.894C125.45 327.557 125.167 323.258 124.997 320.278C124.903 318.807 124.846 317.657 124.79 316.846C124.79 316.468 124.752 316.186 124.752 315.959C124.752 315.865 124.752 315.752 124.752 315.658C124.771 315.752 124.79 315.865 124.79 315.959C124.809 316.186 124.846 316.468 124.884 316.846C124.959 317.657 125.054 318.807 125.167 320.278C125.393 323.258 125.733 327.557 125.959 332.894C126.261 339.137 126.185 345.398 125.733 351.64C125.45 355.336 124.959 358.995 124.262 362.635C123.488 366.538 122.489 370.386 121.244 374.157C118.736 381.908 115.813 389.112 113.663 395.807C111.645 401.71 110.287 407.82 109.589 414.025C109.156 418.211 109.269 422.436 109.91 426.585C110.174 428.056 110.4 429.187 110.608 429.942C110.702 430.3 110.759 430.583 110.815 430.809C110.853 430.903 110.872 431.017 110.872 431.111" fill="#263238"/>
<path d="M136.841 435.826H87.7131L86.5815 426.377H136.822V435.826H136.841Z" fill="#455A64"/>
<path d="M92.9935 434.751L99.1415 463.114H125.827L131.579 434.751H92.9935Z" fill="#455A64"/>
<path d="M136.841 435.825C136.841 435.958 126.034 436.033 112.72 435.995C99.4055 435.957 88.5994 435.825 88.5994 435.693C88.5994 435.561 99.4055 435.486 112.72 435.524C126.034 435.561 136.841 435.693 136.841 435.825Z" fill="#455A64"/>
<path d="M137.274 435.882C137.274 436.014 126.223 436.108 112.607 436.108C98.9906 436.108 87.9204 435.995 87.9204 435.882C87.9204 435.769 98.9718 435.656 112.607 435.656C126.242 435.656 137.274 435.769 137.274 435.882Z" fill="#263238"/>
</g>
<mask id="mask10_58_638" style="mask-type:luminance" maskUnits="userSpaceOnUse" x="0" y="0" width="476" height="465">
<path d="M476 0H0V465H476V0Z" fill="white"/>
</mask>
<g mask="url(#mask10_58_638)">
<path d="M397.434 464.717C397.434 464.868 294.049 464.981 166.543 464.981C39.0003 464.981 -64.3656 464.868 -64.3656 464.717C-64.3656 464.566 39.0003 464.453 166.543 464.453C294.087 464.453 397.434 464.566 397.434 464.717Z" fill="#263238"/>
</g>
</g>
</g>
<defs>
<clipPath id="clip0_58_638">
<rect width="476" height="465" fill="white"/>
</clipPath>
</defs>
</svg>
