<svg width="466" height="477" viewBox="0 0 466 477" fill="none" xmlns="http://www.w3.org/2000/svg">
<path fill-rule="evenodd" clip-rule="evenodd" d="M36.4482 260.975C13.981 173.873 -19.6265 66.9285 55.5118 17.6654C131.327 -32.0412 217.124 40.0245 288.97 95.4145C371.246 158.845 483.949 225.136 453.46 324.462C419.1 436.395 288.679 490.797 173.009 473.187C81.159 459.203 59.6788 351.038 36.4482 260.975Z" fill="#F1EFF5"/>
<mask id="mask0_72_271" style="mask-type:luminance" maskUnits="userSpaceOnUse" x="1" y="27" width="465" height="393">
<path d="M466 27.1535H1V419.154H466V27.1535Z" fill="white"/>
</mask>
<g mask="url(#mask0_72_271)">
<mask id="mask1_72_271" style="mask-type:luminance" maskUnits="userSpaceOnUse" x="1" y="27" width="465" height="393">
<path d="M466 27.1535H1V419.154H466V27.1535Z" fill="white"/>
</mask>
<g mask="url(#mask1_72_271)">
<mask id="mask2_72_271" style="mask-type:luminance" maskUnits="userSpaceOnUse" x="1" y="27" width="465" height="393">
<path d="M466 27.1535H1V419.154H466V27.1535Z" fill="white"/>
</mask>
<g mask="url(#mask2_72_271)">
<path d="M375.013 214.701C374.448 215.664 373.716 216.542 372.858 217.274C370.535 219.346 367.544 220.559 364.426 220.684C362.272 220.789 360.117 220.371 358.171 219.492C355.911 218.467 353.966 216.856 352.543 214.806C350.953 212.547 350.095 209.869 350.032 207.128C349.886 201.04 353.756 195.58 359.552 193.677C362.167 192.819 364.97 192.735 367.627 193.467C370.012 194.137 372.188 195.434 373.904 197.233C375.389 198.781 376.498 200.685 377.126 202.735C378.046 205.727 377.9 208.927 376.707 211.814C376.31 212.86 375.724 213.844 374.992 214.701C374.908 214.659 375.661 213.697 376.414 211.71C377.46 208.886 377.502 205.768 376.582 202.902C375.201 198.614 371.749 195.329 367.418 194.158C364.908 193.488 362.23 193.551 359.761 194.388C354.3 196.187 350.66 201.354 350.765 207.086C350.807 209.701 351.622 212.233 353.087 214.387C355.639 218.09 359.886 220.245 364.385 220.12C367.397 220.036 370.305 218.948 372.628 217.023C374.259 215.643 374.908 214.618 374.992 214.68" fill="#E0E0E0"/>
<path d="M384.218 230.308C384.365 230.349 384.532 230.391 384.657 230.454L385.996 230.977L391.29 233.111L391.143 233.153L398.382 222.798V223.048L393.277 217.4L393.193 217.295L393.235 217.17C394.177 214.597 394.783 211.919 395.014 209.199V209.053L395.181 208.99L402.231 206.061L402.064 206.375C401.374 202.463 400.662 198.3 399.909 193.928L400.202 194.179L392.566 193.781H392.377L392.294 193.593C391.164 191.124 389.699 188.802 387.942 186.71L387.817 186.564L387.9 186.376L390.808 179.325L390.934 179.744L380.62 172.464H381.059L375.389 177.547L375.222 177.694L375.013 177.61C372.46 176.669 369.782 176.062 367.083 175.811H366.853L366.77 175.581L363.841 168.531L364.259 168.761L351.811 170.874L352.125 170.518C351.999 172.924 351.853 175.518 351.727 178.154V178.384L351.497 178.489C349.028 179.618 346.706 181.083 344.614 182.819C344.446 182.84 345.011 182.756 344.216 182.882H344.174L344.112 182.84L344.007 182.798L343.777 182.715L343.338 182.526L342.459 182.15L340.681 181.417L337.166 179.953L337.626 179.828L330.324 190.141V189.66L335.387 195.329L335.534 195.497L335.45 195.706C334.509 198.258 333.902 200.936 333.651 203.635V203.865L333.421 203.949L326.37 206.856L326.6 206.459L328.713 218.906L328.379 218.613L335.994 219.032H336.203L336.287 219.242C337.417 221.731 338.881 224.053 340.618 226.145L340.743 226.291L340.66 226.479L337.731 233.529L337.626 233.153L347.919 240.475H347.543L353.233 235.412L353.359 235.308L353.526 235.37C356.079 236.333 358.757 236.939 361.476 237.19H361.623L361.686 237.337L364.573 244.408L364.322 244.261L376.791 242.19L376.645 242.358C376.833 239.303 376.979 236.814 377.105 234.743V234.66H377.168C379.05 233.781 380.85 232.755 382.544 231.563L383.779 230.663C383.904 230.559 384.051 230.454 384.197 230.37C384.072 230.496 383.967 230.621 383.821 230.726C383.569 230.935 383.172 231.27 382.628 231.688C380.954 232.944 379.176 234.011 377.293 234.889L377.356 234.785C377.251 236.856 377.147 239.366 377 242.42V242.567H376.854L364.405 244.785H364.217L364.154 244.638L361.204 237.588L361.414 237.734C358.652 237.504 355.911 236.877 353.296 235.914L353.589 235.872L347.919 240.998L347.752 241.165L347.564 241.019L337.229 233.739L337.019 233.592L337.124 233.341L340.032 226.291L340.095 226.626C338.295 224.492 336.81 222.128 335.659 219.576L335.952 219.785L328.337 219.387H328.044L328.002 219.095C327.312 215.057 326.6 210.894 325.868 206.647L325.826 206.354L326.098 206.25L333.149 203.321L332.919 203.635C333.17 200.852 333.776 198.112 334.76 195.497L334.843 195.873L329.739 190.204L329.529 189.975L329.697 189.723L336.998 179.409L337.187 179.158L337.48 179.284L340.994 180.748L342.773 181.48L343.651 181.857L344.091 182.045L344.321 182.129L344.425 182.171H344.488L344.509 182.212L344.112 182.275C346.246 180.497 348.631 178.991 351.162 177.84L350.932 178.175C351.078 175.56 351.204 172.966 351.35 170.539V170.225L351.664 170.183L364.113 168.05L364.405 168.008L364.531 168.28L367.439 175.33L367.125 175.1C369.908 175.351 372.628 175.978 375.264 176.941L374.887 177.024L380.578 171.92L380.787 171.732L381.017 171.899L391.31 179.2L391.541 179.367L391.436 179.618L388.507 186.668L388.465 186.334C390.243 188.468 391.729 190.852 392.88 193.384L392.608 193.195L400.223 193.614H400.474L400.516 193.865C401.248 198.237 401.959 202.4 402.629 206.312L402.671 206.522L402.462 206.605L395.39 209.513L395.557 209.304C395.306 212.065 394.679 214.785 393.695 217.4L393.654 217.17L398.738 222.86L398.842 222.986L398.758 223.111L391.394 233.383L391.331 233.467L391.248 233.425L386.038 231.207L384.699 230.621C384.532 230.559 384.385 230.475 384.239 230.391" fill="#E0E0E0"/>
<path fill-rule="evenodd" clip-rule="evenodd" d="M372.084 136.293C369.092 138.782 365.765 140.874 362.23 142.485L361.665 153.259L344.049 156.272L339.927 146.293C336.036 145.937 332.228 145.079 328.567 143.72L320.533 150.937L305.951 140.623L310.093 130.665C307.604 127.674 305.512 124.348 303.901 120.812L293.126 120.226L290.113 102.612L300.093 98.4905C300.449 94.5995 301.306 90.7925 302.666 87.1315L295.448 79.0975L305.763 64.5165L315.742 68.6585C318.734 66.1695 322.04 64.0775 325.596 62.4455L326.161 51.6715L343.777 48.6595L347.898 58.6385C351.79 58.9935 355.598 59.8515 359.259 61.2115L367.293 53.9935L381.875 64.3075L377.732 74.2655C380.222 77.2575 382.314 80.5835 383.946 84.1185L394.721 84.6835L397.733 102.298L387.754 106.419C387.398 110.31 386.54 114.118 385.18 117.779L392.398 125.812L382.084 140.393L372.105 136.272L372.084 136.293ZM359.07 114.222C365.18 105.582 363.129 93.6165 354.489 87.5075C345.848 81.3995 333.881 83.4495 327.772 92.0895C321.663 100.729 323.713 112.695 332.354 118.804C340.994 124.912 352.961 122.862 359.07 114.222Z" fill="#E0E0E0"/>
<path fill-rule="evenodd" clip-rule="evenodd" d="M150.965 133.051C153.475 135.75 155.63 138.761 157.346 142.025L167.556 141.984L171.342 158.426L162.158 162.861C162.032 166.543 161.426 170.204 160.338 173.719L167.577 180.895L158.622 195.204L148.998 191.837C146.299 194.347 143.287 196.501 140.044 198.216L140.086 208.426L123.642 212.212L119.206 203.029C115.524 202.903 111.863 202.296 108.348 201.208L101.172 208.447L86.8616 199.492L90.23 189.87C87.7194 187.171 85.5645 184.159 83.8489 180.895L73.6393 180.937L69.8525 164.473L79.037 160.038C79.1625 156.356 79.7692 152.694 80.8572 149.18L73.6183 142.005L82.5727 127.696L92.1966 131.064C94.8954 128.554 97.9081 126.399 101.151 124.683L101.109 114.474L117.553 110.688L121.989 119.872C125.671 119.997 129.332 120.603 132.847 121.691L140.023 114.452L154.354 123.407L150.986 133.03L150.965 133.051ZM130.838 146.523C122.365 141.23 111.172 143.804 105.879 152.277C100.586 160.749 103.159 171.942 111.633 177.234C120.106 182.527 131.299 179.953 136.592 171.48C141.885 163.008 139.312 151.816 130.838 146.523Z" fill="#E0E0E0"/>
<path fill-rule="evenodd" clip-rule="evenodd" d="M160.903 63.8475C162.304 65.3325 163.476 67.0065 164.438 68.8055H170.087L172.179 77.8845L167.095 80.3325C167.033 82.3615 166.698 84.3905 166.091 86.3365L170.108 90.3115L165.15 98.2395L159.815 96.3775C158.329 97.7795 156.656 98.9515 154.856 99.9135V105.562L145.776 107.654L143.329 102.571C141.299 102.508 139.27 102.173 137.324 101.567L133.349 105.583L125.42 100.646L127.282 95.3115C125.88 93.8255 124.709 92.1525 123.746 90.3525H118.097L116.005 81.2735L121.089 78.8265C121.152 76.7965 121.487 74.7675 122.093 72.8215L118.097 68.8475L123.056 60.9185L128.391 62.7805C129.876 61.3785 131.55 60.1865 133.349 59.2445V53.5965L142.429 51.5045L144.877 56.5885C146.906 56.6505 148.936 56.9855 150.881 57.5925L154.856 53.5755L162.786 58.5335L160.944 63.8685L160.903 63.8475ZM149.751 71.2945C145.065 68.3665 138.872 69.7675 135.922 74.4745C132.993 79.1605 134.395 85.3535 139.102 88.3025C143.789 91.2315 149.982 89.8295 152.932 85.1225C155.861 80.4365 154.438 74.2445 149.751 71.3155" fill="#E0E0E0"/>
<path d="M81.6522 80.6875C81.8195 80.7505 81.966 80.8345 82.1124 80.9385C82.5309 81.2105 82.9284 81.5245 83.284 81.8805C84.6021 83.1985 85.4389 84.9345 85.6272 86.8175C85.7528 88.1145 85.5854 89.4115 85.1251 90.6245C84.5812 92.0265 83.6816 93.2395 82.51 94.1605C81.2129 95.1855 79.6437 95.7925 77.9909 95.9175C74.3296 96.2105 70.9195 94.0765 69.5805 90.6665C68.9738 89.1185 68.8273 87.4455 69.183 85.8345C69.4968 84.3695 70.2082 83.0305 71.2125 81.9435C72.0912 81.0015 73.1999 80.2695 74.4133 79.8305C76.1707 79.1815 78.0956 79.1605 79.8739 79.7675C80.3551 79.9135 80.8154 80.1445 81.2338 80.3955C81.3803 80.4785 81.5266 80.5835 81.6522 80.6875C81.6312 80.7505 81.0245 80.3325 79.8111 79.9555C78.0746 79.4325 76.2336 79.5165 74.539 80.1645C72.0284 81.1275 70.1873 83.3025 69.6433 85.9385C69.3295 87.4665 69.4551 89.0555 70.0409 90.4995C71.3171 93.7005 74.4971 95.6875 77.9282 95.4365C79.4764 95.3315 80.9618 94.7465 82.1961 93.8045C84.3301 92.1525 85.46 89.5585 85.2507 86.8805C85.1043 85.0815 84.3511 83.3865 83.1377 82.0475C82.259 81.1065 81.6313 80.7505 81.6732 80.7085" fill="#E0E0E0"/>
<path d="M90.6902 74.6425C90.6902 74.6425 90.7321 74.4535 90.7739 74.3705L91.0459 73.5545L92.1338 70.3115L92.1757 70.4165L85.7318 66.4415H85.8992L82.6982 69.6835L82.6355 69.7465H82.5518C80.9827 69.2445 79.3508 68.9725 77.7189 68.9305H77.6143L77.5725 68.8475L75.564 64.7255L75.7732 64.8305L68.388 66.5455L68.5553 66.3575C68.5553 67.7805 68.5553 69.3285 68.5763 70.9395V71.0645L68.4717 71.1275C67.0281 71.9015 65.6891 72.8425 64.4966 73.9725L64.392 74.0565L64.2664 74.0145L59.9357 72.5085L60.2077 72.4245L56.2117 78.8465L56.1699 78.5545L59.4127 81.7755L59.5173 81.8805L59.4754 82.0265C58.9942 83.5955 58.7223 85.2065 58.6804 86.8385V86.9845L58.5549 87.0475L54.4334 89.0355L54.5589 88.7425L56.2535 96.1265L56.0025 95.9175H60.5843H60.7516L60.8144 96.0645C61.5676 97.5075 62.53 98.8465 63.6388 100.018C63.4087 98.6375 64.3501 97.3195 65.7519 97.0895C67.1327 96.8595 68.4507 97.8005 68.6809 99.2025C68.911 100.582 67.9695 101.9 66.5678 102.13C65.2916 102.34 64.0363 101.545 63.7016 100.29V100.352V100.415L63.6388 100.541L63.5551 100.813L63.3668 101.356L62.9902 102.444L62.2371 104.599L62.1325 104.285L68.5553 108.302L68.2415 108.344L71.4634 105.101L71.568 104.997L71.7145 105.038C73.2836 105.52 74.8945 105.791 76.5264 105.854H76.6729L76.7356 105.98L78.7232 110.101L78.4512 109.975L85.8365 108.281L85.6482 108.511C85.6482 106.963 85.6482 105.436 85.6482 103.93V103.804L85.7737 103.741C87.2173 102.988 88.5562 102.026 89.7488 100.917L89.8534 100.833L89.9789 100.875L94.2887 102.382L94.0377 102.465L98.0755 96.0645V96.3155L94.8536 93.0935L94.7699 93.0095L94.8118 92.9055C95.2929 91.3365 95.5649 89.7255 95.6277 88.0935V87.9895L95.7114 87.9265L99.8329 85.9595L99.7492 86.1275L98.0755 78.7425L98.1801 78.8265H93.5983H93.5565V78.7845C92.9707 77.6755 92.2803 76.6505 91.5271 75.6675L90.9413 74.9555C90.9413 74.9555 90.8158 74.8095 90.753 74.7255C90.8367 74.7885 90.8994 74.8515 90.9831 74.9345C91.1296 75.0815 91.3388 75.3115 91.5898 75.6255C92.3849 76.5875 93.0962 77.6125 93.682 78.7215L93.5983 78.6795L98.1801 78.6375H98.2638V78.7215L100.021 86.0855V86.2105L99.9375 86.2735L95.816 88.2815L95.8997 88.1355C95.8578 89.8095 95.5858 91.4615 95.0837 93.0515L95.0419 92.8635L98.3056 96.0855L98.4102 96.1895L98.3266 96.3155L94.3306 102.737L94.2469 102.884L94.0795 102.821L89.7488 101.315L89.9789 101.273C88.7655 102.423 87.3846 103.386 85.9201 104.181L86.0457 103.971C86.0457 105.478 86.0457 107.005 86.0666 108.553V108.741L85.8783 108.783L78.493 110.499L78.3047 110.54L78.221 110.373L76.2335 106.252L76.4427 106.398C74.769 106.335 73.1162 106.063 71.5053 105.582L71.7563 105.52L68.5344 108.762L68.388 108.909L68.2206 108.804L61.7977 104.787L61.6303 104.683L61.6931 104.494L62.4463 102.34L62.8229 101.252L63.0112 100.708L63.0948 100.436L63.1367 100.31V100.248L63.1785 100.206C63.2831 100.708 63.1995 100.331 63.2413 100.436C62.0906 99.2235 61.1282 97.8425 60.3332 96.3575L60.5634 96.5035H55.9816H55.7723L55.7305 96.2945L54.0359 88.9095L53.994 88.7215L54.1823 88.6375L58.3038 86.6505L58.1574 86.8595C58.2201 85.1855 58.4921 83.5335 58.9942 81.9225L59.057 82.1735L55.8142 78.9515L55.6887 78.8265L55.7933 78.6585L59.8102 72.2365L59.9148 72.0895L60.0822 72.1525L64.392 73.6585L64.1618 73.7005C65.3962 72.5705 66.777 71.5875 68.2624 70.8135L68.1578 71.0015V66.2535L68.3252 66.2115L75.7105 64.5375L75.8569 64.4955L75.9197 64.6215L77.8863 68.7425L77.7399 68.6375C79.4136 68.7005 81.0664 68.9725 82.6564 69.4745L82.5099 69.5165L85.7528 66.2745L85.8365 66.2115L85.9201 66.2745L92.3221 70.3325L92.3849 70.3745V70.4375L91.1923 73.6165L90.8785 74.4325C90.8785 74.4325 90.8158 74.6215 90.753 74.7045" fill="#E0E0E0"/>
</g>
<mask id="mask3_72_271" style="mask-type:luminance" maskUnits="userSpaceOnUse" x="1" y="27" width="465" height="393">
<path d="M466 27.1535H1V419.154H466V27.1535Z" fill="white"/>
</mask>
<g mask="url(#mask3_72_271)">
<path d="M316.182 414.216L184.858 413.609C169.062 413.546 156.3 400.682 156.363 384.887L157.743 55.6465C157.827 39.8515 170.694 27.0907 186.49 27.1535L317.834 27.7602C333.63 27.8439 346.371 40.6885 346.308 56.4835L344.928 385.724C344.865 401.518 331.998 414.279 316.202 414.216" fill="#455A64"/>
<path d="M317.667 39.1195L292.206 38.9945C288.712 39.0575 285.929 41.9435 285.992 45.4375V50.0605C286.034 53.5545 283.251 56.4415 279.757 56.5045L230.132 56.2745C226.638 56.1695 223.897 53.2825 223.981 49.7885V45.1655C224.085 41.6725 221.324 38.7855 217.851 38.6805L208.896 38.6385L186.615 38.5345C175.548 38.4925 166.53 47.4045 166.489 58.4705L165.129 379.845C165.087 390.912 173.999 399.908 185.067 399.97L316.14 400.577C327.207 400.619 336.224 391.706 336.266 380.639L337.626 59.2655C337.668 48.1995 328.755 39.2035 317.688 39.1405" fill="#FAFAFA"/>
<path d="M279.339 195.622H227.893C222.558 195.622 218.248 191.292 218.248 185.978V134.536C218.248 129.201 222.579 124.892 227.893 124.892H279.339C284.674 124.892 288.984 129.222 288.984 134.536V185.978C288.984 191.313 284.653 195.622 279.339 195.622Z" fill="#5238A0"/>
<path d="M199.565 150.623L201.281 154.075L205.089 154.619L202.327 157.318L202.976 161.125L199.565 159.326L196.155 161.125L196.804 157.318L194.042 154.619L197.85 154.075L199.565 150.623Z" fill="#5238A0"/>
<path d="M309.801 116.357L311.119 119.035L314.068 119.452L311.934 121.545L312.437 124.474L309.801 123.092L307.164 124.474L307.667 121.545L305.533 119.452L308.482 119.035L309.801 116.357Z" fill="#5238A0"/>
<path d="M307.206 180.456L308.357 182.004L310.282 181.941L309.152 183.51L309.801 185.331L307.959 184.745L306.432 185.937V184.012L304.821 182.924L306.641 182.318L307.185 180.477L307.206 180.456Z" fill="#5238A0"/>
<path d="M198.268 127.674C197.264 127.674 196.469 126.858 196.469 125.875C196.469 124.891 197.285 124.076 198.268 124.076C199.252 124.076 200.068 124.891 200.068 125.875C200.068 126.879 199.252 127.674 198.268 127.674ZM198.268 125.059C197.808 125.059 197.452 125.414 197.452 125.875C197.452 126.335 197.808 126.691 198.268 126.691C198.729 126.691 199.084 126.335 199.084 125.875C199.084 125.414 198.729 125.059 198.268 125.059Z" fill="#5238A0"/>
<path d="M300.26 152.611C299.256 152.611 298.461 151.795 298.461 150.811C298.461 149.828 299.277 149.012 300.26 149.012C301.244 149.012 302.06 149.828 302.06 150.811C302.06 151.816 301.244 152.611 300.26 152.611ZM300.26 149.996C299.8 149.996 299.444 150.351 299.444 150.811C299.444 151.272 299.8 151.627 300.26 151.627C300.721 151.627 301.076 151.272 301.076 150.811C301.076 150.351 300.721 149.996 300.26 149.996Z" fill="#5238A0"/>
<path d="M276.703 114.536C275.699 114.536 274.904 113.72 274.904 112.737C274.904 111.754 275.72 110.938 276.703 110.938C277.686 110.938 278.502 111.754 278.502 112.737C278.502 113.741 277.686 114.536 276.703 114.536ZM276.703 111.921C276.243 111.921 275.887 112.277 275.887 112.737C275.887 113.197 276.243 113.553 276.703 113.553C277.163 113.553 277.519 113.197 277.519 112.737C277.519 112.277 277.163 111.921 276.703 111.921Z" fill="#5238A0"/>
<path d="M189.753 184.493C189.753 185.225 189.167 185.811 188.435 185.811C187.703 185.811 187.117 185.225 187.117 184.493C187.117 183.761 187.703 183.175 188.435 183.175C189.167 183.175 189.753 183.761 189.753 184.493Z" fill="#5238A0"/>
<path d="M250.174 203.195C250.174 203.927 249.589 204.513 248.856 204.513C248.124 204.513 247.538 203.927 247.538 203.195C247.538 202.463 248.124 201.878 248.856 201.878C249.589 201.878 250.174 202.463 250.174 203.195Z" fill="#5238A0"/>
<path d="M237.475 99.4325C237.475 100.165 236.889 100.751 236.157 100.751C235.425 100.751 234.839 100.165 234.839 99.4325C234.839 98.7005 235.425 98.1145 236.136 98.1145C236.868 98.1145 237.454 98.7005 237.454 99.4115" fill="#5238A0"/>
<path d="M222.516 302.628V297.084H223.541V302.586C223.541 304.888 224.629 305.934 226.512 305.934C228.395 305.934 229.483 304.888 229.483 302.586V297.084H230.487V302.628C230.613 304.825 228.918 306.708 226.721 306.833C224.525 306.959 222.642 305.264 222.516 303.068C222.516 302.921 222.516 302.775 222.516 302.628Z" fill="#263238"/>
<path d="M241.157 300.39C241.157 302.461 239.672 303.695 237.203 303.695H234.609V306.75H233.584V297.064H237.224C239.693 297.064 241.178 298.319 241.178 300.39M240.153 300.39C240.153 298.842 239.128 297.942 237.182 297.942H234.609V302.796H237.182C239.128 302.796 240.153 301.917 240.153 300.39Z" fill="#263238"/>
<path d="M243.354 297.084H247.308C249.986 296.896 252.308 298.925 252.497 301.603C252.685 304.281 250.656 306.603 247.978 306.791C247.748 306.791 247.538 306.791 247.308 306.791H243.354V297.105V297.084ZM247.245 305.892C249.442 306.08 251.367 304.469 251.555 302.273C251.744 300.076 250.133 298.151 247.936 297.963C247.706 297.963 247.476 297.963 247.245 297.963H244.379V305.892H247.245Z" fill="#263238"/>
<path d="M260.74 304.176H255.342L254.17 306.77H253.103L257.539 297.084H258.543L262.978 306.77H261.89L260.719 304.176H260.74ZM260.363 303.34L258.041 298.13L255.719 303.34H260.363Z" fill="#263238"/>
<path d="M265.97 297.963H262.56V297.084H270.405V297.963H266.995V306.77H265.97V297.963Z" fill="#263238"/>
<path d="M278.879 305.892V306.77H272.016V297.084H278.669V297.963H273.042V301.415H278.063V302.294H273.042V305.892H278.879Z" fill="#263238"/>
<path d="M263.188 147.862C264.255 148.657 265.217 149.598 266.033 150.644L269.673 149.975L272.079 155.602L269.087 157.778C269.276 159.096 269.297 160.435 269.129 161.774L272.163 163.866L269.882 169.535L266.242 168.949C265.447 170.016 264.506 170.978 263.46 171.794L264.129 175.434L258.501 177.84L256.325 174.849C255.007 175.037 253.668 175.058 252.329 174.89L250.237 177.924L244.567 175.644L245.153 172.003C244.086 171.208 243.124 170.267 242.308 169.221L238.668 169.891L236.262 164.263L239.253 162.087C239.065 160.769 239.044 159.431 239.212 158.092L236.178 156L238.458 150.33L242.099 150.916C242.894 149.849 243.835 148.887 244.902 148.071L244.233 144.431L249.861 142.025L252.036 145.017C253.354 144.828 254.693 144.807 256.032 144.975L258.125 141.941L263.794 144.222L263.208 147.883L263.188 147.862ZM256.869 153.949C253.501 152.59 249.693 154.221 248.333 157.59C246.973 160.958 248.605 164.765 251.974 166.125C255.342 167.485 259.15 165.853 260.51 162.485C261.87 159.117 260.238 155.309 256.869 153.949Z" fill="#FAFAFA"/>
<path d="M256.869 153.95C257.392 154.118 257.873 154.348 258.334 154.683C259.568 155.54 260.468 156.816 260.886 158.26C261.179 159.264 261.221 160.331 261.033 161.356C260.802 162.528 260.259 163.636 259.463 164.536C258.585 165.54 257.413 166.251 256.116 166.586C253.271 167.339 250.258 166.126 248.71 163.616C247.999 162.486 247.664 161.168 247.706 159.829C247.747 158.637 248.124 157.465 248.773 156.44C249.338 155.561 250.112 154.828 251.011 154.305C252.308 153.531 253.836 153.239 255.342 153.49C255.886 153.553 256.409 153.72 256.89 153.971C256.89 154.013 256.346 153.762 255.321 153.637C253.877 153.469 252.413 153.783 251.158 154.536C249.296 155.666 248.124 157.653 248.061 159.829C248.019 161.084 248.354 162.339 249.024 163.406C250.488 165.77 253.334 166.921 256.011 166.21C257.225 165.896 258.334 165.225 259.192 164.305C260.656 162.694 261.2 160.457 260.635 158.344C260.259 156.921 259.422 155.687 258.25 154.808C257.413 154.201 256.869 153.992 256.89 153.971" fill="#FAFAFA"/>
<path d="M263.188 147.862C263.188 147.862 263.188 147.715 263.208 147.632L263.313 146.941C263.397 146.314 263.543 145.393 263.711 144.201L263.752 144.263L258.062 142.025L258.166 141.983L256.074 145.038L256.032 145.1H255.97C254.652 144.954 253.334 144.954 252.015 145.163H251.932L251.89 145.121L249.714 142.13L249.881 142.171L244.254 144.577L244.337 144.41L245.007 148.05V148.134L244.944 148.196C243.898 149.012 242.977 149.954 242.182 151.021L242.12 151.104H242.015L238.375 150.498L238.563 150.393L236.283 156.062L236.22 155.853L239.253 157.945L239.337 158.008V158.113C239.17 159.431 239.191 160.748 239.379 162.046V162.15L239.295 162.213L236.303 164.389L236.366 164.158L238.772 169.786L238.563 169.681L242.203 169.012H242.308L242.371 169.075C243.187 170.121 244.128 171.041 245.174 171.836C245.174 171.836 245.09 171.648 245.258 172.024V172.255L245.195 172.485L245.111 172.945L244.965 173.865L244.672 175.685L244.567 175.476L250.237 177.756L250.007 177.819L252.099 174.786L252.162 174.702H252.267C253.585 174.87 254.903 174.87 256.2 174.681H256.304L256.367 174.765L258.543 177.756L258.334 177.694L263.962 175.309L263.857 175.497C263.627 174.263 263.418 173.049 263.188 171.857V171.752L263.25 171.69C264.296 170.874 265.217 169.932 266.012 168.865L266.075 168.782H266.179L269.82 169.388L269.652 169.493L271.954 163.824L271.995 163.991L268.962 161.878L268.899 161.836V161.753C269.066 160.435 269.046 159.117 268.857 157.799V157.715L268.899 157.673L271.891 155.518L271.849 155.644C270.928 153.468 270.133 151.606 269.464 150.016L269.548 150.058L265.907 150.707H265.845C265.238 149.891 264.547 149.159 263.794 148.489L263.229 148.008C263.229 148.008 263.104 147.904 263.041 147.841C263.104 147.883 263.188 147.924 263.25 147.987C263.376 148.092 263.585 148.238 263.836 148.447C264.61 149.096 265.322 149.807 265.949 150.602H265.886L269.527 149.891H269.59L269.61 149.933L272.037 155.539L272.079 155.623L272.016 155.686L269.025 157.862L269.066 157.736C269.255 159.075 269.276 160.414 269.129 161.753L269.066 161.627L272.121 163.719L272.205 163.782L272.163 163.886L269.882 169.556L269.841 169.66H269.715L266.075 169.054L266.221 168.991C265.405 170.079 264.464 171.041 263.397 171.878L263.46 171.711L264.129 175.351V175.497L264.024 175.56L258.397 177.966L258.271 178.028L258.187 177.903L256.011 174.911L256.179 174.995C254.84 175.183 253.48 175.204 252.141 175.037L252.308 174.953L250.216 177.987L250.133 178.112L249.986 178.049L244.316 175.769L244.17 175.706V175.56L244.484 173.74L244.63 172.819L244.714 172.359L244.756 172.129V172.024V171.962V171.899L244.839 172.087C243.752 171.271 242.789 170.33 241.952 169.263L242.141 169.326L238.5 169.995H238.354L238.291 169.891L235.885 164.263L235.822 164.117L235.948 164.033L238.94 161.857L238.856 162.025C238.668 160.686 238.647 159.326 238.814 157.987L238.898 158.154L235.864 156.041L235.76 155.958L235.801 155.832L238.082 150.163L238.124 150.037H238.249L241.89 150.644L241.743 150.707C242.559 149.619 243.5 148.657 244.567 147.841L244.505 147.987C244.275 146.711 244.044 145.477 243.856 144.347V144.222L243.94 144.18L249.568 141.795L249.672 141.753L249.735 141.837L251.89 144.828L251.764 144.786C253.103 144.598 254.442 144.577 255.781 144.766L255.677 144.807L257.79 141.774L257.832 141.711H257.894L263.564 144.054H263.606V144.117L263.146 146.816C263.083 147.109 263.041 147.339 263.02 147.506C263.02 147.59 262.999 147.673 262.978 147.736" fill="#FAFAFA"/>
<path d="M300.428 218.404H228.186V270.662H300.428V218.404Z" fill="#263238"/>
<path d="M267.435 218.404H204.461V270.662H267.435V218.404Z" fill="#455A64"/>
<path d="M204.44 218.404L193.268 207.233H221.596L232.119 218.404H204.44Z" fill="#455A64"/>
<path d="M267.435 218.404L280.301 207.233H315.575L300.428 218.404H267.435Z" fill="#455A64"/>
<path d="M267.435 218.405C267.435 218.552 253.334 218.656 235.948 218.656C218.562 218.656 204.461 218.552 204.461 218.405C204.461 218.259 218.562 218.154 235.948 218.154C253.334 218.154 267.435 218.259 267.435 218.405Z" fill="#263238"/>
<path d="M311.767 336.541H195.486C192.703 336.541 190.465 334.302 190.465 331.52V331.29C190.465 328.507 192.703 326.269 195.486 326.269H311.767C314.55 326.269 316.788 328.507 316.788 331.29V331.541C316.788 334.323 314.55 336.562 311.767 336.562" fill="#E0E0E0"/>
<path d="M252.455 336.541H195.465C192.682 336.541 190.444 334.302 190.444 331.52V331.29C190.444 328.507 192.682 326.269 195.465 326.269H252.455C255.237 326.269 257.476 328.507 257.476 331.29V331.541C257.476 334.323 255.237 336.562 252.455 336.562" fill="#5238A0"/>
<path d="M245.258 361.79C245.258 363.903 243.793 365.535 240.76 365.535C239.128 365.598 237.538 365.012 236.324 363.945L236.952 362.941C237.977 363.903 239.358 364.405 240.76 364.363C242.873 364.363 243.982 363.338 243.982 361.832C243.982 360.242 242.998 359.259 239.839 359.259H237.203L237.831 353.047H244.609V354.176H238.94L238.521 358.13H240.111C243.856 358.13 245.258 359.594 245.258 361.79Z" fill="#5238A0"/>
<path d="M255.175 361.79C255.175 363.903 253.71 365.535 250.676 365.535C249.045 365.598 247.455 365.012 246.241 363.945L246.869 362.941C247.894 363.903 249.275 364.405 250.676 364.363C252.79 364.363 253.898 363.338 253.898 361.832C253.898 360.242 252.915 359.259 249.756 359.259H247.12L247.747 353.047H254.526V354.176H248.856L248.438 358.13H250.028C253.773 358.13 255.175 359.594 255.175 361.79Z" fill="#5238A0"/>
<path d="M256.451 356.33C256.451 354.322 257.581 352.962 259.254 352.962C260.928 352.962 262.058 354.28 262.058 356.33C262.058 358.38 260.907 359.698 259.254 359.698C257.601 359.698 256.451 358.359 256.451 356.33ZM261.158 356.33C261.158 354.719 260.405 353.757 259.254 353.757C258.104 353.757 257.35 354.719 257.35 356.33C257.35 357.941 258.104 358.903 259.254 358.903C260.405 358.903 261.158 357.941 261.158 356.33ZM266.744 353.046H267.79L259.338 365.43H258.292L266.744 353.046ZM264.045 362.167C264.045 360.158 265.196 358.799 266.849 358.799C268.502 358.799 269.652 360.138 269.652 362.167C269.652 364.196 268.522 365.535 266.849 365.535C265.175 365.535 264.045 364.196 264.045 362.167ZM268.753 362.167C268.753 360.577 267.999 359.594 266.849 359.594C265.698 359.594 264.945 360.556 264.945 362.167C264.945 363.778 265.698 364.74 266.849 364.74C267.999 364.74 268.753 363.778 268.753 362.167Z" fill="#5238A0"/>
</g>
<mask id="mask4_72_271" style="mask-type:luminance" maskUnits="userSpaceOnUse" x="1" y="27" width="465" height="393">
<path d="M466 27.1535H1V419.154H466V27.1535Z" fill="white"/>
</mask>
<g mask="url(#mask4_72_271)">
<path d="M466 413.923C466 414.069 361.895 414.174 233.521 414.174C105.147 414.174 1 414.069 1 413.923C1 413.777 105.084 413.672 233.5 413.672C361.916 413.672 465.979 413.777 465.979 413.923" fill="#263238"/>
</g>
<mask id="mask5_72_271" style="mask-type:luminance" maskUnits="userSpaceOnUse" x="1" y="27" width="465" height="393">
<path d="M466 27.1535H1V419.154H466V27.1535Z" fill="white"/>
</mask>
<g mask="url(#mask5_72_271)">
<path d="M182.452 402.647L185.297 413.526L217.119 413.233C217.119 413.233 212.767 409.948 196.783 410.178L195.235 402.647H182.473H182.452Z" fill="#FFBE9D"/>
<path d="M147.764 279.825L123.893 282.064L114.185 284.804C110.043 285.976 106.256 288.152 103.139 291.143L71.9028 321.122L66.1913 274.533L50.5839 275.892L53.1781 335.87C55.5422 343.276 62.4254 348.297 70.1873 348.297C74.8737 348.234 79.3718 346.393 82.761 343.129L105.001 322.23L102.783 349.824L95.1465 366.978L149.752 397.815C149.752 397.815 156.174 366.058 159.606 344.092C162.388 326.331 163.811 287.629 163.811 287.629L147.722 279.825H147.764Z" fill="#5238A0"/>
<path d="M162.43 287.064C162.43 287.064 174.502 291.541 177.431 300.997C180.025 309.385 188.665 356.539 188.665 356.539L197.243 406.455L179.293 407.145L158.622 322.063L162.43 287.064Z" fill="#5238A0"/>
<path d="M102.364 348.59C102.218 348.59 103.034 339.029 104.143 327.251C105.252 315.473 106.298 305.955 106.444 305.955C106.591 305.955 105.775 315.515 104.666 327.293C103.557 339.071 102.511 348.59 102.364 348.59Z" fill="#263238"/>
<path d="M142.115 325.117C142.094 325.285 142.031 325.431 141.948 325.578L141.404 326.875C141.132 327.565 140.797 328.234 140.441 328.883C140.023 329.657 139.605 330.557 138.998 331.477L138.098 332.941C137.784 333.444 137.408 333.946 137.031 334.469C136.32 335.536 135.42 336.602 134.5 337.711C130.399 342.523 125.399 346.477 119.792 349.385C118.495 350.012 117.26 350.661 116.047 351.1C115.44 351.33 114.875 351.602 114.311 351.79L112.679 352.334C111.654 352.711 110.67 352.92 109.833 353.15C109.122 353.359 108.39 353.506 107.658 353.631L106.277 353.862C106.109 353.903 105.942 353.924 105.796 353.903C105.942 353.841 106.109 353.778 106.256 353.757L107.616 353.422C108.222 353.297 108.934 353.129 109.771 352.857C110.607 352.585 111.549 352.376 112.574 351.979L114.185 351.414C114.75 351.205 115.294 350.954 115.901 350.703C117.093 350.221 118.307 349.594 119.583 348.945C125.106 346.017 130.043 342.104 134.144 337.376C135.065 336.268 135.964 335.243 136.676 334.176C137.052 333.653 137.429 333.172 137.764 332.669L138.684 331.226C139.291 330.326 139.751 329.448 140.169 328.695C140.588 327.942 140.944 327.272 141.195 326.728L141.822 325.473C141.885 325.327 141.969 325.18 142.073 325.055" fill="#263238"/>
<g opacity="0.2">
<mask id="mask6_72_271" style="mask-type:luminance" maskUnits="userSpaceOnUse" x="106" y="331" width="32" height="23">
<path d="M137.91 331.393H106.402V353.485H137.91V331.393Z" fill="white"/>
</mask>
<g mask="url(#mask6_72_271)">
<path d="M108.704 353.422C106.946 352.732 106.005 350.849 106.507 349.029C107.072 347.272 108.369 345.87 110.064 345.159C111.737 344.468 113.474 343.945 115.273 343.611C122.951 341.728 129.96 337.795 135.588 332.209C136.111 331.686 136.843 331.121 137.471 331.477C138.328 331.937 137.784 333.255 137.157 334.008C129.437 343.004 119.415 349.719 108.16 353.464" fill="black"/>
</g>
</g>
<path d="M163.225 342.189C163.057 341.875 162.932 341.52 162.869 341.185C162.66 340.515 162.388 339.553 162.074 338.361C161.426 335.976 160.61 332.649 159.773 328.967C158.936 325.285 158.266 321.939 157.827 319.491C157.618 318.277 157.451 317.294 157.346 316.604C157.262 316.248 157.241 315.892 157.241 315.536C157.388 315.871 157.492 316.226 157.534 316.582C157.702 317.356 157.932 318.318 158.183 319.427L160.275 328.863C161.112 332.482 161.844 335.745 162.43 338.276C162.681 339.385 162.89 340.348 163.057 341.143C163.162 341.499 163.225 341.854 163.225 342.21" fill="#263238"/>
<path d="M53.3454 280.369C52.8642 278.842 52.7387 277.21 52.9479 275.62C53.4291 277.148 53.5546 278.779 53.3454 280.369Z" fill="#263238"/>
<path d="M57.9272 280.516C57.5088 278.863 57.4042 277.148 57.6761 275.474C58.0946 277.127 58.1992 278.842 57.9272 280.516Z" fill="#263238"/>
<path d="M62.4671 280.223C62.0278 278.382 61.9232 276.478 62.1533 274.616C62.5926 276.457 62.6972 278.361 62.4671 280.223Z" fill="#263238"/>
<path d="M71.2332 328.276C71.1704 325.515 71.4424 322.753 72.0701 320.076C72.1328 322.837 71.8608 325.598 71.2332 328.276Z" fill="#263238"/>
<path d="M182.242 401.937C182.87 403.569 183.163 405.284 183.121 407.02C182.494 405.389 182.201 403.673 182.242 401.937Z" fill="#263238"/>
<path d="M188.121 401.937C188.707 403.401 188.979 404.97 188.895 406.56C188.31 405.096 188.038 403.527 188.121 401.937Z" fill="#263238"/>
<path d="M193.728 401.371C194.23 403.065 194.523 404.802 194.607 406.559C193.854 404.948 193.54 403.149 193.728 401.371Z" fill="#263238"/>
<path d="M172.117 292.88C172.117 292.88 170.861 292.88 168.916 293.298C163.748 294.344 159.522 298.026 157.785 303.005C157.116 304.867 157.032 306.122 156.928 306.122C156.886 305.829 156.886 305.536 156.928 305.243C157.011 304.448 157.179 303.653 157.43 302.9C159.041 297.691 163.455 293.821 168.832 292.942C169.627 292.817 170.422 292.754 171.217 292.775C171.51 292.775 171.803 292.775 172.096 292.88" fill="#263238"/>
<path d="M179.502 313.173C178.539 313.675 177.556 314.092 176.531 314.427C174.669 315.138 172.054 316.039 169.146 316.96C166.238 317.88 163.581 318.591 161.635 319.072C160.61 319.386 159.543 319.594 158.476 319.72C159.48 319.302 160.505 318.967 161.551 318.716L168.999 316.457L176.405 314.073C177.41 313.696 178.456 313.381 179.502 313.151" fill="#FAFAFA"/>
<path d="M187.117 347.565C186.113 347.92 185.067 348.213 184.021 348.401C182.096 348.862 179.439 349.447 176.489 350.075C173.539 350.703 170.861 351.226 168.916 351.602C167.869 351.853 166.802 352.021 165.735 352.083C166.74 351.728 167.765 351.435 168.832 351.246C170.757 350.786 173.435 350.2 176.384 349.573C179.334 348.945 182.012 348.422 183.958 348.046C185.004 347.795 186.05 347.627 187.117 347.565Z" fill="#FAFAFA"/>
<path d="M195.737 390.639C194.754 390.764 193.77 390.827 192.766 390.785C190.946 390.827 188.414 390.911 185.632 391.078C182.849 391.246 180.318 391.455 178.498 391.622C177.514 391.769 176.531 391.831 175.527 391.81C176.489 391.539 177.472 391.35 178.456 391.267C180.276 391.016 182.786 390.744 185.59 390.576C188.393 390.409 190.925 390.388 192.766 390.451C193.749 390.43 194.754 390.493 195.737 390.66" fill="#FAFAFA"/>
<path d="M116.528 350.159C115.817 349.949 115.127 349.657 114.478 349.28L109.645 346.958L104.791 344.678C104.101 344.406 103.431 344.05 102.825 343.632C103.557 343.778 104.268 344.008 104.938 344.343C106.214 344.845 107.971 345.598 109.875 346.498C111.779 347.397 113.453 348.276 114.666 348.945C115.336 349.259 115.963 349.677 116.549 350.138" fill="#FAFAFA"/>
<path d="M156.3 356.895C155.902 356.79 155.505 356.644 155.128 356.456L152.011 355.096C149.396 353.945 145.755 352.397 141.697 350.765C137.638 349.134 133.935 347.774 131.236 346.791L128.056 345.619C127.658 345.493 127.261 345.347 126.905 345.138C127.324 345.201 127.721 345.284 128.119 345.431C128.893 345.64 130.002 345.996 131.362 346.435C134.081 347.334 137.826 348.652 141.885 350.284C145.944 351.916 149.563 353.527 152.157 354.761C153.455 355.368 154.501 355.891 155.212 356.267C155.589 356.435 155.965 356.644 156.3 356.895Z" fill="#FAFAFA"/>
<path d="M159.396 328.82C159.208 328.82 159.02 328.82 158.831 328.778L157.241 328.548L151.446 327.607C146.551 326.812 139.793 325.724 132.303 324.615C124.813 323.507 118.035 322.607 113.118 321.958L107.302 321.184L105.712 320.954C105.524 320.954 105.335 320.891 105.168 320.85C105.356 320.85 105.544 320.85 105.733 320.85L107.323 320.975C108.704 321.101 110.691 321.31 113.16 321.582C118.097 322.126 124.897 322.984 132.387 324.092C139.877 325.201 146.634 326.331 151.509 327.23C153.957 327.67 155.923 328.046 157.283 328.339L158.852 328.674C159.041 328.695 159.208 328.757 159.396 328.82Z" fill="#FAFAFA"/>
<path d="M157.158 299.156C157.158 299.302 146.446 297.817 133.265 295.85C120.085 293.884 109.436 292.168 109.457 292.022C109.478 291.875 120.169 293.362 133.349 295.328C146.53 297.295 157.179 299.009 157.158 299.156Z" fill="#FAFAFA"/>
<path d="M101.13 325.096C100.544 324.071 100.042 322.983 99.6028 321.875L96.1298 314.052L92.5732 306.268C92.0292 305.222 91.569 304.114 91.1714 303.005C91.3807 303.256 91.548 303.529 91.6736 303.822C91.9665 304.366 92.3849 305.139 92.887 306.122C93.8912 308.068 95.2093 310.809 96.5692 313.863C97.9291 316.918 99.1007 319.721 99.9166 321.75C100.314 322.775 100.628 323.612 100.837 324.177C100.963 324.47 101.067 324.783 101.109 325.096" fill="#FAFAFA"/>
<path d="M79.8319 345.933C79.6855 345.954 78.3256 339.991 76.7774 332.607C75.2292 325.222 74.0994 319.197 74.2459 319.176C74.3923 319.155 75.7522 325.117 77.2795 332.502C78.8068 339.887 79.9574 345.912 79.811 345.933" fill="#FAFAFA"/>
<path d="M71.0449 313.507C67.9904 314.427 64.9149 315.18 61.7767 315.745C58.6803 316.498 55.563 317.084 52.4039 317.482C55.4584 316.561 58.5339 315.808 61.6721 315.243C64.7685 314.49 67.8858 313.904 71.0449 313.507Z" fill="#FAFAFA"/>
<path d="M67.9487 286.458C67.1537 286.73 66.3377 286.897 65.5009 287.002C63.9945 287.253 61.8814 287.567 59.5382 287.839C57.195 288.111 55.082 288.278 53.5547 288.362C52.7179 288.466 51.881 288.466 51.0651 288.383C51.881 288.174 52.6969 288.048 53.5338 287.985L59.4964 287.316L65.459 286.646C66.275 286.5 67.1118 286.437 67.9487 286.479" fill="#FAFAFA"/>
<path d="M75.9615 239.512C76.2544 240.077 83.6606 278.235 83.6606 278.235L66.1702 279.051L59.3917 246.249L75.9615 239.533V239.512Z" fill="#455A64"/>
<path d="M83.6815 278.235L85.6899 277.399L78.1164 239.784L75.7313 239.617L83.6815 278.235Z" fill="#263238"/>
<path d="M68.932 247.86C68.9947 248.362 68.6391 248.801 68.137 248.864C67.6348 248.927 67.1955 248.571 67.1327 248.069C67.07 247.567 67.4256 247.127 67.9277 247.065C68.4299 247.002 68.8692 247.357 68.932 247.86Z" fill="#263238"/>
<path d="M65.3334 274.637L65.0823 269.637L72.5513 266.562L69.6432 259.638C68.3042 256.583 64.7476 255.203 61.6931 256.541C61.5466 256.604 61.4002 256.688 61.2537 256.751L58.2619 258.382C56.128 259.533 54.5798 261.541 54.0149 263.926C53.1989 267.964 52.6341 272.022 52.2784 276.123" fill="#FFBE9D"/>
<path d="M45.3115 401.832C45.3115 401.832 14.557 410.347 13.3226 410.786C11.4606 411.434 11.7745 418.234 14.6616 418.129C16.0215 418.087 38.2819 418.966 41.1063 418.777C44.9768 417.941 48.7426 416.748 52.4039 415.263L45.3115 401.853V401.832Z" fill="#5238A0"/>
<path d="M32.5076 413.567C32.131 412.438 31.6708 411.329 31.1477 410.262C30.4782 409.279 29.746 408.337 28.9719 407.438C31.1896 408.672 32.5495 411.036 32.5076 413.567Z" fill="#263238"/>
<path d="M35.7086 412.124C35.5621 412.145 35.2483 410.701 34.4324 409.09C33.6164 407.48 32.654 406.35 32.7587 406.245C34.5788 407.668 35.6458 409.823 35.7086 412.124Z" fill="#263238"/>
<path d="M38.7213 411.308C38.5749 410.199 38.3238 409.111 38.01 408.065C37.5288 407.061 36.9639 406.099 36.3363 405.178C38.3238 406.517 39.2862 408.965 38.7213 411.308Z" fill="#263238"/>
<path d="M38.1774 407.334C37.9054 406.602 37.8008 405.828 37.8426 405.054C37.8426 404.217 37.9472 403.359 38.1564 402.543C38.282 402.062 38.4284 401.581 38.6167 401.121C38.7004 400.828 38.8887 400.577 39.1188 400.368C39.4326 400.117 39.8929 400.159 40.1858 400.41C40.4369 400.64 40.5833 400.954 40.6042 401.288C40.6461 401.56 40.6461 401.832 40.6461 402.104C40.6461 402.606 40.5833 403.108 40.4578 403.61C40.2486 404.426 39.9348 405.221 39.5163 405.953C39.1816 406.644 38.7004 407.271 38.1355 407.815C38.0727 407.773 38.5749 407.041 39.2025 405.807C39.5582 405.075 39.8301 404.322 40.0184 403.527C40.123 403.066 40.1649 402.585 40.1649 402.125C40.1649 401.644 40.1649 401.058 39.8929 400.828C39.7883 400.702 39.6 400.702 39.4954 400.786C39.3489 400.933 39.2234 401.121 39.1607 401.33C38.9724 401.769 38.8259 402.23 38.7004 402.69C38.4912 403.485 38.3447 404.28 38.3029 405.096C38.2192 406.497 38.3447 407.355 38.261 407.376" fill="#263238"/>
<path d="M38.1984 407.02C38.826 406.748 39.4955 406.644 40.1859 406.707C40.9181 406.707 41.6504 406.79 42.3617 406.979C42.8011 407.083 43.2195 407.23 43.617 407.439C44.1401 407.69 44.412 408.276 44.3074 408.84C44.161 409.384 43.7425 409.803 43.1986 409.928C42.7383 410.033 42.278 410.033 41.8178 409.928C41.0855 409.74 40.416 409.405 39.8093 408.945C39.2444 408.568 38.7632 408.087 38.3867 407.543C38.9515 407.878 39.5164 408.234 40.0185 408.652C40.5834 409.05 41.232 409.322 41.9015 409.468C42.278 409.552 42.6756 409.552 43.0521 409.468C43.4078 409.384 43.7007 409.091 43.8053 408.736C43.8681 408.38 43.6798 408.025 43.345 407.878C42.9894 407.69 42.6128 407.543 42.2362 407.439C41.5667 407.25 40.8554 407.125 40.165 407.083C38.9515 406.999 38.1984 407.125 38.1984 407.041" fill="#263238"/>
<path d="M27.7794 413.902C27.6539 412.961 27.4447 412.04 27.1727 411.12C26.7334 410.283 26.2313 409.467 25.6664 408.714C27.5075 409.718 28.4071 411.894 27.7794 413.902Z" fill="#263238"/>
<path d="M49.2448 415.325C48.8682 415.555 48.4707 415.743 48.0523 415.889C46.9434 416.329 45.7927 416.684 44.6211 416.956C40.7716 417.793 36.8174 418.17 32.8842 418.065C28.2815 418.023 24.1181 417.814 21.1054 417.689L17.5488 417.5C17.1094 417.5 16.6701 417.458 16.2517 417.354C16.691 417.291 17.1304 417.27 17.5697 417.291H21.1473L32.9051 417.542C36.8174 417.647 40.7298 417.312 44.5584 416.58C47.5083 415.973 49.2239 415.22 49.2448 415.325Z" fill="#263238"/>
<path d="M50.1444 416.015C50.1444 416.015 49.2657 415.597 47.843 414.969C46.0228 414.111 44.0144 413.777 42.0268 414.007C40.0812 414.425 38.3028 415.492 37.0057 416.998C36.4617 417.647 35.8759 418.253 35.2274 418.797C35.6458 418.044 36.1479 417.354 36.7337 416.747C37.3404 416.036 38.0308 415.387 38.7631 414.843C39.7046 414.153 40.7925 413.693 41.9432 413.505C44.0353 413.254 46.1484 413.651 47.9895 414.655C48.7845 414.99 49.4958 415.471 50.1444 416.036" fill="#263238"/>
<path d="M77.97 393.339C77.97 393.339 107.072 412.396 108.118 413.191C109.687 414.383 107.888 420.011 105.168 419.048C103.892 418.588 79.4554 411.789 76.8402 410.764C73.4091 408.798 70.1663 406.518 67.1327 403.987L77.97 393.359V393.339Z" fill="#5238A0"/>
<path d="M86.6106 408.422C87.3219 405.974 89.3513 404.132 91.841 403.651C90.8158 404.279 89.8534 404.949 88.912 405.681C88.096 406.539 87.3219 407.46 86.6106 408.422Z" fill="#263238"/>
<path d="M83.9954 406.057C84.7485 403.881 86.4432 402.166 88.5981 401.371C88.6818 401.496 87.4056 402.27 86.1293 403.568C84.8531 404.865 84.1209 406.141 83.9954 406.078" fill="#263238"/>
<path d="M81.3593 404.384C81.5476 401.979 83.2004 399.949 85.5018 399.28C84.6231 399.949 83.7862 400.702 83.033 401.518C82.4054 402.439 81.8405 403.401 81.3593 404.405" fill="#263238"/>
<path d="M83.0957 400.764C83.0957 400.764 83.4095 399.948 83.7652 398.589C83.9534 397.794 84.079 396.999 84.0999 396.183C84.0999 395.702 84.0999 395.22 84.079 394.739C84.079 394.53 84.0162 394.321 83.9116 394.133C83.8279 394.007 83.6605 393.965 83.5141 394.049C83.1793 394.174 83.012 394.739 82.8446 395.199C82.6982 395.639 82.6145 396.12 82.5517 396.58C82.4889 397.396 82.5099 398.212 82.6354 399.007C82.8446 400.388 83.1166 401.225 83.0329 401.245C82.6563 400.576 82.3843 399.823 82.2797 399.07C82.0914 398.233 82.0287 397.396 82.0914 396.538C82.1333 396.036 82.217 395.534 82.3634 395.053C82.4471 394.802 82.5308 394.53 82.6563 394.3C82.7818 393.986 83.012 393.735 83.3049 393.589C83.6605 393.421 84.0999 393.526 84.33 393.861C84.4765 394.133 84.5602 394.425 84.5602 394.739C84.6648 396.078 84.4974 397.438 84.0999 398.714C83.9116 399.467 83.5769 400.178 83.0957 400.785" fill="#263238"/>
<path d="M83.1585 400.45C83.1585 400.45 82.4472 400.179 81.2756 399.886C80.5852 399.718 79.8948 399.635 79.1835 399.593C78.786 399.572 78.3885 399.593 77.9909 399.676C77.6353 399.718 77.3424 399.99 77.3005 400.367C77.3005 400.743 77.4679 401.099 77.8027 401.287C78.1374 401.496 78.4931 401.622 78.8906 401.643C79.581 401.706 80.2714 401.643 80.9409 401.434C81.5685 401.204 82.1962 401.015 82.8447 400.869C82.3008 401.287 81.694 401.58 81.0455 401.768C80.3341 402.04 79.6019 402.145 78.8487 402.103C78.3885 402.082 77.9282 401.936 77.5307 401.685C77.0495 401.392 76.7775 400.869 76.7984 400.304C76.8612 399.718 77.3215 399.258 77.8863 399.174C78.3257 399.091 78.786 399.07 79.2253 399.112C79.9576 399.153 80.6898 399.3 81.3802 399.53C82.0497 399.676 82.6564 399.99 83.1795 400.43" fill="#263238"/>
<path d="M101.465 417.981C101.465 417.981 100.983 417.689 100.753 416.852C100.523 415.764 100.711 414.634 101.297 413.693C101.59 413.191 101.904 412.689 102.281 412.228C102.553 411.831 102.887 411.475 103.264 411.162C103.536 410.952 103.85 410.806 104.185 410.764C104.436 410.764 104.561 410.806 104.54 410.848C104.143 410.952 103.787 411.162 103.473 411.433C103.159 411.747 102.887 412.103 102.636 412.5C102.302 412.961 102.009 413.442 101.737 413.923C101.214 414.781 100.983 415.764 101.088 416.768C101.193 417.521 101.507 417.919 101.444 417.961" fill="#263238"/>
<path d="M91.004 410.178C91.004 408.065 92.5313 406.288 94.5816 405.891C92.9288 406.874 91.6526 408.379 91.004 410.178Z" fill="#263238"/>
<path d="M70.1244 405.011C70.5637 405.262 71.0032 405.555 71.4007 405.89C72.5513 406.685 73.7438 407.417 74.9782 408.086C76.8192 409.049 78.7231 409.906 80.6688 410.618C82.8655 411.433 85.3552 412.208 87.9704 412.982C93.2007 414.488 97.9499 415.869 101.36 416.894L105.398 418.128C105.9 418.253 106.381 418.442 106.863 418.651C106.339 418.588 105.837 418.484 105.335 418.316L101.235 417.228C97.7825 416.287 93.0335 414.969 87.7822 413.463C85.167 412.71 82.6772 411.915 80.4596 411.057C78.493 410.304 76.5891 409.425 74.748 408.4C73.5136 407.71 72.3421 406.915 71.2123 406.036C70.7939 405.722 70.3963 405.367 70.0616 404.99" fill="#263238"/>
<path d="M69.0575 405.388C69.8316 405.032 70.6684 404.823 71.5262 404.739C73.5974 404.342 75.7314 404.614 77.6353 405.492C78.6814 406.015 79.581 406.789 80.2505 407.752C80.7944 408.505 81.2547 409.321 81.6104 410.199C81.9869 410.973 82.2589 411.768 82.4263 412.605C81.9869 411.873 81.6104 411.12 81.2965 410.346C80.5015 408.505 79.1416 406.957 77.4052 405.973C75.585 405.157 73.5556 404.865 71.5681 405.137C70.0199 405.304 69.0784 405.513 69.0575 405.429" fill="#263238"/>
<path d="M146.174 242.379L148.078 280.83C148.413 287.147 143.559 292.524 137.241 292.859C130.922 293.193 125.545 288.34 125.211 282.022C125.211 282.001 125.211 281.959 125.211 281.938C125.064 279.051 124.939 276.625 124.918 276.332C124.918 276.332 115.085 275.892 113.892 266.248C113.327 261.583 112.93 251.876 112.658 243.09C112.386 233.655 119.395 225.601 128.788 224.576L129.73 224.471C139.856 223.948 145.944 232.253 146.195 242.379" fill="#FFBE9D"/>
<path d="M124.876 276.186C129.353 275.768 133.6 274.052 137.073 271.207C137.073 271.207 134.855 278.488 125.127 278.676L124.876 276.165V276.186Z" fill="#EB996E"/>
<path d="M115.733 249.115C115.796 249.868 116.466 250.433 117.219 250.37C117.951 250.349 118.537 249.742 118.495 249.01C118.495 249.01 118.495 248.989 118.495 248.968C118.432 248.215 117.763 247.65 117.009 247.713C116.277 247.734 115.691 248.341 115.712 249.094C115.712 249.094 115.712 249.094 115.712 249.115" fill="#263238"/>
<path d="M115.252 247.609C115.44 247.776 116.403 246.876 117.888 246.73C119.374 246.583 120.545 247.19 120.692 247.002C120.754 246.918 120.545 246.604 120.043 246.311C119.353 245.935 118.558 245.788 117.784 245.872C117.009 245.956 116.277 246.291 115.712 246.814C115.294 247.211 115.168 247.546 115.273 247.629" fill="#263238"/>
<path d="M130.315 247.86C130.378 248.613 131.048 249.178 131.801 249.115C132.533 249.094 133.119 248.487 133.077 247.755C133.077 247.755 133.077 247.734 133.077 247.713C133.014 246.96 132.345 246.395 131.592 246.458C130.859 246.479 130.274 247.086 130.295 247.839C130.295 247.839 130.295 247.839 130.295 247.86" fill="#263238"/>
<path d="M129.876 246.27C130.064 246.437 131.027 245.537 132.512 245.391C133.998 245.245 135.169 245.851 135.316 245.663C135.378 245.579 135.169 245.265 134.667 244.973C133.977 244.596 133.182 244.45 132.408 244.533C131.633 244.617 130.901 244.931 130.336 245.475C129.918 245.872 129.792 246.207 129.897 246.291" fill="#263238"/>
<path d="M125.713 257.88C124.897 257.713 124.081 257.671 123.244 257.713C122.867 257.713 122.491 257.671 122.407 257.42C122.323 257.023 122.386 256.625 122.533 256.269C122.784 255.307 123.056 254.303 123.328 253.257C124.102 250.705 124.667 248.069 125.022 245.433C124.039 247.922 123.265 250.496 122.7 253.111C122.428 254.157 122.177 255.182 121.947 256.144C121.759 256.625 121.738 257.169 121.905 257.65C122.052 257.901 122.303 258.089 122.595 258.131C122.805 258.173 123.035 258.173 123.244 258.131C124.06 258.131 124.897 258.048 125.692 257.859" fill="#263238"/>
<path d="M130.19 258.424C129.939 258.424 130.127 260.056 128.872 261.353C127.617 262.65 125.88 262.671 125.901 262.88C125.901 262.985 126.319 263.152 127.052 263.089C127.993 263.006 128.872 262.587 129.541 261.897C130.169 261.248 130.546 260.37 130.546 259.47C130.546 258.78 130.315 258.403 130.211 258.424" fill="#263238"/>
<path d="M128.851 240.496C129.039 240.872 130.504 240.539 132.261 240.539C134.019 240.539 135.483 240.872 135.671 240.496C135.755 240.307 135.462 239.952 134.855 239.638C133.203 238.843 131.299 238.843 129.646 239.638C129.039 239.973 128.746 240.328 128.83 240.496" fill="#263238"/>
<path d="M115.336 243.236C115.629 243.55 116.612 243.09 117.846 242.922C119.06 242.734 120.148 242.902 120.336 242.525C120.42 242.337 120.21 242.023 119.729 241.751C118.39 241.102 116.8 241.333 115.691 242.316C115.294 242.713 115.189 243.069 115.315 243.215" fill="#263238"/>
<path d="M146.174 249.617C146.32 249.533 152.597 246.918 153.12 253.55C153.643 260.181 146.864 259.324 146.843 259.135C146.823 258.947 146.174 249.617 146.174 249.617Z" fill="#FFBE9D"/>
<path d="M148.664 256.479C148.664 256.479 148.789 256.541 148.977 256.625C149.27 256.73 149.563 256.709 149.835 256.583C150.672 255.956 151.09 254.951 150.965 253.926C150.944 253.362 150.777 252.797 150.505 252.295C150.337 251.876 150.003 251.583 149.563 251.479C149.291 251.437 148.998 251.583 148.915 251.855C148.831 252.044 148.915 252.169 148.852 252.19C148.789 252.211 148.705 252.085 148.726 251.813C148.747 251.646 148.831 251.5 148.956 251.374C149.124 251.228 149.354 251.144 149.584 251.165C150.149 251.228 150.63 251.583 150.881 252.106C151.216 252.65 151.404 253.278 151.425 253.926C151.593 255.119 151.007 256.311 149.961 256.918C149.605 257.043 149.208 257.023 148.894 256.834C148.685 256.688 148.622 256.541 148.643 256.52" fill="#EB996E"/>
<path d="M149.814 248.989C148.517 249.052 147.366 249.805 146.823 250.977C146.509 251.96 146.509 253.048 146.195 254.031C145.881 255.014 145.002 255.977 143.956 255.851C143.245 255.705 142.638 255.182 142.408 254.491C142.178 253.801 142.094 253.09 142.157 252.357C142.199 249.219 142.513 246.102 142.303 242.985C142.199 239.826 141.195 236.793 139.354 234.22C137.471 231.647 134.311 230.308 131.152 230.726C129.123 231.124 127.345 232.4 125.336 232.902C122.909 233.487 120.357 232.944 118.39 231.395C118.139 231.207 117.03 230.621 117.03 230.621C116.989 229.889 117.135 229.157 117.491 228.509C121.131 224.325 128.307 222.463 133.788 223.237C139.437 223.99 144.479 227.17 147.555 231.981C150.4 236.73 150.484 243.78 149.793 248.989" fill="#263238"/>
<path d="M41.8176 401.496C41.8176 401.496 113.202 354.677 116.11 353.694C119.018 352.711 126.089 348.088 133.161 350.033C140.232 351.979 146.55 358.317 149.731 367.564C152.911 376.811 153.141 397.522 153.141 397.522C153.141 397.522 147.534 413.839 136.571 417.249C135.629 417.542 134.688 417.772 133.726 417.961C120.273 420.45 106.653 414.571 99.247 403.065L97.657 400.639C97.657 400.639 50.9603 417.793 50.2281 417.542L41.8176 401.455V401.496Z" fill="#263238"/>
<path d="M17.4651 346.874C12.172 348.987 8.71997 354.092 8.69905 359.782C8.63629 378.526 46.5878 399.216 46.5878 399.216L97.113 365.744V362.229C97.113 362.229 32.0892 338.841 17.4651 346.895" fill="#263238"/>
<path d="M130.127 388.589C130.127 388.589 130.002 388.652 129.73 388.756L128.558 389.216L124.039 390.953L107.218 397.292C100.063 399.948 91.527 403.128 81.9241 406.622C72.3211 410.116 61.6721 413.944 50.3118 417.793L50.1026 417.856L49.9979 417.668L44.4119 407.019L41.5666 401.58L41.462 401.371L41.6503 401.245L96.0879 366.686L112.449 356.372L116.884 353.59L118.035 352.878C118.307 352.711 118.432 352.648 118.432 352.648C118.432 352.648 118.307 352.753 118.056 352.92L116.926 353.673L112.532 356.518L96.2553 366.978L41.9013 401.664L41.985 401.329L44.8304 406.768L50.3955 417.417L50.0816 417.291C61.442 413.463 72.091 409.634 81.6939 406.183L107.03 396.957L123.893 390.764L128.453 389.112L129.646 388.693C129.918 388.61 130.064 388.568 130.064 388.568" fill="#455A64"/>
<path d="M71.5261 382.647C71.0658 382.396 70.6265 382.083 70.2081 381.748C69.3712 381.141 68.1996 380.263 66.756 379.133C63.8689 376.894 59.9356 373.736 55.6886 370.095C51.4415 366.455 47.7175 363.045 45.0814 360.535C43.7634 359.28 42.6964 358.234 41.985 357.523C41.5875 357.167 41.2319 356.769 40.8971 356.351C41.3365 356.665 41.734 357 42.1106 357.376L45.3115 360.284C48.0104 362.732 51.7763 366.1 56.0024 369.74C60.2285 373.38 64.1199 376.581 66.9652 378.882L70.3127 381.622C70.7311 381.936 71.1286 382.292 71.5052 382.668" fill="#455A64"/>
<path d="M31.7335 353.882C33.3654 353.631 35.0391 353.778 36.6082 354.322C38.2192 354.698 39.7046 355.493 40.939 356.602C40.8553 356.728 39.0142 355.556 36.4618 354.824C33.9094 354.092 31.7335 354.05 31.7335 353.882Z" fill="#455A64"/>
<path d="M36.0852 350.933C38.4493 351.937 40.1649 354.05 40.6461 356.581C40.4996 356.623 39.9557 355.054 38.6795 353.506C37.4032 351.958 36.0015 351.058 36.0852 350.933Z" fill="#455A64"/>
<path d="M14.7035 410.304C14.7035 410.304 15.3102 410.116 16.0006 410.701C16.8165 411.475 17.3396 412.5 17.4651 413.63C17.6325 414.739 17.4651 415.848 17.0048 416.873C16.6491 417.647 16.2516 418.002 16.2098 417.961C16.168 417.919 16.419 417.479 16.6701 416.726C17.0048 415.764 17.1094 414.718 16.963 413.693C16.8584 412.689 16.4399 411.726 15.7704 410.952C15.2265 410.387 14.7035 410.367 14.7035 410.283" fill="#263238"/>
</g>
<path d="M434.032 356.415H365.075V365.892H434.032V356.415Z" fill="#263238"/>
<path d="M434.158 366.017H364.97V356.31H434.158V366.017ZM365.2 365.787H433.927V356.54H365.2V365.787Z" fill="#263238"/>
<path d="M371.477 362.733L381.394 411.706H418.111L427.714 365.892L371.477 362.733Z" fill="#263238"/>
<path d="M371.477 407.062L376.77 414.342H421.416L427.735 407.062H371.477Z" fill="#455A64"/>
<mask id="mask7_72_271" style="mask-type:luminance" maskUnits="userSpaceOnUse" x="1" y="27" width="465" height="393">
<path d="M466 27.1535H1V419.154H466V27.1535Z" fill="white"/>
</mask>
<g mask="url(#mask7_72_271)">
<path d="M396.959 364.176C396.813 364.176 396.646 341.499 396.562 313.508C396.478 285.517 396.52 262.839 396.666 262.839C396.813 262.839 396.98 285.517 397.043 313.508C397.106 341.499 397.085 364.176 396.938 364.176" fill="#263238"/>
<path d="M412.337 307.398C412.295 307.586 412.232 307.754 412.148 307.921L411.542 309.385L411.102 310.452L410.642 311.729L410.119 313.214C409.931 313.737 409.784 314.302 409.617 314.887C408.801 317.649 408.152 320.473 407.692 323.339C407.148 326.833 406.792 330.368 406.625 333.904C406.374 340.347 406.541 346.791 407.169 353.192C407.399 355.661 407.608 357.648 407.776 359.008C407.838 359.656 407.901 360.179 407.943 360.598C408.089 360.598 408.215 360.723 408.215 360.891C408.215 361.037 408.089 361.163 407.922 361.163C407.776 361.163 407.65 361.037 407.65 360.87C407.65 360.744 407.734 360.661 407.838 360.619C407.776 360.2 407.671 359.677 407.566 359.05C407.336 357.69 407.064 355.702 406.792 353.234C406.06 346.811 405.83 340.347 406.102 333.883C406.269 330.326 406.646 326.791 407.211 323.276C407.692 320.41 408.382 317.586 409.261 314.804C409.449 314.218 409.617 313.653 409.805 313.13L410.37 311.666C410.537 311.206 410.705 310.787 410.872 310.39C411.039 310.013 411.207 309.657 411.353 309.344L412.044 307.9C412.106 307.733 412.211 307.565 412.316 307.419" fill="#263238"/>
<path d="M410.579 289.052C410.537 289.303 410.454 289.554 410.37 289.805L409.659 291.918L409.136 293.444L408.571 295.285C408.173 296.603 407.692 298.09 407.294 299.763L406.604 302.378L405.956 305.243C405.474 307.21 405.119 309.366 404.679 311.604C403.926 316.102 403.257 321.081 402.796 326.353C402.336 331.624 402.169 336.645 402.106 341.206C402.106 345.766 402.148 349.888 402.336 353.339C402.399 355.076 402.503 356.624 402.587 358.005C402.671 359.385 402.755 360.556 402.838 361.518C402.901 362.439 402.964 363.193 403.006 363.737C403.026 363.988 403.047 364.259 403.027 364.51C402.964 364.259 402.922 364.009 402.901 363.737C402.838 363.193 402.755 362.439 402.65 361.518C402.524 360.556 402.42 359.385 402.315 358.005C402.211 356.624 402.064 355.076 401.98 353.339C401.75 349.888 401.646 345.766 401.646 341.185C401.688 336.603 401.855 331.561 402.294 326.289C402.734 321.017 403.445 316.018 404.219 311.52C404.679 309.282 405.035 307.126 405.537 305.139L406.207 302.273L406.939 299.659C407.378 297.985 407.88 296.5 408.299 295.182L408.885 293.362L409.449 291.854L410.265 289.784C410.349 289.533 410.454 289.303 410.579 289.073" fill="#263238"/>
<path d="M392.608 368.193C392.608 368.193 392.566 368.025 392.566 367.921C392.566 367.712 392.524 367.461 392.503 367.147C392.461 366.415 392.377 365.41 392.294 364.134C392.126 361.477 391.896 357.712 391.603 353.088C390.997 343.758 390.139 330.871 388.57 316.708C387.775 309.617 386.833 302.901 385.871 296.793C385.348 293.738 384.888 290.851 384.365 288.153C383.883 285.454 383.36 282.944 382.879 280.663C382.398 278.383 381.917 276.312 381.519 274.513C381.122 272.714 380.724 271.145 380.41 269.889C380.097 268.634 379.866 267.672 379.699 266.961L379.532 266.187C379.532 266.187 379.49 266.019 379.49 265.915C379.532 265.998 379.553 266.082 379.574 266.166L379.804 266.919L380.62 269.827C380.975 271.082 381.394 272.63 381.812 274.45C382.231 276.27 382.775 278.299 383.256 280.6C383.737 282.902 384.302 285.391 384.804 288.09C385.348 290.789 385.829 293.676 386.352 296.73C387.335 302.838 388.298 309.575 389.093 316.667C390.662 330.85 391.478 343.758 391.98 353.088C392.231 357.754 392.419 361.54 392.524 364.155C392.566 365.431 392.608 366.435 392.629 367.168C392.629 367.481 392.629 367.753 392.629 367.942C392.629 368.025 392.629 368.13 392.629 368.214" fill="#263238"/>
<path d="M396.415 273.738C395.85 270.453 392.984 268.047 389.637 268.068C386.352 268.215 383.339 269.847 381.436 272.524C379.574 275.181 378.235 278.152 377.481 281.29C375.138 288.842 374.301 296.771 375.055 304.637C375.829 312.544 379.26 319.971 384.762 325.682C385.557 326.707 386.812 327.272 388.11 327.209C388.779 327 389.386 326.624 389.867 326.122C400.976 315.933 407.169 301.457 406.834 286.394C406.939 283.403 406.207 280.453 404.7 277.838C403.047 275.369 399.219 272.734 396.415 273.717" fill="#5238A0"/>
<path d="M372.314 248.007L367.774 256.229C367.669 256.417 367.523 256.626 367.314 256.647C367.104 256.668 366.895 256.438 366.77 256.229L354.761 237.777L357.522 236.208L372.335 247.986L372.314 248.007Z" fill="#5238A0"/>
<g opacity="0.2">
<mask id="mask8_72_271" style="mask-type:luminance" maskUnits="userSpaceOnUse" x="354" y="236" width="19" height="21">
<path d="M372.293 236.25H354.719V256.668H372.293V236.25Z" fill="white"/>
</mask>
<g mask="url(#mask8_72_271)">
<path d="M372.314 248.007L367.774 256.229C367.669 256.417 367.523 256.626 367.314 256.647C367.104 256.668 366.895 256.438 366.77 256.229L354.761 237.777L357.522 236.208L372.335 247.986L372.314 248.007Z" fill="black"/>
</g>
</g>
<path d="M396.687 262.839L355.681 238.656C355.242 238.467 354.865 238.091 354.677 237.652C354.51 237.045 354.97 236.459 355.409 235.999C361.121 230.079 369.113 226.941 377.314 227.401C385.536 227.987 392.963 232.61 397.127 239.723C401.227 246.94 401.06 255.81 396.687 262.86" fill="#5238A0"/>
<path d="M361.602 230.935C361.769 230.893 361.958 230.872 362.146 230.872C362.502 230.872 363.025 230.789 363.694 230.789C365.598 230.768 367.502 230.914 369.385 231.249C382.147 233.404 392.503 242.776 395.913 255.244C396.415 257.085 396.771 258.968 396.938 260.851C397.022 261.52 397.001 262.043 397.022 262.399C397.022 262.587 397.022 262.755 397.022 262.943C396.98 262.943 396.917 262.211 396.771 260.872C396.541 258.989 396.143 257.148 395.62 255.328C392.106 243.048 381.917 233.822 369.364 231.563C367.502 231.207 365.619 231.019 363.736 230.956C362.397 230.935 361.644 230.956 361.644 230.914" fill="#263238"/>
<path d="M391.143 246.145C390.495 246.543 389.804 246.856 389.072 247.087C387.775 247.61 385.934 248.258 383.904 248.907C381.875 249.555 379.992 250.078 378.632 250.413C377.9 250.643 377.147 250.768 376.393 250.831C377.084 250.497 377.795 250.245 378.527 250.078L383.758 248.446L388.967 246.773C389.679 246.501 390.411 246.292 391.164 246.166" fill="#263238"/>
<path d="M384.699 228.781C385.264 231.794 385.348 234.89 384.929 237.944C384.699 234.89 384.616 231.836 384.699 228.781Z" fill="#263238"/>
<path d="M355.326 238.195C356.288 237.755 357.292 237.421 358.296 237.15C360.158 236.585 362.753 235.852 365.64 235.141C368.527 234.43 371.163 233.907 373.088 233.572C374.113 233.342 375.18 233.196 376.226 233.154C375.222 233.489 374.197 233.739 373.172 233.927C371.268 234.345 368.653 234.932 365.765 235.643C362.878 236.355 360.284 237.003 358.401 237.505C357.397 237.819 356.372 238.049 355.326 238.216" fill="#263238"/>
<path d="M377.774 266.144C374.385 263.717 370.222 262.65 366.1 263.11C361.665 263.403 357.334 264.533 353.317 266.416C346.267 269.24 340.178 274.031 335.764 280.223C331.391 286.541 330.471 294.637 333.295 301.791C333.546 302.503 334.028 303.109 334.697 303.486C335.471 303.695 336.287 303.632 337.019 303.319C344.969 300.997 352.669 297.942 360.033 294.156C367.418 290.327 373.569 284.47 377.712 277.252C378.716 275.537 379.343 273.612 379.574 271.646C379.783 269.637 379.134 267.65 377.774 266.165" fill="#5238A0"/>
<path d="M377.858 265.307C377.67 265.412 377.481 265.475 377.293 265.538L375.64 266.103L374.448 266.5C374.008 266.647 373.548 266.856 373.046 267.044C372.042 267.442 370.891 267.838 369.678 268.445L367.753 269.324C367.083 269.637 366.414 270.015 365.703 270.371C364.28 271.082 362.836 271.959 361.309 272.88C354.719 276.959 348.861 282.128 343.965 288.132C342.877 289.533 341.789 290.851 340.932 292.169C340.492 292.818 340.032 293.445 339.635 294.052L338.526 295.85C337.793 296.98 337.249 298.068 336.706 299.009C336.454 299.49 336.203 299.91 335.994 300.328L335.45 301.457L334.676 303.026C334.592 303.214 334.488 303.381 334.383 303.549C334.425 303.36 334.509 303.151 334.592 302.984L335.283 301.374L335.785 300.223C335.994 299.805 336.224 299.365 336.475 298.884C336.977 297.942 337.501 296.814 338.233 295.663L339.321 293.842C339.697 293.214 340.158 292.588 340.597 291.918C341.455 290.579 342.522 289.24 343.631 287.818C348.505 281.73 354.405 276.541 361.079 272.462C362.627 271.562 364.092 270.683 365.535 269.993C366.247 269.637 366.916 269.262 367.606 268.969L369.552 268.111C370.787 267.546 371.958 267.149 372.962 266.772C373.464 266.584 373.946 266.417 374.385 266.27L375.598 265.914L377.272 265.432C377.46 265.37 377.67 265.328 377.858 265.307Z" fill="#263238"/>
<path d="M350.304 280.224C344.635 282.232 338.86 283.905 333.002 285.286C338.672 283.277 344.446 281.605 350.304 280.224Z" fill="#263238"/>
<path d="M349.949 299.157C349.802 298.278 349.74 297.378 349.761 296.479C349.719 294.826 349.719 292.546 349.761 290.014C349.802 287.483 349.97 285.203 350.095 283.571C350.116 282.672 350.242 281.793 350.43 280.914C350.514 281.814 350.514 282.692 350.43 283.592C350.367 285.412 350.304 287.609 350.221 290.035C350.137 292.462 350.116 294.659 350.053 296.479C350.074 297.378 350.032 298.278 349.886 299.157" fill="#263238"/>
<path d="M366.163 290.893C366.016 290.893 365.598 286.27 365.201 280.538C364.803 274.806 364.594 270.14 364.719 270.14C364.845 270.14 365.284 274.764 365.682 280.496C366.079 286.228 366.288 290.893 366.163 290.893Z" fill="#263238"/>
<path d="M345.974 269.68C346.894 269.576 347.815 269.534 348.714 269.597C350.409 269.597 352.752 269.659 355.326 269.743C357.899 269.827 360.242 269.931 361.937 270.036C362.857 270.036 363.778 270.12 364.678 270.308C363.757 270.412 362.857 270.454 361.937 270.391C360.242 270.391 357.899 270.329 355.305 270.245C352.71 270.161 350.388 270.057 348.694 269.952C347.773 269.952 346.852 269.868 345.953 269.68" fill="#263238"/>
<path d="M386.519 327.901C386.478 327.712 386.457 327.524 386.457 327.336C386.457 326.917 386.415 326.374 386.394 325.725C386.331 324.323 386.31 322.294 386.373 319.805C386.436 317.315 386.582 314.324 386.875 311.018C387.168 307.713 387.649 304.115 388.319 300.349C388.988 296.583 389.804 293.027 390.641 289.826C391.478 286.625 392.378 283.78 393.193 281.416C394.009 279.052 394.721 277.149 395.265 275.852L395.892 274.366C395.955 274.199 396.039 274.011 396.143 273.864C396.122 274.052 396.06 274.241 395.976 274.408L395.432 275.935C394.951 277.253 394.281 279.157 393.507 281.542C392.733 283.927 391.896 286.772 391.059 289.973C390.223 293.173 389.449 296.709 388.779 300.475C388.11 304.24 387.649 307.817 387.314 311.102C386.98 314.386 386.791 317.357 386.708 319.846C386.624 322.336 386.561 324.365 386.582 325.767C386.582 326.415 386.582 326.959 386.582 327.378C386.582 327.566 386.582 327.754 386.54 327.943" fill="#263238"/>
<path d="M388.674 299.931C388.193 300.579 387.649 301.186 387.043 301.73C385.976 302.797 384.469 304.198 382.754 305.705C381.038 307.211 379.427 308.529 378.235 309.428C377.628 309.951 376.958 310.432 376.247 310.809C376.791 310.202 377.377 309.637 378.025 309.156L382.44 305.328L386.812 301.458C387.398 300.893 388.026 300.37 388.695 299.91" fill="#263238"/>
<path d="M401.646 310.391C400.997 309.637 400.411 308.822 399.909 307.985L395.85 302.064L391.708 296.207C391.101 295.433 390.536 294.596 390.055 293.738C390.767 294.429 391.415 295.182 391.98 295.998C393.11 297.441 394.637 299.47 396.248 301.772C397.859 304.073 399.219 306.207 400.181 307.776C400.746 308.591 401.227 309.47 401.625 310.37" fill="#263238"/>
<path d="M394.846 277.525C394.93 277.63 390.599 280.538 385.222 284.01C379.846 287.483 375.41 290.182 375.327 290.077C375.243 289.973 379.553 287.065 384.95 283.592C390.348 280.119 394.763 277.421 394.846 277.525Z" fill="#263238"/>
<path d="M407.002 290.641C402.545 286.75 398.298 282.608 394.302 278.235C398.759 282.127 403.006 286.269 407.002 290.641Z" fill="#263238"/>
<path d="M410.056 290.37L413.759 290.056C416.395 289.847 418.927 289.052 421.228 287.776C422.358 287.128 423.509 286.542 424.722 286.019C429.304 284.178 434.409 284.513 439.325 284.261C447.38 283.843 455.288 281.835 462.548 278.32C462.966 278.132 463.322 277.797 463.552 277.4C464.305 276.019 462.904 274.785 461.69 274.032C455.644 269.889 449.012 266.647 442.045 264.387C434.974 262.484 426.961 262.797 420.914 266.961C413.822 271.835 411.249 281.835 410.056 290.349" fill="#5238A0"/>
<path d="M463.657 276.96C463.448 276.877 463.238 276.793 463.029 276.667L461.272 275.747C459.745 274.952 457.569 273.76 454.786 272.442C451.564 270.852 448.217 269.576 444.765 268.571C440.539 267.358 436.124 267.002 431.773 267.525C427.4 268.007 423.278 269.785 419.931 272.609C417.316 275.057 415.203 278.006 413.759 281.27C412.755 283.467 411.855 285.726 411.081 288.027C410.809 288.801 410.579 289.429 410.412 289.889C410.349 290.119 410.265 290.328 410.161 290.537C410.203 290.307 410.244 290.077 410.328 289.868L410.893 287.964C411.604 285.642 412.462 283.362 413.445 281.123C414.868 277.776 416.981 274.764 419.638 272.274C423.048 269.366 427.254 267.546 431.731 267.044C436.145 266.521 440.643 266.898 444.911 268.153C448.384 269.157 451.753 270.496 454.974 272.149C457.736 273.529 459.891 274.743 461.397 275.601L463.113 276.605C463.322 276.709 463.51 276.835 463.699 276.981" fill="#263238"/>
<path d="M454.765 281.729C454.682 281.834 449.849 278.717 443.949 274.742C438.049 270.767 433.342 267.462 433.404 267.336C433.467 267.211 438.321 270.349 444.221 274.323C450.121 278.298 454.828 281.604 454.765 281.729Z" fill="#263238"/>
<path d="M450.121 266.876C447.652 267.65 445.058 267.88 442.484 267.587C445.016 267.252 447.568 267.001 450.121 266.876Z" fill="#263238"/>
<path d="M428.425 263.006C427.505 265.202 426.291 267.252 424.827 269.114C425.203 267.985 425.747 266.918 426.417 265.935C426.94 264.868 427.63 263.884 428.425 263.006Z" fill="#263238"/>
<path d="M432.756 284.574C431.94 284.24 431.166 283.821 430.434 283.319C429.032 282.461 427.149 281.227 425.12 279.763C423.09 278.298 421.312 276.919 420.036 275.893C419.324 275.391 418.634 274.805 418.027 274.177C418.801 274.595 419.554 275.078 420.245 275.621L425.392 279.366C427.4 280.831 429.262 282.106 430.601 283.026C431.354 283.486 432.065 284.009 432.735 284.574" fill="#263238"/>
<path d="M415.517 306.102C411.981 305.161 407.776 308.612 407.043 312.169C406.625 315.83 407.378 319.511 409.219 322.691C412.588 330.075 417.567 336.603 423.822 341.792C430.12 346.98 437.986 349.867 446.146 350.013C444.66 343.089 446.543 335.85 445.706 328.8C444.2 316.018 434.053 305.997 421.27 304.617C419.01 304.366 416.416 304.01 415.517 306.102Z" fill="#5238A0"/>
<path d="M446.146 350.034C445.978 349.971 445.811 349.909 445.643 349.804C445.183 349.553 444.744 349.26 444.325 348.925C442.84 347.628 441.647 346.038 440.832 344.26C440.267 343.172 439.639 341.98 439.032 340.662L437.128 336.457C436.438 334.909 435.664 333.424 434.806 331.98C433.844 330.453 432.777 328.989 431.584 327.608C429.178 324.763 426.584 322.315 424.325 319.972C422.295 317.922 420.433 315.704 418.801 313.34C417.692 311.73 416.793 309.993 416.102 308.173C415.914 307.671 415.768 307.169 415.621 306.667C415.558 306.499 415.517 306.311 415.517 306.123C415.558 306.123 415.768 306.834 416.27 308.11C417.023 309.889 417.964 311.583 419.073 313.152C420.747 315.474 422.609 317.65 424.638 319.679C426.898 322.001 429.513 324.449 431.94 327.315C433.132 328.696 434.22 330.181 435.183 331.75C436.061 333.214 436.836 334.742 437.526 336.29L439.388 340.495C439.974 341.792 440.601 343.005 441.124 344.093C441.899 345.85 443.028 347.44 444.43 348.758C445.455 349.637 446.166 349.971 446.125 350.034" fill="#263238"/>
<path d="M427.902 344.259C427.902 343.464 428.028 342.669 428.216 341.874C428.488 340.41 428.948 338.422 429.555 336.247C430.162 334.071 430.831 332.126 431.354 330.745C431.584 329.971 431.919 329.239 432.317 328.548C432.191 329.343 431.961 330.096 431.689 330.849C431.25 332.251 430.643 334.197 430.036 336.372C429.429 338.548 428.927 340.515 428.572 341.937C428.425 342.732 428.195 343.485 427.902 344.238" fill="#263238"/>
<path d="M445.476 327.251C444.639 327.126 443.802 326.937 442.986 326.686C441.459 326.289 439.367 325.745 437.024 325.222C434.681 324.699 432.547 324.281 431.019 323.988C430.182 323.883 429.346 323.695 428.53 323.444C429.388 323.423 430.245 323.486 431.082 323.653C432.651 323.862 434.806 324.218 437.149 324.741C439.493 325.264 441.585 325.87 443.091 326.352C443.907 326.561 444.723 326.875 445.476 327.251Z" fill="#263238"/>
<path d="M414.805 332.189C414.847 331.269 414.973 330.348 415.182 329.449C415.496 327.775 415.998 325.453 416.646 322.922C417.295 320.39 418.006 318.131 418.571 316.499C418.822 315.6 419.157 314.742 419.575 313.905C419.429 314.826 419.199 315.725 418.885 316.604C418.425 318.257 417.776 320.516 417.107 323.047C416.437 325.579 415.893 327.859 415.517 329.532C415.349 330.453 415.098 331.332 414.784 332.21" fill="#263238"/>
<path d="M437.38 312.419C437.38 312.544 432.965 312.189 427.546 311.624C422.128 311.059 417.734 310.473 417.755 310.348C417.776 310.222 422.17 310.578 427.588 311.143C433.007 311.708 437.4 312.293 437.38 312.419Z" fill="#263238"/>
<path d="M434.158 365.85C434.158 365.996 418.676 366.1 399.574 366.1C380.473 366.1 364.97 365.996 364.97 365.85C364.97 365.703 380.452 365.599 399.574 365.599C418.697 365.599 434.158 365.703 434.158 365.85Z" fill="#455A64"/>
<path d="M423.383 385.786C423.383 385.933 412.943 386.038 400.077 386.038C387.21 386.038 376.77 385.933 376.77 385.786C376.77 385.64 387.21 385.535 400.077 385.535C412.943 385.535 423.383 385.64 423.383 385.786Z" fill="#455A64"/>
<path d="M423.781 388.632C423.781 388.778 413.341 388.883 400.474 388.883C387.607 388.883 377.168 388.778 377.168 388.632C377.168 388.485 387.607 388.38 400.474 388.38C413.341 388.38 423.781 388.485 423.781 388.632Z" fill="#455A64"/>
<path d="M423.781 383.443C423.781 383.59 412.985 383.694 399.679 383.694C386.373 383.694 375.578 383.59 375.578 383.443C375.578 383.297 386.373 383.192 399.679 383.192C412.985 383.192 423.781 383.297 423.781 383.443Z" fill="#455A64"/>
</g>
</g>
</g>
</svg>
