<?xml version="1.0" encoding="UTF-8"?><svg id="Capa_1" xmlns="http://www.w3.org/2000/svg" xmlns:xlink="http://www.w3.org/1999/xlink" viewBox="0 0 222.26 187.38"><defs><style>.cls-1{fill:none;}.cls-2{clip-path:url(#clippath);}.cls-3{fill:#eb996e;}.cls-4{fill:#fafafa;}.cls-5{fill:#ffbe9d;}.cls-6,.cls-7{fill:#e0e0e0;}.cls-8{fill:#455a64;}.cls-9{fill:#263238;}.cls-10{fill:#5238a0;}.cls-11{clip-path:url(#clippath-1);}.cls-12{clip-path:url(#clippath-4);}.cls-13{clip-path:url(#clippath-3);}.cls-14{clip-path:url(#clippath-2);}.cls-15{clip-path:url(#clippath-7);}.cls-16{clip-path:url(#clippath-6);}.cls-17{clip-path:url(#clippath-5);}.cls-18{opacity:.2;}.cls-7{fill-rule:evenodd;}</style><clipPath id="clippath"><rect class="cls-1" y="0" width="222.26" height="187.38"/></clipPath><clipPath id="clippath-1"><rect class="cls-1" y="0" width="222.26" height="187.38"/></clipPath><clipPath id="clippath-2"><rect class="cls-1" y="0" width="222.26" height="187.38"/></clipPath><clipPath id="clippath-3"><rect class="cls-1" y="0" width="222.26" height="187.38"/></clipPath><clipPath id="clippath-4"><rect class="cls-1" y="0" width="222.26" height="187.38"/></clipPath><clipPath id="clippath-5"><rect class="cls-1" x="50.38" y="145.43" width="15.06" height="10.56"/></clipPath><clipPath id="clippath-6"><rect class="cls-1" y="0" width="222.26" height="187.38"/></clipPath><clipPath id="clippath-7"><rect class="cls-1" x="169.07" y="99.95" width="8.4" height="9.76"/></clipPath></defs><g id="Grupo_4423"><g id="Grupo_4422"><g class="cls-2"><g id="Grupo_4421"><g id="Grupo_4406"><g class="cls-11"><g id="Grupo_4405"><path id="Trazado_9091" class="cls-6" d="M178.77,89.65c-.27,.46-.62,.88-1.03,1.23-1.11,.99-2.54,1.57-4.03,1.63-1.03,.05-2.06-.15-2.99-.57-1.08-.49-2.01-1.26-2.69-2.24-.76-1.08-1.17-2.36-1.2-3.67-.07-2.91,1.78-5.52,4.55-6.43,1.25-.41,2.59-.45,3.86-.1,1.14,.32,2.18,.94,3,1.8,.71,.74,1.24,1.65,1.54,2.63,.44,1.43,.37,2.96-.2,4.34-.19,.5-.47,.97-.82,1.38-.04-.02,.32-.48,.68-1.43,.5-1.35,.52-2.84,.08-4.21-.66-2.05-2.31-3.62-4.38-4.18-1.2-.32-2.48-.29-3.66,.11-2.61,.86-4.35,3.33-4.3,6.07,.02,1.25,.41,2.46,1.11,3.49,1.22,1.77,3.25,2.8,5.4,2.74,1.44-.04,2.83-.56,3.94-1.48,.78-.66,1.09-1.15,1.13-1.12"/><path id="Trazado_9092" class="cls-6" d="M183.17,97.11c.07,.02,.15,.04,.21,.07l.64,.25,2.53,1.02-.07,.02,3.46-4.95v.12s-2.44-2.7-2.44-2.7l-.04-.05,.02-.06c.45-1.23,.74-2.51,.85-3.81v-.07s.08-.03,.08-.03l3.37-1.4-.08,.15c-.33-1.87-.67-3.86-1.03-5.95l.14,.12-3.65-.19h-.09l-.04-.09c-.54-1.18-1.24-2.29-2.08-3.29l-.06-.07,.04-.09,1.39-3.37,.06,.2-4.93-3.48h.21s-2.71,2.43-2.71,2.43l-.08,.07-.1-.04c-1.22-.45-2.5-.74-3.79-.86h-.11s-.04-.11-.04-.11l-1.4-3.37,.2,.11-5.95,1.01,.15-.17c-.06,1.15-.13,2.39-.19,3.65v.11s-.11,.05-.11,.05c-1.18,.54-2.29,1.24-3.29,2.07h0c-.08,.01,.19-.03-.19,.03h-.02s-.03-.02-.03-.02l-.05-.02-.11-.04-.21-.09-.42-.18-.85-.35-1.68-.7,.22-.06-3.49,4.93v-.23s2.42,2.71,2.42,2.71l.07,.08-.04,.1c-.45,1.22-.74,2.5-.86,3.79v.11s-.11,.04-.11,.04l-3.37,1.39,.11-.19,1.01,5.95-.16-.14,3.64,.2h.1s.04,.1,.04,.1c.54,1.19,1.24,2.3,2.07,3.3l.06,.07-.04,.09-1.4,3.37-.05-.18,4.92,3.5h-.18s2.72-2.42,2.72-2.42l.06-.05,.08,.03c1.22,.46,2.5,.75,3.8,.87h.07s.03,.07,.03,.07l1.38,3.38-.12-.07,5.96-.99-.07,.08c.09-1.46,.16-2.65,.22-3.64v-.04h.03c.9-.42,1.76-.91,2.57-1.48l.59-.43c.06-.05,.13-.1,.2-.14-.06,.06-.11,.12-.18,.17-.12,.1-.31,.26-.57,.46-.8,.6-1.65,1.11-2.55,1.53l.03-.05c-.05,.99-.1,2.19-.17,3.65v.07h-.07s-5.95,1.06-5.95,1.06h-.09s-.03-.07-.03-.07l-1.41-3.37,.1,.07c-1.32-.11-2.63-.41-3.88-.87l.14-.02-2.71,2.45-.08,.08-.09-.07-4.94-3.48-.1-.07,.05-.12,1.39-3.37,.03,.16c-.86-1.02-1.57-2.15-2.12-3.37l.14,.1-3.64-.19h-.14s-.02-.14-.02-.14c-.33-1.93-.67-3.92-1.02-5.95l-.02-.14,.13-.05,3.37-1.4-.11,.15c.12-1.33,.41-2.64,.88-3.89l.04,.18-2.44-2.71-.1-.11,.08-.12,3.49-4.93,.09-.12,.14,.06,1.68,.7,.85,.35,.42,.18,.21,.09,.11,.04,.05,.02h.03s.01,.02,.01,.02h0l-.19,.03h0c1.02-.85,2.16-1.57,3.37-2.12l-.11,.16c.07-1.25,.13-2.49,.2-3.65v-.15s.15-.02,.15-.02l5.95-1.02,.14-.02,.06,.13,1.39,3.37-.15-.11c1.33,.12,2.63,.42,3.89,.88l-.18,.04,2.72-2.44,.1-.09,.11,.08,4.92,3.49,.11,.08-.05,.12-1.4,3.37-.02-.16c.85,1.02,1.56,2.16,2.11,3.37l-.13-.09,3.64,.2h.12s.02,.12,.02,.12c.35,2.09,.69,4.08,1.01,5.95l.02,.1-.1,.04-3.38,1.39,.08-.1c-.12,1.32-.42,2.62-.89,3.87l-.02-.11,2.43,2.72,.05,.06-.04,.06-3.52,4.91-.03,.04-.04-.02-2.49-1.06-.64-.28c-.08-.03-.15-.07-.22-.11"/><path id="Trazado_9093" class="cls-7" d="M177.37,52.17c-1.43,1.19-3.02,2.19-4.71,2.96l-.27,5.15-8.42,1.44-1.97-4.77c-1.86-.17-3.68-.58-5.43-1.23l-3.84,3.45-6.97-4.93,1.98-4.76c-1.19-1.43-2.19-3.02-2.96-4.71l-5.15-.28-1.44-8.42,4.77-1.97c.17-1.86,.58-3.68,1.23-5.43l-3.45-3.84,4.93-6.97,4.77,1.98c1.43-1.19,3.01-2.19,4.71-2.97l.27-5.15,8.42-1.44,1.97,4.77c1.86,.17,3.68,.58,5.43,1.23l3.84-3.45,6.97,4.93-1.98,4.76c1.19,1.43,2.19,3.02,2.97,4.71l5.15,.27,1.44,8.42-4.77,1.97c-.17,1.86-.58,3.68-1.23,5.43l3.45,3.84-4.93,6.97-4.77-1.97Zm-6.22-10.55c2.92-4.13,1.94-9.85-2.19-12.77-4.13-2.92-9.85-1.94-12.77,2.19s-1.94,9.85,2.19,12.77c0,0,0,0,0,0,4.13,2.92,9.85,1.94,12.77-2.19"/><path id="Trazado_9094" class="cls-7" d="M71.68,50.62c1.2,1.29,2.23,2.73,3.05,4.29l4.88-.02,1.81,7.86-4.39,2.12c-.06,1.76-.35,3.51-.87,5.19l3.46,3.43-4.28,6.84-4.6-1.61c-1.29,1.2-2.73,2.23-4.28,3.05l.02,4.88-7.86,1.81-2.12-4.39c-1.76-.06-3.51-.35-5.19-.87l-3.43,3.46-6.84-4.28,1.61-4.6c-1.2-1.29-2.23-2.73-3.05-4.29l-4.88,.02-1.81-7.87,4.39-2.12c.06-1.76,.35-3.51,.87-5.19l-3.46-3.43,4.28-6.84,4.6,1.61c1.29-1.2,2.73-2.23,4.28-3.05l-.02-4.88,7.86-1.81,2.12,4.39c1.76,.06,3.51,.35,5.19,.87l3.43-3.46,6.85,4.28-1.61,4.6Zm-9.62,6.44c-4.05-2.53-9.4-1.3-11.93,2.75-2.53,4.05-1.3,9.4,2.75,11.93,4.05,2.53,9.4,1.3,11.93-2.75s1.3-9.4-2.75-11.93h0"/><path id="Trazado_9095" class="cls-7" d="M76.43,17.54c.67,.71,1.23,1.51,1.69,2.37h2.7s1,4.34,1,4.34l-2.43,1.17c-.03,.97-.19,1.94-.48,2.87l1.92,1.9-2.37,3.79-2.55-.89c-.71,.67-1.51,1.23-2.37,1.69v2.7s-4.34,1-4.34,1l-1.17-2.43c-.97-.03-1.94-.19-2.87-.48l-1.9,1.92-3.79-2.36,.89-2.55c-.67-.71-1.23-1.51-1.69-2.37h-2.7s-1-4.34-1-4.34l2.43-1.17c.03-.97,.19-1.94,.48-2.87l-1.91-1.9,2.37-3.79,2.55,.89c.71-.67,1.51-1.24,2.37-1.69v-2.7s4.34-1,4.34-1l1.17,2.43c.97,.03,1.94,.19,2.87,.48l1.9-1.92,3.79,2.37-.88,2.55Zm-5.33,3.56c-2.24-1.4-5.2-.73-6.61,1.52-1.4,2.24-.73,5.2,1.52,6.61,2.24,1.4,5.2,.73,6.61-1.52,0,0,0,0,0,0,1.4-2.24,.72-5.2-1.52-6.6"/><path id="Trazado_9096" class="cls-6" d="M38.55,25.59c.08,.03,.15,.07,.22,.12,.2,.13,.39,.28,.56,.45,.63,.63,1.03,1.46,1.12,2.36,.06,.62-.02,1.24-.24,1.82-.26,.67-.69,1.25-1.25,1.69-.62,.49-1.37,.78-2.16,.84-1.75,.14-3.38-.88-4.02-2.51-.29-.74-.36-1.54-.19-2.31,.15-.7,.49-1.34,.97-1.86,.42-.45,.95-.8,1.53-1.01,.84-.31,1.76-.32,2.61-.03,.23,.07,.45,.18,.65,.3,.07,.04,.14,.09,.2,.14-.01,.03-.3-.17-.88-.35-.83-.25-1.71-.21-2.52,.1-1.2,.46-2.08,1.5-2.34,2.76-.15,.73-.09,1.49,.19,2.18,.61,1.53,2.13,2.48,3.77,2.36,.74-.05,1.45-.33,2.04-.78,1.02-.79,1.56-2.03,1.46-3.31-.07-.86-.43-1.67-1.01-2.31-.42-.45-.72-.62-.7-.64"/><path id="Trazado_9097" class="cls-6" d="M42.87,22.7s.02-.09,.04-.13l.13-.39,.52-1.55,.02,.05-3.08-1.9h.08s-1.53,1.55-1.53,1.55l-.03,.03h-.04c-.75-.24-1.53-.37-2.31-.39h-.05l-.02-.04-.96-1.97,.1,.05-3.53,.82,.08-.09c0,.68,0,1.42,.01,2.19v.06l-.05,.03c-.69,.37-1.33,.82-1.9,1.36l-.05,.04-.06-.02-2.07-.72,.13-.04-1.91,3.07-.02-.14,1.55,1.54,.05,.05-.02,.07c-.23,.75-.36,1.52-.38,2.3v.07l-.06,.03-1.97,.95,.06-.14,.81,3.53-.12-.1h2.19s.08,0,.08,0l.03,.07c.36,.69,.82,1.33,1.35,1.89h0c-.11-.66,.34-1.29,1.01-1.4,.66-.11,1.29,.34,1.4,1.01,.11,.66-.34,1.29-1.01,1.4-.61,.1-1.21-.28-1.37-.88h0s0,.03,0,.03v.03s-.03,.06-.03,.06l-.04,.13-.09,.26-.18,.52-.36,1.03-.05-.15,3.07,1.92-.15,.02,1.54-1.55,.05-.05,.07,.02c.75,.23,1.52,.36,2.3,.39h.07l.03,.06,.95,1.97-.13-.06,3.53-.81-.09,.11c0-.74,0-1.47,0-2.19v-.06l.06-.03c.69-.36,1.33-.82,1.9-1.35l.05-.04,.06,.02,2.06,.72-.12,.04,1.93-3.06v.12s-1.54-1.54-1.54-1.54l-.04-.04,.02-.05c.23-.75,.36-1.52,.39-2.3v-.05l.04-.03,1.97-.94-.04,.08-.8-3.53,.05,.04h-2.19s-.02,0-.02,0v-.02c-.28-.53-.61-1.02-.97-1.49l-.28-.34s-.06-.07-.09-.11c.04,.03,.07,.06,.11,.1,.07,.07,.17,.18,.29,.33,.38,.46,.72,.95,1,1.48l-.04-.02,2.19-.02h.04v.04s.84,3.52,.84,3.52v.06s-.04,.03-.04,.03l-1.97,.96,.04-.07c-.02,.8-.15,1.59-.39,2.35l-.02-.09,1.56,1.54,.05,.05-.04,.06-1.91,3.07-.04,.07-.08-.03-2.07-.72,.11-.02c-.58,.55-1.24,1.01-1.94,1.39l.06-.1c0,.72,0,1.45,.01,2.19v.09l-.09,.02-3.53,.82-.09,.02-.04-.08-.95-1.97,.1,.07c-.8-.03-1.59-.16-2.36-.39l.12-.03-1.54,1.55-.07,.07-.08-.05-3.07-1.92-.08-.05,.03-.09,.36-1.03,.18-.52,.09-.26,.04-.13,.02-.06v-.03s.02-.02,.02-.02h0c.05,.24,.01,.06,.03,.11h0c-.55-.58-1.01-1.24-1.39-1.95l.11,.07h-2.19s-.1,0-.1,0l-.02-.1-.81-3.53-.02-.09,.09-.04,1.97-.95-.07,.1c.03-.8,.16-1.59,.4-2.36l.03,.12-1.55-1.54-.06-.06,.05-.08,1.92-3.07,.05-.07,.08,.03,2.06,.72-.11,.02c.59-.54,1.25-1.01,1.96-1.38l-.05,.09v-2.27l.08-.02,3.53-.8,.07-.02,.03,.06,.94,1.97-.07-.05c.8,.03,1.59,.16,2.35,.4l-.07,.02,1.55-1.55,.04-.03,.04,.03,3.06,1.94,.03,.02v.03s-.57,1.52-.57,1.52l-.15,.39s-.03,.09-.06,.13"/></g></g></g><g id="Grupo_4408"><g class="cls-14"><g id="Grupo_4407"><path id="Trazado_9098" class="cls-8" d="M150.65,185.02l-62.77-.29c-7.55-.03-13.65-6.18-13.62-13.73l.66-157.38C74.96,6.07,81.11-.03,88.66,0c0,0,0,0,0,0l62.78,.29c7.55,.04,13.64,6.18,13.61,13.73l-.66,157.38c-.03,7.55-6.18,13.65-13.73,13.62,0,0,0,0,0,0"/><path id="Trazado_9099" class="cls-4" d="M151.36,5.72l-12.17-.06c-1.67,.03-3,1.41-2.97,3.08v2.21c.02,1.67-1.31,3.05-2.98,3.08l-23.72-.11c-1.67-.05-2.98-1.43-2.94-3.1v-2.21c.05-1.67-1.27-3.05-2.93-3.1l-4.28-.02-10.65-.05c-5.29-.02-9.6,4.24-9.62,9.53,0,0,0,0,0,0l-.65,153.62c-.02,5.29,4.24,9.59,9.53,9.62l62.65,.29c5.29,.02,9.6-4.24,9.62-9.53,0,0,0,0,0,0l.65-153.62c.02-5.29-4.24-9.59-9.53-9.62"/><path id="Trazado_9100" class="cls-10" d="M133.04,80.53h-24.59c-2.55,0-4.61-2.07-4.61-4.61h0v-24.59c0-2.55,2.07-4.61,4.61-4.61h24.59c2.55,0,4.61,2.07,4.61,4.61h0v24.59c0,2.55-2.07,4.61-4.61,4.61h0"/><path id="Trazado_9101" class="cls-10" d="M94.91,59.02l.82,1.65,1.82,.26-1.32,1.29,.31,1.82-1.63-.86-1.63,.86,.31-1.82-1.32-1.29,1.82-.26,.82-1.65Z"/><path id="Trazado_9102" class="cls-10" d="M147.6,42.64l.63,1.28,1.41,.2-1.02,1,.24,1.4-1.26-.66-1.26,.66,.24-1.4-1.02-1,1.41-.2,.63-1.28Z"/><path id="Trazado_9103" class="cls-10" d="M146.36,73.28l.55,.74,.92-.03-.54,.75,.31,.87-.88-.28-.73,.57v-.92s-.77-.52-.77-.52l.87-.29,.26-.88Z"/><path id="Trazado_9104" class="cls-10" d="M94.29,48.05c-.48,0-.86-.39-.86-.86s.39-.86,.86-.86,.86,.39,.86,.86h0c0,.48-.39,.86-.86,.86m0-1.25c-.22,0-.39,.17-.39,.39s.17,.39,.39,.39,.39-.17,.39-.39h0c0-.22-.17-.39-.39-.39"/><path id="Trazado_9105" class="cls-10" d="M143.04,59.97c-.48,0-.86-.39-.86-.86s.39-.86,.86-.86,.86,.39,.86,.86h0c0,.48-.39,.86-.86,.86m0-1.25c-.22,0-.39,.17-.39,.39s.17,.39,.39,.39,.39-.17,.39-.39-.17-.39-.39-.39h0"/><path id="Trazado_9106" class="cls-10" d="M131.78,41.77c-.48,0-.86-.39-.86-.86s.39-.86,.86-.86,.86,.39,.86,.86h0c0,.48-.39,.86-.86,.86m0-1.25c-.22,0-.39,.17-.39,.39s.17,.39,.39,.39,.39-.17,.39-.39-.17-.39-.39-.39h0"/><path id="Trazado_9107" class="cls-10" d="M90.22,75.21c0,.35-.28,.63-.63,.63s-.63-.28-.63-.63,.28-.63,.63-.63,.63,.28,.63,.63h0"/><path id="Trazado_9108" class="cls-10" d="M119.1,84.15c0,.35-.28,.63-.63,.63s-.63-.28-.63-.63,.28-.63,.63-.63,.63,.28,.63,.63h0"/><path id="Trazado_9109" class="cls-10" d="M113.03,34.55c0,.35-.28,.63-.63,.63s-.63-.28-.63-.63,.28-.63,.62-.63c.35,0,.63,.28,.63,.62h0"/><path id="Trazado_9110" class="cls-9" d="M105.88,131.68v-2.65h.49v2.63c0,1.1,.52,1.6,1.42,1.6s1.42-.5,1.42-1.6v-2.63h.48v2.65c.06,1.05-.75,1.95-1.8,2.01-1.05,.06-1.95-.75-2.01-1.8,0-.07,0-.14,0-.21"/><path id="Trazado_9111" class="cls-9" d="M114.79,130.61c0,.99-.71,1.58-1.89,1.58h-1.24v1.46h-.49v-4.63h1.74c1.18,0,1.89,.6,1.89,1.59m-.49,0c0-.74-.49-1.17-1.42-1.17h-1.23v2.32h1.23c.93,0,1.42-.42,1.42-1.15"/><path id="Trazado_9112" class="cls-9" d="M115.84,129.03h1.89c1.28-.09,2.39,.88,2.48,2.16,.09,1.28-.88,2.39-2.16,2.48-.11,0-.21,0-.32,0h-1.89v-4.63Zm1.86,4.21c1.05,.09,1.97-.68,2.06-1.73,.09-1.05-.68-1.97-1.73-2.06-.11,0-.22,0-.33,0h-1.37v3.79h1.37Z"/><path id="Trazado_9113" class="cls-9" d="M124.15,132.42h-2.58l-.56,1.24h-.51l2.12-4.63h.48l2.12,4.63h-.52l-.56-1.24Zm-.18-.4l-1.11-2.49-1.11,2.49h2.22Z"/><path id="Trazado_9114" class="cls-9" d="M126.65,129.45h-1.63v-.42h3.75v.42h-1.63v4.21h-.49v-4.21Z"/><path id="Trazado_9115" class="cls-9" d="M132.82,133.24v.42h-3.28v-4.63h3.18v.42h-2.69v1.65h2.4v.42h-2.4v1.72h2.79Z"/><path id="Trazado_9116" class="cls-4" d="M125.32,57.7c.51,.38,.97,.83,1.36,1.33l1.74-.32,1.15,2.69-1.43,1.04c.09,.63,.1,1.27,.02,1.91l1.45,1-1.09,2.71-1.74-.28c-.38,.51-.83,.97-1.33,1.36l.32,1.74-2.69,1.15-1.04-1.43c-.63,.09-1.27,.1-1.91,.02l-1,1.45-2.71-1.09,.28-1.74c-.51-.38-.97-.83-1.36-1.33l-1.74,.32-1.15-2.69,1.43-1.04c-.09-.63-.1-1.27-.02-1.91l-1.45-1,1.09-2.71,1.74,.28c.38-.51,.83-.97,1.34-1.36l-.32-1.74,2.69-1.15,1.04,1.43c.63-.09,1.27-.1,1.91-.02l1-1.45,2.71,1.09-.28,1.75Zm-3.02,2.91c-1.61-.65-3.43,.13-4.08,1.74-.65,1.61,.13,3.43,1.74,4.08s3.43-.13,4.08-1.74c0,0,0,0,0,0,.65-1.61-.13-3.43-1.74-4.08"/><path id="Trazado_9117" class="cls-4" d="M122.3,60.61c.25,.08,.48,.19,.7,.35,.59,.41,1.02,1.02,1.22,1.71,.14,.48,.16,.99,.07,1.48-.11,.56-.37,1.09-.75,1.52-.42,.48-.98,.82-1.6,.98-1.36,.36-2.8-.22-3.54-1.42-.34-.54-.5-1.17-.48-1.81,.02-.57,.2-1.13,.51-1.62,.27-.42,.64-.77,1.07-1.02,.62-.37,1.35-.51,2.07-.39,.26,.03,.51,.11,.74,.23,0,.02-.26-.1-.75-.16-.69-.08-1.39,.07-1.99,.43-.89,.54-1.45,1.49-1.48,2.53-.02,.6,.14,1.2,.46,1.71,.7,1.13,2.06,1.68,3.34,1.34,.58-.15,1.11-.47,1.52-.91,.7-.77,.96-1.84,.69-2.85-.18-.68-.58-1.27-1.14-1.69-.4-.29-.66-.39-.65-.4"/><path id="Trazado_9118" class="cls-4" d="M125.32,57.7s0-.07,.01-.11l.05-.33c.04-.3,.11-.74,.19-1.31l.02,.03-2.72-1.07,.05-.02-1,1.46-.02,.03h-.03c-.63-.07-1.26-.07-1.89,.03h-.04s-.02-.02-.02-.02l-1.04-1.43,.08,.02-2.69,1.15,.04-.08,.32,1.74v.04s-.03,.03-.03,.03c-.5,.39-.94,.84-1.32,1.35l-.03,.04h-.05s-1.74-.29-1.74-.29l.09-.05-1.09,2.71-.03-.1,1.45,1,.04,.03v.05c-.08,.63-.07,1.26,.02,1.88v.05s-.04,.03-.04,.03l-1.43,1.04,.03-.11,1.15,2.69-.1-.05,1.74-.32h.05s.03,.03,.03,.03c.39,.5,.84,.94,1.34,1.32h0s-.04-.09,.04,.09h0v.11s-.03,.11-.03,.11l-.04,.22-.07,.44-.14,.87-.05-.1,2.71,1.09-.11,.03,1-1.45,.03-.04h.05c.63,.08,1.26,.08,1.88-.01h.05s.03,.04,.03,.04l1.04,1.43-.1-.03,2.69-1.14-.05,.09c-.11-.59-.21-1.17-.32-1.74v-.05s.03-.03,.03-.03c.5-.39,.94-.84,1.32-1.35l.03-.04h.05s1.74,.29,1.74,.29l-.08,.05,1.1-2.71,.02,.08-1.45-1.01-.03-.02v-.04c.08-.63,.07-1.26-.02-1.89v-.04s.02-.02,.02-.02l1.43-1.03-.02,.06c-.44-1.04-.82-1.93-1.14-2.69l.04,.02-1.74,.31h-.03c-.29-.39-.62-.74-.98-1.06l-.27-.23s-.06-.05-.09-.08c.03,.02,.07,.04,.1,.07,.06,.05,.16,.12,.28,.22,.37,.31,.71,.65,1.01,1.03h-.03s1.74-.34,1.74-.34h.03s.01,.02,.01,.02l1.16,2.68,.02,.04-.03,.03-1.43,1.04,.02-.06c.09,.64,.1,1.28,.03,1.92l-.03-.06,1.46,1,.04,.03-.02,.05-1.09,2.71-.02,.05h-.06s-1.74-.29-1.74-.29l.07-.03c-.39,.52-.84,.98-1.35,1.38l.03-.08,.32,1.74v.07s-.05,.03-.05,.03l-2.69,1.15-.06,.03-.04-.06-1.04-1.43,.08,.04c-.64,.09-1.29,.1-1.93,.02l.08-.04-1,1.45-.04,.06-.07-.03-2.71-1.09-.07-.03v-.07s.15-.87,.15-.87l.07-.44,.04-.22,.02-.11v-.05s0-.03,0-.03h0v-.03l.04,.09h0c-.52-.39-.98-.84-1.38-1.35l.09,.03-1.74,.32h-.07s-.03-.05-.03-.05l-1.15-2.69-.03-.07,.06-.04,1.43-1.04-.04,.08c-.09-.64-.1-1.29-.02-1.93l.04,.08-1.45-1.01-.05-.04,.02-.06,1.09-2.71,.02-.06h.06s1.74,.29,1.74,.29l-.07,.03c.39-.52,.84-.98,1.35-1.37l-.03,.07c-.11-.61-.22-1.2-.31-1.74v-.06s.04-.02,.04-.02l2.69-1.14,.05-.02,.03,.04,1.03,1.43-.06-.02c.64-.09,1.28-.1,1.92-.01l-.05,.02,1.01-1.45,.02-.03h.03s2.71,1.12,2.71,1.12h.02v.03l-.22,1.29c-.03,.14-.05,.25-.06,.33,0,.04-.01,.08-.02,.11"/><rect id="Rectángulo_4146" class="cls-9" x="108.59" y="91.42" width="34.53" height="24.98"/><rect id="Rectángulo_4147" class="cls-8" x="97.25" y="91.42" width="30.1" height="24.98"/><path id="Trazado_9119" class="cls-8" d="M97.24,91.42l-5.34-5.34h13.54l5.03,5.34h-13.23Z"/><path id="Trazado_9120" class="cls-8" d="M127.35,91.42l6.15-5.34h16.86l-7.24,5.34h-15.77Z"/><path id="Trazado_9121" class="cls-9" d="M127.35,91.42c0,.07-6.74,.12-15.05,.12s-15.05-.05-15.05-.12,6.74-.12,15.05-.12,15.05,.05,15.05,.12"/><path id="Trazado_9122" class="cls-6" d="M148.54,147.89h-55.58c-1.33,0-2.4-1.07-2.4-2.4v-.11c0-1.33,1.07-2.4,2.4-2.4h55.58c1.33,0,2.4,1.07,2.4,2.4v.12c0,1.33-1.07,2.4-2.4,2.4"/><path id="Trazado_9123" class="cls-10" d="M120.19,147.89h-27.24c-1.33,0-2.4-1.07-2.4-2.4v-.11c0-1.33,1.07-2.4,2.4-2.4h27.24c1.33,0,2.4,1.07,2.4,2.4v.12c0,1.33-1.07,2.4-2.4,2.4"/><path id="Trazado_9124" class="cls-10" d="M116.75,159.96c0,1.01-.7,1.79-2.15,1.79-.78,.03-1.54-.25-2.12-.76l.3-.48c.49,.46,1.15,.7,1.82,.68,1.01,0,1.54-.49,1.54-1.21,0-.76-.47-1.23-1.98-1.23h-1.26l.3-2.97h3.24v.54h-2.71l-.2,1.89h.76c1.79,0,2.46,.7,2.46,1.75"/><path id="Trazado_9125" class="cls-10" d="M121.49,159.96c0,1.01-.7,1.79-2.15,1.79-.78,.03-1.54-.25-2.12-.76l.3-.48c.49,.46,1.15,.7,1.82,.68,1.01,0,1.54-.49,1.54-1.21,0-.76-.47-1.23-1.98-1.23h-1.26l.3-2.97h3.24v.54h-2.71l-.2,1.89h.76c1.79,0,2.46,.7,2.46,1.75"/><path id="Trazado_9126" class="cls-10" d="M122.1,157.35c0-.96,.54-1.61,1.34-1.61s1.34,.63,1.34,1.61-.55,1.61-1.34,1.61-1.34-.64-1.34-1.61m2.25,0c0-.77-.36-1.23-.91-1.23s-.91,.46-.91,1.23,.36,1.23,.91,1.23,.91-.46,.91-1.23m2.67-1.57h.5l-4.04,5.92h-.5l4.04-5.92Zm-1.29,4.36c0-.96,.55-1.61,1.34-1.61s1.34,.64,1.34,1.61-.54,1.61-1.34,1.61-1.34-.64-1.34-1.61m2.25,0c0-.76-.36-1.23-.91-1.23s-.91,.46-.91,1.23,.36,1.23,.91,1.23,.91-.46,.91-1.23"/></g></g></g><g id="Grupo_4410"><g class="cls-13"><g id="Grupo_4409"><path id="Trazado_9127" class="cls-9" d="M222.26,184.88c0,.07-49.76,.12-111.12,.12S0,184.95,0,184.88s49.75-.12,111.13-.12,111.12,.05,111.12,.12"/></g></g></g><g id="Grupo_4415"><g class="cls-12"><g id="Grupo_4414"><path id="Trazado_9128" class="cls-5" d="M86.73,179.49l1.36,5.2,15.21-.14s-2.08-1.57-9.72-1.46l-.74-3.6h-6.1Z"/><path id="Trazado_9129" class="cls-10" d="M70.15,120.78l-11.41,1.07-4.64,1.31c-1.98,.56-3.79,1.6-5.28,3.03l-14.93,14.33-2.73-22.27-7.46,.65,1.24,28.67c1.13,3.54,4.42,5.94,8.13,5.94,2.24-.03,4.39-.91,6.01-2.47l10.63-9.99-1.06,13.19-3.65,8.2,26.1,14.74s3.07-15.18,4.71-25.68c1.33-8.49,2.01-26.99,2.01-26.99l-7.69-3.73Z"/><path id="Trazado_9130" class="cls-10" d="M77.16,124.24s5.77,2.14,7.17,6.66c1.24,4.01,5.37,26.55,5.37,26.55l4.1,23.86-8.58,.33-9.88-40.67,1.82-16.73Z"/><path id="Trazado_9131" class="cls-9" d="M48.45,153.65c-.07,0,.32-4.57,.85-10.2s1.03-10.18,1.1-10.18-.32,4.57-.85,10.2-1.03,10.18-1.1,10.18"/><path id="Trazado_9132" class="cls-9" d="M67.45,142.43c-.01,.08-.04,.15-.08,.22l-.26,.62c-.13,.33-.29,.65-.46,.96-.2,.37-.4,.8-.69,1.24l-.43,.7c-.15,.24-.33,.48-.51,.73-.34,.51-.77,1.02-1.21,1.55-1.96,2.3-4.35,4.19-7.03,5.58-.62,.3-1.21,.61-1.79,.82-.29,.11-.56,.24-.83,.33l-.78,.26c-.49,.18-.96,.28-1.36,.39-.34,.1-.69,.17-1.04,.23l-.66,.11c-.08,.02-.16,.03-.23,.02,.07-.03,.15-.06,.22-.07l.65-.16c.29-.06,.63-.14,1.03-.27s.85-.23,1.34-.42l.77-.27c.27-.1,.53-.22,.82-.34,.57-.23,1.15-.53,1.76-.84,2.64-1.4,5-3.27,6.96-5.53,.44-.53,.87-1.02,1.21-1.53,.18-.25,.36-.48,.52-.72l.44-.69c.29-.43,.51-.85,.71-1.21s.37-.68,.49-.94l.3-.6c.03-.07,.07-.14,.12-.2"/><g id="Grupo_4413" class="cls-18"><g id="Grupo_4412"><g class="cls-17"><g id="Grupo_4411"><path id="Trazado_9133" d="M51.48,155.96c-.84-.33-1.29-1.23-1.05-2.1,.27-.84,.89-1.51,1.7-1.85,.8-.33,1.63-.58,2.49-.74,3.67-.9,7.02-2.78,9.71-5.45,.25-.25,.6-.52,.9-.35,.41,.22,.15,.85-.15,1.21-3.69,4.3-8.48,7.51-13.86,9.3"/></g></g></g></g><path id="Trazado_9134" class="cls-9" d="M77.54,150.59c-.08-.15-.14-.32-.17-.48-.1-.32-.23-.78-.38-1.35-.31-1.14-.7-2.73-1.1-4.49s-.72-3.36-.93-4.53c-.1-.58-.18-1.05-.23-1.38-.04-.17-.05-.34-.05-.51,.07,.16,.12,.33,.14,.5,.08,.37,.19,.83,.31,1.36l1,4.51c.4,1.73,.75,3.29,1.03,4.5,.12,.53,.22,.99,.3,1.37,.05,.17,.08,.34,.08,.51"/><path id="Trazado_9135" class="cls-9" d="M25.02,121.04c-.23-.73-.29-1.51-.19-2.27,.23,.73,.29,1.51,.19,2.27"/><path id="Trazado_9136" class="cls-9" d="M27.21,121.11c-.2-.79-.25-1.61-.12-2.41,.2,.79,.25,1.61,.12,2.41"/><path id="Trazado_9137" class="cls-9" d="M29.38,120.97c-.21-.88-.26-1.79-.15-2.68,.21,.88,.26,1.79,.15,2.68"/><path id="Trazado_9138" class="cls-9" d="M33.57,143.94c-.03-1.32,.1-2.64,.4-3.92,.03,1.32-.1,2.64-.4,3.92"/><path id="Trazado_9139" class="cls-9" d="M86.63,179.15c.3,.78,.44,1.6,.42,2.43-.3-.78-.44-1.6-.42-2.43"/><path id="Trazado_9140" class="cls-9" d="M89.44,179.15c.28,.7,.41,1.45,.37,2.21-.28-.7-.41-1.45-.37-2.21"/><path id="Trazado_9141" class="cls-9" d="M92.12,178.88c.24,.81,.38,1.64,.42,2.48-.36-.77-.51-1.63-.42-2.48"/><path id="Trazado_9142" class="cls-9" d="M81.79,127.02s-.6,0-1.53,.2c-2.47,.5-4.49,2.26-5.32,4.64-.32,.89-.36,1.49-.41,1.49-.02-.14-.02-.28,0-.42,.04-.38,.12-.76,.24-1.12,.77-2.49,2.88-4.34,5.45-4.76,.38-.06,.76-.09,1.14-.08,.14,0,.28,0,.42,.05"/><path id="Trazado_9143" class="cls-4" d="M85.32,136.72c-.46,.24-.93,.44-1.42,.6-.89,.34-2.14,.77-3.53,1.21s-2.66,.78-3.59,1.01c-.49,.15-1,.25-1.51,.31,.48-.2,.97-.36,1.47-.48l3.56-1.08,3.54-1.14c.48-.18,.98-.33,1.48-.44"/><path id="Trazado_9144" class="cls-4" d="M88.96,153.16c-.48,.17-.98,.31-1.48,.4-.92,.22-2.19,.5-3.6,.8s-2.69,.55-3.62,.73c-.5,.12-1.01,.2-1.52,.23,.48-.17,.97-.31,1.48-.4,.92-.22,2.2-.5,3.61-.8s2.69-.55,3.62-.73c.5-.12,1-.2,1.51-.23"/><path id="Trazado_9145" class="cls-4" d="M93.08,173.75c-.47,.06-.94,.09-1.42,.07-.87,.02-2.08,.06-3.41,.14s-2.54,.18-3.41,.26c-.47,.07-.94,.1-1.42,.09,.46-.13,.93-.22,1.4-.26,.87-.12,2.07-.25,3.41-.33s2.55-.09,3.43-.06c.47-.01,.95,.02,1.42,.1"/><path id="Trazado_9146" class="cls-4" d="M55.22,154.4c-.34-.1-.67-.24-.98-.42l-2.31-1.11-2.32-1.09c-.33-.13-.65-.3-.94-.5,.35,.07,.69,.18,1.01,.34,.61,.24,1.45,.6,2.36,1.03s1.71,.85,2.29,1.17c.32,.15,.62,.35,.9,.57"/><path id="Trazado_9147" class="cls-4" d="M74.23,157.62c-.19-.05-.38-.12-.56-.21l-1.49-.65c-1.25-.55-2.99-1.29-4.93-2.07s-3.71-1.43-5-1.9l-1.52-.56c-.19-.06-.38-.13-.55-.23,.2,.03,.39,.07,.58,.14,.37,.1,.9,.27,1.55,.48,1.3,.43,3.09,1.06,5.03,1.84s3.67,1.55,4.91,2.14c.62,.29,1.12,.54,1.46,.72,.18,.08,.36,.18,.52,.3"/><path id="Trazado_9148" class="cls-4" d="M75.71,144.2c-.09,0-.18,0-.27-.02l-.76-.11-2.77-.45c-2.34-.38-5.57-.9-9.15-1.43s-6.82-.96-9.17-1.27l-2.78-.37-.76-.11c-.09,0-.18-.03-.26-.05,.09,0,.18,0,.27,0l.76,.06c.66,.06,1.61,.16,2.79,.29,2.36,.26,5.61,.67,9.19,1.2s6.81,1.07,9.14,1.5c1.17,.21,2.11,.39,2.76,.53l.75,.16c.09,.01,.17,.04,.26,.07"/><path id="Trazado_9149" class="cls-4" d="M74.64,130.02c0,.07-5.12-.64-11.42-1.58s-11.39-1.76-11.38-1.83,5.12,.64,11.42,1.58,11.39,1.76,11.38,1.83"/><path id="Trazado_9150" class="cls-4" d="M47.86,142.42c-.28-.49-.52-1.01-.73-1.54l-1.66-3.74-1.7-3.72c-.26-.5-.48-1.03-.67-1.56,.1,.12,.18,.25,.24,.39,.14,.26,.34,.63,.58,1.1,.48,.93,1.11,2.24,1.76,3.7s1.21,2.8,1.6,3.77c.19,.49,.34,.89,.44,1.16,.06,.14,.11,.29,.13,.44"/><path id="Trazado_9151" class="cls-4" d="M37.68,152.38c-.07,.01-.72-2.84-1.46-6.37s-1.28-6.41-1.21-6.42,.72,2.84,1.45,6.37,1.28,6.41,1.21,6.42"/><path id="Trazado_9152" class="cls-4" d="M33.48,136.88c-1.46,.44-2.93,.8-4.43,1.07-1.48,.36-2.97,.64-4.48,.83,1.46-.44,2.93-.8,4.43-1.07,1.48-.36,2.97-.64,4.48-.83"/><path id="Trazado_9153" class="cls-4" d="M32,123.95c-.38,.13-.77,.21-1.17,.26-.72,.12-1.73,.27-2.85,.4s-2.13,.21-2.86,.25c-.4,.05-.8,.05-1.19,.01,.39-.1,.78-.16,1.18-.19l2.85-.32,2.85-.32c.39-.07,.79-.1,1.19-.08"/><path id="Trazado_9154" class="cls-8" d="M35.83,101.51c.14,.27,3.68,18.51,3.68,18.51l-8.36,.39-3.24-15.68,7.92-3.21Z"/><path id="Trazado_9155" class="cls-9" d="M39.52,120.02l.96-.4-3.62-17.98-1.14-.08,3.8,18.46Z"/><path id="Trazado_9156" class="cls-9" d="M32.47,105.5c.03,.24-.14,.45-.38,.48s-.45-.14-.48-.38,.14-.45,.38-.48c0,0,0,0,0,0,.24-.03,.45,.14,.48,.38"/><path id="Trazado_9157" class="cls-5" d="M30.75,118.3l-.12-2.39,3.57-1.47-1.39-3.31c-.64-1.46-2.34-2.12-3.8-1.48-.07,.03-.14,.07-.21,.1l-1.43,.78c-1.02,.55-1.76,1.51-2.03,2.65-.39,1.93-.66,3.87-.83,5.83"/><path id="Trazado_9158" class="cls-10" d="M21.18,179.1s-14.7,4.07-15.29,4.28c-.89,.31-.74,3.56,.64,3.51,.65-.02,11.29,.4,12.64,.31,1.85-.4,3.65-.97,5.4-1.68l-3.39-6.41Z"/><path id="Trazado_9159" class="cls-9" d="M15.06,184.71c-.18-.54-.4-1.07-.65-1.58-.32-.47-.67-.92-1.04-1.35,1.06,.59,1.71,1.72,1.69,2.93"/><path id="Trazado_9160" class="cls-9" d="M16.59,184.02c-.07,.01-.22-.68-.61-1.45s-.85-1.31-.8-1.36c.87,.68,1.38,1.71,1.41,2.81"/><path id="Trazado_9161" class="cls-9" d="M18.03,183.63c-.07-.53-.19-1.05-.34-1.55-.23-.48-.5-.94-.8-1.38,.95,.64,1.41,1.81,1.14,2.93"/><path id="Trazado_9162" class="cls-9" d="M17.77,181.73c-.13-.35-.18-.72-.16-1.09,0-.4,.05-.81,.15-1.2,.06-.23,.13-.46,.22-.68,.04-.14,.13-.26,.24-.36,.15-.12,.37-.1,.51,.02,.12,.11,.19,.26,.2,.42,.02,.13,.02,.26,.02,.39,0,.24-.03,.48-.09,.72-.1,.39-.25,.77-.45,1.12-.16,.33-.39,.63-.66,.89-.03-.02,.21-.37,.51-.96,.17-.35,.3-.71,.39-1.09,.05-.22,.07-.45,.07-.67,0-.23,0-.51-.13-.62-.05-.06-.14-.06-.19-.02-.07,.07-.13,.16-.16,.26-.09,.21-.16,.43-.22,.65-.1,.38-.17,.76-.19,1.15-.04,.67,.02,1.08-.02,1.09"/><path id="Trazado_9163" class="cls-9" d="M17.78,181.58c.3-.13,.62-.18,.95-.15,.35,0,.7,.04,1.04,.13,.21,.05,.41,.12,.6,.22,.25,.12,.38,.4,.33,.67-.07,.26-.27,.46-.53,.52-.22,.05-.44,.05-.66,0-.35-.09-.67-.25-.96-.47-.27-.18-.5-.41-.68-.67,.27,.16,.54,.33,.78,.53,.27,.19,.58,.32,.9,.39,.18,.04,.37,.04,.55,0,.17-.04,.31-.18,.36-.35,.03-.17-.06-.34-.22-.41-.17-.09-.35-.16-.53-.21-.32-.09-.66-.15-.99-.17-.58-.04-.94,.02-.94-.02"/><path id="Trazado_9164" class="cls-9" d="M12.8,184.87c-.06-.45-.16-.89-.29-1.33-.21-.4-.45-.79-.72-1.15,.88,.48,1.31,1.52,1.01,2.48"/><path id="Trazado_9165" class="cls-9" d="M23.06,185.55c-.18,.11-.37,.2-.57,.27-.53,.21-1.08,.38-1.64,.51-1.84,.4-3.73,.58-5.61,.53-2.2-.02-4.19-.12-5.63-.18l-1.7-.09c-.21,0-.42-.02-.62-.07,.21-.03,.42-.04,.63-.03h1.71s5.62,.12,5.62,.12c1.87,.05,3.74-.11,5.57-.46,1.41-.29,2.23-.65,2.24-.6"/><path id="Trazado_9166" class="cls-9" d="M23.49,185.88s-.42-.2-1.1-.5c-.87-.41-1.83-.57-2.78-.46-.93,.2-1.78,.71-2.4,1.43-.26,.31-.54,.6-.85,.86,.2-.36,.44-.69,.72-.98,.29-.34,.62-.65,.97-.91,.45-.33,.97-.55,1.52-.64,1-.12,2.01,.07,2.89,.55,.38,.16,.72,.39,1.03,.66"/><path id="Trazado_9167" class="cls-10" d="M36.79,175.04s13.91,9.11,14.41,9.49c.75,.57-.11,3.26-1.41,2.8-.61-.22-12.29-3.47-13.54-3.96-1.64-.94-3.19-2.03-4.64-3.24l5.18-5.08Z"/><path id="Trazado_9168" class="cls-9" d="M40.92,182.25c.34-1.17,1.31-2.05,2.5-2.28-.49,.3-.95,.62-1.4,.97-.39,.41-.76,.85-1.1,1.31"/><path id="Trazado_9169" class="cls-9" d="M39.67,181.12c.36-1.04,1.17-1.86,2.2-2.24,.04,.06-.57,.43-1.18,1.05s-.96,1.23-1.02,1.2"/><path id="Trazado_9170" class="cls-9" d="M38.41,180.32c.09-1.15,.88-2.12,1.98-2.44-.42,.32-.82,.68-1.18,1.07-.3,.44-.57,.9-.8,1.38"/><path id="Trazado_9171" class="cls-9" d="M39.24,178.59s.15-.39,.32-1.04c.09-.38,.15-.76,.16-1.15,0-.23,0-.46-.01-.69,0-.1-.03-.2-.08-.29-.04-.06-.12-.08-.19-.04-.16,.06-.24,.33-.32,.55-.07,.21-.11,.44-.14,.66-.03,.39-.02,.78,.04,1.16,.1,.66,.23,1.06,.19,1.07-.18-.32-.31-.68-.36-1.04-.09-.4-.12-.8-.09-1.21,.02-.24,.06-.48,.13-.71,.04-.12,.08-.25,.14-.36,.06-.15,.17-.27,.31-.34,.17-.08,.38-.03,.49,.13,.07,.13,.11,.27,.11,.42,.05,.64-.03,1.29-.22,1.9-.09,.36-.25,.7-.48,.99"/><path id="Trazado_9172" class="cls-9" d="M39.27,178.44s-.34-.13-.9-.27c-.33-.08-.66-.12-1-.14-.19-.01-.38,0-.57,.04-.17,.02-.31,.15-.33,.33,0,.18,.08,.35,.24,.44,.16,.1,.33,.16,.52,.17,.33,.03,.66,0,.98-.1,.3-.11,.6-.2,.91-.27-.26,.2-.55,.34-.86,.43-.34,.13-.69,.18-1.05,.16-.22-.01-.44-.08-.63-.2-.23-.14-.36-.39-.35-.66,.03-.28,.25-.5,.52-.54,.21-.04,.43-.05,.64-.03,.35,.02,.7,.09,1.03,.2,.32,.07,.61,.22,.86,.43"/><path id="Trazado_9173" class="cls-9" d="M48.02,186.82s-.23-.14-.34-.54c-.11-.52-.02-1.06,.26-1.51,.14-.24,.29-.48,.47-.7,.13-.19,.29-.36,.47-.51,.13-.1,.28-.17,.44-.19,.12,0,.18,.02,.17,.04-.19,.05-.36,.15-.51,.28-.15,.15-.28,.32-.4,.51-.16,.22-.3,.45-.43,.68-.25,.41-.36,.88-.31,1.36,.05,.36,.2,.55,.17,.57"/><path id="Trazado_9174" class="cls-9" d="M43.02,183.09c0-1.01,.73-1.86,1.71-2.05-.79,.47-1.4,1.19-1.71,2.05"/><path id="Trazado_9175" class="cls-9" d="M33.04,180.62c.21,.12,.42,.26,.61,.42,.55,.38,1.12,.73,1.71,1.05,.88,.46,1.79,.87,2.72,1.21,1.05,.39,2.24,.76,3.49,1.13,2.5,.72,4.77,1.38,6.4,1.87l1.93,.59c.24,.06,.47,.15,.7,.25-.25-.03-.49-.08-.73-.16l-1.96-.52c-1.65-.45-3.92-1.08-6.43-1.8-1.25-.36-2.44-.74-3.5-1.15-.94-.36-1.85-.78-2.73-1.27-.59-.33-1.15-.71-1.69-1.13-.2-.15-.39-.32-.55-.5"/><path id="Trazado_9176" class="cls-9" d="M32.53,180.8c.37-.17,.77-.27,1.18-.31,.99-.19,2.01-.06,2.92,.36,.5,.25,.93,.62,1.25,1.08,.26,.36,.48,.75,.65,1.17,.18,.37,.31,.75,.39,1.15-.21-.35-.39-.71-.54-1.08-.38-.88-1.03-1.62-1.86-2.09-.87-.39-1.84-.53-2.79-.4-.74,.08-1.19,.18-1.2,.14"/><path id="Trazado_9177" class="cls-5" d="M69.39,102.88l.91,18.38c.16,3.02-2.16,5.59-5.18,5.75-3.02,.16-5.59-2.16-5.75-5.18,0-.01,0-.03,0-.04-.07-1.38-.13-2.54-.14-2.68,0,0-4.7-.21-5.27-4.82-.27-2.23-.46-6.87-.59-11.07-.13-4.51,3.22-8.36,7.71-8.85l.45-.05c4.84-.25,7.75,3.72,7.87,8.56"/><path id="Trazado_9178" class="cls-3" d="M59.21,119.04c2.14-.2,4.17-1.02,5.83-2.38,0,0-1.06,3.48-5.71,3.57l-.12-1.2Z"/><path id="Trazado_9179" class="cls-9" d="M54.84,106.1c.03,.36,.35,.63,.71,.6,.35-.01,.63-.3,.61-.65,0,0,0-.01,0-.02-.03-.36-.35-.63-.71-.6-.35,.01-.63,.3-.62,.66,0,0,0,0,0,.01"/><path id="Trazado_9180" class="cls-9" d="M54.61,105.38c.09,.08,.55-.35,1.26-.42s1.27,.22,1.34,.13c.03-.04-.07-.19-.31-.33-.33-.18-.71-.25-1.08-.21-.37,.04-.72,.2-.99,.45-.2,.19-.26,.35-.21,.39"/><path id="Trazado_9181" class="cls-9" d="M61.81,105.5c.03,.36,.35,.63,.71,.6,.35-.01,.63-.3,.61-.65,0,0,0-.01,0-.02-.03-.36-.35-.63-.71-.6-.35,.01-.63,.3-.62,.66,0,0,0,0,0,.01"/><path id="Trazado_9182" class="cls-9" d="M61.6,104.74c.09,.08,.55-.35,1.26-.42s1.27,.22,1.34,.13c.03-.04-.07-.19-.31-.33-.33-.18-.71-.25-1.08-.21-.37,.04-.72,.19-.99,.45-.2,.19-.26,.35-.21,.39"/><path id="Trazado_9183" class="cls-9" d="M59.61,110.29c-.39-.08-.78-.1-1.18-.08-.18,0-.36-.02-.4-.14-.04-.19-.01-.38,.06-.55,.12-.46,.25-.94,.38-1.44,.37-1.22,.64-2.48,.81-3.74-.47,1.19-.84,2.42-1.11,3.67-.13,.5-.25,.99-.36,1.45-.09,.23-.1,.49-.02,.72,.07,.12,.19,.21,.33,.23,.1,.02,.21,.02,.31,0,.39,0,.79-.04,1.17-.13"/><path id="Trazado_9184" class="cls-9" d="M61.75,110.55c-.12,0-.03,.78-.63,1.4s-1.43,.63-1.42,.73c0,.05,.2,.13,.55,.1,.45-.04,.87-.24,1.19-.57,.3-.31,.48-.73,.48-1.16,0-.33-.11-.51-.16-.5"/><path id="Trazado_9185" class="cls-9" d="M61.11,101.98c.09,.18,.79,.02,1.63,.02,.84,0,1.54,.16,1.63-.02,.04-.09-.1-.26-.39-.41-.79-.38-1.7-.38-2.49,0-.29,.16-.43,.33-.39,.41"/><path id="Trazado_9186" class="cls-9" d="M54.65,103.29c.14,.15,.61-.07,1.2-.15,.58-.09,1.1-.01,1.19-.19,.04-.09-.06-.24-.29-.37-.64-.31-1.4-.2-1.93,.27-.19,.19-.24,.36-.18,.43"/><path id="Trazado_9187" class="cls-5" d="M69.39,106.34c.07-.04,3.07-1.29,3.32,1.88s-2.99,2.76-3,2.67-.32-4.55-.32-4.55"/><path id="Trazado_9188" class="cls-3" d="M70.58,109.62s.06,.03,.15,.07c.14,.05,.28,.04,.41-.02,.4-.3,.6-.78,.54-1.27-.01-.27-.09-.54-.22-.78-.08-.2-.24-.34-.45-.39-.13-.02-.27,.05-.31,.18-.04,.09,0,.15-.03,.16s-.07-.05-.06-.18c.01-.08,.05-.15,.11-.21,.08-.07,.19-.11,.3-.1,.27,.03,.5,.2,.62,.45,.16,.26,.25,.56,.26,.87,.08,.57-.2,1.14-.7,1.43-.17,.06-.36,.05-.51-.04-.1-.07-.13-.14-.12-.15"/><path id="Trazado_9189" class="cls-9" d="M71.13,106.04c-.62,.03-1.17,.39-1.43,.95-.15,.47-.15,.99-.3,1.46s-.57,.93-1.07,.87c-.34-.07-.63-.32-.74-.65-.11-.33-.15-.67-.12-1.02,.02-1.5,.17-2.99,.07-4.48-.05-1.51-.53-2.96-1.41-4.19-.9-1.23-2.41-1.87-3.92-1.67-.97,.19-1.82,.8-2.78,1.04-1.16,.28-2.38,.02-3.32-.72-.12-.09-.65-.37-.65-.37-.02-.35,.05-.7,.22-1.01,1.74-2,5.17-2.89,7.79-2.52,2.7,.36,5.11,1.88,6.58,4.18,1.36,2.27,1.4,5.64,1.07,8.13"/><path id="Trazado_9190" class="cls-9" d="M19.51,178.94s34.12-22.38,35.51-22.85,4.77-2.68,8.15-1.75,6.4,3.96,7.92,8.38,1.63,14.32,1.63,14.32c0,0-2.68,7.8-7.92,9.43-.45,.14-.9,.25-1.36,.34-6.43,1.19-12.94-1.62-16.48-7.12l-.76-1.16s-22.32,8.2-22.67,8.08l-4.02-7.69Z"/><path id="Trazado_9191" class="cls-9" d="M7.87,152.83c-2.53,1.01-4.18,3.45-4.19,6.17-.03,8.96,18.11,18.85,18.11,18.85l24.15-16v-1.68s-31.08-11.18-38.07-7.33"/><path id="Trazado_9192" class="cls-8" d="M61.72,172.77s-.06,.03-.19,.08l-.56,.22-2.16,.83-8.04,3.03c-3.42,1.27-7.5,2.79-12.09,4.46s-9.68,3.5-15.11,5.34l-.1,.03-.05-.09-2.67-5.09-1.36-2.6-.05-.1,.09-.06,26.02-16.52,7.82-4.93,2.12-1.33,.55-.34c.13-.08,.19-.11,.19-.11,0,0-.06,.05-.18,.13l-.54,.36-2.1,1.36-7.78,5-25.98,16.58,.04-.16,1.36,2.6,2.66,5.09-.15-.06c5.43-1.83,10.52-3.66,15.11-5.31l12.11-4.41,8.06-2.96,2.18-.79,.57-.2c.13-.04,.2-.06,.2-.06"/><path id="Trazado_9193" class="cls-8" d="M33.71,169.93c-.22-.12-.43-.27-.63-.43-.4-.29-.96-.71-1.65-1.25-1.38-1.07-3.26-2.58-5.29-4.32s-3.81-3.37-5.07-4.57c-.63-.6-1.14-1.1-1.48-1.44-.19-.17-.36-.36-.52-.56,.21,.15,.4,.31,.58,.49l1.53,1.39c1.29,1.17,3.09,2.78,5.11,4.52s3.88,3.27,5.24,4.37l1.6,1.31c.2,.15,.39,.32,.57,.5"/><path id="Trazado_9194" class="cls-8" d="M14.69,156.18c.78-.12,1.58-.05,2.33,.21,.77,.18,1.48,.56,2.07,1.09-.04,.06-.92-.5-2.14-.85s-2.26-.37-2.26-.45"/><path id="Trazado_9195" class="cls-8" d="M16.77,154.77c1.13,.48,1.95,1.49,2.18,2.7-.07,.02-.33-.73-.94-1.47s-1.28-1.17-1.24-1.23"/><path id="Trazado_9196" class="cls-9" d="M6.55,183.15s.29-.09,.62,.19c.39,.37,.64,.86,.7,1.4,.08,.53,0,1.06-.22,1.55-.17,.37-.36,.54-.38,.52s.1-.23,.22-.59c.16-.46,.21-.96,.14-1.45-.05-.48-.25-.94-.57-1.31-.26-.27-.51-.28-.51-.32"/></g></g></g><rect id="Rectángulo_4152" class="cls-9" x="174.02" y="157.39" width="32.96" height="4.53"/><path id="Trazado_9197" class="cls-9" d="M207.04,161.98h-33.07v-4.64h33.07v4.64Zm-32.96-.11h32.85v-4.42h-32.85v4.42Z"/><path id="Trazado_9198" class="cls-9" d="M177.08,160.41l4.74,23.41h17.55l4.59-21.9-26.88-1.51Z"/><path id="Trazado_9199" class="cls-8" d="M177.08,181.6l2.53,3.48h21.34l3.02-3.48h-26.89Z"/><g id="Grupo_4420"><g class="cls-16"><g id="Grupo_4419"><path id="Trazado_9200" class="cls-9" d="M189.26,161.1c-.07,0-.15-10.84-.19-24.22s-.02-24.22,.05-24.22,.15,10.84,.18,24.22,.02,24.22-.05,24.22"/><path id="Trazado_9201" class="cls-9" d="M196.61,133.96c-.02,.09-.05,.17-.09,.25l-.29,.7-.21,.51-.22,.61-.25,.71c-.09,.25-.16,.52-.24,.8-.39,1.32-.7,2.67-.92,4.04-.26,1.67-.43,3.36-.51,5.05-.12,3.08-.04,6.16,.26,9.22,.11,1.18,.21,2.13,.29,2.78,.03,.31,.06,.56,.08,.76,.07,0,.13,.06,.13,.14,0,.07-.06,.13-.14,.13-.07,0-.13-.06-.13-.14,0-.06,.04-.1,.09-.12-.03-.2-.08-.45-.13-.75-.11-.65-.24-1.6-.37-2.78-.35-3.07-.46-6.16-.33-9.25,.08-1.7,.26-3.39,.53-5.07,.23-1.37,.56-2.72,.98-4.05,.09-.28,.17-.55,.26-.8l.27-.7c.08-.22,.16-.42,.24-.61,.08-.18,.16-.35,.23-.5l.33-.69c.03-.08,.08-.16,.13-.23"/><path id="Trazado_9202" class="cls-9" d="M195.77,125.19c-.02,.12-.06,.24-.1,.36l-.34,1.01-.25,.73-.27,.88c-.19,.63-.42,1.34-.61,2.14l-.33,1.25-.31,1.37c-.23,.94-.4,1.97-.61,3.04-.36,2.15-.68,4.53-.9,7.05s-.3,4.92-.33,7.1c0,2.18,.02,4.15,.11,5.8,.03,.83,.08,1.57,.12,2.23s.08,1.22,.12,1.68c.03,.44,.06,.8,.08,1.06,.01,.12,.02,.25,.01,.37-.03-.12-.05-.24-.06-.37-.03-.26-.07-.62-.12-1.06-.06-.46-.11-1.02-.16-1.68s-.12-1.4-.16-2.23c-.11-1.65-.16-3.62-.16-5.81,.02-2.19,.1-4.6,.31-7.12s.55-4.91,.92-7.06c.22-1.07,.39-2.1,.63-3.05l.32-1.37,.35-1.25c.21-.8,.45-1.51,.65-2.14l.28-.87,.27-.72,.39-.99c.04-.12,.09-.23,.15-.34"/><path id="Trazado_9203" class="cls-9" d="M187.18,163.02s-.02-.08-.02-.13c0-.1-.02-.22-.03-.37-.02-.35-.06-.83-.1-1.44-.08-1.27-.19-3.07-.33-5.28-.29-4.46-.7-10.62-1.45-17.39-.38-3.39-.83-6.6-1.29-9.52-.25-1.46-.47-2.84-.72-4.13-.23-1.29-.48-2.49-.71-3.58s-.46-2.08-.65-2.94-.38-1.61-.53-2.21-.26-1.06-.34-1.4l-.08-.37s-.02-.08-.02-.13c.02,.04,.03,.08,.04,.12l.11,.36,.39,1.39c.17,.6,.37,1.34,.57,2.21s.46,1.84,.69,2.94,.5,2.29,.74,3.58c.26,1.29,.49,2.67,.74,4.13,.47,2.92,.93,6.14,1.31,9.53,.75,6.78,1.14,12.95,1.38,17.41,.12,2.23,.21,4.04,.26,5.29,.02,.61,.04,1.09,.05,1.44,0,.15,0,.28,0,.37,0,.04,0,.09,0,.13"/><path id="Trazado_9204" class="cls-10" d="M189,117.87c-.27-1.57-1.64-2.72-3.24-2.71-1.57,.07-3.01,.85-3.92,2.13-.89,1.27-1.53,2.69-1.89,4.19-1.12,3.61-1.52,7.4-1.16,11.16,.37,3.78,2.01,7.33,4.64,10.06,.38,.49,.98,.76,1.6,.73,.32-.1,.61-.28,.84-.52,5.31-4.87,8.27-11.79,8.11-18.99,.05-1.43-.3-2.84-1.02-4.09-.79-1.18-2.62-2.44-3.96-1.97"/><path id="Trazado_9205" class="cls-10" d="M177.48,105.57l-2.17,3.93c-.05,.09-.12,.19-.22,.2s-.2-.1-.26-.2l-5.74-8.82,1.32-.75,7.08,5.63Z"/><g id="Grupo_4418" class="cls-18"><g id="Grupo_4417"><g class="cls-15"><g id="Grupo_4416"><path id="Trazado_9206" d="M177.48,105.57l-2.17,3.93c-.05,.09-.12,.19-.22,.2s-.2-.1-.26-.2l-5.74-8.82,1.32-.75,7.08,5.63Z"/></g></g></g></g><path id="Trazado_9207" class="cls-10" d="M189.13,112.66l-19.6-11.56c-.21-.09-.39-.27-.48-.48-.08-.29,.14-.57,.35-.79,2.73-2.83,6.55-4.33,10.47-4.11,3.93,.28,7.48,2.49,9.47,5.89,1.96,3.45,1.88,7.69-.21,11.06"/><path id="Trazado_9208" class="cls-9" d="M172.36,97.41c.08-.02,.17-.03,.26-.03,.17,0,.42-.04,.74-.04,.91-.01,1.82,.06,2.72,.22,6.1,1.03,11.05,5.51,12.68,11.47,.24,.88,.41,1.78,.49,2.68,.04,.32,.03,.57,.04,.74,0,.09,0,.17,0,.26-.02,0-.05-.35-.12-.99-.11-.9-.3-1.78-.55-2.65-1.68-5.87-6.55-10.28-12.55-11.36-.89-.17-1.79-.26-2.69-.29-.64-.01-1,0-1-.02"/><path id="Trazado_9209" class="cls-9" d="M186.48,104.68c-.31,.19-.64,.34-.99,.45-.62,.25-1.5,.56-2.47,.87s-1.87,.56-2.52,.72c-.35,.11-.71,.17-1.07,.2,.33-.16,.67-.28,1.02-.36l2.5-.78,2.49-.8c.34-.13,.69-.23,1.05-.29"/><path id="Trazado_9210" class="cls-9" d="M183.4,96.38c.27,1.44,.31,2.92,.11,4.38-.11-1.46-.15-2.92-.11-4.38"/><path id="Trazado_9211" class="cls-9" d="M169.36,100.88c.46-.21,.94-.37,1.42-.5,.89-.27,2.13-.62,3.51-.96s2.64-.59,3.56-.75c.49-.11,1-.18,1.5-.2-.48,.16-.97,.28-1.46,.37-.91,.2-2.16,.48-3.54,.82s-2.62,.65-3.52,.89c-.48,.15-.97,.26-1.47,.34"/><path id="Trazado_9212" class="cls-10" d="M180.09,114.24c-1.62-1.16-3.61-1.67-5.58-1.45-2.12,.14-4.19,.68-6.11,1.58-3.37,1.35-6.28,3.64-8.39,6.6-2.09,3.02-2.53,6.89-1.18,10.31,.12,.34,.35,.63,.67,.81,.37,.1,.76,.07,1.11-.08,3.8-1.11,7.48-2.57,11-4.38,3.53-1.83,6.47-4.63,8.45-8.08,.48-.82,.78-1.74,.89-2.68,.1-.96-.21-1.91-.86-2.62"/><path id="Trazado_9213" class="cls-9" d="M180.13,113.84c-.09,.05-.18,.08-.27,.11l-.79,.27-.57,.19c-.21,.07-.43,.17-.67,.26-.48,.19-1.03,.38-1.61,.67l-.92,.42c-.32,.15-.64,.33-.98,.5-.68,.34-1.37,.76-2.1,1.2-3.15,1.95-5.95,4.42-8.29,7.29-.52,.67-1.04,1.3-1.45,1.93-.21,.31-.43,.61-.62,.9l-.53,.86c-.35,.54-.61,1.06-.87,1.51-.12,.23-.24,.43-.34,.63l-.26,.54-.37,.75c-.04,.09-.09,.17-.14,.25,.02-.09,.06-.19,.1-.27l.33-.77,.24-.55c.1-.2,.21-.41,.33-.64,.24-.45,.49-.99,.84-1.54l.52-.87c.18-.3,.4-.6,.61-.92,.41-.64,.92-1.28,1.45-1.96,2.33-2.91,5.15-5.39,8.34-7.34,.74-.43,1.44-.85,2.13-1.18,.34-.17,.66-.35,.99-.49l.93-.41c.59-.27,1.15-.46,1.63-.64,.24-.09,.47-.17,.68-.24l.58-.17,.8-.23c.09-.03,.19-.05,.28-.06"/><path id="Trazado_9214" class="cls-9" d="M166.96,120.97c-2.71,.96-5.47,1.76-8.27,2.42,2.71-.96,5.47-1.76,8.27-2.42"/><path id="Trazado_9215" class="cls-9" d="M166.79,130.02c-.07-.42-.1-.85-.09-1.28-.02-.79-.02-1.88,0-3.09s.1-2.3,.16-3.08c.01-.43,.07-.85,.16-1.27,.04,.43,.04,.85,0,1.28-.03,.87-.06,1.92-.1,3.08s-.05,2.21-.08,3.08c.01,.43-.01,.86-.08,1.28"/><path id="Trazado_9216" class="cls-9" d="M174.54,126.07c-.07,0-.27-2.21-.46-4.95s-.29-4.97-.23-4.97,.27,2.21,.46,4.95,.29,4.97,.23,4.97"/><path id="Trazado_9217" class="cls-9" d="M164.89,115.93c.44-.05,.88-.07,1.31-.04,.81,0,1.93,.03,3.16,.07s2.35,.09,3.16,.14c.44,0,.88,.04,1.31,.13-.44,.05-.87,.07-1.31,.04-.81,0-1.93-.03-3.17-.07s-2.35-.09-3.16-.14c-.44,0-.88-.04-1.31-.13"/><path id="Trazado_9218" class="cls-9" d="M184.27,143.76c-.02-.09-.03-.18-.03-.27,0-.2-.02-.46-.03-.77-.03-.67-.04-1.64-.01-2.83s.1-2.62,.24-4.2,.37-3.3,.69-5.1,.71-3.5,1.11-5.03,.83-2.89,1.22-4.02,.73-2.04,.99-2.66l.3-.71c.03-.08,.07-.17,.12-.24-.01,.09-.04,.18-.08,.26l-.26,.73c-.23,.63-.55,1.54-.92,2.68s-.77,2.5-1.17,4.03-.77,3.22-1.09,5.02-.54,3.51-.7,5.08-.25,2.99-.29,4.18-.07,2.16-.06,2.83c0,.31,0,.57,0,.77,0,.09,0,.18-.02,.27"/><path id="Trazado_9219" class="cls-9" d="M185.3,130.39c-.23,.31-.49,.6-.78,.86-.51,.51-1.23,1.18-2.05,1.9s-1.59,1.35-2.16,1.78c-.29,.25-.61,.48-.95,.66,.26-.29,.54-.56,.85-.79l2.11-1.83,2.09-1.85c.28-.27,.58-.52,.9-.74"/><path id="Trazado_9220" class="cls-9" d="M191.5,135.39c-.31-.36-.59-.75-.83-1.15l-1.94-2.83-1.98-2.8c-.29-.37-.56-.77-.79-1.18,.34,.33,.65,.69,.92,1.08,.54,.69,1.27,1.66,2.04,2.76s1.42,2.12,1.88,2.87c.27,.39,.5,.81,.69,1.24"/><path id="Trazado_9221" class="cls-9" d="M188.25,119.68c.04,.05-2.03,1.44-4.6,3.1-2.57,1.66-4.69,2.95-4.73,2.9s2.02-1.44,4.6-3.1,4.69-2.95,4.73-2.9"/><path id="Trazado_9222" class="cls-9" d="M194.06,125.95c-2.13-1.86-4.16-3.84-6.07-5.93,2.13,1.86,4.16,3.84,6.07,5.93"/><path id="Trazado_9223" class="cls-10" d="M195.52,125.82l1.77-.15c1.26-.1,2.47-.48,3.57-1.09,.54-.31,1.09-.59,1.67-.84,2.19-.88,4.63-.72,6.98-.84,3.85-.2,7.63-1.16,11.1-2.84,.2-.09,.37-.25,.48-.44,.36-.66-.31-1.25-.89-1.61-2.89-1.98-6.06-3.53-9.39-4.61-3.38-.91-7.21-.76-10.1,1.23-3.39,2.33-4.62,7.11-5.19,11.18"/><path id="Trazado_9224" class="cls-9" d="M221.14,119.41c-.1-.04-.2-.08-.3-.14l-.84-.44c-.73-.38-1.77-.95-3.1-1.58-1.54-.76-3.14-1.37-4.79-1.85-2.02-.58-4.13-.75-6.21-.5-2.09,.23-4.06,1.08-5.66,2.43-1.25,1.17-2.26,2.58-2.95,4.14-.48,1.05-.91,2.13-1.28,3.23-.13,.37-.24,.67-.32,.89-.03,.11-.07,.21-.12,.31,.02-.11,.04-.22,.08-.32l.27-.91c.34-1.11,.75-2.2,1.22-3.27,.68-1.6,1.69-3.04,2.96-4.23,1.63-1.39,3.64-2.26,5.78-2.5,2.11-.25,4.26-.07,6.3,.53,1.66,.48,3.27,1.12,4.81,1.91,1.32,.66,2.35,1.24,3.07,1.65l.82,.48c.1,.05,.19,.11,.28,.18"/><path id="Trazado_9225" class="cls-9" d="M216.89,121.69c-.04,.05-2.35-1.44-5.17-3.34s-5.07-3.48-5.04-3.54,2.35,1.44,5.17,3.34,5.07,3.48,5.04,3.54"/><path id="Trazado_9226" class="cls-9" d="M214.67,114.59c-1.18,.37-2.42,.48-3.65,.34,1.21-.16,2.43-.28,3.65-.34"/><path id="Trazado_9227" class="cls-9" d="M204.3,112.74c-.44,1.05-1.02,2.03-1.72,2.92,.18-.54,.44-1.05,.76-1.52,.25-.51,.58-.98,.96-1.4"/><path id="Trazado_9228" class="cls-9" d="M206.37,123.05c-.39-.16-.76-.36-1.11-.6-.67-.41-1.57-1-2.54-1.7s-1.82-1.36-2.43-1.85c-.34-.24-.67-.52-.96-.82,.37,.2,.73,.43,1.06,.69l2.46,1.79c.96,.7,1.85,1.31,2.49,1.75,.36,.22,.7,.47,1.02,.74"/><path id="Trazado_9229" class="cls-10" d="M198.13,133.34c-1.69-.45-3.7,1.2-4.05,2.9-.2,1.75,.16,3.51,1.04,5.03,1.61,3.53,3.99,6.65,6.98,9.13,3.01,2.48,6.77,3.86,10.67,3.93-.71-3.31,.19-6.77-.21-10.14-.72-6.11-5.57-10.9-11.68-11.56-1.08-.12-2.32-.29-2.75,.71"/><path id="Trazado_9230" class="cls-9" d="M212.77,154.34c-.08-.03-.16-.06-.24-.11-.22-.12-.43-.26-.63-.42-.71-.62-1.28-1.38-1.67-2.23-.27-.52-.57-1.09-.86-1.72l-.91-2.01c-.33-.74-.7-1.45-1.11-2.14-.46-.73-.97-1.43-1.54-2.09-1.15-1.36-2.39-2.53-3.47-3.65-.97-.98-1.86-2.04-2.64-3.17-.53-.77-.96-1.6-1.29-2.47-.09-.24-.16-.48-.23-.72-.03-.08-.05-.17-.05-.26,.02,0,.12,.34,.36,.95,.36,.85,.81,1.66,1.34,2.41,.8,1.11,1.69,2.15,2.66,3.12,1.08,1.11,2.33,2.28,3.49,3.65,.57,.66,1.09,1.37,1.55,2.12,.42,.7,.79,1.43,1.12,2.17l.89,2.01c.28,.62,.58,1.2,.83,1.72,.37,.84,.91,1.6,1.58,2.23,.49,.42,.83,.58,.81,.61"/><path id="Trazado_9231" class="cls-9" d="M204.05,151.58c0-.38,.06-.76,.15-1.14,.13-.7,.35-1.65,.64-2.69s.61-1.97,.86-2.63c.11-.37,.27-.72,.46-1.05-.06,.38-.17,.74-.3,1.1-.21,.67-.5,1.6-.79,2.64s-.53,1.98-.7,2.66c-.07,.38-.18,.74-.32,1.1"/><path id="Trazado_9232" class="cls-9" d="M212.45,143.45c-.4-.06-.8-.15-1.19-.27-.73-.19-1.73-.45-2.85-.7s-2.14-.45-2.87-.59c-.4-.05-.8-.14-1.19-.26,.41-.01,.82,.02,1.22,.1,.75,.1,1.78,.27,2.9,.52s2.12,.54,2.84,.77c.39,.1,.78,.25,1.14,.43"/><path id="Trazado_9233" class="cls-9" d="M197.79,145.81c.02-.44,.08-.88,.18-1.31,.15-.8,.39-1.91,.7-3.12s.65-2.29,.92-3.07c.12-.43,.28-.84,.48-1.24-.07,.44-.18,.87-.33,1.29-.22,.79-.53,1.87-.85,3.08s-.58,2.3-.76,3.1c-.08,.44-.2,.86-.35,1.28"/><path id="Trazado_9234" class="cls-9" d="M208.58,136.36c0,.06-2.11-.11-4.7-.38s-4.69-.55-4.68-.61,2.11,.11,4.7,.38,4.69,.55,4.68,.61"/><path id="Trazado_9235" class="cls-8" d="M207.04,161.9c0,.07-7.4,.12-16.53,.12s-16.54-.05-16.54-.12,7.4-.12,16.54-.12,16.53,.05,16.53,.12"/><path id="Trazado_9236" class="cls-8" d="M201.89,171.43c0,.07-4.99,.12-11.14,.12s-11.14-.05-11.14-.12,4.99-.12,11.14-.12,11.14,.05,11.14,.12"/><path id="Trazado_9237" class="cls-8" d="M202.08,172.79c0,.07-4.99,.12-11.14,.12s-11.14-.05-11.14-.12,4.99-.12,11.14-.12,11.14,.05,11.14,.12"/><path id="Trazado_9238" class="cls-8" d="M202.08,170.31c0,.07-5.16,.12-11.52,.12s-11.52-.05-11.52-.12,5.16-.12,11.52-.12,11.52,.05,11.52,.12"/></g></g></g></g></g></g></g></svg>