<svg width="541" height="465" viewBox="0 0 541 465" fill="none" xmlns="http://www.w3.org/2000/svg">
<path fill-rule="evenodd" clip-rule="evenodd" d="M286.012 29.4177C383.339 30.0761 504.508 24.6023 535.19 116.611C566.149 209.448 466.984 279.011 389.128 338.636C299.971 406.915 199.383 506.143 103.959 446.862C-3.57794 380.056 -24.3018 228.958 26.1959 113.168C66.2944 21.2225 185.377 28.737 286.012 29.4177Z" fill="#F1EFF5"/>
<g clip-path="url(#clip0_48_1317)">
<mask id="mask0_48_1317" style="mask-type:luminance" maskUnits="userSpaceOnUse" x="14" y="0" width="476" height="465">
<path d="M490 0H14V465H490V0Z" fill="white"/>
</mask>
<g mask="url(#mask0_48_1317)">
<path d="M392.556 17.9724H309.444V104.609H392.556V17.9724Z" fill="#E0E0E0"/>
<path d="M386.936 17.9724H303.824V104.609H386.936V17.9724Z" fill="#FAFAFA"/>
<path d="M386.955 104.628H303.787V17.9535H386.955V104.628ZM303.843 104.572H386.898V18.0101H303.843V104.591V104.572Z" fill="#E0E0E0"/>
<path d="M375.753 29.6271H314.989V92.9736H375.753V29.6271Z" fill="#FAFAFA"/>
<mask id="mask1_48_1317" style="mask-type:luminance" maskUnits="userSpaceOnUse" x="35" y="-1" width="477" height="466">
<path d="M511.273 -0.848648H35.2729V464.151H511.273V-0.848648Z" fill="white"/>
</mask>
<g mask="url(#mask1_48_1317)">
<path d="M314.989 93.3885C314.555 94.0297 314.046 94.6143 313.48 95.1235C312.5 96.1419 311.142 97.5374 309.614 99.0461C308.087 100.555 306.691 101.894 305.654 102.837C305.126 103.384 304.541 103.893 303.9 104.308C304.334 103.667 304.824 103.082 305.39 102.573C306.37 101.554 307.728 100.159 309.256 98.6501C310.783 97.1414 312.198 95.8024 313.235 94.8406C313.763 94.2937 314.348 93.8034 314.989 93.3885Z" fill="#E0E0E0"/>
<path d="M375.753 93.2376C376.394 93.6714 376.978 94.1806 377.488 94.7275C378.506 95.6893 379.901 97.0659 381.41 98.5935C382.919 100.121 384.258 101.535 385.22 102.554C385.767 103.082 386.257 103.667 386.672 104.308C386.031 103.874 385.446 103.384 384.937 102.818C383.918 101.856 382.523 100.479 381.014 98.9518C379.505 97.4243 378.166 96.0099 377.205 94.9726C376.658 94.4446 376.167 93.86 375.753 93.2188" fill="#E0E0E0"/>
<path d="M375.583 29.7968C376.017 29.1556 376.526 28.571 377.091 28.0618C378.072 27.0434 379.43 25.6479 380.958 24.1392C382.485 22.6305 383.881 21.2915 384.918 20.3486C385.446 19.8017 386.031 19.3113 386.672 18.8965C386.238 19.5377 385.748 20.1223 385.182 20.6315C384.201 21.6498 382.843 23.0454 381.316 24.5541C379.788 26.0628 378.374 27.4017 377.337 28.3635C376.809 28.9104 376.224 29.4008 375.583 29.8157" fill="#E0E0E0"/>
<path d="M314.819 29.9477C314.178 29.5139 313.593 29.0047 313.084 28.439C312.066 27.4772 310.67 26.1005 309.162 24.5729C307.653 23.0454 306.314 21.631 305.352 20.6126C304.805 20.0846 304.315 19.4999 303.9 18.8587C304.541 19.2925 305.126 19.7828 305.635 20.3486C306.653 21.3104 308.049 22.6871 309.558 24.2146C311.066 25.7422 312.405 27.1566 313.367 28.1938C313.914 28.7219 314.404 29.3065 314.819 29.9477Z" fill="#E0E0E0"/>
<path d="M375.583 92.9547C375.583 92.9547 375.583 92.8416 375.583 92.653C375.583 92.4644 375.583 92.1438 375.583 91.7666C375.583 90.9746 375.583 89.8242 375.564 88.3532C375.564 85.3547 375.526 80.9794 375.507 75.435C375.47 64.346 375.432 48.5424 375.394 29.6082L375.62 29.8345L315.027 29.8723L315.291 29.6082C315.291 52.8611 315.272 74.6052 315.253 92.9547L315.027 92.7284L358.911 92.8416L371.245 92.8982H374.508L375.356 92.9359C375.451 92.9359 375.545 92.9359 375.658 92.9359C375.564 92.9359 375.488 92.9359 375.394 92.9359H374.583L371.358 92.9736L359.081 93.0302L315.064 93.1433H314.838V92.917C314.838 74.5675 314.819 52.8233 314.8 29.5705V29.3065H315.083L375.677 29.3442H375.903V29.5705C375.847 48.5613 375.809 64.4026 375.79 75.5481C375.771 81.0737 375.752 85.4112 375.734 88.4098C375.734 89.8808 375.715 90.9934 375.715 91.7855C375.715 92.1438 375.715 92.4267 375.715 92.653C375.715 92.7473 375.715 92.8416 375.715 92.9359" fill="#E0E0E0"/>
<path d="M355.517 51.1638H335.243V71.4369H355.517V51.1638Z" fill="#EBEBEB"/>
<path d="M270.01 0H209.549V63.0259H270.01V0Z" fill="#E0E0E0"/>
<path d="M265.918 0H205.456V63.0259H265.918V0Z" fill="#FAFAFA"/>
<path d="M265.937 63.0636H205.437V0H265.937V63.0636ZM205.475 63.0259H265.899V0.0377175H205.475V63.0259Z" fill="#E0E0E0"/>
<path d="M257.79 8.48643H213.584V54.5583H257.79V8.48643Z" fill="#FAFAFA"/>
<path d="M213.584 54.8789C213.264 55.3504 212.905 55.7653 212.491 56.1425C211.774 56.8968 210.793 57.8963 209.681 58.9901C208.568 60.0839 207.549 61.0646 206.795 61.7624C206.418 62.1584 205.984 62.5167 205.513 62.8185C205.814 62.347 206.192 61.9321 206.588 61.5549C207.285 60.8006 208.285 59.8011 209.398 58.7073C210.51 57.6135 211.529 56.6328 212.283 55.935C212.66 55.539 213.094 55.1807 213.547 54.8789" fill="#E0E0E0"/>
<path d="M257.79 54.7658C258.261 55.0864 258.676 55.4447 259.053 55.8596C259.789 56.5762 260.807 57.5569 261.901 58.6695C262.995 59.7822 263.975 60.8006 264.654 61.5549C265.05 61.9321 265.409 62.3659 265.711 62.8373C265.258 62.5356 264.824 62.1584 264.447 61.7435C263.693 61.0269 262.693 60.0462 261.599 58.9336C260.505 57.8209 259.525 56.8025 258.827 56.0482C258.431 55.671 258.073 55.2373 257.771 54.7846" fill="#E0E0E0"/>
<path d="M257.658 8.61844C257.978 8.14697 258.337 7.73208 258.752 7.3549C259.468 6.61941 260.449 5.60104 261.562 4.50723C262.674 3.41343 263.693 2.43277 264.447 1.735C264.824 1.33897 265.258 0.980649 265.729 0.678909C265.428 1.15038 265.05 1.56527 264.636 1.94244C263.919 2.69679 262.938 3.69631 261.826 4.79011C260.713 5.88392 259.676 6.86458 258.94 7.56235C258.563 7.95838 258.129 8.3167 257.677 8.61844" fill="#E0E0E0"/>
<path d="M213.471 8.73159C213 8.41099 212.585 8.05268 212.208 7.63778C211.453 6.92115 210.454 5.9405 209.36 4.82783C208.266 3.71517 207.285 2.69679 206.607 1.94244C206.21 1.56527 205.852 1.13152 205.55 0.660049C206.022 0.961789 206.437 1.33896 206.814 1.735C207.568 2.45163 208.568 3.43228 209.662 4.54495C210.755 5.65762 211.736 6.67599 212.434 7.43034C212.83 7.80751 213.188 8.24126 213.49 8.69387" fill="#E0E0E0"/>
<path d="M257.658 54.5583C257.658 54.5583 257.658 54.4075 257.658 54.332C257.658 54.1812 257.658 53.9549 257.658 53.6908C257.658 53.1062 257.658 52.2764 257.639 51.2015C257.639 49.0139 257.62 45.8456 257.601 41.8098C257.582 33.7383 257.545 22.2345 257.507 8.48644L257.677 8.65617H213.603L213.792 8.48644C213.792 25.4027 213.773 41.2252 213.773 54.5583L213.603 54.3886L245.513 54.4829L254.471 54.5206H256.847L257.469 54.5395C257.545 54.5395 257.62 54.5395 257.677 54.5395C257.62 54.5395 257.545 54.5395 257.488 54.5395H256.884L254.546 54.5772L245.626 54.6149L213.603 54.6903H213.433V54.5206C213.433 41.1686 213.433 25.365 213.415 8.44872V8.26013H257.695L257.865 8.27899V8.44872C257.827 22.2533 257.79 33.7949 257.771 41.8853C257.752 45.9022 257.733 49.0704 257.733 51.2392C257.733 52.2953 257.733 53.1251 257.714 53.6908C257.714 53.9549 257.714 54.1623 257.714 54.3132C257.714 54.3886 257.714 54.4452 257.714 54.5206" fill="#E0E0E0"/>
<path d="M243.061 24.1581H228.313V38.9056H243.061V24.1581Z" fill="#EBEBEB"/>
<path d="M397.308 362.578C402.834 359.976 409.057 359.221 415.055 360.428C418.336 360.711 421.429 362.088 423.824 364.351C426.012 366.765 426.426 371.027 423.918 373.101C422.296 374.195 420.335 374.704 418.393 374.497C413.697 374.44 408.492 373.611 404.739 376.439C402.608 378.042 401.174 380.72 398.628 381.512C396.007 382.116 393.291 380.909 391.971 378.552C390.745 376.194 390.481 373.479 391.217 370.933C391.839 367.349 394.083 364.257 397.308 362.578Z" fill="white"/>
<path d="M384.937 338.703C388.237 343.418 394.649 341.852 397.629 338.986C400.609 336.119 401.853 331.933 403.004 327.954C405.625 318.864 408.265 309.34 406.304 300.08C405.833 297.27 404.607 294.649 402.74 292.499C400.816 290.349 397.893 289.369 395.064 289.953C391.839 290.802 389.821 293.97 388.369 296.987C384.088 305.889 381.844 315.639 381.806 325.502C381.504 330.122 382.579 334.724 384.918 338.703" fill="white"/>
<path d="M375.866 345.473C379.298 340.966 380.297 335.063 378.544 329.689C376.733 324.389 373.489 319.693 369.19 316.129C364.305 311.773 358.61 308.416 352.443 306.247C350.048 305.285 347.483 304.852 344.918 304.965C342.316 305.116 339.939 306.549 338.6 308.793C336.846 312.15 338.525 316.223 340.354 319.561C343.579 325.426 347.257 331.027 351.349 336.308C354.649 340.551 358.421 344.757 363.456 346.68C368.492 348.604 373.697 348.378 376.356 344.889" fill="#EBEBEB"/>
<path d="M384.711 409.819C384.88 409.122 384.993 408.405 385.012 407.669C385.163 406.104 385.352 404.162 385.578 401.823C385.88 398.938 386.313 396.09 386.898 393.242C387.671 389.791 388.709 386.397 390.01 383.115C391.292 379.834 393.027 376.741 395.177 373.95C396.931 371.668 399.156 369.82 401.702 368.519C403.437 367.651 405.286 367.085 407.209 366.803C407.926 366.765 408.643 366.671 409.34 366.501C408.624 366.406 407.888 366.407 407.171 366.463C405.191 366.614 403.249 367.123 401.438 367.953C398.742 369.216 396.384 371.102 394.555 373.441C392.311 376.27 390.519 379.419 389.199 382.776C387.879 386.114 386.842 389.546 386.106 393.054C385.559 395.92 385.182 398.825 384.975 401.748C384.786 404.237 384.71 406.236 384.692 407.632C384.635 408.348 384.635 409.084 384.729 409.8" fill="#E0E0E0"/>
<path d="M385.125 405.331C385.182 405.01 385.201 404.671 385.182 404.331V401.484C385.182 399.013 385.182 395.449 385.314 391.036C385.54 382.21 386.295 372.724 387.766 359.353C389.161 346.775 391.028 332.14 392.99 322.616C393.404 320.448 393.838 318.505 394.234 316.808C394.63 315.111 394.951 313.621 395.253 312.433C395.517 311.301 395.743 310.396 395.913 309.679C396.007 309.359 396.064 309.038 396.082 308.699C395.932 309 395.818 309.302 395.743 309.623L394.913 312.357C394.536 313.545 394.178 314.998 393.744 316.714C393.31 318.43 392.839 320.353 392.367 322.522C389.934 333.781 388.105 345.153 386.879 356.619C385.408 370.027 384.748 382.229 384.692 391.074C384.635 395.487 384.729 399.07 384.842 401.54C384.918 402.691 384.974 403.634 385.012 404.388C385.012 404.727 385.05 405.048 385.125 405.369" fill="#E0E0E0"/>
<path d="M385.182 381.776C385.257 380.796 385.239 379.796 385.163 378.797C385.05 376.892 384.786 374.139 384.258 370.744C383.598 366.784 382.73 362.88 381.636 359.014C380.354 354.28 378.713 349.641 376.733 345.134C373.339 336.855 368.454 329.255 362.344 322.73C361.288 321.617 360.137 320.561 358.949 319.58C358.421 319.146 357.968 318.713 357.497 318.354L356.177 317.449C355.385 316.846 354.555 316.318 353.669 315.846C356.554 318.109 359.289 320.561 361.872 323.163C367.794 329.764 372.528 337.307 375.903 345.492C377.846 349.962 379.505 354.544 380.826 359.24C381.938 363.069 382.881 366.935 383.617 370.838C384.239 374.176 384.578 376.911 384.805 378.797C384.842 379.777 384.974 380.777 385.163 381.739" fill="#E0E0E0"/>
<path d="M362.419 423.322L364.777 455.646H406.304L408.661 423.322H362.419Z" fill="white"/>
<path d="M413.602 410.574H358.402V423.322H413.602V410.574Z" fill="white"/>
<path d="M358.402 454.401V457.928H412.697V454.401H358.402Z" fill="#E3E2E2"/>
<path d="M363.551 464.151L361.005 457.928H410.717L407.756 464.151H363.551Z" fill="white"/>
<path d="M407.888 433.883C407.832 433.996 407.775 434.091 407.7 434.185L407.077 435.015L404.663 438.107L404.55 438.239L404.456 438.089L398.515 429.866H398.855L393.008 438.145L392.82 438.409L392.612 438.164L385.672 429.904H386.068L385.691 430.394L379.487 438.164L379.279 438.428L379.091 438.164L373.244 429.885H373.584L366.38 438.107L366.248 438.258L366.153 438.089L363.89 434.298L363.306 433.28C363.23 433.166 363.174 433.053 363.136 432.921C363.23 433.016 363.306 433.129 363.381 433.242L364.022 434.223L366.398 437.938H366.172L373.263 429.602L373.452 429.395L373.621 429.621L379.524 437.862H379.128L385.314 430.055L385.691 429.564L385.899 429.319L386.106 429.564L393.027 437.843H392.631L398.534 429.621L398.704 429.376L398.874 429.621L404.682 437.938H404.475L406.983 434.92L407.662 434.147C407.662 434.147 407.813 433.977 407.907 433.902" fill="#E3E2E2"/>
<path d="M409.246 423.096C409.246 423.247 398.836 423.36 386.012 423.36C373.188 423.36 362.778 423.247 362.778 423.096C362.778 422.945 373.188 422.832 386.012 422.832C398.836 422.832 409.246 422.945 409.246 423.096Z" fill="#F5F5F5"/>
<path d="M411.339 458.267C411.339 458.418 400.024 458.531 386.087 458.531C372.15 458.531 360.835 458.418 360.835 458.267C360.835 458.117 372.132 458.003 386.087 458.003C400.043 458.003 411.339 458.117 411.339 458.267Z" fill="#F5F5F5"/>
<path d="M163.099 438.843V462.643H236.29V438.843H163.099Z" fill="#F5F5F5"/>
<path d="M160.025 432.186V438.843H238.836V432.186H160.025Z" fill="#E0E0E0"/>
<path d="M199.44 462.643H236.291V438.843H238.855V432.186H197.913V438.221L199.459 462.643H199.44Z" fill="#EBEBEB"/>
<path d="M188.181 442.671H173.339V446.254H188.181V442.671Z" fill="#E0E0E0"/>
<path d="M190.463 450.743H171.416V458.305H190.463V450.743Z" fill="white"/>
<path d="M224.768 432.318V463.303H320.043V432.318H224.768Z" fill="#F5F5F5"/>
<path d="M220.751 423.643V432.299H323.343V423.643H220.751Z" fill="#E0E0E0"/>
<path d="M272.066 463.284H320.024V432.299H323.362V423.643H270.067V431.507L272.066 463.284Z" fill="#E0E0E0"/>
<path d="M257.394 437.315H238.082V441.973H257.394V437.315Z" fill="#E0E0E0"/>
<path d="M260.392 447.801H235.593V457.645H260.392V447.801Z" fill="white"/>
<path d="M235.706 399.843V423.643H308.897V399.843H235.706Z" fill="#F5F5F5"/>
<path d="M232.632 393.205V399.843H311.443V393.186H232.632V393.205Z" fill="#E0E0E0"/>
<path d="M272.028 423.643H308.879V399.843H311.443V393.186H270.501V399.221L272.028 423.643Z" fill="#EBEBEB"/>
<path d="M260.769 403.69H245.927V407.273H260.769V403.69Z" fill="#E0E0E0"/>
<path d="M263.07 411.743H244.023V419.305H263.07V411.743Z" fill="white"/>
</g>
<mask id="mask2_48_1317" style="mask-type:luminance" maskUnits="userSpaceOnUse" x="-51" y="0" width="477" height="465">
<path d="M425.634 0H-50.3656V465H425.634V0Z" fill="white"/>
</mask>
<g mask="url(#mask2_48_1317)">
<path d="M343.259 354.28L243.023 354.224C230.972 354.224 221.203 344.436 221.203 332.385L221.26 81.1114C221.26 69.0607 231.048 59.273 243.099 59.273L343.334 59.3296C355.385 59.3296 365.154 69.1173 365.154 81.168L365.097 332.442C365.097 344.493 355.328 354.28 343.259 354.261" fill="#455A64"/>
<path d="M343.24 68.2309H323.815C321.156 68.2875 319.044 70.494 319.1 73.1531V76.6796C319.157 79.3387 317.045 81.5452 314.385 81.6018H276.517C273.858 81.5075 271.745 79.301 271.802 76.6419V73.1153C271.859 70.4563 269.746 68.2498 267.087 68.1744H243.25C234.801 68.1744 227.955 75.0201 227.955 83.4499L227.898 328.708C227.898 337.157 234.725 344.002 243.174 344.002L343.202 344.059C351.651 344.059 358.497 337.213 358.497 328.783L358.534 83.5254C358.534 75.0767 351.707 68.2309 343.259 68.2309" fill="white"/>
<path d="M343.428 68.4195C343.428 68.4195 343.598 68.4195 343.956 68.4195C344.484 68.4195 344.994 68.4572 345.503 68.5327C347.539 68.7778 349.501 69.4567 351.255 70.5128C352.556 71.2672 353.744 72.229 354.762 73.3416C356.007 74.6806 356.988 76.227 357.686 77.9243C358.478 79.9045 358.874 82.0167 358.836 84.1477V91.3706C358.836 111.813 358.874 141.384 358.893 177.913C358.911 214.443 358.893 257.969 358.911 306.266V329.255C358.949 330.839 358.742 332.404 358.327 333.932C357.893 335.459 357.233 336.93 356.365 338.25C355.479 339.571 354.404 340.777 353.178 341.796C350.651 343.833 347.558 345.04 344.315 345.228C341.09 345.322 337.903 345.247 334.678 345.266H275.046L254.546 345.228H244.192C240.647 345.436 237.139 344.455 234.197 342.475C231.274 340.438 229.143 337.477 228.125 334.083C227.634 332.404 227.427 330.65 227.483 328.896V303.211C227.483 289.633 227.483 276.262 227.483 263.117C227.483 236.828 227.502 211.463 227.502 187.305C227.502 163.147 227.521 140.196 227.54 118.697C227.54 107.947 227.54 97.594 227.559 87.5989V83.8837C227.559 83.2613 227.615 82.639 227.653 82.0167C227.766 81.4132 227.804 80.7908 227.974 80.1874C228.539 77.7923 229.652 75.567 231.217 73.6811C234.31 70.0036 238.931 67.9669 243.721 68.1366H257.092H263.523H266.672C267.747 68.0801 268.803 68.3818 269.69 68.9853C270.557 69.5888 271.217 70.4563 271.576 71.4558C271.859 72.4364 271.972 73.4737 271.896 74.492V75.9819C271.896 76.4722 271.896 76.9625 271.934 77.4528C272.047 78.3958 272.462 79.301 273.084 80.0176C273.688 80.7343 274.518 81.2435 275.423 81.4698C275.875 81.5829 276.347 81.6206 276.8 81.6018H283.74L303.975 81.6395H312.896C313.593 81.6395 314.31 81.6961 314.989 81.6395C315.668 81.5641 316.309 81.3377 316.875 80.9794C317.969 80.2817 318.761 79.169 319.025 77.8866C319.138 77.2643 319.176 76.6419 319.138 76.0196V74.1903C319.119 73.5868 319.138 73.0022 319.213 72.3987C319.308 71.8141 319.515 71.2672 319.798 70.758C320.345 69.7773 321.212 69.0041 322.25 68.5892C323.23 68.2875 324.268 68.1743 325.286 68.2686H335.243L341.354 68.3252C342.73 68.3252 343.447 68.3441 343.447 68.3441C343.447 68.3441 342.749 68.3441 341.354 68.3629H335.243L325.286 68.4007C324.268 68.3064 323.249 68.4007 322.287 68.7212C321.269 69.1361 320.439 69.8716 319.911 70.8334C319.628 71.3238 319.44 71.8707 319.345 72.4364C319.27 73.021 319.251 73.6057 319.27 74.1903V76.0196C319.308 76.6608 319.27 77.2831 319.157 77.9243C318.874 79.2444 318.082 80.3948 316.931 81.1303C316.347 81.5075 315.668 81.7338 314.97 81.8281C314.253 81.8847 313.575 81.8469 312.858 81.8658H276.743C276.253 81.8658 275.781 81.8281 275.291 81.7338C274.329 81.4886 273.462 80.9606 272.82 80.2062C272.16 79.4519 271.745 78.5089 271.613 77.5094C271.557 77.0191 271.538 76.5099 271.557 76.0196V74.5297C271.632 73.5491 271.557 72.5496 271.255 71.5878C270.916 70.6448 270.293 69.8339 269.482 69.2493C268.634 68.6835 267.634 68.4007 266.616 68.4572H243.664C238.95 68.2875 234.423 70.2865 231.406 73.9074C229.878 75.7556 228.785 77.9432 228.257 80.2817C228.106 80.8663 228.049 81.4698 227.955 82.0732C227.917 82.6767 227.879 83.2802 227.879 83.9025V328.915C227.823 330.631 228.03 332.329 228.502 333.988C229.482 337.307 231.576 340.174 234.423 342.154C237.29 344.097 240.722 345.04 244.174 344.832H275.027L315.121 344.87H334.659C337.884 344.87 341.109 344.926 344.277 344.851C347.426 344.662 350.444 343.493 352.895 341.513C354.102 340.513 355.14 339.363 356.007 338.062C356.856 336.761 357.497 335.346 357.912 333.856C358.327 332.366 358.515 330.82 358.478 329.293V306.304C358.497 257.988 358.534 214.48 358.553 177.951C358.572 141.422 358.61 111.851 358.647 91.4083C358.647 88.8624 358.647 86.4485 358.647 84.1854C358.685 82.0921 358.308 79.9988 357.535 78.0563C356.856 76.3779 355.875 74.8315 354.649 73.4925C353.65 72.3798 352.481 71.4181 351.179 70.6637C349.444 69.5888 347.483 68.9098 345.465 68.6458C344.956 68.5704 344.428 68.5138 343.919 68.4949C343.579 68.4761 343.391 68.4572 343.391 68.4572" fill="#263238"/>
<path d="M346.389 93.2753C346.389 93.2753 343.862 93.4073 340.731 93.4451C337.601 93.4828 335.074 93.4451 335.074 93.3696C335.074 93.2942 337.601 93.2376 340.731 93.1999C343.862 93.1622 346.389 93.1999 346.389 93.2753Z" fill="#263238"/>
<path d="M346.408 96.1796C346.408 96.1796 343.881 96.3116 340.75 96.3493C337.62 96.387 335.093 96.3493 335.093 96.2739C335.093 96.1984 337.62 96.1419 340.75 96.1041C343.881 96.0664 346.408 96.1041 346.408 96.1796Z" fill="#263238"/>
<path d="M346.446 99.065C346.446 99.065 343.919 99.197 340.788 99.2347C337.657 99.2724 335.13 99.2347 335.13 99.1593C335.13 99.0838 337.657 99.0273 340.788 98.9895C343.919 98.9518 346.446 98.9895 346.446 99.065Z" fill="#263238"/>
<path d="M243.381 102.365C243.381 102.365 243.532 102.365 243.608 102.365H244.268L246.682 102.29L246.606 102.365C246.606 101.837 246.606 101.253 246.569 100.611C246.569 100.291 246.55 99.9702 246.569 99.593C246.644 99.197 246.965 98.8764 247.38 98.8387C247.776 98.8387 248.115 98.8198 248.53 98.8387C248.983 98.9141 249.322 99.3101 249.322 99.7816C249.322 100.593 249.341 101.46 249.36 102.346L249.247 102.233L252.302 102.196L252.189 102.309C252.189 101.083 252.17 99.8193 252.151 98.5181V97.5563C252.113 97.2734 251.962 97.0094 251.717 96.8396L250.378 95.5195L249.096 94.256L248.473 93.6337C248.266 93.4262 248.096 93.2188 247.851 93.1622C247.606 93.1056 247.361 93.1622 247.153 93.2942C246.965 93.4451 246.776 93.6714 246.587 93.86L245.494 94.9538C244.815 95.6704 244.098 96.3116 243.57 96.9339C243.419 97.2923 243.363 97.6883 243.419 98.0655V99.1404C243.419 99.8005 243.419 100.385 243.419 100.875C243.419 101.328 243.419 101.686 243.419 101.988C243.419 102.252 243.419 102.384 243.419 102.384C243.419 102.271 243.4 102.139 243.4 102.026C243.4 101.724 243.381 101.366 243.363 100.932C243.363 100.423 243.344 99.8382 243.325 99.1781C243.325 98.8387 243.325 98.4615 243.306 98.0843C243.306 97.8957 243.306 97.6883 243.306 97.4808C243.306 97.2545 243.363 97.0282 243.476 96.8396C244.042 96.1419 244.72 95.5384 245.399 94.8029L246.493 93.6902C246.682 93.5016 246.852 93.3131 247.078 93.1056C247.323 92.917 247.662 92.8604 247.964 92.9359C248.247 93.0302 248.511 93.2188 248.7 93.4639L249.322 94.0674L250.604 95.3309L251.943 96.6511C252.075 96.7642 252.189 96.8962 252.283 97.0282C252.377 97.1791 252.434 97.3677 252.434 97.5374V98.5181C252.434 99.8193 252.453 101.083 252.471 102.328V102.441H249.303L249.19 102.46V102.346C249.19 101.46 249.19 100.611 249.19 99.7816C249.19 99.4233 248.926 99.1027 248.568 99.0461C248.209 99.0461 247.794 99.0461 247.455 99.0461C247.134 99.0838 246.87 99.329 246.795 99.6496C246.757 99.9513 246.795 100.31 246.795 100.63V102.46H244.268L243.627 102.441C243.551 102.441 243.495 102.441 243.419 102.441" fill="#263238"/>
<path d="M335.658 214.499H249.303V232.132H335.658V214.499Z" fill="#EBEBEB"/>
<path d="M335.658 240.091H249.303V257.724H335.658V240.091Z" fill="#EBEBEB"/>
<path d="M315.724 293.253H272.387C267.521 293.253 263.579 289.293 263.579 284.428C263.579 279.562 267.521 275.62 272.387 275.62H315.724C320.59 275.62 324.55 279.562 324.55 284.428C324.55 289.293 320.609 293.253 315.743 293.253H315.724Z" fill="#5238A0"/>
<path d="M261.222 227.191H257.413C257.035 227.191 256.734 226.89 256.734 226.512C256.734 225.117 257.865 223.966 259.28 223.966H259.355C260.751 223.966 261.901 225.098 261.901 226.512C261.901 226.89 261.599 227.191 261.222 227.191Z" fill="#E0E0E0"/>
<path d="M260.826 222.646C260.826 223.476 260.147 224.174 259.317 224.174C258.488 224.174 257.809 223.495 257.809 222.665C257.809 221.835 258.488 221.156 259.317 221.138C260.147 221.138 260.845 221.817 260.845 222.646" fill="#E0E0E0"/>
<path d="M261.58 249.181H257.035V252.405H261.58V249.181Z" fill="#E0E0E0"/>
<path d="M262.108 249.878H260.581V248.879C260.581 248.162 259.996 247.596 259.298 247.596C258.601 247.596 258.016 248.181 258.016 248.879V249.878H256.488V248.879C256.488 247.332 257.752 246.069 259.317 246.069C260.864 246.069 262.127 247.332 262.127 248.879V249.878H262.108Z" fill="#E0E0E0"/>
<path d="M269.633 304.059V305.587H271.651V305.945H269.633V307.586H269.218V303.701H271.877V304.059H269.614H269.633Z" fill="#E0E0E0"/>
<path d="M272.255 306.134C272.255 305.323 272.915 304.644 273.744 304.644C274.555 304.644 275.234 305.304 275.234 306.134C275.234 306.945 274.574 307.605 273.744 307.624C272.952 307.661 272.292 307.039 272.255 306.247C272.255 306.209 272.255 306.172 272.255 306.134ZM274.819 306.134C274.801 305.53 274.291 305.078 273.688 305.097C273.084 305.116 272.632 305.625 272.651 306.228C272.669 306.813 273.16 307.265 273.744 307.265C274.329 307.265 274.819 306.813 274.838 306.228C274.838 306.191 274.838 306.172 274.838 306.134" fill="#E0E0E0"/>
<path d="M277.497 304.663V305.04H277.403C276.875 305.021 276.441 305.417 276.422 305.927C276.422 305.983 276.422 306.04 276.422 306.115V307.605H276.026V304.682H276.404V305.248C276.611 304.852 277.045 304.606 277.497 304.644" fill="#E0E0E0"/>
<path d="M280.873 304.682V307.247C280.986 307.944 280.496 308.604 279.798 308.699C279.666 308.718 279.534 308.718 279.402 308.699C278.912 308.718 278.421 308.567 278.044 308.246L278.252 307.944C278.572 308.208 278.987 308.359 279.402 308.34C280.138 308.34 280.477 308.001 280.477 307.284V306.907C280.213 307.284 279.798 307.492 279.346 307.473C278.572 307.511 277.893 306.907 277.856 306.134C277.818 305.361 278.421 304.682 279.195 304.644C279.251 304.644 279.289 304.644 279.346 304.644C279.798 304.625 280.251 304.852 280.496 305.229V304.663H280.873V304.682ZM280.496 306.077C280.515 305.474 280.043 304.946 279.421 304.927C278.817 304.908 278.289 305.38 278.271 306.002C278.252 306.605 278.723 307.133 279.346 307.152C279.346 307.152 279.364 307.152 279.383 307.152C279.949 307.19 280.458 306.756 280.496 306.172C280.496 306.134 280.496 306.115 280.496 306.077Z" fill="#E0E0E0"/>
<path d="M281.684 306.134C281.684 305.323 282.344 304.644 283.174 304.644C283.985 304.644 284.664 305.304 284.664 306.134C284.664 306.945 284.004 307.605 283.174 307.624C282.382 307.661 281.722 307.039 281.684 306.247C281.684 306.209 281.684 306.172 281.684 306.153M284.249 306.153C284.23 305.549 283.721 305.097 283.117 305.116C282.514 305.134 282.061 305.644 282.08 306.247C282.099 306.832 282.589 307.284 283.174 307.284C283.758 307.284 284.249 306.832 284.268 306.247C284.268 306.209 284.268 306.191 284.268 306.153" fill="#E0E0E0"/>
<path d="M287.002 307.416C286.833 307.548 286.606 307.624 286.38 307.624C285.946 307.661 285.569 307.36 285.531 306.945C285.531 306.888 285.531 306.832 285.531 306.775V305.002H285.003V304.663H285.531V304.022H285.927V304.663H286.814V305.002H285.927V306.737C285.89 307.001 286.059 307.228 286.323 307.265C286.361 307.265 286.399 307.265 286.437 307.265C286.587 307.265 286.757 307.209 286.87 307.115L287.002 307.397V307.416Z" fill="#E0E0E0"/>
<path d="M292.132 306.134C292.17 306.907 291.566 307.586 290.793 307.624C290.755 307.624 290.717 307.624 290.68 307.624C290.227 307.624 289.812 307.416 289.567 307.039V308.661H289.171V304.663H289.548V305.248C289.793 304.852 290.227 304.625 290.68 304.644C291.453 304.625 292.113 305.229 292.132 306.002C292.132 306.04 292.132 306.077 292.132 306.115M291.736 306.115C291.717 305.512 291.208 305.04 290.604 305.059C290.001 305.078 289.529 305.587 289.548 306.191C289.567 306.775 290.057 307.247 290.642 307.247C291.227 307.247 291.717 306.775 291.736 306.191C291.736 306.172 291.736 306.134 291.736 306.115Z" fill="#E0E0E0"/>
<path d="M295.112 305.794V307.605H294.734V307.152C294.508 307.492 294.131 307.662 293.735 307.643C293.075 307.643 292.66 307.303 292.66 306.794C292.66 306.341 292.943 305.964 293.791 305.964H294.716V305.776C294.716 305.266 294.433 305.002 293.886 305.002C293.527 305.002 293.188 305.116 292.905 305.342L292.735 305.04C293.075 304.776 293.49 304.644 293.923 304.644C294.489 304.569 295.017 304.946 295.093 305.512C295.093 305.587 295.093 305.681 295.093 305.776M294.697 306.7V306.228H293.791C293.226 306.228 293.037 306.455 293.037 306.756C293.037 307.096 293.301 307.303 293.773 307.303C294.169 307.322 294.546 307.077 294.697 306.7Z" fill="#E0E0E0"/>
<path d="M295.791 307.265L295.96 306.945C296.262 307.152 296.62 307.284 296.997 307.265C297.563 307.265 297.79 307.077 297.79 306.794C297.79 306.04 295.904 306.624 295.904 305.474C295.904 305.002 296.319 304.644 297.054 304.644C297.412 304.644 297.771 304.738 298.091 304.908L297.922 305.229C297.676 305.059 297.375 304.965 297.054 304.984C296.526 304.984 296.3 305.191 296.3 305.474C296.3 306.266 298.186 305.662 298.186 306.794C298.186 307.303 297.733 307.624 296.979 307.624C296.545 307.624 296.13 307.511 295.791 307.265Z" fill="#E0E0E0"/>
<path d="M298.506 307.265L298.676 306.945C298.978 307.152 299.336 307.284 299.713 307.265C300.279 307.265 300.505 307.077 300.505 306.794C300.505 306.04 298.619 306.624 298.619 305.474C298.619 305.002 299.034 304.644 299.77 304.644C300.128 304.644 300.486 304.738 300.807 304.908L300.637 305.229C300.373 305.059 300.09 304.965 299.77 304.984C299.242 304.984 299.015 305.191 299.015 305.474C299.015 306.266 300.901 305.662 300.901 306.794C300.901 307.303 300.449 307.624 299.694 307.624C299.261 307.624 298.846 307.511 298.506 307.265Z" fill="#E0E0E0"/>
<path d="M305.842 304.663L304.73 307.586H304.353L303.428 305.191L302.504 307.586H302.127L301.033 304.663H301.41L302.335 307.152L303.278 304.663H303.617L304.541 307.152L305.465 304.663H305.842Z" fill="#E0E0E0"/>
<path d="M306.069 306.134C306.069 305.323 306.729 304.644 307.559 304.644C308.369 304.644 309.048 305.304 309.048 306.134C309.048 306.945 308.388 307.605 307.559 307.624C306.766 307.661 306.106 307.039 306.069 306.247C306.069 306.209 306.069 306.172 306.069 306.153M308.633 306.153C308.615 305.549 308.105 305.097 307.502 305.116C306.898 305.134 306.446 305.644 306.465 306.247C306.484 306.832 306.974 307.284 307.559 307.284C308.143 307.284 308.634 306.832 308.652 306.247C308.652 306.209 308.652 306.191 308.652 306.153" fill="#E0E0E0"/>
<path d="M311.311 304.663V305.04H311.217C310.689 305.021 310.255 305.417 310.237 305.927C310.237 305.983 310.237 306.04 310.237 306.115V307.605H309.84V304.682H310.218V305.248C310.425 304.852 310.859 304.606 311.311 304.644" fill="#E0E0E0"/>
<path d="M314.649 303.475V307.586H314.272V307.001C314.027 307.397 313.593 307.624 313.141 307.605C312.33 307.567 311.67 306.888 311.707 306.059C311.726 305.285 312.368 304.663 313.141 304.625C313.593 304.625 314.008 304.833 314.253 305.21V303.456H314.649V303.475ZM314.253 306.134C314.235 305.53 313.725 305.078 313.122 305.097C312.518 305.116 312.066 305.625 312.085 306.228C312.104 306.813 312.594 307.265 313.178 307.265C313.763 307.265 314.253 306.813 314.253 306.209C314.253 306.191 314.253 306.153 314.253 306.134Z" fill="#E0E0E0"/>
<path d="M317.516 304.701C317.516 304.305 317.195 304.022 316.63 304.022C316.234 304.003 315.838 304.173 315.574 304.474L315.272 304.248C315.611 303.852 316.139 303.645 316.649 303.663C317.422 303.663 317.931 304.041 317.931 304.625C317.931 305.568 316.913 305.625 316.913 306.417H316.498C316.498 305.512 317.516 305.417 317.516 304.682M316.422 307.322C316.422 307.152 316.573 307.039 316.743 307.058C316.894 307.058 317.007 307.19 317.007 307.322C317.007 307.492 316.856 307.605 316.686 307.586C316.535 307.586 316.422 307.454 316.422 307.322Z" fill="#E0E0E0"/>
<path d="M272.255 195.81V203.052H271.406L267.068 197.64V203.052H266.012V195.81H266.861L271.198 201.223V195.81H272.236H272.255Z" fill="#263238"/>
<path d="M274.122 195.886C274.122 195.527 274.423 195.226 274.782 195.226C275.14 195.226 275.423 195.546 275.404 195.905C275.404 196.263 275.083 196.546 274.725 196.527C274.386 196.527 274.103 196.225 274.103 195.886M274.272 197.583H275.272V203.071H274.272V197.583Z" fill="#263238"/>
<path d="M276.668 200.318C276.63 198.809 277.837 197.545 279.345 197.526C279.421 197.526 279.496 197.526 279.553 197.526C280.458 197.47 281.307 197.922 281.778 198.696L281.024 199.186C280.703 198.677 280.138 198.375 279.534 198.394C278.459 198.432 277.629 199.318 277.667 200.393C277.705 201.411 278.516 202.222 279.534 202.26C280.138 202.26 280.703 201.977 281.024 201.468L281.778 201.939C281.307 202.713 280.458 203.165 279.553 203.109C278.044 203.184 276.743 202.034 276.649 200.525C276.649 200.45 276.649 200.374 276.649 200.318" fill="#263238"/>
<path d="M285.135 200.506L284.004 201.562V203.071H283.004V195.395H284.004V200.318L287.002 197.583H288.209L285.908 199.846L288.454 203.071H287.229L285.173 200.506H285.135Z" fill="#263238"/>
<path d="M294.47 199.903V203.052H293.735V199.978C293.867 199.148 293.282 198.375 292.452 198.243C292.339 198.243 292.207 198.224 292.094 198.243C291.114 198.168 290.265 198.903 290.189 199.884C290.189 199.997 290.189 200.091 290.189 200.204V203.052H289.454V197.602H290.152V198.601C290.604 197.904 291.396 197.508 292.226 197.564C293.377 197.47 294.376 198.319 294.47 199.45C294.47 199.601 294.47 199.752 294.47 199.884" fill="#263238"/>
<path d="M300.581 199.695V203.071H299.883V202.222C299.468 202.845 298.751 203.184 298.016 203.128C296.79 203.128 296.036 202.486 296.036 201.543C296.036 200.695 296.583 199.997 298.129 199.997H299.864V199.658C299.864 198.733 299.336 198.224 298.318 198.224C297.658 198.224 297.016 198.451 296.507 198.865L296.168 198.319C296.79 197.828 297.582 197.564 298.374 197.583C299.43 197.432 300.411 198.149 300.562 199.205C300.581 199.356 300.581 199.525 300.562 199.695M299.826 201.43V200.544H298.11C297.054 200.544 296.715 200.959 296.715 201.525C296.715 202.166 297.224 202.543 298.091 202.543C298.846 202.581 299.543 202.147 299.826 201.43Z" fill="#263238"/>
<path d="M311.557 199.903V203.052H310.821V199.978C310.821 198.828 310.237 198.243 309.256 198.243C308.294 198.187 307.464 198.941 307.427 199.903C307.427 199.997 307.427 200.11 307.427 200.204V203.052H306.691V199.978C306.691 198.828 306.106 198.243 305.126 198.243C304.164 198.205 303.334 198.941 303.296 199.922C303.296 200.016 303.296 200.11 303.296 200.223V203.071H302.561V197.621H303.259V198.62C303.692 197.941 304.447 197.545 305.258 197.583C306.088 197.526 306.861 197.979 307.2 198.733C307.653 197.979 308.483 197.545 309.35 197.583C310.482 197.489 311.462 198.337 311.557 199.469C311.557 199.62 311.557 199.771 311.557 199.903Z" fill="#263238"/>
<path d="M318.308 200.563H313.744C313.82 201.675 314.763 202.524 315.875 202.449C316.517 202.467 317.12 202.203 317.535 201.732L317.95 202.203C316.856 203.354 315.027 203.392 313.876 202.298C313.329 201.77 313.009 201.072 312.99 200.318C312.914 198.865 314.027 197.64 315.46 197.564C315.517 197.564 315.574 197.564 315.649 197.564C317.082 197.545 318.27 198.677 318.289 200.11C318.289 200.186 318.289 200.261 318.289 200.336C318.289 200.393 318.289 200.487 318.289 200.563M313.725 200.016H317.591C317.516 198.941 316.592 198.149 315.517 198.224C314.555 198.3 313.782 199.054 313.725 200.016Z" fill="#263238"/>
<path d="M285.06 316.11L285.248 315.714C285.569 315.978 285.984 316.129 286.399 316.129C287.002 316.129 287.266 315.903 287.266 315.582C287.266 314.734 285.135 315.262 285.135 313.96C285.135 313.413 285.55 312.961 286.474 312.961C286.87 312.961 287.266 313.055 287.606 313.281L287.436 313.677C287.153 313.489 286.814 313.395 286.474 313.395C285.871 313.395 285.626 313.64 285.626 313.96C285.626 314.809 287.757 314.281 287.757 315.582C287.757 316.129 287.323 316.582 286.399 316.582C285.908 316.582 285.437 316.431 285.06 316.148" fill="#5238A0"/>
<path d="M288.36 313.036C288.36 312.867 288.511 312.716 288.681 312.716C288.85 312.716 289.001 312.848 289.001 313.017C289.001 313.206 288.869 313.338 288.681 313.357C288.492 313.357 288.36 313.225 288.341 313.036M288.436 313.866H288.926V316.525H288.436V313.866Z" fill="#5238A0"/>
<path d="M292.396 313.866V316.167C292.49 316.827 292.038 317.449 291.378 317.543C291.264 317.543 291.132 317.543 291.019 317.543C290.567 317.562 290.114 317.43 289.756 317.147L289.982 316.77C290.265 316.997 290.642 317.129 291 317.11C291.623 317.11 291.906 316.827 291.906 316.223V316.016C291.66 316.299 291.302 316.45 290.944 316.431C290.227 316.469 289.624 315.922 289.586 315.205C289.548 314.488 290.095 313.885 290.812 313.847C290.849 313.847 290.906 313.847 290.944 313.847C291.321 313.847 291.679 313.998 291.924 314.281V313.866H292.377H292.396ZM291.924 315.13C291.943 314.62 291.566 314.187 291.057 314.168C290.548 314.149 290.114 314.526 290.095 315.035C290.076 315.544 290.453 315.978 290.963 315.997C290.963 315.997 291 315.997 291.019 315.997C291.491 316.035 291.887 315.676 291.924 315.205C291.924 315.167 291.924 315.148 291.924 315.111" fill="#5238A0"/>
<path d="M295.847 314.998V316.525H295.357V315.054C295.357 314.526 295.093 314.281 294.64 314.281C294.206 314.243 293.829 314.583 293.791 315.016C293.791 315.073 293.791 315.111 293.791 315.167V316.544H293.301V313.885H293.754V314.281C293.98 313.998 294.338 313.828 294.716 313.847C295.281 313.809 295.772 314.224 295.828 314.79C295.828 314.866 295.828 314.922 295.828 314.998" fill="#5238A0"/>
<path d="M300.581 313.866V316.525H300.128V316.129C299.921 316.412 299.581 316.563 299.223 316.563C298.657 316.619 298.129 316.205 298.073 315.62C298.073 315.544 298.073 315.469 298.073 315.394V313.866H298.563V315.337C298.563 315.865 298.827 316.129 299.279 316.129C299.713 316.148 300.09 315.827 300.109 315.394C300.109 315.337 300.109 315.299 300.109 315.243V313.866H300.6H300.581Z" fill="#5238A0"/>
<path d="M304.258 315.186C304.296 315.903 303.749 316.506 303.032 316.544C302.995 316.544 302.938 316.544 302.9 316.544C302.542 316.544 302.203 316.393 301.976 316.11V317.487H301.486V313.847H301.939V314.262C302.165 313.96 302.504 313.809 302.882 313.809C303.598 313.772 304.202 314.338 304.221 315.035C304.221 315.073 304.221 315.111 304.221 315.148M303.73 315.148C303.711 314.658 303.278 314.281 302.787 314.3C302.297 314.319 301.92 314.752 301.939 315.243C301.957 315.714 302.353 316.091 302.825 316.091C303.315 316.091 303.711 315.714 303.73 315.224C303.73 315.205 303.73 315.167 303.73 315.148Z" fill="#5238A0"/>
<path d="M285.437 285.54L285.663 285.031C286.003 285.276 286.399 285.408 286.814 285.408C287.361 285.408 287.587 285.22 287.587 284.956C287.587 284.201 285.494 284.692 285.494 283.39C285.494 282.825 285.946 282.334 286.908 282.334C287.323 282.334 287.719 282.429 288.077 282.655L287.87 283.164C287.568 282.994 287.247 282.9 286.908 282.881C286.361 282.881 286.154 283.089 286.154 283.353C286.154 284.107 288.247 283.617 288.247 284.899C288.247 285.465 287.794 285.936 286.833 285.936C286.342 285.936 285.852 285.804 285.456 285.521" fill="white"/>
<path d="M288.737 282.41C288.737 282.202 288.907 282.032 289.114 282.032C289.114 282.032 289.114 282.032 289.133 282.032C289.341 282.032 289.529 282.183 289.529 282.391C289.529 282.617 289.36 282.787 289.133 282.806C288.907 282.806 288.737 282.636 288.718 282.41M288.813 283.221H289.435V285.899H288.813V283.221Z" fill="white"/>
<path d="M292.943 283.239V285.521C293.037 286.219 292.547 286.841 291.849 286.936C291.736 286.936 291.604 286.936 291.491 286.936C291.019 286.955 290.567 286.823 290.189 286.559L290.472 286.087C290.755 286.295 291.113 286.408 291.453 286.408C292.038 286.408 292.302 286.144 292.302 285.597V285.465C292.075 285.71 291.736 285.842 291.396 285.823C290.68 285.861 290.076 285.314 290.039 284.597C290.001 283.881 290.548 283.277 291.264 283.239C291.302 283.239 291.359 283.239 291.396 283.239C291.755 283.221 292.094 283.353 292.32 283.617V283.258H292.924L292.943 283.239ZM292.32 284.503C292.339 284.05 292 283.654 291.547 283.635C291.095 283.617 290.699 283.956 290.68 284.409C290.661 284.861 291 285.257 291.453 285.276C291.453 285.276 291.491 285.276 291.51 285.276C291.924 285.314 292.283 284.993 292.32 284.578C292.32 284.56 292.32 284.522 292.32 284.503Z" fill="white"/>
<path d="M296.413 284.39V285.936H295.791V284.484C295.791 284.013 295.564 283.767 295.149 283.767C294.753 283.749 294.414 284.032 294.395 284.428C294.395 284.484 294.395 284.522 294.395 284.578V285.936H293.773V283.258H294.376V283.598C294.621 283.334 294.942 283.202 295.3 283.221C295.885 283.183 296.375 283.617 296.432 284.182C296.432 284.258 296.432 284.314 296.432 284.39" fill="white"/>
<path d="M298.525 282.41C298.525 282.202 298.695 282.032 298.902 282.032C298.902 282.032 298.902 282.032 298.921 282.032C299.129 282.032 299.317 282.183 299.317 282.391C299.317 282.617 299.147 282.787 298.921 282.806C298.695 282.806 298.525 282.636 298.506 282.41M298.601 283.221H299.223V285.899H298.601V283.221Z" fill="white"/>
<path d="M302.693 284.39V285.936H302.071V284.484C302.071 284.013 301.844 283.767 301.429 283.767C301.033 283.749 300.694 284.032 300.675 284.428C300.675 284.484 300.675 284.522 300.675 284.578V285.936H300.053V283.258H300.656V283.598C300.901 283.334 301.222 283.202 301.58 283.221C302.165 283.183 302.655 283.617 302.712 284.182C302.712 284.258 302.712 284.314 302.712 284.39" fill="white"/>
</g>
<mask id="mask3_48_1317" style="mask-type:luminance" maskUnits="userSpaceOnUse" x="-51" y="0" width="477" height="465">
<path d="M425.634 0H-50.3656V465H425.634V0Z" fill="white"/>
</mask>
<g mask="url(#mask3_48_1317)">
<path d="M315.234 157.546C311.33 174.311 294.565 184.74 277.78 180.836C260.996 176.933 250.586 160.167 254.489 143.383C258.393 126.618 275.159 116.189 291.943 120.092C308.709 123.996 319.138 140.762 315.234 157.546Z" fill="#5238A0"/>
<path d="M292.415 165.146L271.576 160.28L272.179 157.716C273.575 151.983 279.346 148.456 285.097 149.833C290.774 151.209 294.301 156.867 293.018 162.562L292.434 165.127L292.415 165.146Z" fill="white"/>
<path d="M292.415 145.778C291.623 149.154 288.247 151.266 284.871 150.474C281.495 149.682 279.383 146.306 280.175 142.93C280.967 139.555 284.343 137.443 287.719 138.235C291.095 139.027 293.207 142.402 292.415 145.778Z" fill="white"/>
<path d="M273.103 179.083C273.103 179.083 271.595 173.01 270.425 171.992C268.407 170.257 266.823 168.069 265.824 165.617C265.409 164.052 264.221 164.354 264.221 164.354L265.277 170.37L255.168 161.714C254.621 162.808 254.64 164.109 255.206 165.184C256.168 167.107 255.772 166.881 255.772 166.881C255.772 166.881 254.282 167.466 254.753 168.786C255.149 169.804 255.602 170.822 256.111 171.784C255.282 172.482 254.829 173.519 254.867 174.594C254.395 175.499 254.169 176.518 254.169 177.536C254.169 179.309 256.715 183.118 256.715 183.118L271.01 193.208L278.723 183.345L273.103 179.064V179.083Z" fill="#B78876"/>
<path d="M261.882 167.466C263.693 169.427 265.71 171.2 267.879 172.765C266.069 170.804 264.051 169.031 261.882 167.466Z" fill="#AA6550"/>
<path d="M255.678 166.183C257.149 168.673 258.827 171.03 260.732 173.218C259.261 170.728 257.582 168.371 255.678 166.183Z" fill="#AA6550"/>
<path d="M255.678 171.124C256.243 172.614 257.054 173.991 258.091 175.198C257.526 173.708 256.715 172.331 255.678 171.124Z" fill="#AA6550"/>
<path d="M254.848 174.311C254.753 174.368 254.999 174.953 255.338 175.65C255.678 176.348 255.96 176.914 256.074 176.876C256.187 176.838 256.055 176.197 255.715 175.481C255.376 174.764 254.961 174.255 254.867 174.311" fill="#AA6550"/>
<path d="M318.063 114.359C318.233 113.077 318.478 111.813 318.855 110.569C319.044 109.984 319.364 109.456 319.817 109.022C320.288 108.57 320.911 108.853 321.288 109.513C322.702 112.606 322.702 116.132 321.288 119.225C320.892 119.866 320.288 120.149 319.817 119.715C319.383 119.282 319.044 118.753 318.855 118.169C318.497 116.924 318.233 115.661 318.063 114.378C317.969 114.718 317.95 115.076 317.988 115.434C317.988 116.415 318.157 117.377 318.44 118.301C318.629 118.98 318.987 119.602 319.477 120.111C319.817 120.432 320.307 120.545 320.741 120.413C321.156 120.243 321.514 119.942 321.759 119.546C323.362 116.283 323.362 112.455 321.759 109.192C321.514 108.796 321.175 108.494 320.741 108.325C320.288 108.193 319.798 108.306 319.477 108.626C318.987 109.136 318.61 109.758 318.44 110.437C318.157 111.361 318.006 112.342 317.988 113.303C317.95 113.662 317.988 114.02 318.063 114.359Z" fill="#263238"/>
<path d="M345.126 162.374C338.657 162.883 332.999 158.055 332.471 151.587C332.471 151.436 332.452 151.285 332.452 151.134C332.188 144.741 331.962 138.272 331.962 138.272C331.962 138.272 322.269 137.386 321.533 127.806C320.798 118.225 321.062 96.0664 321.062 96.0664C331.868 90.5785 344.805 91.3706 354.857 98.1409L354.348 131.917L354.404 150.078C354.366 156.169 351.198 161.902 345.126 162.374Z" fill="#B78876"/>
<path d="M332.792 122.054C332.792 122.054 332.754 122.242 332.924 122.469C333.188 122.789 333.584 122.997 333.999 122.997C335.394 122.902 336.488 121.752 336.469 120.338C336.507 119.602 336.262 118.867 335.753 118.32C335.357 117.886 334.829 117.584 334.244 117.452C333.263 117.245 332.679 117.622 332.735 117.679C332.754 117.792 333.32 117.641 334.112 117.924C335.149 118.263 335.828 119.225 335.772 120.319C335.772 121.394 335.017 122.318 333.98 122.525C333.169 122.582 332.848 121.997 332.773 122.073" fill="#AA6550"/>
<path d="M318.025 113.907C322.287 115.019 326.644 115.736 331.038 116.038C326.776 114.925 322.419 114.209 318.025 113.907Z" fill="#263238"/>
<path d="M373.678 116.208C373.753 112.285 371.207 108.777 367.455 107.627C369.114 105.269 368.548 102.007 366.191 100.347C365.55 99.8948 364.814 99.593 364.041 99.461C363.683 99.4044 363.343 99.3667 362.985 99.3667C362.834 99.1593 362.646 98.9707 362.457 98.8009C359.458 96.1419 359.175 92.0307 355.743 89.9751C352.367 87.9006 348.124 87.8817 344.711 89.8996C342.448 88.7681 340.335 87.2971 338.072 86.1467C334.961 84.5626 331.151 83.6197 328.02 85.2038C325.776 86.3353 324.286 88.5795 322.118 89.8242C319.025 91.5969 314.8 91.2197 313.311 95.7647C312.801 97.3488 312.82 99.065 313.367 100.649C315.668 106.439 322.231 109.249 328.02 106.929C328.247 106.835 328.492 106.74 328.718 106.627C328.285 108.853 328.36 111.153 328.926 113.341C329.284 114.397 329.416 116.019 331.076 116.038C332.547 113.907 335.394 113.266 337.62 114.586C339.864 116.132 340.675 119.074 339.506 121.545C338.506 123.336 336.809 124.637 334.81 125.109C332.98 125.505 331.736 127.221 331.943 129.088C332.226 131.502 336.243 132.388 338.053 134.369C340.882 137.461 347.049 138.763 351.217 139.234C354.744 139.649 354.857 139.724 356.365 137.575C357.478 137.575 358.591 137.405 359.647 137.065C364.871 135.104 367.907 129.635 366.776 124.166C370.623 123.355 373.471 120.092 373.735 116.17" fill="#263238"/>
<path d="M353.97 119.923C353.556 120.074 353.122 120.168 352.669 120.206C351.443 120.338 350.217 120.168 349.086 119.696C347.37 119.036 345.974 117.735 345.22 116.057C344.277 114.001 344.296 111.625 345.276 109.588L345.371 109.4L345.484 109.55C343.315 109.814 341.109 109.664 338.978 109.136C337.224 108.664 335.696 107.646 334.583 106.212C333.829 105.251 333.376 104.1 333.282 102.893C333.244 102.46 333.282 102.007 333.376 101.592C333.339 102.026 333.339 102.46 333.358 102.893C333.49 104.081 333.942 105.194 334.697 106.118C335.79 107.514 337.299 108.494 339.015 108.947C341.109 109.475 343.296 109.607 345.446 109.343H345.635L345.54 109.494L345.446 109.664C344.484 111.644 344.466 113.945 345.371 115.944C346.106 117.584 347.464 118.867 349.124 119.527C350.236 119.998 351.443 120.187 352.65 120.092C353.499 120.017 353.952 119.866 353.952 119.885" fill="#455A64"/>
<path d="M362.193 111.927C362.193 111.927 362.551 111.587 363.06 110.852C363.758 109.814 364.192 108.626 364.324 107.382C364.55 105.534 364.06 103.685 362.966 102.196C361.533 100.423 359.383 99.3856 357.101 99.3667C356.177 99.3667 355.253 99.5176 354.404 99.8759L354.272 99.9325V99.8005C353.989 97.8769 352.952 96.1419 351.387 95.0103C350.123 94.1051 348.596 93.6525 347.049 93.7279C346.012 93.7657 345.012 94.0297 344.088 94.4823C343.447 94.8029 343.127 95.0669 343.108 95.0481C343.391 94.8029 343.711 94.5954 344.051 94.4257C344.975 93.9354 345.993 93.6525 347.03 93.5959C348.614 93.5016 350.199 93.9543 351.481 94.8783C353.103 96.0476 354.178 97.8203 354.442 99.8005L354.291 99.7062C355.177 99.3478 356.12 99.1593 357.082 99.1781C359.421 99.1781 361.646 100.272 363.098 102.101C364.23 103.629 364.72 105.552 364.456 107.438C364.305 108.702 363.834 109.909 363.098 110.927C362.834 111.304 362.514 111.644 362.155 111.945" fill="#455A64"/>
<path d="M352.82 127.07C352.707 127.164 352.575 127.259 352.443 127.334C352.066 127.542 351.632 127.693 351.198 127.73C350.519 127.825 349.84 127.73 349.218 127.485C348.407 127.183 347.728 126.618 347.294 125.863L347.445 125.901C346.804 126.448 346.069 126.863 345.276 127.146C344.183 127.523 342.995 127.579 341.863 127.353C340.939 127.146 340.071 126.75 339.336 126.165C338.827 125.788 338.393 125.316 338.035 124.807C337.903 124.619 337.789 124.411 337.695 124.204C338.167 124.901 338.751 125.524 339.43 126.033C341.09 127.278 343.24 127.598 345.201 126.938C345.974 126.674 346.691 126.278 347.294 125.75L347.389 125.675L347.445 125.788C347.841 126.504 348.482 127.051 349.256 127.353C349.859 127.598 350.519 127.693 351.16 127.636C351.745 127.561 352.292 127.391 352.801 127.089" fill="#455A64"/>
<path d="M368.492 115.472C367.7 113.775 366.153 112.568 364.324 112.21C362.532 112.285 360.797 112.832 359.27 113.756C358.987 113.284 358.534 112.926 358.006 112.794C355.63 112.398 353.386 113.982 352.99 116.358C352.763 117.697 353.178 119.074 354.102 120.055C352.009 121.281 351.292 123.959 352.499 126.071C353.706 128.183 356.403 128.881 358.515 127.674C359.27 127.24 359.892 126.58 360.269 125.769C361.967 127.674 364.871 127.843 366.776 126.146C368.435 124.656 368.812 122.205 367.643 120.3C369.001 119.074 369.34 117.075 368.511 115.453" fill="#5238A0"/>
<path d="M357.818 118.81C357.233 118.056 356.535 117.377 355.762 116.811C355.196 116.434 354.574 116.17 353.914 116.038C353.405 115.944 353.084 115.962 353.084 115.925C353.367 115.849 353.65 115.83 353.952 115.887C354.649 115.981 355.309 116.226 355.894 116.622C356.479 117 356.988 117.49 357.403 118.037C357.591 118.263 357.742 118.508 357.837 118.791" fill="white"/>
<path d="M357.704 112.87C357.931 113.058 358.119 113.266 358.27 113.511C358.666 114.077 358.987 114.718 359.213 115.378C359.571 116.302 359.628 117.339 359.364 118.301C359.402 117.339 359.289 116.377 359.006 115.453C358.647 114.548 358.214 113.68 357.686 112.87" fill="white"/>
<path d="M361.985 112.53C362.4 113.228 362.495 114.058 362.287 114.831C362.136 115.623 361.684 116.321 361.043 116.792C361.514 116.189 361.872 115.51 362.08 114.793C362.212 114.039 362.193 113.284 362.004 112.549" fill="white"/>
<path d="M365.644 112.643C365.889 113.511 365.814 114.435 365.418 115.246C365.135 115.83 364.701 116.302 364.135 116.622C363.928 116.773 363.664 116.868 363.4 116.886C364.173 116.509 364.795 115.906 365.21 115.17C365.437 114.623 365.588 114.02 365.625 113.416C365.663 112.945 365.625 112.662 365.625 112.662" fill="white"/>
<path d="M352.575 121.545C353.141 121.111 353.838 120.903 354.555 120.941C355.253 120.866 355.969 120.998 356.592 121.318C355.913 121.224 355.234 121.167 354.555 121.167C353.876 121.205 353.197 121.337 352.556 121.563" fill="white"/>
<path d="M352.575 126.203C352.575 125.958 352.669 125.712 352.782 125.505C353.009 124.939 353.367 124.449 353.838 124.072C354.536 123.562 355.423 123.393 356.271 123.619C355.46 123.619 354.668 123.826 353.97 124.241C353.537 124.6 353.178 125.052 352.914 125.561C352.82 125.788 352.707 125.995 352.575 126.203Z" fill="white"/>
<path d="M378.336 123.921C378.713 123.883 379.072 123.808 379.43 123.713C380.392 123.374 381.222 122.733 381.768 121.865C382.617 120.602 382.825 119.018 382.297 117.603C381.655 115.868 380.316 114.473 378.619 113.737C376.903 113.039 375.036 112.851 373.207 113.171C371.717 113.416 370.265 113.869 368.888 114.491C367.7 115.019 366.776 115.491 366.134 115.812L365.399 116.189C365.399 116.189 365.229 116.283 365.135 116.302C365.21 116.245 365.286 116.189 365.38 116.151L366.116 115.736C366.757 115.397 367.662 114.887 368.85 114.341C370.227 113.699 371.679 113.228 373.188 112.964C375.055 112.624 376.959 112.813 378.713 113.53C380.467 114.284 381.844 115.736 382.485 117.528C383.013 119.018 382.787 120.658 381.882 121.941C381.316 122.808 380.448 123.468 379.449 123.77C379.091 123.883 378.713 123.94 378.336 123.902" fill="#455A64"/>
<path d="M378.827 124.091C381.863 123.468 383.277 119.414 381.844 116.66C380.166 113.963 377.091 112.474 373.942 112.851C370.868 113.266 367.926 114.435 365.399 116.245C363.079 115.321 360.439 116.321 359.326 118.546C356.686 118.263 354.31 120.168 354.008 122.808C353.763 125.147 355.234 127.334 357.497 127.975C354.046 130.767 353.499 135.821 356.271 139.272C359.062 142.723 364.117 143.27 367.568 140.498C368.605 139.649 369.435 138.574 369.944 137.329C373.791 139.498 378.657 138.121 380.826 134.274C382.749 130.842 381.901 126.523 378.808 124.072" fill="#263238"/>
<path d="M381.712 130.257C381.787 130.616 381.787 130.993 381.674 131.351C381.391 132.37 380.656 133.218 379.694 133.671C378.242 134.369 376.601 134.576 375.017 134.237C372.98 133.84 371.17 132.652 370.001 130.917L370.189 130.861C370.076 132.558 369.095 134.086 367.587 134.897C365.984 135.783 364.022 135.802 362.4 134.934C361.024 134.255 359.911 133.143 359.232 131.747C358.911 131.087 358.761 130.352 358.761 129.616C358.761 128.9 359.025 128.202 359.515 127.674L359.609 127.843C357.026 128.39 354.498 126.75 353.952 124.166C353.631 122.638 354.084 121.035 355.159 119.885C355.969 119.055 357.063 118.546 358.214 118.452C358.629 118.395 359.043 118.433 359.44 118.527C359.043 118.489 358.629 118.471 358.233 118.527C357.101 118.659 356.045 119.168 355.253 119.979C353.518 121.846 353.612 124.769 355.479 126.504C356.573 127.542 358.119 127.957 359.59 127.636L359.911 127.561L359.685 127.806C358.836 128.918 358.742 130.446 359.44 131.653C360.1 132.992 361.175 134.067 362.514 134.727C364.079 135.557 365.946 135.538 367.492 134.689C368.926 133.916 369.869 132.464 370.001 130.842V130.521L370.189 130.785C371.321 132.464 373.075 133.633 375.074 134.048C376.62 134.387 378.242 134.218 379.656 133.539C380.599 133.105 381.316 132.313 381.618 131.313C381.712 130.955 381.75 130.597 381.712 130.238" fill="#455A64"/>
<path d="M379.788 122.94C380.015 122.638 380.184 122.261 380.241 121.884C380.373 120.828 379.939 119.772 379.109 119.112C376.356 116.736 372.226 116.943 369.718 119.583C369.322 119.998 368.982 120.451 368.718 120.96L368.53 121.299V120.922C368.398 119.206 367.436 117.641 365.927 116.792C364.72 116.113 363.268 115.981 361.967 116.453C361.099 116.754 360.307 117.264 359.704 117.961C359.27 118.452 359.119 118.791 359.1 118.772C359.232 118.452 359.421 118.169 359.647 117.905C360.25 117.169 361.043 116.622 361.929 116.302C363.268 115.793 364.777 115.906 366.04 116.604C367.605 117.49 368.624 119.112 368.737 120.903L368.53 120.847C368.812 120.338 369.171 119.866 369.567 119.432C370.925 117.98 372.848 117.188 374.847 117.245C376.469 117.301 378.016 117.905 379.223 118.98C380.071 119.678 380.505 120.79 380.335 121.884C380.279 122.167 380.165 122.45 379.996 122.695C379.939 122.789 379.864 122.865 379.788 122.921" fill="#455A64"/>
<path d="M379.656 132.52C379.656 132.822 379.619 133.124 379.543 133.426C379.355 134.274 378.996 135.066 378.487 135.764C377.695 136.858 376.563 137.65 375.262 138.008C373.584 138.461 371.773 138.197 370.302 137.292L370.434 137.254C368.869 140.215 365.852 142.101 362.514 142.176C359.553 142.176 356.762 140.743 355.064 138.31C353.612 136.368 353.141 133.878 353.782 131.54C354.253 129.974 355.498 128.749 357.063 128.296C357.478 128.183 357.912 128.126 358.346 128.164C358.497 128.164 358.647 128.202 358.798 128.239C358.233 128.164 357.648 128.221 357.082 128.371C355.555 128.843 354.366 130.05 353.914 131.577C353.31 133.859 353.782 136.292 355.215 138.178C356.894 140.554 359.609 141.95 362.495 141.95C364.173 141.912 365.795 141.403 367.209 140.479C368.492 139.649 369.529 138.499 370.246 137.16L370.302 137.065L370.397 137.122C371.83 138.027 373.584 138.291 375.206 137.857C376.469 137.518 377.582 136.764 378.374 135.707C378.883 135.029 379.26 134.255 379.468 133.426C379.6 132.86 379.619 132.539 379.637 132.539" fill="#455A64"/>
<path d="M373.772 125.354C373.659 125.58 373.508 125.769 373.339 125.958C372.867 126.467 372.301 126.863 371.66 127.127C370.698 127.523 369.623 127.579 368.624 127.259C367.398 126.882 366.361 126.014 365.776 124.864L365.908 124.92C365.757 124.977 365.606 125.052 365.437 125.09C364.154 125.486 362.759 125.373 361.552 124.769C360.571 124.279 359.779 123.487 359.308 122.506C358.987 121.846 358.798 121.149 358.779 120.413C358.779 120.149 358.779 119.885 358.836 119.621C358.798 120.602 359.006 121.563 359.44 122.431C359.93 123.374 360.684 124.128 361.646 124.581C362.815 125.147 364.135 125.241 365.38 124.864C365.531 124.826 365.682 124.751 365.814 124.713L365.908 124.675L365.946 124.769C366.512 125.863 367.492 126.693 368.662 127.07C369.623 127.372 370.642 127.334 371.585 126.976C372.433 126.636 373.188 126.071 373.753 125.354" fill="#455A64"/>
<path d="M385.239 393.639L388.275 449.97L367.869 454.892L363.815 399.881L385.239 393.639Z" fill="#B78876"/>
<path d="M388.878 449.479L392.348 464.755H368.869L367.869 454.797L388.878 449.479Z" fill="#5238A0"/>
<path d="M368.398 462.548C369.529 462.737 370.679 462.794 371.811 462.737C373.923 462.756 376.846 462.699 380.071 462.586L388.313 462.228C389.463 462.228 390.595 462.152 391.726 461.964C390.595 461.775 389.444 461.719 388.313 461.775C386.2 461.775 383.277 461.813 380.052 461.926L371.811 462.265C370.661 462.265 369.529 462.341 368.398 462.529" fill="#263238"/>
<path d="M378.336 452.459C378.129 455.759 378.336 459.078 378.996 462.322C379.204 459.022 378.996 455.703 378.336 452.459Z" fill="#263238"/>
<g opacity="0.6">
<mask id="mask4_48_1317" style="mask-type:luminance" maskUnits="userSpaceOnUse" x="368" y="461" width="25" height="4">
<path d="M392.348 461.964H368.643V464.774H392.348V461.964Z" fill="white"/>
</mask>
<g mask="url(#mask4_48_1317)">
<path d="M392.348 464.774H368.869L368.643 462.548L391.915 461.964L392.33 464.51" fill="white"/>
</g>
</g>
<path d="M307.766 421.021L302.806 458.343L284.739 457.079L288.53 422.87L307.747 421.021H307.766Z" fill="#B78876"/>
<path d="M284.569 453.025C284.569 453.025 264.277 459.889 263.938 463.586L302.731 464.717L303.07 454.571L301.637 454.854C295.885 456.004 289.925 455.363 284.551 453.025" fill="#5238A0"/>
<g opacity="0.6">
<mask id="mask5_48_1317" style="mask-type:luminance" maskUnits="userSpaceOnUse" x="296" y="456" width="4" height="4">
<path d="M299.638 456.268H296.62V459.286H299.638V456.268Z" fill="white"/>
</mask>
<g mask="url(#mask5_48_1317)">
<path d="M298.544 456.344C299.317 456.608 299.751 457.4 299.581 458.192C299.355 458.965 298.563 459.437 297.771 459.248C296.96 458.965 296.488 458.135 296.677 457.287C296.997 456.495 297.884 456.117 298.695 456.4" fill="white"/>
</g>
</g>
<g opacity="0.6">
<mask id="mask6_48_1317" style="mask-type:luminance" maskUnits="userSpaceOnUse" x="263" y="461" width="40" height="4">
<path d="M302.749 461.568H263.938V464.717H302.749V461.568Z" fill="white"/>
</mask>
<g mask="url(#mask6_48_1317)">
<path d="M302.749 464.717V461.568L265.541 461.662C265.541 461.662 263.787 462.36 263.957 463.586L302.749 464.717Z" fill="white"/>
</g>
</g>
<path d="M283.947 452.817C283.947 453.006 284.89 453.119 285.814 453.76C286.738 454.401 287.21 455.212 287.379 455.137C287.549 455.099 287.304 453.968 286.191 453.213C285.079 452.459 283.928 452.648 283.966 452.817" fill="#263238"/>
<path d="M279.836 454.383C279.779 454.571 280.59 454.911 281.213 455.721C281.835 456.532 281.986 457.4 282.174 457.4C282.344 457.438 282.514 456.325 281.722 455.325C280.93 454.326 279.836 454.194 279.817 454.383" fill="#263238"/>
<path d="M277.384 459.192C277.554 459.229 277.837 458.305 277.384 457.249C276.932 456.193 276.064 455.759 275.97 455.91C275.876 456.061 276.422 456.646 276.781 457.513C277.139 458.381 277.196 459.173 277.384 459.192Z" fill="#263238"/>
<path d="M284.362 452.723C285.003 452.912 285.663 452.93 286.304 452.761C287.002 452.648 287.7 452.459 288.36 452.195C288.756 452.025 289.133 451.837 289.492 451.629C289.718 451.516 289.925 451.365 290.095 451.195C290.359 450.931 290.397 450.517 290.208 450.196C290.02 449.932 289.718 449.762 289.397 449.743C289.152 449.743 288.907 449.743 288.662 449.819C288.247 449.913 287.832 450.026 287.436 450.196C286.776 450.479 286.154 450.856 285.607 451.327C284.683 452.138 284.362 452.836 284.419 452.874C284.475 452.912 284.965 452.365 285.89 451.705C286.436 451.327 287.021 451.007 287.643 450.781C288.021 450.649 288.398 450.535 288.775 450.46C289.19 450.366 289.529 450.366 289.643 450.554C289.68 450.63 289.68 450.649 289.586 450.762C289.454 450.894 289.303 451.007 289.152 451.082C288.813 451.29 288.473 451.478 288.115 451.648C287.511 451.931 286.87 452.157 286.21 452.308C285.588 452.402 284.965 452.534 284.362 452.723Z" fill="#263238"/>
<path d="M284.607 453.006C284.984 452.459 285.192 451.818 285.173 451.139C285.267 449.988 285.022 448.838 284.513 447.801C284.324 447.273 283.853 446.877 283.306 446.782C282.948 446.782 282.627 446.99 282.476 447.292C282.363 447.518 282.288 447.763 282.25 448.008C282.174 448.442 282.156 448.876 282.212 449.31C282.306 450.045 282.57 450.743 282.985 451.346C283.721 452.384 284.494 452.629 284.513 452.553C284.588 452.459 283.928 452.082 283.381 451.101C283.061 450.535 282.872 449.913 282.816 449.253C282.778 448.876 282.816 448.499 282.891 448.121C282.966 447.707 283.136 447.386 283.287 447.424C283.476 447.424 283.796 447.744 283.947 448.084C284.136 448.423 284.287 448.781 284.4 449.159C284.607 449.781 284.701 450.441 284.72 451.101C284.739 452.233 284.513 452.949 284.626 452.968" fill="#263238"/>
<path d="M370.151 232.095C370.151 232.095 384.465 256.026 384.465 270.321L387.992 444.614L365.361 450.007L348.105 279.675C348.105 279.675 306.295 450.46 304.956 450.46C303.617 450.46 283.023 446.764 283.023 446.764L314.235 232.849L370.133 232.076L370.151 232.095Z" fill="#263238"/>
<path d="M361.231 275.017C361.231 275.168 361.231 275.319 361.269 275.451C361.307 275.771 361.382 276.186 361.457 276.733C361.646 277.884 361.91 279.543 362.231 281.655C362.928 285.917 363.909 292.103 365.059 299.741C367.36 314.979 370.227 336.138 372.641 359.617C375.055 383.096 376.507 404.369 377.355 419.796C377.77 427.509 378.072 433.751 378.261 438.07C378.355 440.201 378.449 441.86 378.487 443.048C378.525 443.595 378.544 444.01 378.562 444.331C378.449 444.331 378.355 444.463 378.374 444.576C378.374 444.689 378.506 444.783 378.619 444.765C378.732 444.765 378.826 444.633 378.808 444.519C378.808 444.425 378.713 444.35 378.619 444.331C378.619 444.01 378.619 443.576 378.619 443.03C378.6 441.86 378.544 440.182 378.506 438.051C378.412 433.732 378.166 427.49 377.808 419.758C377.091 404.313 375.677 383.002 373.282 359.542C370.887 336.082 367.926 314.922 365.512 299.665C364.305 292.028 363.268 285.861 362.495 281.618C362.117 279.524 361.816 277.884 361.589 276.714L361.344 275.451C361.325 275.3 361.288 275.168 361.231 275.017Z" fill="#455A64"/>
<path d="M325.418 277.902C325.248 277.865 318.346 316.129 309.991 363.333C301.637 410.536 295.017 448.857 295.187 448.876C295.357 448.895 302.259 410.668 310.614 363.446C318.968 316.223 325.588 277.94 325.418 277.902Z" fill="#455A64"/>
<path d="M348.897 279.411C348.992 279.279 349.086 279.128 349.124 278.977C349.256 278.694 349.463 278.261 349.708 277.695C350.368 276.092 350.915 274.451 351.387 272.773C352.895 267.228 353.442 261.476 353.009 255.762C352.895 254.084 352.669 252.462 352.405 250.897C352.141 249.331 351.726 247.86 351.33 246.465C350.538 243.674 349.708 241.203 348.992 239.129C348.275 237.054 347.672 235.395 347.219 234.263L346.691 232.962C346.634 232.811 346.559 232.66 346.465 232.509C346.465 232.679 346.521 232.83 346.578 233L347.011 234.339L348.614 239.261C349.275 241.335 350.067 243.825 350.84 246.616C351.217 248.011 351.613 249.463 351.877 251.01C352.141 252.556 352.349 254.159 352.462 255.819C352.895 261.476 352.405 267.191 351.01 272.697C350.482 274.81 349.897 276.488 349.501 277.638C349.256 278.223 349.048 278.826 348.879 279.43" fill="#455A64"/>
<path d="M342.504 250.142C342.485 250.256 342.466 250.369 342.466 250.482C342.466 250.727 342.429 251.029 342.41 251.406C342.372 252.255 342.316 253.424 342.259 254.838C342.146 257.837 342.014 261.986 341.825 266.964L341.976 266.757L333.263 270.302H333.508L326.436 266.021L325.984 265.739L326.116 265.946C325.588 260.194 325.079 254.782 324.645 250.124L324.4 250.388L337.412 250.256L341.127 250.199H342.127C342.24 250.18 342.372 250.161 342.485 250.142C342.07 250.105 341.656 250.086 341.222 250.086L337.563 250.029L324.381 249.897H324.117V250.161C324.55 254.838 325.041 260.232 325.55 266.003V266.135L325.682 266.21L326.135 266.493L333.226 270.793L333.339 270.868L333.471 270.812L342.165 267.21L342.316 267.153V267.002C342.391 261.967 342.466 257.742 342.504 254.725C342.504 253.311 342.504 252.179 342.523 251.33C342.523 250.934 342.523 250.557 342.504 250.161" fill="#455A64"/>
<path d="M375.243 245.541C375.281 245.937 375.319 246.333 375.394 246.71C375.526 247.502 375.677 248.577 375.885 249.897L377.695 261.099L377.789 260.873L371.208 265.757L371.434 265.72L363.438 263.494L363.023 263.381L363.211 263.57C361.684 258.365 360.25 253.462 359.006 249.237L358.836 249.539L370.661 246.729L374.017 245.899C374.81 245.711 375.224 245.579 375.243 245.56C374.847 245.597 374.47 245.673 374.093 245.767L370.755 246.465L358.723 249.067L358.478 249.124L358.553 249.369C359.779 253.593 361.193 258.516 362.702 263.721L362.74 263.872L362.891 263.909L363.306 264.022L371.302 266.229L371.434 266.267L371.528 266.191L378.072 261.269L378.185 261.175V261.043L376.092 249.727C375.847 248.445 375.639 247.389 375.488 246.616C375.432 246.257 375.356 245.899 375.262 245.56" fill="#455A64"/>
<path d="M329.548 276.035C335.922 277.789 342.391 279.204 348.916 280.241C342.542 278.487 336.073 277.073 329.548 276.035Z" fill="#455A64"/>
<path d="M357.686 276.79C358.497 276.903 359.345 276.903 360.156 276.79C362.136 276.62 364.098 276.318 366.04 275.866C367.983 275.432 369.887 274.847 371.736 274.131C372.528 273.867 373.263 273.508 373.961 273.056C373.15 273.225 372.377 273.471 371.604 273.772C370.17 274.244 368.152 274.828 365.908 275.338C363.664 275.847 361.608 276.205 360.1 276.413C359.289 276.469 358.478 276.601 357.667 276.79" fill="#455A64"/>
<path d="M329.605 147.249L332.094 142.119L353.763 141.309L357.158 147.966H329.944" fill="#5238A0"/>
<path d="M276.328 180.818L265.635 191.133L293.037 215.65L301.071 196.734L276.347 180.799L276.328 180.818Z" fill="#5238A0"/>
<path d="M383.032 211.972L362.174 203.674L366.832 186.4L383.843 192.189L383.051 211.991L383.032 211.972Z" fill="#5238A0"/>
<path d="M294.621 216.649C289.416 214.066 288.096 207.861 290.623 202.637L312.236 156.433C312.726 155.283 313.48 154.265 314.404 153.454C319.308 149.097 325.739 146.891 332.283 147.324L354.819 146.74C354.819 146.74 372.528 146.74 379.166 160.695C379.656 161.714 389.953 182.138 396.742 195.584C399.666 201.317 397.384 208.314 391.669 211.237C385.936 214.16 378.94 211.878 376.017 206.164C375.922 205.975 375.828 205.768 375.734 205.579L368.36 189.134L363.72 212.689L370.397 232.095L314.499 232.868L318.798 206.918L320.156 188.399L308.822 211.784C306.276 217.045 299.939 219.233 294.697 216.687C294.659 216.687 294.64 216.649 294.602 216.649" fill="#5238A0"/>
<g opacity="0.2">
<mask id="mask7_48_1317" style="mask-type:luminance" maskUnits="userSpaceOnUse" x="329" y="195" width="34" height="20">
<path d="M362.174 195.263H329.963V214.405H362.174V195.263Z" fill="white"/>
</mask>
<g mask="url(#mask7_48_1317)">
<path d="M361.853 212.255C357.629 215.423 351.387 214.367 346.163 213.5C340.882 212.727 336.036 210.105 332.509 206.088C330.849 204.353 329.944 202.034 329.963 199.639C330.095 197.168 332.151 195.263 334.621 195.282C337.318 195.603 338.619 198.639 339.92 201.015C344.296 208.691 353.046 212.802 361.74 211.256C361.74 211.256 362.589 211.671 361.835 212.236" fill="black"/>
</g>
</g>
<g opacity="0.2">
<mask id="mask8_48_1317" style="mask-type:luminance" maskUnits="userSpaceOnUse" x="318" y="175" width="10" height="36">
<path d="M327.342 175.877H318.421V210.614H327.342V175.877Z" fill="white"/>
</mask>
<g mask="url(#mask8_48_1317)">
<path d="M327.342 175.877C326.021 186.513 326.606 185.702 324.4 196.187C323.306 201.336 321.986 206.73 318.421 210.614L320.175 188.418L327.342 175.877Z" fill="black"/>
</g>
</g>
<path d="M370.415 232.113L372.018 227.436L367.851 224.664L316.573 220.44L312.952 227.229L314.518 232.868L370.415 232.113Z" fill="#5238A0"/>
<path d="M368.511 191.416C368.794 192.321 369.171 193.208 369.642 194.038C370.415 195.622 371.566 197.79 372.924 200.091C374.282 202.392 375.639 204.448 376.658 205.881C377.167 206.692 377.752 207.446 378.412 208.144C378.016 207.276 377.525 206.447 376.978 205.673C376.054 204.184 374.753 202.128 373.395 199.808C372.037 197.489 370.849 195.377 369.982 193.849C369.567 192.982 369.076 192.171 368.492 191.397" fill="#263238"/>
<path d="M373.433 200.28C373.093 202.92 373.942 205.56 375.753 207.503C375.885 207.408 374.942 205.975 374.319 203.976C373.697 201.977 373.603 200.28 373.452 200.28" fill="#263238"/>
<path d="M318.176 153.774C318.176 153.774 319.119 154.208 320.515 155.075C324.192 157.338 326.681 161.129 327.285 165.391C327.53 167.013 327.455 168.05 327.549 168.05C327.775 167.164 327.813 166.24 327.662 165.353C327.247 160.884 324.626 156.905 320.703 154.736C319.93 154.246 319.062 153.925 318.176 153.774Z" fill="#263238"/>
<path d="M363.815 212.934C363.966 212.972 366.474 202.26 369.435 189.021C372.396 175.782 374.659 165.014 374.508 164.976C374.357 164.939 371.849 175.65 368.888 188.908C365.927 202.166 363.664 212.915 363.815 212.953" fill="#263238"/>
<path d="M289.586 199.111C291.264 197.583 292.886 196.018 294.452 194.377C292.396 195.452 290.717 197.093 289.586 199.111Z" fill="#263238"/>
<path d="M308.369 212.651C308.69 212.199 308.992 211.727 309.218 211.237C309.746 210.313 310.463 208.955 311.349 207.258C313.122 203.882 315.479 199.186 318.044 193.981C320.609 188.776 322.985 184.08 324.739 180.704L326.814 176.706C327.096 176.235 327.323 175.726 327.53 175.217C327.191 175.65 326.889 176.122 326.625 176.612C326.078 177.517 325.324 178.875 324.4 180.535C322.551 183.873 320.137 188.55 317.573 193.755L311.029 207.107L309.048 211.161C308.784 211.652 308.558 212.142 308.369 212.67" fill="#263238"/>
<path d="M328.53 198.356C328.53 198.356 328.53 198.488 328.53 198.733C328.567 199.092 328.624 199.431 328.699 199.771C328.982 201.034 329.454 202.26 330.095 203.373C332.283 207.088 335.583 210.011 339.524 211.746C343.447 213.406 347.615 214.443 351.858 214.82C353.48 215.009 354.781 215.103 355.687 215.159C356.158 215.216 356.629 215.235 357.101 215.197C356.648 215.065 356.177 214.99 355.705 214.952L351.896 214.424C347.709 213.934 343.636 212.859 339.751 211.237C335.904 209.539 332.641 206.73 330.416 203.165C329.567 201.638 328.926 200.035 328.492 198.337" fill="#263238"/>
<path d="M339.77 225.475C339.77 225.626 346.691 226.229 355.253 226.833C363.815 227.436 370.774 227.795 370.774 227.644C370.774 227.493 363.853 226.89 355.291 226.286C346.729 225.683 339.77 225.324 339.77 225.475Z" fill="#263238"/>
<path d="M330.83 221.307C329.718 224.721 329.322 228.342 329.718 231.925C329.869 231.925 329.944 229.53 330.265 226.607C330.585 223.684 331 221.345 330.849 221.307" fill="#263238"/>
<path d="M327.228 217.969C326.964 218.648 326.813 219.365 326.757 220.082C326.323 223.552 326.568 227.097 327.492 230.473C327.643 231.189 327.888 231.868 328.247 232.509C328.417 232.472 327.436 229.303 327.172 225.287C326.87 221.27 327.398 218.007 327.228 217.969Z" fill="#263238"/>
<path d="M329.548 147.607C329.548 147.758 334.565 147.607 340.731 147.249C346.898 146.891 351.896 146.495 351.877 146.344C351.858 146.193 346.861 146.344 340.694 146.702C334.527 147.06 329.529 147.456 329.548 147.607Z" fill="#263238"/>
<path d="M330.868 147.249C330.623 147.306 330.378 147.343 330.133 147.362L328.039 147.683L324.739 148.267C323.287 148.475 321.872 148.909 320.571 149.55C318.987 150.323 317.497 151.304 316.139 152.454C314.612 153.793 313.329 155.396 312.33 157.169C310.406 161.016 308.445 165.391 306.295 169.917L295.3 193.114L291.924 200.129L290.981 202.015C290.887 202.241 290.755 202.449 290.623 202.656C290.68 202.411 290.774 202.185 290.887 201.958L291.736 200.016L294.961 192.925C297.695 186.947 301.524 178.724 305.805 169.672C307.973 165.146 309.935 160.827 311.896 156.924C312.914 155.113 314.253 153.472 315.838 152.115C317.233 150.945 318.761 149.965 320.401 149.192C321.759 148.569 323.211 148.154 324.682 147.966C325.965 147.758 327.078 147.589 328.002 147.475C328.926 147.362 329.623 147.287 330.114 147.249C330.359 147.211 330.604 147.211 330.849 147.249" fill="#263238"/>
<path d="M314.385 203.316C314.385 203.316 314.235 203.316 314.159 203.316L313.499 203.222C312.933 203.128 312.104 202.995 311.104 202.807C308.464 202.373 305.88 201.6 303.41 200.525C300.939 199.431 298.77 197.734 297.13 195.603C296.451 194.717 295.923 193.717 295.583 192.661C295.602 192.661 295.715 192.944 295.979 193.472C296.337 194.188 296.771 194.886 297.262 195.527C298.921 197.621 301.071 199.261 303.504 200.355C305.955 201.411 308.501 202.185 311.142 202.675L313.518 203.146L314.159 203.278C314.159 203.278 314.31 203.316 314.385 203.335" fill="#FAFAFA"/>
<path d="M290.303 190.926C290.114 191.001 289.907 191.077 289.699 191.114C289.303 191.209 288.756 191.379 288.077 191.624C284.513 192.887 281.439 195.245 279.27 198.337C278.855 198.922 278.553 199.412 278.346 199.771C278.252 199.959 278.139 200.129 278.007 200.299C278.082 200.11 278.157 199.922 278.271 199.733C278.535 199.224 278.817 198.715 279.138 198.243C281.269 195.056 284.381 192.68 288.021 191.473C288.568 191.284 289.114 191.133 289.68 191.02C289.888 190.964 290.095 190.945 290.303 190.926Z" fill="#FAFAFA"/>
<path d="M325.625 177.366C325.625 177.366 325.493 177.366 325.418 177.366L324.814 177.329C324.305 177.291 323.551 177.197 322.646 177.046C317.874 176.235 313.348 174.425 309.312 171.765C308.539 171.256 307.936 170.804 307.54 170.483L307.087 170.106C306.974 170.012 306.936 169.974 306.936 169.974C307.012 169.993 307.068 170.03 307.125 170.087L307.615 170.426C308.03 170.728 308.652 171.143 309.426 171.652C313.48 174.236 317.988 176.027 322.702 176.914C323.607 177.084 324.343 177.197 324.852 177.272L325.437 177.366C325.437 177.366 325.569 177.385 325.644 177.404" fill="#FAFAFA"/>
<path d="M373.112 153.868C373.112 153.868 372.415 153.736 371.151 153.68C369.359 153.604 367.568 153.718 365.795 154.038C363.551 154.397 360.929 155.075 357.987 155.679C354.781 156.358 351.5 156.622 348.237 156.452C344.767 156.32 341.467 155.905 338.487 155.622C335.847 155.339 333.188 155.207 330.51 155.245C328.718 155.283 326.927 155.471 325.173 155.811L323.74 156.15C323.419 156.226 323.23 156.245 323.23 156.245C323.23 156.245 323.4 156.188 323.721 156.094L325.135 155.717C326.908 155.358 328.699 155.132 330.491 155.075C333.15 155.019 335.828 155.132 338.487 155.415C341.486 155.679 344.767 156.075 348.237 156.226C351.5 156.396 354.744 156.132 357.95 155.471C360.892 154.868 363.532 154.208 365.776 153.868C367.549 153.567 369.359 153.472 371.151 153.586C371.641 153.623 372.132 153.68 372.603 153.755C372.924 153.812 373.112 153.85 373.112 153.85" fill="#FAFAFA"/>
<path d="M370.585 180.836C370.585 180.836 370.434 180.855 370.133 180.893L368.812 180.987L363.947 181.327C359.836 181.572 354.159 182.043 347.879 182.175C342.504 182.345 337.129 182.006 331.83 181.138C329.642 180.761 327.474 180.233 325.361 179.535C325.361 179.535 325.512 179.554 325.814 179.648L327.096 179.988C328.209 180.271 329.831 180.648 331.868 181.006C337.167 181.836 342.542 182.157 347.898 181.987C354.178 181.855 359.854 181.421 363.966 181.195L368.831 180.931L370.151 180.874C370.453 180.874 370.623 180.874 370.623 180.874" fill="#FAFAFA"/>
<path d="M390.33 183.401C390.33 183.401 390.236 183.533 390.18 183.571L389.746 184.061C389.369 184.476 388.784 185.061 388.03 185.74C384.069 189.285 379.317 191.793 374.168 193.076C373.188 193.321 372.377 193.472 371.811 193.547L371.17 193.642C371.17 193.642 371.019 193.66 370.943 193.642C371.019 193.604 371.094 193.585 371.17 193.585L371.811 193.453C372.358 193.359 373.169 193.17 374.131 192.906C379.223 191.548 383.956 189.059 387.935 185.589C388.69 184.929 389.293 184.363 389.689 183.967L390.161 183.514C390.161 183.514 390.274 183.401 390.33 183.364" fill="#FAFAFA"/>
<path d="M381.09 167.145C381.09 167.145 381.014 167.258 380.844 167.428C380.599 167.673 380.335 167.899 380.071 168.107C378.298 169.521 376.205 170.502 373.961 170.955C373.621 171.03 373.282 171.068 372.943 171.105C372.811 171.124 372.697 171.124 372.565 171.105C372.565 171.068 373.093 170.992 373.923 170.785C376.111 170.257 378.148 169.295 379.958 167.956C380.656 167.447 381.052 167.088 381.071 167.107" fill="#FAFAFA"/>
<path d="M397.742 200.336C397.139 201.223 396.422 202.053 395.649 202.788C394.8 203.599 393.895 204.334 392.933 204.995C390.538 206.598 387.86 207.71 385.031 208.219C383.881 208.427 382.711 208.54 381.542 208.54C380.467 208.54 379.392 208.465 378.336 208.257C378.412 208.257 378.487 208.257 378.562 208.257L379.204 208.314C379.977 208.389 380.769 208.408 381.542 208.389C386.747 208.257 391.745 206.22 395.554 202.675C396.139 202.147 396.667 201.581 397.176 200.978L397.591 200.487C397.591 200.487 397.685 200.374 397.742 200.318" fill="#FAFAFA"/>
<path d="M355.479 143.458C355.479 143.458 355.309 143.458 355.215 143.458L354.48 143.421L351.82 143.308C349.576 143.232 346.465 143.232 343.032 143.44C339.6 143.647 336.507 144.043 334.282 144.383L331.66 144.816L330.944 144.929C330.944 144.929 330.868 145.043 330.793 145.043C330.717 145.043 330.68 144.967 330.68 144.892C330.68 144.816 330.755 144.779 330.83 144.779C330.887 144.779 330.925 144.835 330.944 144.892L331.66 144.722C332.283 144.59 333.169 144.401 334.282 144.213C340.071 143.213 345.974 142.855 351.839 143.138C352.971 143.194 353.876 143.251 354.498 143.326L355.215 143.402C355.215 143.402 355.385 143.402 355.46 143.44" fill="#FAFAFA"/>
<path d="M328.643 203.052C328.511 203.052 328.379 203.052 328.247 203.052C327.983 203.033 327.624 202.977 327.172 202.901C324.833 202.449 322.608 201.525 320.647 200.167C320.269 199.903 319.987 199.676 319.798 199.507C319.609 199.337 319.496 199.243 319.515 199.224C319.534 199.205 319.987 199.525 320.741 200.016C322.721 201.298 324.909 202.222 327.21 202.731C328.096 202.939 328.643 203.014 328.643 203.052Z" fill="#FAFAFA"/>
<path d="M364.739 207.182C364.645 207.201 364.531 207.22 364.418 207.239L363.513 207.352C362.74 207.446 361.608 207.559 360.194 207.672C357.403 207.918 353.518 208.163 349.237 208.276C344.956 208.389 341.071 208.295 338.261 208.182C336.865 208.125 335.715 208.069 334.942 208.012L334.036 207.936C333.923 207.936 333.829 207.936 333.716 207.899C333.829 207.899 333.923 207.899 334.036 207.899H334.942L338.261 208.031C341.071 208.106 344.937 208.144 349.218 208.05C353.499 207.955 357.365 207.729 360.156 207.522L363.475 207.258L364.381 207.182C364.494 207.182 364.588 207.182 364.701 207.182" fill="#FAFAFA"/>
<path d="M326.417 227.286C326.248 227.342 326.078 227.399 325.889 227.418C325.55 227.493 325.06 227.568 324.437 227.663C321.231 228.096 317.988 228.078 314.8 227.606C314.197 227.512 313.707 227.418 313.367 227.342C313.197 227.323 313.009 227.267 312.839 227.21C313.028 227.21 313.197 227.21 313.367 227.267L314.819 227.455C318.006 227.851 321.231 227.87 324.418 227.512L325.871 227.342C326.04 227.304 326.229 227.286 326.399 227.304" fill="#FAFAFA"/>
<path d="M329.812 225.173C329.001 224.381 327.87 223.985 326.738 224.117C327.888 223.684 329.171 224.117 329.812 225.173Z" fill="#FAFAFA"/>
<path d="M363.551 227.719C363.438 227.757 363.324 227.776 363.211 227.795L362.231 227.983C361.382 228.153 360.156 228.36 358.647 228.587C350.727 229.756 342.693 230.114 334.697 229.662C333.169 229.567 331.924 229.473 331.076 229.379L330.095 229.285C329.982 229.285 329.869 229.266 329.755 229.228C329.869 229.228 329.982 229.228 330.095 229.228L331.076 229.285C331.924 229.341 333.169 229.417 334.697 229.492C337.771 229.624 342.014 229.699 346.691 229.492C351.368 229.285 355.592 228.832 358.629 228.417C360.156 228.21 361.382 228.021 362.231 227.889L363.211 227.738C363.324 227.719 363.438 227.7 363.551 227.7" fill="#FAFAFA"/>
</g>
<mask id="mask9_48_1317" style="mask-type:luminance" maskUnits="userSpaceOnUse" x="65" y="-2" width="477" height="466">
<path d="M541.843 -1.603H65.8433V463.397H541.843V-1.603Z" fill="white"/>
</mask>
<g mask="url(#mask9_48_1317)">
<path d="M162.571 395.147C163.344 391.828 165.551 389.037 168.568 387.491C171.774 386.114 175.489 386.887 178.752 388.094C181.92 389.565 185.277 390.565 188.728 391.093C192.217 391.3 196.14 389.659 197.177 386.321C198.158 383.191 196.272 379.853 193.914 377.59C185.711 369.688 172.641 369.933 164.74 378.137C162.665 380.287 161.081 382.87 160.1 385.699" fill="#E8505B"/>
<path d="M162.571 395.147C163.344 391.828 165.551 389.037 168.568 387.491C171.774 386.114 175.489 386.887 178.752 388.094C181.92 389.565 185.277 390.565 188.728 391.093C192.217 391.3 196.14 389.659 197.177 386.321C198.158 383.191 196.272 379.853 193.914 377.59C185.711 369.688 172.641 369.933 164.74 378.137C162.665 380.287 161.081 382.87 160.1 385.699" fill="#2E2360"/>
<path d="M134.999 409.14C129.888 404.294 130.152 395.845 132.698 389.282C135.565 382.776 140.638 377.477 147.012 374.346C159.289 367.896 173.848 367.425 186.541 373.064C180.317 373.328 174.641 376.666 171.378 381.965C168.587 386.604 167.964 392.262 165.645 397.165C160.232 408.65 146.786 413.912 134.999 409.14Z" fill="#5238A0"/>
<path d="M132.547 379.985C126.89 373.309 126.135 362.597 126.965 353.884C127.795 345.172 129.813 336.421 128.436 327.765C127.625 322.654 125.645 317.77 124.966 312.621C124.287 307.473 125.249 301.664 129.228 298.345C133.811 294.536 141.015 295.441 145.767 299.005C150.52 302.57 153.292 308.208 155.31 313.809C159.742 326.124 161.364 339.778 157.724 352.338C154.084 364.898 145.541 376.138 133.019 379.947" fill="#5238A0"/>
<path d="M129.832 434.751C129.813 434.487 129.794 434.241 129.813 433.977C129.813 433.468 129.813 432.733 129.851 431.771C129.926 429.847 130.115 427.094 130.529 423.68C131.039 419.701 131.755 415.741 132.698 411.837C133.867 407.047 135.697 402.427 138.092 398.127C140.506 393.827 143.486 389.867 146.918 386.321C149.709 383.436 152.821 380.852 156.178 378.627C157.592 377.646 158.95 376.911 160.138 376.232C161.345 375.591 162.401 375.082 163.25 374.667L165.286 373.818C165.513 373.705 165.758 373.611 166.003 373.554C165.777 373.686 165.551 373.818 165.324 373.912L163.325 374.836C162.477 375.27 161.439 375.817 160.251 376.477C159.101 377.175 157.743 377.929 156.347 378.929C148.974 383.964 142.863 390.621 138.488 398.372C133.283 407.462 131.868 417.023 130.831 423.737C130.36 427.132 130.133 429.885 130.001 431.79C129.945 432.714 129.907 433.449 129.869 433.996C129.869 434.26 129.832 434.505 129.794 434.769" fill="#263238"/>
<path d="M81.0624 353.658C70.5957 359.976 70.6334 365.709 72.3873 371.14C74.1412 376.571 80.5532 380.324 85.8714 378.306C88.7946 376.911 91.2462 374.686 92.9247 371.913C94.5843 369.141 96.6965 366.671 99.1481 364.577C101.713 362.484 105.296 362.201 108.163 363.842" fill="#E8505B"/>
<path d="M81.0624 353.658C70.5957 359.976 70.6334 365.709 72.3873 371.14C74.1412 376.571 80.5532 380.324 85.8714 378.306C88.7946 376.911 91.2462 374.686 92.9247 371.913C94.5843 369.141 96.6965 366.671 99.1481 364.577C101.713 362.484 105.296 362.201 108.163 363.842" fill="#2E2360"/>
<path d="M73.2171 360.579C75.9517 356.807 82.7032 355.714 86.9841 357.599C91.2651 359.485 94.3768 363.219 97.168 366.953C99.9591 370.687 102.694 374.629 106.56 377.231C110.426 379.834 115.838 380.777 119.704 378.155C122.194 376.307 123.816 373.497 124.174 370.423C124.513 367.368 124.306 364.275 123.552 361.296C122.628 356.902 121.119 352.319 117.611 349.547C113.688 346.435 108.276 346.284 103.278 346.454C97.5263 346.416 91.812 347.284 86.3618 349.056C80.6664 351.074 75.9517 355.204 73.2171 360.598" fill="#5238A0"/>
<path d="M121.138 426.377C121.138 426.377 121.1 426.226 121.119 426.151C121.119 425.962 121.1 425.755 121.081 425.472C121.062 424.85 121.025 423.982 120.987 422.87C120.93 420.569 120.836 417.325 120.704 413.327C120.572 409.291 120.421 404.501 120.119 399.183C119.818 393.865 119.422 388.019 118.611 381.927C118.271 378.966 117.686 376.024 116.876 373.158C116.046 370.518 114.971 367.934 113.67 365.482C112.5 363.257 111.142 361.126 109.615 359.127C108.276 357.392 106.805 355.77 105.202 354.28C102.863 352.13 100.223 350.32 97.3754 348.943C96.8662 348.717 96.4136 348.472 96.0176 348.321L94.9992 347.925L94.3768 347.661C94.3768 347.661 94.2259 347.604 94.1694 347.567C94.2448 347.567 94.3202 347.585 94.3957 347.623L95.0369 347.831L96.0741 348.189C96.489 348.34 96.9416 348.566 97.4508 348.774C100.374 350.113 103.052 351.885 105.428 354.035C107.05 355.525 108.559 357.147 109.935 358.901C111.482 360.9 112.877 363.05 114.047 365.294C115.367 367.764 116.461 370.348 117.309 373.026C118.139 375.911 118.724 378.872 119.063 381.871C119.874 387.981 120.251 393.846 120.534 399.164C120.817 404.482 120.93 409.291 121.025 413.327C121.119 417.363 121.138 420.625 121.157 422.888V425.491C121.157 425.774 121.157 425.981 121.157 426.17C121.157 426.245 121.157 426.321 121.138 426.396" fill="#263238"/>
<path d="M124.891 431.092C124.4 429.621 124.004 428.131 123.74 426.604C123.024 422.436 122.854 418.193 123.269 413.987C123.91 407.745 125.249 401.616 127.248 395.675C129.398 388.943 132.302 381.739 134.792 374.007C136.017 370.254 137.036 366.425 137.809 362.54C138.507 358.92 138.997 355.28 139.299 351.602C139.77 345.379 139.883 339.137 139.638 332.895C139.45 327.557 139.167 323.258 138.997 320.278C138.903 318.807 138.846 317.657 138.79 316.846C138.79 316.469 138.752 316.186 138.752 315.959C138.752 315.865 138.752 315.752 138.752 315.658C138.771 315.752 138.79 315.865 138.79 315.959C138.809 316.186 138.846 316.469 138.884 316.846C138.959 317.657 139.054 318.807 139.167 320.278C139.393 323.258 139.733 327.557 139.959 332.895C140.261 339.137 140.185 345.398 139.733 351.64C139.45 355.336 138.959 358.995 138.262 362.635C137.488 366.538 136.489 370.386 135.244 374.157C132.736 381.908 129.813 389.112 127.663 395.807C125.645 401.71 124.287 407.82 123.589 414.025C123.156 418.211 123.269 422.436 123.91 426.585C124.174 428.056 124.4 429.187 124.608 429.942C124.702 430.3 124.759 430.583 124.815 430.809C124.853 430.903 124.872 431.017 124.872 431.111" fill="#263238"/>
<path d="M150.841 435.826H101.713L100.581 426.377H150.822V435.826H150.841Z" fill="#455A64"/>
<path d="M106.993 434.751L113.141 463.114H139.827L145.579 434.751H106.993Z" fill="#455A64"/>
<path d="M150.841 435.826C150.841 435.958 140.034 436.033 126.72 435.995C113.406 435.958 102.599 435.826 102.599 435.694C102.599 435.562 113.406 435.486 126.72 435.524C140.034 435.562 150.841 435.694 150.841 435.826Z" fill="#455A64"/>
<path d="M151.274 435.882C151.274 436.014 140.223 436.108 126.607 436.108C112.991 436.108 101.92 435.995 101.92 435.882C101.92 435.769 112.972 435.656 126.607 435.656C140.242 435.656 151.274 435.769 151.274 435.882Z" fill="#263238"/>
</g>
<mask id="mask10_48_1317" style="mask-type:luminance" maskUnits="userSpaceOnUse" x="14" y="0" width="476" height="465">
<path d="M490 0H14V465H490V0Z" fill="white"/>
</mask>
<g mask="url(#mask10_48_1317)">
<path d="M411.434 464.717C411.434 464.868 308.049 464.981 180.543 464.981C53.0003 464.981 -50.3656 464.868 -50.3656 464.717C-50.3656 464.566 53.0003 464.453 180.543 464.453C308.087 464.453 411.434 464.566 411.434 464.717Z" fill="#263238"/>
</g>
</g>
</g>
<defs>
<clipPath id="clip0_48_1317">
<rect width="476" height="465" fill="white" transform="translate(14)"/>
</clipPath>
</defs>
</svg>
