<svg width="523" height="588" viewBox="0 0 523 588" fill="none" xmlns="http://www.w3.org/2000/svg">
<path fill-rule="evenodd" clip-rule="evenodd" d="M64.4482 331.821C41.981 244.719 8.37347 137.775 83.5118 88.5119C159.327 38.8053 245.124 110.871 316.97 166.261C399.246 229.691 511.949 295.982 481.46 395.308C447.1 507.241 316.679 561.643 201.009 544.033C109.159 530.049 87.6788 421.884 64.4482 331.821Z" fill="#F1EFF5"/>
<g clip-path="url(#clip0_70_269)">
<mask id="mask0_70_269" style="mask-type:luminance" maskUnits="userSpaceOnUse" x="0" y="94" width="465" height="392">
<path d="M465 94H0V486H465V94Z" fill="white"/>
</mask>
<g mask="url(#mask0_70_269)">
<mask id="mask1_70_269" style="mask-type:luminance" maskUnits="userSpaceOnUse" x="0" y="94" width="465" height="392">
<path d="M465 94H0V486H465V94Z" fill="white"/>
</mask>
<g mask="url(#mask1_70_269)">
<path d="M374.013 281.548C373.448 282.511 372.716 283.389 371.858 284.121C369.535 286.193 366.544 287.406 363.426 287.531C361.272 287.636 359.117 287.218 357.171 286.339C354.911 285.314 352.966 283.703 351.543 281.653C349.953 279.394 349.095 276.716 349.032 273.975C348.886 267.887 352.756 262.427 358.552 260.524C361.167 259.666 363.97 259.582 366.627 260.314C369.012 260.984 371.188 262.281 372.904 264.08C374.389 265.628 375.498 267.532 376.126 269.582C377.046 272.574 376.9 275.774 375.707 278.661C375.31 279.707 374.724 280.691 373.992 281.548C373.908 281.506 374.661 280.544 375.414 278.557C376.46 275.733 376.502 272.615 375.582 269.749C374.201 265.461 370.749 262.176 366.418 261.005C363.908 260.335 361.23 260.398 358.761 261.235C353.3 263.034 349.66 268.201 349.765 273.933C349.807 276.548 350.622 279.08 352.087 281.234C354.639 284.937 358.886 287.092 363.385 286.967C366.397 286.883 369.305 285.795 371.628 283.87C373.259 282.49 373.908 281.465 373.992 281.527" fill="#E0E0E0"/>
<path d="M383.218 297.155C383.365 297.196 383.532 297.238 383.657 297.301L384.996 297.824L390.29 299.958L390.143 300L397.382 289.644V289.895L392.277 284.247L392.193 284.142L392.235 284.017C393.177 281.444 393.783 278.766 394.014 276.046V275.9L394.181 275.837L401.231 272.908L401.064 273.222C400.374 269.31 399.662 265.147 398.909 260.775L399.202 261.026L391.566 260.628H391.377L391.294 260.44C390.164 257.971 388.699 255.649 386.942 253.557L386.817 253.411L386.9 253.223L389.808 246.172L389.934 246.591L379.62 239.311H380.059L374.389 244.394L374.222 244.541L374.013 244.457C371.46 243.516 368.782 242.909 366.083 242.658H365.853L365.77 242.428L362.841 235.378L363.259 235.608L350.811 237.721L351.125 237.365C350.999 239.771 350.853 242.365 350.727 245.001V245.231L350.497 245.336C348.028 246.465 345.706 247.93 343.614 249.666C343.446 249.687 344.011 249.603 343.216 249.729H343.174L343.112 249.687L343.007 249.645L342.777 249.562L342.338 249.373L341.459 248.997L339.681 248.264L336.166 246.8L336.626 246.675L329.324 256.988V256.507L334.387 262.176L334.534 262.344L334.45 262.553C333.509 265.105 332.902 267.783 332.651 270.482V270.712L332.421 270.795L325.37 273.703L325.6 273.306L327.713 285.753L327.379 285.46L334.994 285.879H335.203L335.287 286.088C336.417 288.577 337.881 290.9 339.618 292.992L339.743 293.138L339.66 293.326L336.731 300.376L336.626 300L346.919 307.322H346.543L352.233 302.259L352.359 302.155L352.526 302.217C355.079 303.18 357.757 303.786 360.476 304.037H360.623L360.686 304.184L363.573 311.255L363.322 311.108L375.791 309.037L375.645 309.205C375.833 306.15 375.979 303.661 376.105 301.59V301.506H376.168C378.05 300.627 379.85 299.602 381.544 298.41L382.779 297.51C382.904 297.406 383.051 297.301 383.197 297.217C383.072 297.343 382.967 297.468 382.821 297.573C382.569 297.782 382.172 298.117 381.628 298.535C379.954 299.791 378.176 300.858 376.293 301.736L376.356 301.632C376.251 303.703 376.147 306.213 376 309.267V309.414H375.854L363.405 311.631H363.217L363.154 311.485L360.204 304.435L360.414 304.581C357.652 304.351 354.911 303.724 352.296 302.761L352.589 302.719L346.919 307.845L346.752 308.012L346.564 307.866L336.229 300.586L336.019 300.439L336.124 300.188L339.032 293.138L339.095 293.473C337.295 291.339 335.81 288.975 334.659 286.423L334.952 286.632L327.337 286.234H327.044L327.002 285.942C326.312 281.904 325.6 277.741 324.868 273.494L324.826 273.201L325.098 273.097L332.149 270.168L331.919 270.482C332.17 267.699 332.776 264.959 333.76 262.344L333.843 262.72L328.739 257.051L328.529 256.821L328.697 256.57L335.998 246.256L336.187 246.005L336.48 246.131L339.994 247.595L341.773 248.327L342.651 248.704L343.091 248.892L343.321 248.976L343.425 249.018H343.488L343.509 249.059L343.112 249.122C345.246 247.344 347.631 245.838 350.162 244.687L349.932 245.022C350.078 242.407 350.204 239.813 350.35 237.386V237.072L350.664 237.03L363.113 234.897L363.405 234.855L363.531 235.127L366.439 242.177L366.125 241.947C368.908 242.198 371.628 242.825 374.264 243.788L373.887 243.871L379.578 238.767L379.787 238.579L380.017 238.746L390.31 246.047L390.541 246.214L390.436 246.465L387.507 253.515L387.465 253.181C389.243 255.315 390.729 257.699 391.88 260.231L391.608 260.042L399.223 260.461H399.474L399.516 260.712C400.248 265.084 400.959 269.247 401.629 273.159L401.671 273.369L401.462 273.452L394.39 276.36L394.557 276.151C394.306 278.912 393.679 281.632 392.695 284.247L392.654 284.017L397.738 289.707L397.842 289.833L397.758 289.958L390.394 300.23L390.331 300.314L390.248 300.272L385.038 298.054L383.699 297.468C383.532 297.406 383.385 297.322 383.239 297.238" fill="#E0E0E0"/>
<path fill-rule="evenodd" clip-rule="evenodd" d="M371.084 203.14C368.092 205.629 364.765 207.721 361.23 209.332L360.665 220.106L343.049 223.119L338.927 213.14C335.036 212.784 331.228 211.926 327.567 210.567L319.533 217.784L304.951 207.47L309.093 197.512C306.604 194.521 304.512 191.195 302.901 187.659L292.126 187.073L289.113 169.459L299.093 165.337C299.449 161.446 300.306 157.639 301.666 153.978L294.448 145.944L304.763 131.363L314.742 135.505C317.734 133.016 321.04 130.924 324.596 129.292L325.161 118.518L342.777 115.506L346.898 125.485C350.79 125.84 354.598 126.698 358.259 128.058L366.293 120.84L380.875 131.154L376.732 141.112C379.222 144.104 381.314 147.43 382.946 150.965L393.721 151.53L396.733 169.145L386.754 173.266C386.398 177.157 385.54 180.965 384.18 184.626L391.398 192.659L381.084 207.24L371.105 203.119L371.084 203.14ZM358.07 181.069C364.18 172.429 362.129 160.463 353.489 154.354C344.848 148.246 332.881 150.296 326.772 158.936C320.663 167.576 322.713 179.542 331.354 185.651C339.994 191.759 351.961 189.709 358.07 181.069Z" fill="#E0E0E0"/>
<path fill-rule="evenodd" clip-rule="evenodd" d="M149.965 199.897C152.475 202.596 154.63 205.608 156.346 208.872L166.556 208.83L170.342 225.273L161.158 229.708C161.032 233.39 160.426 237.051 159.338 240.566L166.577 247.741L157.622 262.051L147.998 258.683C145.299 261.193 142.287 263.348 139.044 265.063L139.086 275.272L122.642 279.059L118.206 269.875C114.524 269.749 110.863 269.143 107.348 268.055L100.172 275.293L85.8616 266.339L89.23 256.716C86.7194 254.017 84.5645 251.005 82.8489 247.741L72.6393 247.783L68.8525 231.319L78.037 226.884C78.1625 223.202 78.7692 219.541 79.8572 216.027L72.6183 208.851L81.5727 194.542L91.1966 197.91C93.8954 195.4 96.9081 193.245 100.151 191.529L100.109 181.32L116.553 177.534L120.989 186.718C124.671 186.843 128.332 187.45 131.847 188.538L139.023 181.299L153.354 190.253L149.986 199.876L149.965 199.897ZM129.838 213.37C121.365 208.077 110.172 210.65 104.879 219.123C99.5861 227.595 102.159 238.788 110.633 244.08C119.106 249.373 130.299 246.8 135.592 238.327C140.885 229.855 138.312 218.663 129.838 213.37Z" fill="#E0E0E0"/>
<path fill-rule="evenodd" clip-rule="evenodd" d="M159.903 130.694C161.304 132.179 162.476 133.853 163.438 135.652H169.087L171.179 144.731L166.095 147.179C166.033 149.208 165.698 151.237 165.091 153.183L169.108 157.158L164.15 165.086L158.815 163.224C157.329 164.626 155.656 165.798 153.856 166.76V172.408L144.776 174.5L142.329 169.417C140.299 169.354 138.27 169.019 136.324 168.413L132.349 172.429L124.42 167.492L126.282 162.158C124.88 160.672 123.709 158.999 122.746 157.199H117.097L115.005 148.12L120.089 145.673C120.152 143.643 120.487 141.614 121.093 139.668L117.097 135.694L122.056 127.765L127.391 129.627C128.876 128.225 130.55 127.033 132.349 126.091V120.443L141.429 118.351L143.877 123.435C145.906 123.497 147.936 123.832 149.881 124.439L153.856 120.422L161.786 125.38L159.944 130.715L159.903 130.694ZM148.751 138.141C144.065 135.213 137.872 136.614 134.922 141.321C131.993 146.007 133.395 152.2 138.102 155.149C142.789 158.078 148.982 156.676 151.932 151.969C154.861 147.283 153.438 141.091 148.751 138.162" fill="#E0E0E0"/>
<path d="M80.6522 147.534C80.8195 147.597 80.966 147.681 81.1124 147.785C81.5309 148.057 81.9284 148.371 82.284 148.727C83.6021 150.045 84.4389 151.781 84.6272 153.664C84.7528 154.961 84.5854 156.258 84.1251 157.471C83.5812 158.873 82.6815 160.086 81.5099 161.007C80.2128 162.032 78.6437 162.639 76.9909 162.764C73.3296 163.057 69.9195 160.923 68.5805 157.513C67.9738 155.965 67.8273 154.292 68.183 152.681C68.4968 151.216 69.2081 149.877 70.2124 148.79C71.0911 147.848 72.1999 147.116 73.4133 146.677C75.1707 146.028 77.0955 146.007 78.8738 146.614C79.355 146.76 79.8153 146.991 80.2337 147.242C80.3802 147.325 80.5266 147.43 80.6522 147.534C80.6312 147.597 80.0245 147.179 78.8111 146.802C77.0746 146.279 75.2335 146.363 73.5389 147.011C71.0283 147.974 69.1872 150.149 68.6432 152.785C68.3294 154.313 68.455 155.902 69.0408 157.346C70.317 160.547 73.497 162.534 76.9281 162.283C78.4763 162.178 79.9618 161.593 81.1961 160.651C83.3301 158.999 84.4599 156.405 84.2506 153.727C84.1042 151.928 83.351 150.233 82.1376 148.894C81.2589 147.953 80.6312 147.597 80.6731 147.555" fill="#E0E0E0"/>
<path d="M89.6902 141.489C89.6902 141.489 89.7321 141.3 89.7739 141.217L90.0459 140.401L91.1338 137.158L91.1757 137.263L84.7318 133.288H84.8992L81.6982 136.53L81.6355 136.593H81.5518C79.9827 136.091 78.3508 135.819 76.7189 135.777H76.6143L76.5725 135.694L74.564 131.572L74.7732 131.677L67.388 133.392L67.5553 133.204C67.5553 134.627 67.5553 136.175 67.5763 137.786V137.911L67.4717 137.974C66.0281 138.748 64.6891 139.689 63.4966 140.819L63.392 140.903L63.2664 140.861L58.9357 139.355L59.2077 139.271L55.2117 145.693L55.1699 145.401L58.4127 148.622L58.5173 148.727L58.4754 148.873C57.9942 150.442 57.7223 152.053 57.6804 153.685V153.831L57.5549 153.894L53.4334 155.882L53.5589 155.589L55.2535 162.973L55.0025 162.764H59.5843H59.7516L59.8144 162.911C60.5676 164.354 61.53 165.693 62.6388 166.865C62.4087 165.484 63.3501 164.166 64.7519 163.936C66.1327 163.706 67.4507 164.647 67.6809 166.049C67.911 167.429 66.9695 168.747 65.5678 168.977C64.2916 169.187 63.0363 168.392 62.7016 167.137V167.199V167.262L62.6388 167.388L62.5551 167.66L62.3668 168.203L61.9902 169.291L61.2371 171.446L61.1325 171.132L67.5553 175.149L67.2415 175.191L70.4634 171.948L70.568 171.844L70.7145 171.885C72.2836 172.367 73.8945 172.638 75.5264 172.701H75.6729L75.7356 172.827L77.7232 176.948L77.4512 176.822L84.8365 175.128L84.6482 175.358C84.6482 173.81 84.6482 172.283 84.6482 170.777V170.651L84.7737 170.588C86.2173 169.835 87.5562 168.873 88.7488 167.764L88.8534 167.68L88.9789 167.722L93.2887 169.229L93.0377 169.312L97.0755 162.911V163.162L93.8536 159.94L93.7699 159.856L93.8118 159.752C94.2929 158.183 94.5649 156.572 94.6277 154.94V154.836L94.7114 154.773L98.8329 152.806L98.7492 152.974L97.0755 145.589L97.1801 145.673H92.5983H92.5565V145.631C91.9707 144.522 91.2803 143.497 90.5271 142.514L89.9413 141.802C89.9413 141.802 89.8158 141.656 89.753 141.572C89.8367 141.635 89.8994 141.698 89.9831 141.781C90.1296 141.928 90.3388 142.158 90.5898 142.472C91.3849 143.434 92.0962 144.459 92.682 145.568L92.5983 145.526L97.1801 145.484H97.2638V145.568L99.0212 152.932V153.057L98.9375 153.12L94.816 155.128L94.8997 154.982C94.8578 156.656 94.5858 158.308 94.0837 159.898L94.0419 159.71L97.3056 162.932L97.4102 163.036L97.3266 163.162L93.3306 169.584L93.2469 169.731L93.0795 169.668L88.7488 168.162L88.9789 168.12C87.7655 169.27 86.3846 170.233 84.9201 171.028L85.0457 170.818C85.0457 172.325 85.0457 173.852 85.0666 175.4V175.588L84.8783 175.63L77.493 177.346L77.3047 177.387L77.221 177.22L75.2335 173.099L75.4427 173.245C73.769 173.182 72.1162 172.91 70.5053 172.429L70.7563 172.367L67.5344 175.609L67.388 175.756L67.2206 175.651L60.7977 171.634L60.6303 171.53L60.6931 171.341L61.4463 169.187L61.8229 168.099L62.0112 167.555L62.0948 167.283L62.1367 167.157V167.095L62.1785 167.053C62.2831 167.555 62.1995 167.178 62.2413 167.283C61.0906 166.07 60.1282 164.689 59.3332 163.204L59.5634 163.35H54.9816H54.7723L54.7305 163.141L53.0359 155.756L52.994 155.568L53.1823 155.484L57.3038 153.497L57.1574 153.706C57.2201 152.032 57.4921 150.38 57.9942 148.769L58.057 149.02L54.8142 145.798L54.6887 145.673L54.7933 145.505L58.8102 139.083L58.9148 138.936L59.0822 138.999L63.392 140.505L63.1618 140.547C64.3962 139.417 65.777 138.434 67.2624 137.66L67.1578 137.848V133.1L67.3252 133.058L74.7105 131.384L74.8569 131.342L74.9197 131.468L76.8863 135.589L76.7399 135.484C78.4136 135.547 80.0664 135.819 81.6564 136.321L81.5099 136.363L84.7528 133.121L84.8365 133.058L84.9201 133.121L91.3221 137.179L91.3849 137.221V137.284L90.1923 140.463L89.8785 141.279C89.8785 141.279 89.8158 141.468 89.753 141.551" fill="#E0E0E0"/>
</g>
<mask id="mask2_70_269" style="mask-type:luminance" maskUnits="userSpaceOnUse" x="0" y="94" width="465" height="392">
<path d="M465 94H0V486H465V94Z" fill="white"/>
</mask>
<g mask="url(#mask2_70_269)">
<path d="M315.182 481.063L183.858 480.456C168.062 480.393 155.3 467.528 155.363 451.733L156.743 122.493C156.827 106.698 169.694 93.9372 185.49 94L316.834 94.6067C332.63 94.6904 345.371 107.535 345.308 123.33L343.928 452.57C343.865 468.364 330.998 481.126 315.202 481.063" fill="#455A64"/>
<path d="M316.667 105.966L291.206 105.841C287.712 105.904 284.929 108.79 284.992 112.284V116.907C285.034 120.401 282.251 123.288 278.757 123.351L229.132 123.121C225.638 123.016 222.897 120.129 222.981 116.635V112.012C223.085 108.519 220.324 105.632 216.851 105.527L207.896 105.485L185.615 105.381C174.548 105.339 165.53 114.251 165.489 125.317L164.129 446.691C164.087 457.758 172.999 466.754 184.067 466.816L315.14 467.423C326.207 467.465 335.224 458.553 335.266 447.486L336.626 126.112C336.668 115.046 327.755 106.05 316.688 105.987" fill="#FAFAFA"/>
<path d="M278.339 262.469H226.893C221.558 262.469 217.248 258.139 217.248 252.825V201.383C217.248 196.048 221.579 191.739 226.893 191.739H278.339C283.674 191.739 287.984 196.069 287.984 201.383V252.825C287.984 258.16 283.653 262.469 278.339 262.469Z" fill="#5238A0"/>
<path d="M198.565 217.47L200.281 220.922L204.089 221.466L201.327 224.165L201.976 227.972L198.565 226.173L195.155 227.972L195.804 224.165L193.042 221.466L196.85 220.922L198.565 217.47Z" fill="#5238A0"/>
<path d="M308.801 183.203L310.119 185.881L313.068 186.299L310.934 188.391L311.437 191.32L308.801 189.939L306.164 191.32L306.667 188.391L304.533 186.299L307.482 185.881L308.801 183.203Z" fill="#5238A0"/>
<path d="M306.206 247.302L307.357 248.85L309.282 248.787L308.152 250.356L308.801 252.177L306.959 251.591L305.432 252.783V250.859L303.821 249.771L305.641 249.164L306.185 247.323L306.206 247.302Z" fill="#5238A0"/>
<path d="M197.268 194.521C196.264 194.521 195.469 193.705 195.469 192.722C195.469 191.738 196.285 190.923 197.268 190.923C198.252 190.923 199.068 191.738 199.068 192.722C199.068 193.726 198.252 194.521 197.268 194.521ZM197.268 191.906C196.808 191.906 196.452 192.261 196.452 192.722C196.452 193.182 196.808 193.538 197.268 193.538C197.729 193.538 198.084 193.182 198.084 192.722C198.084 192.261 197.729 191.906 197.268 191.906Z" fill="#5238A0"/>
<path d="M299.26 219.458C298.256 219.458 297.461 218.642 297.461 217.658C297.461 216.675 298.277 215.859 299.26 215.859C300.244 215.859 301.06 216.675 301.06 217.658C301.06 218.663 300.244 219.458 299.26 219.458ZM299.26 216.843C298.8 216.843 298.444 217.198 298.444 217.658C298.444 218.119 298.8 218.474 299.26 218.474C299.721 218.474 300.076 218.119 300.076 217.658C300.076 217.198 299.721 216.843 299.26 216.843Z" fill="#5238A0"/>
<path d="M275.703 181.383C274.699 181.383 273.904 180.567 273.904 179.584C273.904 178.601 274.72 177.785 275.703 177.785C276.686 177.785 277.502 178.601 277.502 179.584C277.502 180.588 276.686 181.383 275.703 181.383ZM275.703 178.768C275.243 178.768 274.887 179.124 274.887 179.584C274.887 180.044 275.243 180.4 275.703 180.4C276.163 180.4 276.519 180.044 276.519 179.584C276.519 179.124 276.163 178.768 275.703 178.768Z" fill="#5238A0"/>
<path d="M188.753 251.34C188.753 252.072 188.167 252.658 187.435 252.658C186.703 252.658 186.117 252.072 186.117 251.34C186.117 250.608 186.703 250.022 187.435 250.022C188.167 250.022 188.753 250.608 188.753 251.34Z" fill="#5238A0"/>
<path d="M249.174 270.042C249.174 270.774 248.589 271.36 247.856 271.36C247.124 271.36 246.538 270.774 246.538 270.042C246.538 269.31 247.124 268.724 247.856 268.724C248.589 268.724 249.174 269.31 249.174 270.042Z" fill="#5238A0"/>
<path d="M236.475 166.279C236.475 167.011 235.889 167.597 235.157 167.597C234.425 167.597 233.839 167.011 233.839 166.279C233.839 165.547 234.425 164.961 235.136 164.961C235.868 164.961 236.454 165.547 236.454 166.258" fill="#5238A0"/>
<path d="M221.516 369.475V363.931H222.541V369.433C222.541 371.735 223.629 372.781 225.512 372.781C227.395 372.781 228.483 371.735 228.483 369.433V363.931H229.487V369.475C229.613 371.672 227.918 373.555 225.721 373.68C223.525 373.806 221.642 372.111 221.516 369.915C221.516 369.768 221.516 369.622 221.516 369.475Z" fill="#263238"/>
<path d="M240.157 367.237C240.157 369.308 238.672 370.542 236.203 370.542H233.609V373.597H232.584V363.911H236.224C238.693 363.911 240.178 365.166 240.178 367.237M239.153 367.237C239.153 365.689 238.128 364.789 236.182 364.789H233.609V369.643H236.182C238.128 369.643 239.153 368.764 239.153 367.237Z" fill="#263238"/>
<path d="M242.354 363.931H246.308C248.986 363.743 251.308 365.772 251.497 368.45C251.685 371.128 249.656 373.45 246.978 373.638C246.748 373.638 246.538 373.638 246.308 373.638H242.354V363.952V363.931ZM246.245 372.739C248.442 372.927 250.367 371.316 250.555 369.12C250.744 366.923 249.133 364.998 246.936 364.81C246.706 364.81 246.476 364.81 246.245 364.81H243.379V372.739H246.245Z" fill="#263238"/>
<path d="M259.74 371.023H254.342L253.17 373.617H252.103L256.539 363.931H257.543L261.978 373.617H260.89L259.719 371.023H259.74ZM259.363 370.187L257.041 364.977L254.719 370.187H259.363Z" fill="#263238"/>
<path d="M264.97 364.81H261.56V363.931H269.405V364.81H265.995V373.617H264.97V364.81Z" fill="#263238"/>
<path d="M277.879 372.739V373.617H271.016V363.931H277.669V364.81H272.042V368.262H277.063V369.141H272.042V372.739H277.879Z" fill="#263238"/>
<path d="M262.188 214.709C263.255 215.504 264.217 216.445 265.033 217.491L268.673 216.822L271.079 222.449L268.087 224.625C268.276 225.943 268.297 227.282 268.129 228.621L271.163 230.713L268.882 236.382L265.242 235.796C264.447 236.863 263.506 237.825 262.46 238.641L263.129 242.281L257.501 244.687L255.325 241.696C254.007 241.884 252.668 241.905 251.329 241.737L249.237 244.771L243.567 242.491L244.153 238.85C243.086 238.055 242.124 237.114 241.308 236.068L237.668 236.738L235.262 231.11L238.253 228.934C238.065 227.616 238.044 226.278 238.212 224.939L235.178 222.847L237.458 217.177L241.099 217.763C241.894 216.696 242.835 215.734 243.902 214.918L243.233 211.278L248.861 208.872L251.036 211.864C252.354 211.675 253.693 211.654 255.032 211.822L257.125 208.788L262.794 211.069L262.208 214.73L262.188 214.709ZM255.869 220.796C252.501 219.437 248.693 221.068 247.333 224.437C245.973 227.805 247.605 231.612 250.974 232.972C254.342 234.332 258.15 232.7 259.51 229.332C260.87 225.964 259.238 222.156 255.869 220.796Z" fill="#FAFAFA"/>
<path d="M255.869 220.796C256.392 220.964 256.873 221.194 257.334 221.529C258.568 222.386 259.468 223.662 259.886 225.106C260.179 226.11 260.221 227.177 260.033 228.202C259.802 229.374 259.259 230.482 258.463 231.382C257.585 232.386 256.413 233.097 255.116 233.432C252.271 234.185 249.258 232.972 247.71 230.462C246.999 229.332 246.664 228.014 246.706 226.675C246.747 225.483 247.124 224.311 247.773 223.286C248.338 222.407 249.112 221.675 250.011 221.152C251.308 220.378 252.836 220.085 254.342 220.336C254.886 220.399 255.409 220.566 255.89 220.817C255.89 220.859 255.346 220.608 254.321 220.483C252.877 220.315 251.413 220.629 250.158 221.382C248.296 222.512 247.124 224.499 247.061 226.675C247.019 227.93 247.354 229.185 248.024 230.252C249.488 232.616 252.334 233.767 255.011 233.056C256.225 232.742 257.334 232.072 258.192 231.152C259.656 229.541 260.2 227.303 259.635 225.19C259.259 223.767 258.422 222.533 257.25 221.654C256.413 221.047 255.869 220.838 255.89 220.817" fill="#FAFAFA"/>
<path d="M262.188 214.709C262.188 214.709 262.188 214.562 262.208 214.479L262.313 213.788C262.397 213.161 262.543 212.24 262.711 211.048L262.752 211.11L257.062 208.872L257.166 208.83L255.074 211.885L255.032 211.947H254.97C253.652 211.801 252.334 211.801 251.015 212.01H250.932L250.89 211.968L248.714 208.977L248.881 209.018L243.254 211.424L243.337 211.257L244.007 214.897V214.981L243.944 215.043C242.898 215.859 241.977 216.801 241.182 217.868L241.12 217.951H241.015L237.375 217.345L237.563 217.24L235.283 222.909L235.22 222.7L238.253 224.792L238.337 224.855V224.96C238.17 226.278 238.191 227.595 238.379 228.893V228.997L238.295 229.06L235.303 231.236L235.366 231.005L237.772 236.633L237.563 236.528L241.203 235.859H241.308L241.371 235.922C242.187 236.968 243.128 237.888 244.174 238.683C244.174 238.683 244.09 238.495 244.258 238.871V239.102L244.195 239.332L244.111 239.792L243.965 240.712L243.672 242.532L243.567 242.323L249.237 244.603L249.007 244.666L251.099 241.633L251.162 241.549H251.267C252.585 241.717 253.903 241.717 255.2 241.528H255.304L255.367 241.612L257.543 244.603L257.334 244.541L262.962 242.156L262.857 242.344C262.627 241.11 262.418 239.896 262.188 238.704V238.599L262.25 238.537C263.296 237.721 264.217 236.779 265.012 235.712L265.075 235.629H265.179L268.82 236.235L268.652 236.34L270.954 230.671L270.995 230.838L267.962 228.725L267.899 228.683V228.6C268.066 227.282 268.046 225.964 267.857 224.646V224.562L267.899 224.52L270.891 222.365L270.849 222.491C269.928 220.315 269.133 218.453 268.464 216.863L268.548 216.905L264.907 217.554H264.845C264.238 216.738 263.547 216.006 262.794 215.336L262.229 214.855C262.229 214.855 262.104 214.751 262.041 214.688C262.104 214.73 262.188 214.771 262.25 214.834C262.376 214.939 262.585 215.085 262.836 215.294C263.61 215.943 264.322 216.654 264.949 217.449H264.886L268.527 216.738H268.59L268.61 216.78L271.037 222.386L271.079 222.47L271.016 222.533L268.025 224.709L268.066 224.583C268.255 225.922 268.276 227.261 268.129 228.6L268.066 228.474L271.121 230.566L271.205 230.629L271.163 230.733L268.882 236.403L268.841 236.507H268.715L265.075 235.901L265.221 235.838C264.405 236.926 263.464 237.888 262.397 238.725L262.46 238.558L263.129 242.198V242.344L263.024 242.407L257.397 244.813L257.271 244.875L257.187 244.75L255.011 241.758L255.179 241.842C253.84 242.03 252.48 242.051 251.141 241.884L251.308 241.8L249.216 244.834L249.133 244.959L248.986 244.896L243.316 242.616L243.17 242.553V242.407L243.484 240.587L243.63 239.666L243.714 239.206L243.756 238.976V238.871V238.809V238.746L243.839 238.934C242.752 238.118 241.789 237.177 240.952 236.11L241.141 236.173L237.5 236.842H237.354L237.291 236.738L234.885 231.11L234.822 230.964L234.948 230.88L237.94 228.704L237.856 228.872C237.668 227.533 237.647 226.173 237.814 224.834L237.898 225.001L234.864 222.888L234.76 222.805L234.801 222.679L237.082 217.01L237.124 216.884H237.249L240.89 217.491L240.743 217.554C241.559 216.466 242.5 215.504 243.567 214.688L243.505 214.834C243.275 213.558 243.044 212.324 242.856 211.194V211.069L242.94 211.027L248.568 208.642L248.672 208.6L248.735 208.684L250.89 211.675L250.764 211.633C252.103 211.445 253.442 211.424 254.781 211.613L254.677 211.654L256.79 208.621L256.832 208.558H256.894L262.564 210.901H262.606V210.964L262.146 213.663C262.083 213.956 262.041 214.186 262.02 214.353C262.02 214.437 261.999 214.52 261.978 214.583" fill="#FAFAFA"/>
<path d="M299.428 285.251H227.186V337.509H299.428V285.251Z" fill="#263238"/>
<path d="M266.435 285.251H203.461V337.509H266.435V285.251Z" fill="#455A64"/>
<path d="M203.44 285.251L192.268 274.08H220.596L231.119 285.251H203.44Z" fill="#455A64"/>
<path d="M266.435 285.251L279.301 274.08H314.575L299.428 285.251H266.435Z" fill="#455A64"/>
<path d="M266.435 285.251C266.435 285.398 252.334 285.502 234.948 285.502C217.562 285.502 203.461 285.398 203.461 285.251C203.461 285.105 217.562 285 234.948 285C252.334 285 266.435 285.105 266.435 285.251Z" fill="#263238"/>
<path d="M310.767 403.387H194.486C191.703 403.387 189.465 401.148 189.465 398.366V398.136C189.465 395.353 191.703 393.115 194.486 393.115H310.767C313.55 393.115 315.788 395.353 315.788 398.136V398.387C315.788 401.169 313.55 403.408 310.767 403.408" fill="#E0E0E0"/>
<path d="M251.455 403.387H194.465C191.682 403.387 189.444 401.148 189.444 398.366V398.136C189.444 395.353 191.682 393.115 194.465 393.115H251.455C254.237 393.115 256.476 395.353 256.476 398.136V398.387C256.476 401.169 254.237 403.408 251.455 403.408" fill="#5238A0"/>
<path d="M244.258 428.637C244.258 430.75 242.793 432.382 239.76 432.382C238.128 432.445 236.538 431.859 235.324 430.792L235.952 429.788C236.977 430.75 238.358 431.252 239.76 431.21C241.873 431.21 242.982 430.185 242.982 428.679C242.982 427.089 241.998 426.106 238.839 426.106H236.203L236.831 419.893H243.609V421.022H237.94L237.521 424.976H239.111C242.856 424.976 244.258 426.441 244.258 428.637Z" fill="#5238A0"/>
<path d="M254.175 428.637C254.175 430.75 252.71 432.382 249.676 432.382C248.045 432.445 246.455 431.859 245.241 430.792L245.869 429.788C246.894 430.75 248.275 431.252 249.676 431.21C251.79 431.21 252.898 430.185 252.898 428.679C252.898 427.089 251.915 426.106 248.756 426.106H246.12L246.747 419.893H253.526V421.022H247.856L247.438 424.976H249.028C252.773 424.976 254.175 426.441 254.175 428.637Z" fill="#5238A0"/>
<path d="M255.451 423.177C255.451 421.169 256.581 419.809 258.254 419.809C259.928 419.809 261.058 421.127 261.058 423.177C261.058 425.227 259.907 426.545 258.254 426.545C256.601 426.545 255.451 425.206 255.451 423.177ZM260.158 423.177C260.158 421.566 259.405 420.604 258.254 420.604C257.104 420.604 256.35 421.566 256.35 423.177C256.35 424.788 257.104 425.75 258.254 425.75C259.405 425.75 260.158 424.788 260.158 423.177ZM265.744 419.893H266.79L258.338 432.277H257.292L265.744 419.893ZM263.045 429.014C263.045 427.005 264.196 425.646 265.849 425.646C267.502 425.646 268.652 426.985 268.652 429.014C268.652 431.043 267.522 432.382 265.849 432.382C264.175 432.382 263.045 431.043 263.045 429.014ZM267.753 429.014C267.753 427.424 266.999 426.441 265.849 426.441C264.698 426.441 263.945 427.403 263.945 429.014C263.945 430.625 264.698 431.587 265.849 431.587C266.999 431.587 267.753 430.625 267.753 429.014Z" fill="#5238A0"/>
</g>
<mask id="mask3_70_269" style="mask-type:luminance" maskUnits="userSpaceOnUse" x="0" y="94" width="465" height="392">
<path d="M465 94H0V486H465V94Z" fill="white"/>
</mask>
<g mask="url(#mask3_70_269)">
<path d="M465 480.77C465 480.916 360.895 481.021 232.521 481.021C104.147 481.021 0 480.916 0 480.77C0 480.624 104.084 480.519 232.5 480.519C360.916 480.519 464.979 480.624 464.979 480.77" fill="#263238"/>
</g>
<mask id="mask4_70_269" style="mask-type:luminance" maskUnits="userSpaceOnUse" x="0" y="94" width="465" height="392">
<path d="M465 94H0V486H465V94Z" fill="white"/>
</mask>
<g mask="url(#mask4_70_269)">
<path d="M181.452 469.494L184.297 480.373L216.119 480.08C216.119 480.08 211.767 476.795 195.783 477.025L194.235 469.494H181.473H181.452Z" fill="#FFBE9D"/>
<path d="M146.764 346.672L122.893 348.911L113.185 351.651C109.043 352.823 105.256 354.999 102.139 357.99L70.9028 387.969L65.1913 341.38L49.5839 342.739L52.1781 402.717C54.5422 410.123 61.4254 415.144 69.1873 415.144C73.8737 415.081 78.3718 413.24 81.761 409.976L104.001 389.077L101.783 416.671L94.1465 433.825L148.752 464.662C148.752 464.662 155.174 432.905 158.606 410.939C161.388 393.178 162.811 354.476 162.811 354.476L146.722 346.672H146.764Z" fill="#5238A0"/>
<path d="M161.43 353.911C161.43 353.911 173.502 358.388 176.431 367.844C179.025 376.232 187.665 423.386 187.665 423.386L196.243 473.302L178.293 473.992L157.622 388.91L161.43 353.911Z" fill="#5238A0"/>
<path d="M101.364 415.437C101.218 415.437 102.034 405.876 103.143 394.098C104.252 382.32 105.298 372.802 105.444 372.802C105.591 372.802 104.775 382.362 103.666 394.14C102.557 405.918 101.511 415.437 101.364 415.437Z" fill="#263238"/>
<path d="M141.115 391.964C141.094 392.132 141.031 392.278 140.948 392.425L140.404 393.722C140.132 394.412 139.797 395.081 139.441 395.73C139.023 396.504 138.605 397.404 137.998 398.324L137.098 399.788C136.784 400.291 136.408 400.793 136.031 401.316C135.32 402.383 134.42 403.449 133.5 404.558C129.399 409.37 124.399 413.324 118.792 416.232C117.495 416.859 116.26 417.508 115.047 417.947C114.44 418.177 113.875 418.449 113.311 418.637L111.679 419.181C110.654 419.558 109.67 419.767 108.833 419.997C108.122 420.206 107.39 420.353 106.658 420.478L105.277 420.709C105.109 420.75 104.942 420.771 104.796 420.75C104.942 420.688 105.109 420.625 105.256 420.604L106.616 420.269C107.222 420.144 107.934 419.976 108.771 419.704C109.607 419.432 110.549 419.223 111.574 418.826L113.185 418.261C113.75 418.052 114.294 417.801 114.901 417.55C116.093 417.068 117.307 416.441 118.583 415.792C124.106 412.864 129.043 408.951 133.144 404.223C134.065 403.115 134.964 402.09 135.676 401.023C136.052 400.5 136.429 400.019 136.764 399.516L137.684 398.073C138.291 397.173 138.751 396.295 139.169 395.542C139.588 394.789 139.944 394.119 140.195 393.575L140.822 392.32C140.885 392.174 140.969 392.027 141.073 391.902" fill="#263238"/>
<g opacity="0.2">
<mask id="mask5_70_269" style="mask-type:luminance" maskUnits="userSpaceOnUse" x="105" y="398" width="32" height="23">
<path d="M136.91 398.24H105.402V420.332H136.91V398.24Z" fill="white"/>
</mask>
<g mask="url(#mask5_70_269)">
<path d="M107.704 420.269C105.946 419.579 105.005 417.696 105.507 415.876C106.072 414.119 107.369 412.717 109.064 412.006C110.737 411.315 112.474 410.792 114.273 410.458C121.951 408.575 128.96 404.642 134.588 399.056C135.111 398.533 135.843 397.968 136.471 398.324C137.328 398.784 136.784 400.102 136.157 400.855C128.437 409.851 118.415 416.566 107.16 420.311" fill="black"/>
</g>
</g>
<path d="M162.225 409.035C162.057 408.721 161.932 408.366 161.869 408.031C161.66 407.361 161.388 406.399 161.074 405.207C160.426 402.822 159.61 399.496 158.773 395.814C157.936 392.132 157.266 388.785 156.827 386.337C156.618 385.123 156.451 384.14 156.346 383.45C156.262 383.094 156.241 382.739 156.241 382.383C156.388 382.718 156.492 383.073 156.534 383.429C156.702 384.203 156.932 385.165 157.183 386.274L159.275 395.709C160.112 399.328 160.844 402.592 161.43 405.123C161.681 406.232 161.89 407.194 162.057 407.989C162.162 408.345 162.225 408.7 162.225 409.056" fill="#263238"/>
<path d="M52.3455 347.216C51.8643 345.689 51.7388 344.057 51.948 342.467C52.4292 343.995 52.5547 345.626 52.3455 347.216Z" fill="#263238"/>
<path d="M56.9273 347.363C56.5089 345.71 56.4043 343.995 56.6762 342.321C57.0947 343.974 57.1993 345.689 56.9273 347.363Z" fill="#263238"/>
<path d="M61.4672 347.07C61.0279 345.229 60.9233 343.325 61.1534 341.463C61.5927 343.304 61.6973 345.208 61.4672 347.07Z" fill="#263238"/>
<path d="M70.2333 395.123C70.1705 392.362 70.4425 389.6 71.0702 386.923C71.1329 389.684 70.8609 392.445 70.2333 395.123Z" fill="#263238"/>
<path d="M181.242 468.783C181.87 470.415 182.163 472.13 182.121 473.866C181.494 472.235 181.201 470.519 181.242 468.783Z" fill="#263238"/>
<path d="M187.121 468.783C187.707 470.247 187.979 471.816 187.895 473.406C187.31 471.942 187.038 470.373 187.121 468.783Z" fill="#263238"/>
<path d="M192.728 468.218C193.23 469.912 193.523 471.649 193.607 473.406C192.854 471.795 192.54 469.996 192.728 468.218Z" fill="#263238"/>
<path d="M171.117 359.727C171.117 359.727 169.861 359.727 167.916 360.145C162.748 361.191 158.522 364.873 156.785 369.852C156.116 371.714 156.032 372.969 155.928 372.969C155.886 372.676 155.886 372.383 155.928 372.09C156.011 371.295 156.179 370.5 156.43 369.747C158.041 364.538 162.455 360.668 167.832 359.789C168.627 359.664 169.422 359.601 170.217 359.622C170.51 359.622 170.803 359.622 171.096 359.727" fill="#263238"/>
<path d="M178.502 380.019C177.539 380.521 176.556 380.939 175.531 381.274C173.669 381.985 171.054 382.885 168.146 383.806C165.238 384.726 162.581 385.437 160.635 385.918C159.61 386.232 158.543 386.441 157.476 386.567C158.48 386.149 159.505 385.814 160.551 385.563L167.999 383.303L175.405 380.919C176.41 380.542 177.456 380.228 178.502 379.998" fill="#FAFAFA"/>
<path d="M186.117 414.412C185.113 414.767 184.067 415.06 183.021 415.248C181.096 415.709 178.439 416.294 175.489 416.922C172.539 417.55 169.861 418.073 167.916 418.449C166.869 418.7 165.802 418.868 164.735 418.93C165.74 418.575 166.765 418.282 167.832 418.093C169.757 417.633 172.435 417.047 175.384 416.42C178.334 415.792 181.012 415.269 182.958 414.893C184.004 414.642 185.05 414.474 186.117 414.412Z" fill="#FAFAFA"/>
<path d="M194.737 457.486C193.754 457.611 192.77 457.674 191.766 457.632C189.946 457.674 187.414 457.758 184.632 457.925C181.849 458.093 179.318 458.302 177.498 458.469C176.514 458.616 175.531 458.678 174.527 458.657C175.489 458.386 176.472 458.197 177.456 458.114C179.276 457.863 181.786 457.591 184.59 457.423C187.393 457.256 189.925 457.235 191.766 457.298C192.749 457.277 193.754 457.34 194.737 457.507" fill="#FAFAFA"/>
<path d="M115.528 417.006C114.817 416.796 114.127 416.504 113.478 416.127L108.645 413.805L103.791 411.525C103.101 411.253 102.431 410.897 101.825 410.479C102.557 410.625 103.268 410.855 103.938 411.19C105.214 411.692 106.971 412.445 108.875 413.345C110.779 414.244 112.453 415.123 113.666 415.792C114.336 416.106 114.963 416.524 115.549 416.985" fill="#FAFAFA"/>
<path d="M155.3 423.742C154.902 423.637 154.505 423.491 154.128 423.303L151.011 421.943C148.396 420.792 144.755 419.244 140.697 417.612C136.638 415.981 132.935 414.621 130.236 413.638L127.056 412.466C126.658 412.34 126.261 412.194 125.905 411.985C126.324 412.048 126.721 412.131 127.119 412.278C127.893 412.487 129.002 412.843 130.362 413.282C133.081 414.181 136.826 415.499 140.885 417.131C144.944 418.763 148.563 420.374 151.157 421.608C152.455 422.215 153.501 422.738 154.212 423.114C154.589 423.282 154.965 423.491 155.3 423.742Z" fill="#FAFAFA"/>
<path d="M158.396 395.667C158.208 395.667 158.02 395.667 157.831 395.625L156.241 395.395L150.446 394.454C145.551 393.659 138.793 392.571 131.303 391.462C123.813 390.354 117.035 389.454 112.118 388.805L106.302 388.031L104.712 387.801C104.524 387.801 104.335 387.738 104.168 387.697C104.356 387.697 104.544 387.697 104.733 387.697L106.323 387.822C107.704 387.948 109.691 388.157 112.16 388.429C117.097 388.973 123.897 389.831 131.387 390.939C138.877 392.048 145.634 393.178 150.509 394.077C152.957 394.517 154.923 394.893 156.283 395.186L157.852 395.521C158.041 395.542 158.208 395.604 158.396 395.667Z" fill="#FAFAFA"/>
<path d="M156.158 366.003C156.158 366.149 145.446 364.664 132.265 362.697C119.085 360.731 108.436 359.015 108.457 358.869C108.478 358.722 119.169 360.208 132.349 362.174C145.53 364.141 156.179 365.856 156.158 366.003Z" fill="#FAFAFA"/>
<path d="M100.13 391.943C99.5443 390.918 99.0421 389.83 98.6028 388.722L95.1298 380.898L91.5732 373.115C91.0292 372.069 90.569 370.961 90.1714 369.852C90.3807 370.103 90.548 370.375 90.6736 370.668C90.9665 371.212 91.3849 371.986 91.887 372.969C92.8912 374.915 94.2093 377.655 95.5692 380.709C96.9291 383.764 98.1007 386.567 98.9166 388.596C99.3141 389.621 99.6279 390.458 99.8372 391.023C99.9627 391.316 100.067 391.63 100.109 391.943" fill="#FAFAFA"/>
<path d="M78.832 412.78C78.6856 412.801 77.3257 406.838 75.7775 399.454C74.2293 392.069 73.0995 386.044 73.246 386.023C73.3924 386.002 74.7523 391.964 76.2796 399.349C77.8069 406.734 78.9575 412.759 78.8111 412.78" fill="#FAFAFA"/>
<path d="M70.045 380.354C66.9905 381.274 63.915 382.027 60.7768 382.592C57.6804 383.345 54.5631 383.931 51.404 384.329C54.4585 383.408 57.534 382.655 60.6722 382.09C63.7686 381.337 66.8859 380.751 70.045 380.354Z" fill="#FAFAFA"/>
<path d="M66.9487 353.304C66.1537 353.576 65.3377 353.743 64.5009 353.848C62.9945 354.099 60.8814 354.413 58.5382 354.685C56.195 354.957 54.082 355.124 52.5547 355.208C51.7179 355.312 50.881 355.312 50.0651 355.229C50.881 355.02 51.6969 354.894 52.5338 354.831L58.4964 354.162L64.459 353.492C65.275 353.346 66.1118 353.283 66.9487 353.325" fill="#FAFAFA"/>
<path d="M74.9616 306.359C75.2545 306.924 82.6607 345.082 82.6607 345.082L65.1703 345.898L58.3918 313.096L74.9616 306.38V306.359Z" fill="#455A64"/>
<path d="M82.6816 345.082L84.69 344.246L77.1165 306.631L74.7314 306.464L82.6816 345.082Z" fill="#263238"/>
<path d="M67.932 314.707C67.9947 315.209 67.6391 315.648 67.137 315.711C66.6348 315.774 66.1955 315.418 66.1327 314.916C66.07 314.414 66.4256 313.974 66.9277 313.912C67.4299 313.849 67.8692 314.204 67.932 314.707Z" fill="#263238"/>
<path d="M64.3335 341.484L64.0824 336.484L71.5514 333.409L68.6433 326.485C67.3043 323.43 63.7477 322.05 60.6932 323.388C60.5467 323.451 60.4003 323.535 60.2538 323.598L57.262 325.229C55.1281 326.38 53.5799 328.388 53.015 330.773C52.199 334.811 51.6342 338.869 51.2785 342.97" fill="#FFBE9D"/>
<path d="M44.3116 468.678C44.3116 468.678 13.5571 477.193 12.3227 477.632C10.4607 478.28 10.7746 485.08 13.6617 484.975C15.0216 484.933 37.282 485.812 40.1064 485.623C43.9769 484.787 47.7427 483.594 51.404 482.109L44.3116 468.699V468.678Z" fill="#5238A0"/>
<path d="M31.5077 480.414C31.1311 479.285 30.6709 478.176 30.1478 477.109C29.4783 476.126 28.7461 475.184 27.972 474.285C30.1897 475.519 31.5496 477.883 31.5077 480.414Z" fill="#263238"/>
<path d="M34.7087 478.971C34.5622 478.992 34.2484 477.548 33.4325 475.937C32.6165 474.327 31.6541 473.197 31.7588 473.092C33.5789 474.515 34.6459 476.67 34.7087 478.971Z" fill="#263238"/>
<path d="M37.7214 478.155C37.575 477.046 37.3239 475.958 37.0101 474.912C36.5289 473.908 35.964 472.946 35.3364 472.025C37.3239 473.364 38.2863 475.812 37.7214 478.155Z" fill="#263238"/>
<path d="M37.1775 474.18C36.9055 473.448 36.8009 472.674 36.8427 471.9C36.8427 471.063 36.9473 470.205 37.1565 469.389C37.2821 468.908 37.4285 468.427 37.6168 467.967C37.7005 467.674 37.8888 467.423 38.1189 467.214C38.4327 466.963 38.893 467.005 39.1859 467.256C39.437 467.486 39.5834 467.8 39.6043 468.134C39.6462 468.406 39.6462 468.678 39.6462 468.95C39.6462 469.452 39.5834 469.954 39.4579 470.456C39.2487 471.272 38.9349 472.067 38.5164 472.799C38.1817 473.49 37.7005 474.117 37.1356 474.661C37.0728 474.619 37.575 473.887 38.2026 472.653C38.5583 471.921 38.8302 471.168 39.0185 470.373C39.1231 469.912 39.165 469.431 39.165 468.971C39.165 468.49 39.165 467.904 38.893 467.674C38.7884 467.548 38.6001 467.548 38.4955 467.632C38.349 467.779 38.2235 467.967 38.1608 468.176C37.9725 468.615 37.826 469.076 37.7005 469.536C37.4913 470.331 37.3448 471.126 37.303 471.942C37.2193 473.343 37.3448 474.201 37.2611 474.222" fill="#263238"/>
<path d="M37.1984 473.866C37.826 473.594 38.4955 473.49 39.1859 473.553C39.9181 473.553 40.6504 473.636 41.3617 473.825C41.8011 473.929 42.2195 474.076 42.617 474.285C43.1401 474.536 43.412 475.122 43.3074 475.686C43.161 476.23 42.7425 476.649 42.1986 476.774C41.7383 476.879 41.278 476.879 40.8178 476.774C40.0855 476.586 39.416 476.251 38.8093 475.791C38.2444 475.414 37.7632 474.933 37.3867 474.389C37.9515 474.724 38.5164 475.08 39.0185 475.498C39.5834 475.896 40.232 476.168 40.9015 476.314C41.278 476.398 41.6756 476.398 42.0521 476.314C42.4078 476.23 42.7007 475.937 42.8053 475.582C42.8681 475.226 42.6798 474.871 42.345 474.724C41.9894 474.536 41.6128 474.389 41.2362 474.285C40.5667 474.096 39.8554 473.971 39.165 473.929C37.9515 473.845 37.1984 473.971 37.1984 473.887" fill="#263238"/>
<path d="M26.7794 480.749C26.6539 479.808 26.4447 478.887 26.1727 477.967C25.7334 477.13 25.2313 476.314 24.6664 475.561C26.5075 476.565 27.4071 478.741 26.7794 480.749Z" fill="#263238"/>
<path d="M48.2449 482.172C47.8683 482.402 47.4708 482.59 47.0524 482.736C45.9435 483.176 44.7928 483.531 43.6212 483.803C39.7717 484.64 35.8175 485.017 31.8843 484.912C27.2816 484.87 23.1182 484.661 20.1055 484.536L16.5489 484.347C16.1095 484.347 15.6702 484.305 15.2518 484.201C15.6911 484.138 16.1305 484.117 16.5698 484.138H20.1474L31.9052 484.389C35.8175 484.494 39.7299 484.159 43.5585 483.427C46.5084 482.82 48.224 482.067 48.2449 482.172Z" fill="#263238"/>
<path d="M49.1445 482.862C49.1445 482.862 48.2658 482.444 46.8431 481.816C45.0229 480.958 43.0145 480.624 41.0269 480.854C39.0813 481.272 37.3029 482.339 36.0058 483.845C35.4618 484.494 34.876 485.1 34.2275 485.644C34.6459 484.891 35.148 484.201 35.7338 483.594C36.3405 482.883 37.0309 482.234 37.7632 481.69C38.7047 481 39.7926 480.54 40.9433 480.352C43.0354 480.101 45.1485 480.498 46.9896 481.502C47.7846 481.837 48.4959 482.318 49.1445 482.883" fill="#263238"/>
<path d="M76.97 460.185C76.97 460.185 106.072 479.243 107.118 480.038C108.687 481.23 106.888 486.858 104.168 485.895C102.892 485.435 78.4554 478.636 75.8402 477.611C72.4091 475.645 69.1663 473.364 66.1327 470.833L76.97 460.206V460.185Z" fill="#5238A0"/>
<path d="M85.6106 475.268C86.3219 472.82 88.3513 470.979 90.841 470.498C89.8158 471.126 88.8534 471.795 87.912 472.527C87.096 473.385 86.3219 474.306 85.6106 475.268Z" fill="#263238"/>
<path d="M82.9954 472.904C83.7485 470.728 85.4432 469.013 87.5981 468.218C87.6818 468.343 86.4056 469.117 85.1293 470.415C83.8531 471.712 83.1209 472.988 82.9954 472.925" fill="#263238"/>
<path d="M80.3593 471.23C80.5476 468.825 82.2004 466.795 84.5018 466.126C83.6231 466.795 82.7862 467.548 82.033 468.364C81.4054 469.285 80.8405 470.247 80.3593 471.251" fill="#263238"/>
<path d="M82.0958 467.611C82.0958 467.611 82.4096 466.795 82.7653 465.436C82.9535 464.641 83.0791 463.846 83.1 463.03C83.1 462.549 83.1 462.067 83.0791 461.586C83.0791 461.377 83.0163 461.168 82.9117 460.98C82.828 460.854 82.6606 460.812 82.5142 460.896C82.1794 461.021 82.0121 461.586 81.8447 462.046C81.6983 462.486 81.6146 462.967 81.5518 463.427C81.489 464.243 81.51 465.059 81.6355 465.854C81.8447 467.235 82.1167 468.072 82.033 468.092C81.6564 467.423 81.3844 466.67 81.2798 465.917C81.0915 465.08 81.0288 464.243 81.0915 463.385C81.1334 462.883 81.2171 462.381 81.3635 461.9C81.4472 461.649 81.5309 461.377 81.6564 461.147C81.7819 460.833 82.0121 460.582 82.305 460.436C82.6606 460.268 83.1 460.373 83.3301 460.708C83.4766 460.98 83.5603 461.272 83.5603 461.586C83.6649 462.925 83.4975 464.285 83.1 465.561C82.9117 466.314 82.577 467.025 82.0958 467.632" fill="#263238"/>
<path d="M82.1585 467.297C82.1585 467.297 81.4472 467.026 80.2756 466.733C79.5852 466.565 78.8948 466.482 78.1835 466.44C77.786 466.419 77.3885 466.44 76.9909 466.523C76.6353 466.565 76.3424 466.837 76.3005 467.214C76.3005 467.59 76.4679 467.946 76.8027 468.134C77.1374 468.343 77.4931 468.469 77.8906 468.49C78.581 468.553 79.2714 468.49 79.9409 468.281C80.5685 468.051 81.1962 467.862 81.8447 467.716C81.3008 468.134 80.694 468.427 80.0455 468.615C79.3341 468.887 78.6019 468.992 77.8487 468.95C77.3885 468.929 76.9282 468.783 76.5307 468.532C76.0495 468.239 75.7775 467.716 75.7984 467.151C75.8612 466.565 76.3215 466.105 76.8863 466.021C77.3257 465.938 77.786 465.917 78.2253 465.959C78.9576 466 79.6898 466.147 80.3802 466.377C81.0497 466.523 81.6564 466.837 82.1795 467.277" fill="#263238"/>
<path d="M100.465 484.828C100.465 484.828 99.9836 484.536 99.7535 483.699C99.5233 482.611 99.7116 481.481 100.297 480.54C100.59 480.038 100.904 479.536 101.281 479.075C101.553 478.678 101.887 478.322 102.264 478.009C102.536 477.799 102.85 477.653 103.185 477.611C103.436 477.611 103.561 477.653 103.54 477.695C103.143 477.799 102.787 478.009 102.473 478.28C102.159 478.594 101.887 478.95 101.636 479.347C101.302 479.808 101.009 480.289 100.737 480.77C100.214 481.628 99.9836 482.611 100.088 483.615C100.193 484.368 100.507 484.766 100.444 484.808" fill="#263238"/>
<path d="M90.0041 477.025C90.0041 474.912 91.5314 473.134 93.5817 472.737C91.9289 473.72 90.6527 475.226 90.0041 477.025Z" fill="#263238"/>
<path d="M69.1245 471.858C69.5638 472.109 70.0032 472.402 70.4007 472.737C71.5514 473.532 72.7439 474.264 73.9783 474.933C75.8193 475.896 77.7232 476.753 79.6689 477.465C81.8656 478.28 84.3553 479.055 86.9705 479.829C92.2008 481.335 96.95 482.716 100.36 483.741L104.398 484.975C104.9 485.1 105.381 485.289 105.863 485.498C105.339 485.435 104.837 485.331 104.335 485.163L100.235 484.075C96.7826 483.134 92.0335 481.816 86.7822 480.31C84.167 479.557 81.6773 478.762 79.4597 477.904C77.4931 477.151 75.5892 476.272 73.7481 475.247C72.5137 474.557 71.3422 473.762 70.2124 472.883C69.794 472.569 69.3964 472.214 69.0617 471.837" fill="#263238"/>
<path d="M68.0575 472.235C68.8316 471.879 69.6684 471.67 70.5262 471.586C72.5974 471.189 74.7314 471.461 76.6353 472.339C77.6814 472.862 78.581 473.636 79.2505 474.599C79.7944 475.352 80.2547 476.168 80.6104 477.046C80.9869 477.82 81.2589 478.615 81.4263 479.452C80.9869 478.72 80.6104 477.967 80.2965 477.193C79.5015 475.352 78.1416 473.804 76.4052 472.82C74.585 472.004 72.5556 471.712 70.5681 471.984C69.0199 472.151 68.0784 472.36 68.0575 472.276" fill="#263238"/>
<path d="M145.174 309.226L147.078 347.677C147.413 353.994 142.559 359.371 136.241 359.706C129.922 360.04 124.545 355.187 124.211 348.869C124.211 348.848 124.211 348.806 124.211 348.785C124.064 345.898 123.939 343.472 123.918 343.179C123.918 343.179 114.085 342.739 112.892 333.095C112.327 328.43 111.93 318.723 111.658 309.937C111.386 300.502 118.395 292.448 127.788 291.423L128.73 291.318C138.856 290.795 144.944 299.1 145.195 309.226" fill="#FFBE9D"/>
<path d="M123.876 343.032C128.353 342.614 132.6 340.898 136.073 338.053C136.073 338.053 133.855 345.334 124.127 345.522L123.876 343.011V343.032Z" fill="#EB996E"/>
<path d="M114.733 315.962C114.796 316.715 115.466 317.28 116.219 317.217C116.951 317.196 117.537 316.589 117.495 315.857C117.495 315.857 117.495 315.836 117.495 315.815C117.432 315.062 116.763 314.497 116.009 314.56C115.277 314.581 114.691 315.188 114.712 315.941C114.712 315.941 114.712 315.941 114.712 315.962" fill="#263238"/>
<path d="M114.252 314.456C114.44 314.623 115.403 313.723 116.888 313.577C118.374 313.43 119.545 314.037 119.692 313.849C119.754 313.765 119.545 313.451 119.043 313.158C118.353 312.782 117.558 312.635 116.784 312.719C116.009 312.803 115.277 313.138 114.712 313.661C114.294 314.058 114.168 314.393 114.273 314.476" fill="#263238"/>
<path d="M129.315 314.707C129.378 315.46 130.048 316.025 130.801 315.962C131.533 315.941 132.119 315.334 132.077 314.602C132.077 314.602 132.077 314.581 132.077 314.56C132.014 313.807 131.345 313.242 130.592 313.305C129.859 313.326 129.274 313.933 129.295 314.686C129.295 314.686 129.295 314.686 129.295 314.707" fill="#263238"/>
<path d="M128.876 313.117C129.064 313.284 130.027 312.384 131.512 312.238C132.998 312.092 134.169 312.698 134.316 312.51C134.378 312.426 134.169 312.112 133.667 311.82C132.977 311.443 132.182 311.297 131.408 311.38C130.633 311.464 129.901 311.778 129.336 312.322C128.918 312.719 128.792 313.054 128.897 313.138" fill="#263238"/>
<path d="M124.713 324.727C123.897 324.56 123.081 324.518 122.244 324.56C121.867 324.56 121.491 324.518 121.407 324.267C121.323 323.87 121.386 323.472 121.533 323.116C121.784 322.154 122.056 321.15 122.328 320.104C123.102 317.552 123.667 314.916 124.022 312.28C123.039 314.769 122.265 317.343 121.7 319.958C121.428 321.004 121.177 322.029 120.947 322.991C120.759 323.472 120.738 324.016 120.905 324.497C121.052 324.748 121.303 324.936 121.595 324.978C121.805 325.02 122.035 325.02 122.244 324.978C123.06 324.978 123.897 324.895 124.692 324.706" fill="#263238"/>
<path d="M129.19 325.271C128.939 325.271 129.127 326.903 127.872 328.2C126.617 329.497 124.88 329.518 124.901 329.727C124.901 329.832 125.319 329.999 126.052 329.936C126.993 329.853 127.872 329.434 128.541 328.744C129.169 328.095 129.546 327.217 129.546 326.317C129.546 325.627 129.315 325.25 129.211 325.271" fill="#263238"/>
<path d="M127.851 307.343C128.039 307.719 129.504 307.385 131.261 307.385C133.019 307.385 134.483 307.719 134.671 307.343C134.755 307.154 134.462 306.799 133.855 306.485C132.203 305.69 130.299 305.69 128.646 306.485C128.039 306.82 127.746 307.175 127.83 307.343" fill="#263238"/>
<path d="M114.336 310.083C114.629 310.397 115.612 309.937 116.846 309.769C118.06 309.581 119.148 309.749 119.336 309.372C119.42 309.184 119.21 308.87 118.729 308.598C117.39 307.949 115.8 308.18 114.691 309.163C114.294 309.56 114.189 309.916 114.315 310.062" fill="#263238"/>
<path d="M145.174 316.464C145.32 316.38 151.597 313.765 152.12 320.397C152.643 327.028 145.864 326.171 145.843 325.982C145.823 325.794 145.174 316.464 145.174 316.464Z" fill="#FFBE9D"/>
<path d="M147.664 323.326C147.664 323.326 147.789 323.388 147.977 323.472C148.27 323.577 148.563 323.556 148.835 323.43C149.672 322.803 150.09 321.798 149.965 320.773C149.944 320.209 149.777 319.644 149.505 319.142C149.337 318.723 149.003 318.43 148.563 318.326C148.291 318.284 147.998 318.43 147.915 318.702C147.831 318.891 147.915 319.016 147.852 319.037C147.789 319.058 147.705 318.932 147.726 318.66C147.747 318.493 147.831 318.347 147.956 318.221C148.124 318.075 148.354 317.991 148.584 318.012C149.149 318.075 149.63 318.43 149.881 318.953C150.216 319.497 150.404 320.125 150.425 320.773C150.593 321.966 150.007 323.158 148.961 323.765C148.605 323.89 148.208 323.87 147.894 323.681C147.685 323.535 147.622 323.388 147.643 323.367" fill="#EB996E"/>
<path d="M148.814 315.836C147.517 315.899 146.366 316.652 145.823 317.824C145.509 318.807 145.509 319.895 145.195 320.878C144.881 321.861 144.002 322.824 142.956 322.698C142.245 322.552 141.638 322.029 141.408 321.338C141.178 320.648 141.094 319.937 141.157 319.204C141.199 316.066 141.513 312.949 141.303 309.832C141.199 306.673 140.195 303.64 138.354 301.067C136.471 298.494 133.311 297.155 130.152 297.573C128.123 297.971 126.345 299.247 124.336 299.749C121.909 300.334 119.357 299.791 117.39 298.242C117.139 298.054 116.03 297.468 116.03 297.468C115.989 296.736 116.135 296.004 116.491 295.356C120.131 291.172 127.307 289.31 132.788 290.084C138.437 290.837 143.479 294.017 146.555 298.828C149.4 303.577 149.484 310.627 148.793 315.836" fill="#263238"/>
<path d="M40.8177 468.343C40.8177 468.343 112.202 421.524 115.11 420.541C118.018 419.558 125.089 414.935 132.161 416.88C139.232 418.826 145.55 425.164 148.731 434.411C151.911 443.658 152.141 464.369 152.141 464.369C152.141 464.369 146.534 480.686 135.571 484.096C134.629 484.389 133.688 484.619 132.726 484.808C119.273 487.297 105.653 481.418 98.2471 469.912L96.6571 467.486C96.6571 467.486 49.9604 484.64 49.2282 484.389L40.8177 468.302V468.343Z" fill="#263238"/>
<path d="M16.4652 413.721C11.1721 415.834 7.72003 420.939 7.69911 426.629C7.63635 445.373 45.5879 466.063 45.5879 466.063L96.1131 432.591V429.076C96.1131 429.076 31.0893 405.688 16.4652 413.742" fill="#263238"/>
<path d="M129.127 455.436C129.127 455.436 129.002 455.499 128.73 455.603L127.558 456.063L123.039 457.8L106.218 464.139C99.0631 466.795 90.5271 469.975 80.9242 473.469C71.3212 476.963 60.6722 480.791 49.3119 484.64L49.1027 484.703L48.998 484.515L43.412 473.866L40.5667 468.427L40.4621 468.218L40.6504 468.092L95.088 433.533L111.449 423.219L115.884 420.437L117.035 419.725C117.307 419.558 117.432 419.495 117.432 419.495C117.432 419.495 117.307 419.6 117.056 419.767L115.926 420.52L111.532 423.365L95.2554 433.825L40.9014 468.511L40.9851 468.176L43.8305 473.615L49.3956 484.264L49.0817 484.138C60.4421 480.31 71.0911 476.481 80.694 473.03L106.03 463.804L122.893 457.611L127.453 455.959L128.646 455.54C128.918 455.457 129.064 455.415 129.064 455.415" fill="#455A64"/>
<path d="M70.5262 449.494C70.0659 449.243 69.6266 448.93 69.2082 448.595C68.3713 447.988 67.1997 447.11 65.7561 445.98C62.869 443.741 58.9357 440.583 54.6887 436.942C50.4416 433.302 46.7176 429.892 44.0815 427.382C42.7635 426.127 41.6965 425.081 40.9851 424.37C40.5876 424.014 40.232 423.616 39.8972 423.198C40.3366 423.512 40.7341 423.847 41.1107 424.223L44.3116 427.131C47.0105 429.579 50.7764 432.947 55.0025 436.587C59.2286 440.227 63.12 443.428 65.9653 445.729L69.3128 448.469C69.7312 448.783 70.1287 449.139 70.5053 449.515" fill="#455A64"/>
<path d="M30.7336 420.729C32.3655 420.478 34.0392 420.625 35.6083 421.169C37.2193 421.545 38.7047 422.34 39.9391 423.449C39.8554 423.575 38.0143 422.403 35.4619 421.671C32.9095 420.939 30.7336 420.897 30.7336 420.729Z" fill="#455A64"/>
<path d="M35.0853 417.78C37.4494 418.784 39.165 420.897 39.6462 423.428C39.4997 423.47 38.9558 421.901 37.6796 420.353C36.4033 418.805 35.0016 417.905 35.0853 417.78Z" fill="#455A64"/>
<path d="M13.7036 477.151C13.7036 477.151 14.3103 476.963 15.0007 477.548C15.8166 478.322 16.3397 479.347 16.4652 480.477C16.6326 481.586 16.4652 482.695 16.0049 483.72C15.6492 484.494 15.2517 484.849 15.2099 484.808C15.1681 484.766 15.4191 484.326 15.6702 483.573C16.0049 482.611 16.1095 481.565 15.9631 480.54C15.8585 479.536 15.44 478.573 14.7705 477.799C14.2266 477.234 13.7036 477.214 13.7036 477.13" fill="#263238"/>
</g>
<path d="M433.032 423.261H364.075V432.738H433.032V423.261Z" fill="#263238"/>
<path d="M433.158 432.863H363.97V423.156H433.158V432.863ZM364.2 432.633H432.927V423.386H364.2V432.633Z" fill="#263238"/>
<path d="M370.477 429.579L380.394 478.552H417.111L426.714 432.738L370.477 429.579Z" fill="#263238"/>
<path d="M370.477 473.908L375.77 481.188H420.416L426.735 473.908H370.477Z" fill="#455A64"/>
<mask id="mask6_70_269" style="mask-type:luminance" maskUnits="userSpaceOnUse" x="0" y="94" width="465" height="392">
<path d="M465 94H0V486H465V94Z" fill="white"/>
</mask>
<g mask="url(#mask6_70_269)">
<path d="M395.959 431.022C395.813 431.022 395.646 408.345 395.562 380.354C395.478 352.363 395.52 329.685 395.666 329.685C395.813 329.685 395.98 352.363 396.043 380.354C396.106 408.345 396.085 431.022 395.938 431.022" fill="#263238"/>
<path d="M411.337 374.245C411.295 374.433 411.232 374.601 411.148 374.768L410.542 376.232L410.102 377.299L409.642 378.576L409.119 380.061C408.931 380.584 408.784 381.149 408.617 381.734C407.801 384.496 407.152 387.32 406.692 390.186C406.148 393.68 405.792 397.215 405.625 400.751C405.374 407.194 405.541 413.638 406.169 420.039C406.399 422.508 406.608 424.495 406.776 425.855C406.838 426.503 406.901 427.026 406.943 427.445C407.089 427.445 407.215 427.57 407.215 427.738C407.215 427.884 407.089 428.01 406.922 428.01C406.776 428.01 406.65 427.884 406.65 427.717C406.65 427.591 406.734 427.508 406.838 427.466C406.776 427.047 406.671 426.524 406.566 425.897C406.336 424.537 406.064 422.549 405.792 420.081C405.06 413.658 404.83 407.194 405.102 400.73C405.269 397.173 405.646 393.638 406.211 390.123C406.692 387.257 407.382 384.433 408.261 381.651C408.449 381.065 408.617 380.5 408.805 379.977L409.37 378.513C409.537 378.053 409.705 377.634 409.872 377.237C410.039 376.86 410.207 376.504 410.353 376.191L411.044 374.747C411.106 374.58 411.211 374.412 411.316 374.266" fill="#263238"/>
<path d="M409.579 355.898C409.537 356.149 409.454 356.4 409.37 356.651L408.659 358.764L408.136 360.291L407.571 362.132C407.173 363.45 406.692 364.936 406.294 366.609L405.604 369.224L404.956 372.09C404.474 374.057 404.119 376.212 403.679 378.45C402.926 382.948 402.257 387.927 401.796 393.199C401.336 398.47 401.169 403.491 401.106 408.052C401.106 412.612 401.148 416.734 401.336 420.185C401.399 421.922 401.503 423.47 401.587 424.851C401.671 426.231 401.755 427.403 401.838 428.365C401.901 429.286 401.964 430.039 402.006 430.583C402.026 430.834 402.047 431.106 402.027 431.357C401.964 431.106 401.922 430.855 401.901 430.583C401.838 430.039 401.755 429.286 401.65 428.365C401.524 427.403 401.42 426.231 401.315 424.851C401.211 423.47 401.064 421.922 400.98 420.185C400.75 416.734 400.646 412.612 400.646 408.031C400.688 403.449 400.855 398.408 401.294 393.136C401.734 387.864 402.445 382.864 403.219 378.366C403.679 376.128 404.035 373.973 404.537 371.986L405.207 369.12L405.939 366.505C406.378 364.831 406.88 363.346 407.299 362.028L407.885 360.208L408.449 358.701L409.265 356.63C409.349 356.379 409.454 356.149 409.579 355.919" fill="#263238"/>
<path d="M391.608 435.039C391.608 435.039 391.566 434.871 391.566 434.767C391.566 434.558 391.524 434.307 391.503 433.993C391.461 433.261 391.377 432.256 391.294 430.98C391.126 428.323 390.896 424.558 390.603 419.934C389.997 410.604 389.139 397.717 387.57 383.554C386.775 376.463 385.833 369.747 384.871 363.639C384.348 360.584 383.888 357.697 383.365 354.999C382.883 352.3 382.36 349.79 381.879 347.509C381.398 345.229 380.917 343.158 380.519 341.359C380.122 339.56 379.724 337.991 379.41 336.735C379.097 335.48 378.866 334.518 378.699 333.807L378.532 333.033C378.532 333.033 378.49 332.865 378.49 332.761C378.532 332.844 378.553 332.928 378.574 333.012L378.804 333.765L379.62 336.673C379.975 337.928 380.394 339.476 380.812 341.296C381.231 343.116 381.775 345.145 382.256 347.446C382.737 349.748 383.302 352.237 383.804 354.936C384.348 357.635 384.829 360.522 385.352 363.576C386.335 369.684 387.298 376.421 388.093 383.513C389.662 397.696 390.478 410.604 390.98 419.934C391.231 424.6 391.419 428.386 391.524 431.001C391.566 432.277 391.608 433.281 391.629 434.014C391.629 434.327 391.629 434.599 391.629 434.788C391.629 434.871 391.629 434.976 391.629 435.06" fill="#263238"/>
<path d="M395.415 340.585C394.85 337.3 391.984 334.894 388.637 334.915C385.352 335.062 382.339 336.694 380.436 339.371C378.574 342.028 377.235 344.999 376.481 348.137C374.138 355.689 373.301 363.618 374.055 371.484C374.829 379.391 378.26 386.818 383.762 392.529C384.557 393.554 385.812 394.119 387.11 394.056C387.779 393.847 388.386 393.471 388.867 392.969C399.976 382.78 406.169 368.304 405.834 353.241C405.939 350.25 405.207 347.3 403.7 344.685C402.047 342.216 398.219 339.581 395.415 340.564" fill="#5238A0"/>
<path d="M371.314 314.853L366.774 323.075C366.669 323.263 366.523 323.472 366.314 323.493C366.104 323.514 365.895 323.284 365.77 323.075L353.761 304.623L356.522 303.054L371.335 314.832L371.314 314.853Z" fill="#5238A0"/>
<g opacity="0.2">
<mask id="mask7_70_269" style="mask-type:luminance" maskUnits="userSpaceOnUse" x="353" y="303" width="19" height="21">
<path d="M371.293 303.096H353.719V323.514H371.293V303.096Z" fill="white"/>
</mask>
<g mask="url(#mask7_70_269)">
<path d="M371.314 314.853L366.774 323.075C366.669 323.263 366.523 323.472 366.314 323.493C366.104 323.514 365.895 323.284 365.77 323.075L353.761 304.623L356.522 303.054L371.335 314.832L371.314 314.853Z" fill="black"/>
</g>
</g>
<path d="M395.687 329.685L354.681 305.502C354.242 305.313 353.865 304.937 353.677 304.498C353.51 303.891 353.97 303.305 354.409 302.845C360.121 296.925 368.113 293.787 376.314 294.247C384.536 294.833 391.963 299.456 396.127 306.569C400.227 313.786 400.06 322.656 395.687 329.706" fill="#5238A0"/>
<path d="M360.602 297.782C360.769 297.74 360.958 297.719 361.146 297.719C361.502 297.719 362.025 297.636 362.694 297.636C364.598 297.615 366.502 297.761 368.385 298.096C381.147 300.251 391.503 309.623 394.913 322.091C395.415 323.932 395.771 325.815 395.938 327.698C396.022 328.367 396.001 328.89 396.022 329.246C396.022 329.434 396.022 329.602 396.022 329.79C395.98 329.79 395.917 329.058 395.771 327.719C395.541 325.836 395.143 323.995 394.62 322.175C391.106 309.895 380.917 300.669 368.364 298.41C366.502 298.054 364.619 297.866 362.736 297.803C361.397 297.782 360.644 297.803 360.644 297.761" fill="#263238"/>
<path d="M390.143 312.991C389.495 313.389 388.804 313.702 388.072 313.933C386.775 314.456 384.934 315.104 382.904 315.753C380.875 316.401 378.992 316.924 377.632 317.259C376.9 317.489 376.147 317.614 375.393 317.677C376.084 317.343 376.795 317.091 377.527 316.924L382.758 315.292L387.967 313.619C388.679 313.347 389.411 313.138 390.164 313.012" fill="#263238"/>
<path d="M383.699 295.627C384.264 298.64 384.348 301.736 383.929 304.79C383.699 301.736 383.616 298.682 383.699 295.627Z" fill="#263238"/>
<path d="M354.326 305.042C355.288 304.602 356.292 304.267 357.296 303.996C359.158 303.431 361.753 302.698 364.64 301.987C367.527 301.276 370.163 300.753 372.088 300.418C373.113 300.188 374.18 300.042 375.226 300C374.222 300.335 373.197 300.586 372.172 300.774C370.268 301.192 367.653 301.778 364.765 302.489C361.878 303.201 359.284 303.849 357.401 304.351C356.397 304.665 355.372 304.895 354.326 305.062" fill="#263238"/>
<path d="M376.774 332.991C373.385 330.564 369.222 329.497 365.1 329.957C360.665 330.25 356.334 331.38 352.317 333.263C345.267 336.087 339.178 340.878 334.764 347.07C330.391 353.388 329.471 361.484 332.295 368.638C332.546 369.35 333.028 369.956 333.697 370.333C334.471 370.542 335.287 370.479 336.019 370.166C343.969 367.844 351.669 364.789 359.033 361.003C366.418 357.174 372.569 351.317 376.712 344.099C377.716 342.384 378.343 340.459 378.574 338.493C378.783 336.484 378.134 334.497 376.774 333.012" fill="#5238A0"/>
<path d="M376.858 332.154C376.67 332.259 376.481 332.321 376.293 332.384L374.64 332.949L373.448 333.346C373.008 333.493 372.548 333.702 372.046 333.89C371.042 334.288 369.891 334.685 368.678 335.292L366.753 336.171C366.083 336.484 365.414 336.861 364.703 337.217C363.28 337.928 361.836 338.806 360.309 339.727C353.719 343.806 347.861 348.974 342.965 354.978C341.877 356.379 340.789 357.697 339.932 359.015C339.492 359.664 339.032 360.291 338.635 360.898L337.526 362.697C336.793 363.827 336.249 364.915 335.706 365.856C335.454 366.337 335.203 366.756 334.994 367.174L334.45 368.304L333.676 369.873C333.592 370.061 333.488 370.228 333.383 370.396C333.425 370.207 333.509 369.998 333.592 369.831L334.283 368.22L334.785 367.069C334.994 366.651 335.224 366.212 335.475 365.731C335.977 364.789 336.501 363.66 337.233 362.509L338.321 360.689C338.697 360.061 339.158 359.434 339.597 358.764C340.455 357.425 341.522 356.086 342.631 354.664C347.505 348.576 353.405 343.388 360.079 339.309C361.627 338.409 363.092 337.53 364.535 336.84C365.247 336.484 365.916 336.108 366.606 335.815L368.552 334.957C369.787 334.392 370.958 333.995 371.962 333.618C372.464 333.43 372.946 333.263 373.385 333.116L374.598 332.761L376.272 332.279C376.46 332.217 376.67 332.175 376.858 332.154Z" fill="#263238"/>
<path d="M349.304 347.07C343.635 349.078 337.86 350.752 332.002 352.133C337.672 350.124 343.446 348.451 349.304 347.07Z" fill="#263238"/>
<path d="M348.949 366.003C348.802 365.124 348.74 364.224 348.761 363.325C348.719 361.672 348.719 359.392 348.761 356.86C348.802 354.329 348.97 352.049 349.095 350.417C349.116 349.518 349.242 348.639 349.43 347.76C349.514 348.66 349.514 349.538 349.43 350.438C349.367 352.258 349.304 354.455 349.221 356.881C349.137 359.308 349.116 361.505 349.053 363.325C349.074 364.224 349.032 365.124 348.886 366.003" fill="#263238"/>
<path d="M365.163 357.739C365.016 357.739 364.598 353.116 364.201 347.384C363.803 341.652 363.594 336.986 363.719 336.986C363.845 336.986 364.284 341.61 364.682 347.342C365.079 353.074 365.288 357.739 365.163 357.739Z" fill="#263238"/>
<path d="M344.974 336.526C345.894 336.422 346.815 336.38 347.714 336.443C349.409 336.443 351.752 336.505 354.326 336.589C356.899 336.673 359.242 336.777 360.937 336.882C361.857 336.882 362.778 336.966 363.678 337.154C362.757 337.258 361.857 337.3 360.937 337.237C359.242 337.237 356.899 337.175 354.305 337.091C351.71 337.007 349.388 336.903 347.694 336.798C346.773 336.798 345.852 336.714 344.953 336.526" fill="#263238"/>
<path d="M385.519 394.747C385.478 394.558 385.457 394.37 385.457 394.182C385.457 393.763 385.415 393.22 385.394 392.571C385.331 391.169 385.31 389.14 385.373 386.651C385.436 384.161 385.582 381.17 385.875 377.864C386.168 374.559 386.649 370.961 387.319 367.195C387.988 363.429 388.804 359.873 389.641 356.672C390.478 353.471 391.378 350.626 392.193 348.262C393.009 345.898 393.721 343.995 394.265 342.698L394.892 341.212C394.955 341.045 395.039 340.857 395.143 340.71C395.122 340.898 395.06 341.087 394.976 341.254L394.432 342.781C393.951 344.099 393.281 346.003 392.507 348.388C391.733 350.773 390.896 353.618 390.059 356.819C389.223 360.019 388.449 363.555 387.779 367.321C387.11 371.086 386.649 374.663 386.314 377.948C385.98 381.232 385.791 384.203 385.708 386.692C385.624 389.182 385.561 391.211 385.582 392.613C385.582 393.261 385.582 393.805 385.582 394.224C385.582 394.412 385.582 394.6 385.54 394.789" fill="#263238"/>
<path d="M387.674 366.777C387.193 367.425 386.649 368.032 386.043 368.576C384.976 369.643 383.469 371.044 381.754 372.551C380.038 374.057 378.427 375.375 377.235 376.274C376.628 376.797 375.958 377.278 375.247 377.655C375.791 377.048 376.377 376.483 377.025 376.002L381.44 372.174L385.812 368.304C386.398 367.739 387.026 367.216 387.695 366.756" fill="#263238"/>
<path d="M400.646 377.237C399.997 376.483 399.411 375.668 398.909 374.831L394.85 368.91L390.708 363.053C390.101 362.279 389.536 361.442 389.055 360.584C389.767 361.275 390.415 362.028 390.98 362.844C392.11 364.287 393.637 366.316 395.248 368.618C396.859 370.919 398.219 373.053 399.181 374.622C399.746 375.437 400.227 376.316 400.625 377.216" fill="#263238"/>
<path d="M393.846 344.371C393.93 344.476 389.599 347.384 384.222 350.856C378.846 354.329 374.41 357.028 374.327 356.923C374.243 356.819 378.553 353.911 383.95 350.438C389.348 346.965 393.763 344.267 393.846 344.371Z" fill="#263238"/>
<path d="M406.002 357.488C401.545 353.597 397.298 349.455 393.302 345.082C397.759 348.974 402.006 353.116 406.002 357.488Z" fill="#263238"/>
<path d="M409.056 357.216L412.759 356.902C415.395 356.693 417.927 355.898 420.228 354.622C421.358 353.974 422.509 353.388 423.722 352.865C428.304 351.024 433.409 351.359 438.325 351.107C446.38 350.689 454.288 348.681 461.548 345.166C461.966 344.978 462.322 344.643 462.552 344.246C463.305 342.865 461.904 341.631 460.69 340.878C454.644 336.735 448.012 333.493 441.045 331.233C433.974 329.33 425.961 329.643 419.914 333.807C412.822 338.681 410.249 348.681 409.056 357.195" fill="#5238A0"/>
<path d="M462.657 343.806C462.448 343.723 462.238 343.639 462.029 343.513L460.272 342.593C458.745 341.798 456.569 340.606 453.786 339.288C450.564 337.698 447.217 336.422 443.765 335.417C439.539 334.204 435.124 333.848 430.773 334.371C426.4 334.853 422.278 336.631 418.931 339.455C416.316 341.903 414.203 344.852 412.759 348.116C411.755 350.313 410.855 352.572 410.081 354.873C409.809 355.647 409.579 356.275 409.412 356.735C409.349 356.965 409.265 357.174 409.161 357.383C409.203 357.153 409.244 356.923 409.328 356.714L409.893 354.81C410.604 352.488 411.462 350.208 412.445 347.969C413.868 344.622 415.981 341.61 418.638 339.12C422.048 336.212 426.254 334.392 430.731 333.89C435.145 333.367 439.643 333.744 443.911 334.999C447.384 336.003 450.753 337.342 453.974 338.995C456.736 340.375 458.891 341.589 460.397 342.447L462.113 343.451C462.322 343.555 462.51 343.681 462.699 343.827" fill="#263238"/>
<path d="M453.765 348.576C453.682 348.681 448.849 345.564 442.949 341.589C437.049 337.614 432.342 334.309 432.404 334.183C432.467 334.058 437.321 337.196 443.221 341.17C449.121 345.145 453.828 348.451 453.765 348.576Z" fill="#263238"/>
<path d="M449.121 333.723C446.652 334.497 444.058 334.727 441.484 334.434C444.016 334.099 446.568 333.848 449.121 333.723Z" fill="#263238"/>
<path d="M427.425 329.853C426.505 332.049 425.291 334.099 423.827 335.961C424.203 334.832 424.747 333.765 425.417 332.782C425.94 331.715 426.63 330.731 427.425 329.853Z" fill="#263238"/>
<path d="M431.756 351.421C430.94 351.087 430.166 350.668 429.434 350.166C428.032 349.308 426.149 348.074 424.12 346.61C422.09 345.145 420.312 343.765 419.036 342.739C418.324 342.237 417.634 341.652 417.027 341.024C417.801 341.442 418.554 341.924 419.245 342.467L424.392 346.212C426.4 347.677 428.262 348.953 429.601 349.873C430.354 350.333 431.065 350.856 431.735 351.421" fill="#263238"/>
<path d="M414.517 372.948C410.981 372.007 406.776 375.458 406.043 379.015C405.625 382.676 406.378 386.358 408.219 389.538C411.588 396.922 416.567 403.449 422.822 408.638C429.12 413.826 436.986 416.713 445.146 416.859C443.66 409.935 445.543 402.696 444.706 395.646C443.2 382.864 433.053 372.843 420.27 371.463C418.01 371.212 415.416 370.856 414.517 372.948Z" fill="#5238A0"/>
<path d="M445.146 416.88C444.978 416.817 444.811 416.755 444.643 416.65C444.183 416.399 443.744 416.106 443.325 415.771C441.84 414.474 440.647 412.884 439.832 411.106C439.267 410.018 438.639 408.826 438.032 407.508L436.128 403.303C435.438 401.755 434.664 400.27 433.806 398.826C432.844 397.299 431.777 395.835 430.584 394.454C428.178 391.609 425.584 389.161 423.325 386.818C421.295 384.768 419.433 382.55 417.801 380.186C416.692 378.576 415.793 376.839 415.102 375.019C414.914 374.517 414.768 374.015 414.621 373.513C414.558 373.345 414.517 373.157 414.517 372.969C414.558 372.969 414.768 373.68 415.27 374.956C416.023 376.735 416.964 378.429 418.073 379.998C419.747 382.32 421.609 384.496 423.638 386.525C425.898 388.847 428.513 391.295 430.94 394.161C432.132 395.542 433.22 397.027 434.183 398.596C435.061 400.06 435.836 401.588 436.526 403.136L438.388 407.341C438.974 408.638 439.601 409.851 440.124 410.939C440.899 412.696 442.028 414.286 443.43 415.604C444.455 416.483 445.166 416.817 445.125 416.88" fill="#263238"/>
<path d="M426.902 411.106C426.902 410.311 427.028 409.516 427.216 408.721C427.488 407.257 427.948 405.269 428.555 403.094C429.162 400.918 429.831 398.973 430.354 397.592C430.584 396.818 430.919 396.086 431.317 395.395C431.191 396.19 430.961 396.943 430.689 397.696C430.25 399.098 429.643 401.044 429.036 403.219C428.429 405.395 427.927 407.362 427.572 408.784C427.425 409.579 427.195 410.332 426.902 411.085" fill="#263238"/>
<path d="M444.476 394.098C443.639 393.973 442.802 393.784 441.986 393.533C440.459 393.136 438.367 392.592 436.024 392.069C433.681 391.546 431.547 391.128 430.019 390.835C429.182 390.73 428.346 390.542 427.53 390.291C428.388 390.27 429.245 390.333 430.082 390.5C431.651 390.709 433.806 391.065 436.149 391.588C438.493 392.111 440.585 392.717 442.091 393.199C442.907 393.408 443.723 393.722 444.476 394.098Z" fill="#263238"/>
<path d="M413.805 399.035C413.847 398.115 413.973 397.194 414.182 396.295C414.496 394.621 414.998 392.299 415.646 389.768C416.295 387.236 417.006 384.977 417.571 383.345C417.822 382.446 418.157 381.588 418.575 380.751C418.429 381.672 418.199 382.571 417.885 383.45C417.425 385.103 416.776 387.362 416.107 389.893C415.437 392.425 414.893 394.705 414.517 396.378C414.349 397.299 414.098 398.178 413.784 399.056" fill="#263238"/>
<path d="M436.38 379.266C436.38 379.391 431.965 379.036 426.546 378.471C421.128 377.906 416.734 377.32 416.755 377.195C416.776 377.069 421.17 377.425 426.588 377.99C432.007 378.555 436.4 379.14 436.38 379.266Z" fill="#263238"/>
<path d="M433.158 432.696C433.158 432.842 417.676 432.947 398.574 432.947C379.473 432.947 363.97 432.842 363.97 432.696C363.97 432.549 379.452 432.445 398.574 432.445C417.697 432.445 433.158 432.549 433.158 432.696Z" fill="#455A64"/>
<path d="M422.383 452.632C422.383 452.779 411.943 452.884 399.077 452.884C386.21 452.884 375.77 452.779 375.77 452.632C375.77 452.486 386.21 452.381 399.077 452.381C411.943 452.381 422.383 452.486 422.383 452.632Z" fill="#455A64"/>
<path d="M422.781 455.478C422.781 455.624 412.341 455.729 399.474 455.729C386.607 455.729 376.168 455.624 376.168 455.478C376.168 455.331 386.607 455.227 399.474 455.227C412.341 455.227 422.781 455.331 422.781 455.478Z" fill="#455A64"/>
<path d="M422.781 450.289C422.781 450.436 411.985 450.54 398.679 450.54C385.373 450.54 374.578 450.436 374.578 450.289C374.578 450.143 385.373 450.038 398.679 450.038C411.985 450.038 422.781 450.143 422.781 450.289Z" fill="#455A64"/>
</g>
</g>
</g>
<defs>
<clipPath id="clip0_70_269">
<rect width="465" height="392" fill="white" transform="translate(0 94)"/>
</clipPath>
</defs>
</svg>
