<svg width="465" height="392" viewBox="0 0 465 392" fill="none" xmlns="http://www.w3.org/2000/svg">
<g clip-path="url(#clip0_69_65)">
<mask id="mask0_69_65" style="mask-type:luminance" maskUnits="userSpaceOnUse" x="0" y="0" width="465" height="392">
<path d="M465 0H0V392H465V0Z" fill="white"/>
</mask>
<g mask="url(#mask0_69_65)">
<mask id="mask1_69_65" style="mask-type:luminance" maskUnits="userSpaceOnUse" x="0" y="0" width="465" height="392">
<path d="M465 0H0V392H465V0Z" fill="white"/>
</mask>
<g mask="url(#mask1_69_65)">
<path d="M374.013 187.548C373.448 188.511 372.716 189.389 371.858 190.121C369.535 192.193 366.544 193.406 363.426 193.531C361.272 193.636 359.117 193.218 357.171 192.339C354.911 191.314 352.966 189.703 351.543 187.653C349.953 185.394 349.095 182.716 349.032 179.975C348.886 173.887 352.756 168.427 358.552 166.524C361.167 165.666 363.97 165.582 366.627 166.314C369.012 166.984 371.188 168.281 372.904 170.08C374.389 171.628 375.498 173.532 376.126 175.582C377.046 178.574 376.9 181.774 375.707 184.661C375.31 185.707 374.724 186.691 373.992 187.548C373.908 187.506 374.661 186.544 375.414 184.557C376.46 181.733 376.502 178.615 375.582 175.749C374.201 171.461 370.749 168.176 366.418 167.005C363.908 166.335 361.23 166.398 358.761 167.235C353.3 169.034 349.66 174.201 349.765 179.933C349.807 182.548 350.622 185.08 352.087 187.234C354.639 190.937 358.886 193.092 363.385 192.967C366.397 192.883 369.305 191.795 371.628 189.87C373.259 188.49 373.908 187.465 373.992 187.527" fill="#E0E0E0"/>
<path d="M383.218 203.155C383.365 203.196 383.532 203.238 383.657 203.301L384.996 203.824L390.29 205.958L390.143 206L397.382 195.644V195.895L392.277 190.247L392.193 190.142L392.235 190.017C393.177 187.444 393.783 184.766 394.014 182.046V181.9L394.181 181.837L401.231 178.908L401.064 179.222C400.374 175.31 399.662 171.147 398.909 166.775L399.202 167.026L391.566 166.628H391.377L391.294 166.44C390.164 163.971 388.699 161.649 386.942 159.557L386.817 159.411L386.9 159.223L389.808 152.172L389.934 152.591L379.62 145.311H380.059L374.389 150.394L374.222 150.541L374.013 150.457C371.46 149.516 368.782 148.909 366.083 148.658H365.853L365.77 148.428L362.841 141.378L363.259 141.608L350.811 143.721L351.125 143.365C350.999 145.771 350.853 148.365 350.727 151.001V151.231L350.497 151.336C348.028 152.465 345.706 153.93 343.614 155.666C343.446 155.687 344.011 155.603 343.216 155.729H343.174L343.112 155.687L343.007 155.645L342.777 155.562L342.338 155.373L341.459 154.997L339.681 154.264L336.166 152.8L336.626 152.675L329.324 162.988V162.507L334.387 168.176L334.534 168.344L334.45 168.553C333.509 171.105 332.902 173.783 332.651 176.482V176.712L332.421 176.795L325.37 179.703L325.6 179.306L327.713 191.753L327.379 191.46L334.994 191.879H335.203L335.287 192.088C336.417 194.577 337.881 196.9 339.618 198.992L339.743 199.138L339.66 199.326L336.731 206.376L336.626 206L346.919 213.322H346.543L352.233 208.259L352.359 208.155L352.526 208.217C355.079 209.18 357.757 209.786 360.476 210.037H360.623L360.686 210.184L363.573 217.255L363.322 217.108L375.791 215.037L375.645 215.205C375.833 212.15 375.979 209.661 376.105 207.59V207.506H376.168C378.05 206.627 379.85 205.602 381.544 204.41L382.779 203.51C382.904 203.406 383.051 203.301 383.197 203.217C383.072 203.343 382.967 203.468 382.821 203.573C382.569 203.782 382.172 204.117 381.628 204.535C379.954 205.791 378.176 206.858 376.293 207.736L376.356 207.632C376.251 209.703 376.147 212.213 376 215.267V215.414H375.854L363.405 217.631H363.217L363.154 217.485L360.204 210.435L360.414 210.581C357.652 210.351 354.911 209.724 352.296 208.761L352.589 208.719L346.919 213.845L346.752 214.012L346.564 213.866L336.229 206.586L336.019 206.439L336.124 206.188L339.032 199.138L339.095 199.473C337.295 197.339 335.81 194.975 334.659 192.423L334.952 192.632L327.337 192.234H327.044L327.002 191.942C326.312 187.904 325.6 183.741 324.868 179.494L324.826 179.201L325.098 179.097L332.149 176.168L331.919 176.482C332.17 173.699 332.776 170.959 333.76 168.344L333.843 168.72L328.739 163.051L328.529 162.821L328.697 162.57L335.998 152.256L336.187 152.005L336.48 152.131L339.994 153.595L341.773 154.327L342.651 154.704L343.091 154.892L343.321 154.976L343.425 155.018H343.488L343.509 155.059L343.112 155.122C345.246 153.344 347.631 151.838 350.162 150.687L349.932 151.022C350.078 148.407 350.204 145.813 350.35 143.386V143.072L350.664 143.03L363.113 140.897L363.405 140.855L363.531 141.127L366.439 148.177L366.125 147.947C368.908 148.198 371.628 148.825 374.264 149.788L373.887 149.871L379.578 144.767L379.787 144.579L380.017 144.746L390.31 152.047L390.541 152.214L390.436 152.465L387.507 159.515L387.465 159.181C389.243 161.315 390.729 163.699 391.88 166.231L391.608 166.042L399.223 166.461H399.474L399.516 166.712C400.248 171.084 400.959 175.247 401.629 179.159L401.671 179.369L401.462 179.452L394.39 182.36L394.557 182.151C394.306 184.912 393.679 187.632 392.695 190.247L392.654 190.017L397.738 195.707L397.842 195.833L397.758 195.958L390.394 206.23L390.331 206.314L390.248 206.272L385.038 204.054L383.699 203.468C383.532 203.406 383.385 203.322 383.239 203.238" fill="#E0E0E0"/>
<path fill-rule="evenodd" clip-rule="evenodd" d="M371.084 109.14C368.092 111.629 364.765 113.721 361.23 115.332L360.665 126.106L343.049 129.119L338.927 119.14C335.036 118.784 331.228 117.926 327.567 116.567L319.533 123.784L304.951 113.47L309.093 103.512C306.604 100.521 304.512 97.1946 302.901 93.6591L292.126 93.0733L289.113 75.4586L299.093 71.3374C299.449 67.4463 300.306 63.6388 301.666 59.9778L294.448 51.9445L304.763 37.3632L314.742 41.5054C317.734 39.0159 321.04 36.9239 324.596 35.2921L325.161 24.5183L342.777 21.5058L346.898 31.4847C350.79 31.8403 354.598 32.698 358.259 34.0578L366.293 26.8404L380.875 37.154L376.732 47.112C379.222 50.1035 381.314 53.4298 382.946 56.9653L393.721 57.5302L396.733 75.1448L386.754 79.2661C386.398 83.1572 385.54 86.9647 384.18 90.6257L391.398 98.659L381.084 113.24L371.105 109.119L371.084 109.14ZM358.07 87.0693C364.18 78.4293 362.129 66.463 353.489 60.3544C344.848 54.2457 332.881 56.2959 326.772 64.9359C320.663 73.5758 322.713 85.5421 331.354 91.6508C339.994 97.7594 351.961 95.7092 358.07 87.0693Z" fill="#E0E0E0"/>
<path fill-rule="evenodd" clip-rule="evenodd" d="M149.965 105.897C152.475 108.596 154.63 111.608 156.346 114.872L166.556 114.83L170.342 131.273L161.158 135.708C161.032 139.39 160.426 143.051 159.338 146.566L166.577 153.741L157.622 168.051L147.998 164.683C145.299 167.193 142.287 169.348 139.044 171.063L139.086 181.272L122.642 185.059L118.206 175.875C114.524 175.749 110.863 175.143 107.348 174.055L100.172 181.293L85.8616 172.339L89.23 162.716C86.7194 160.017 84.5645 157.005 82.8489 153.741L72.6393 153.783L68.8525 137.319L78.037 132.884C78.1625 129.202 78.7692 125.541 79.8572 122.027L72.6183 114.851L81.5727 100.542L91.1966 103.91C93.8954 101.4 96.9081 99.2447 100.151 97.5293L100.109 87.3203L116.553 83.5338L120.989 92.7177C124.671 92.8432 128.332 93.4499 131.847 94.5377L139.023 87.2994L153.354 96.2532L149.986 105.876L149.965 105.897ZM129.838 119.37C121.365 114.077 110.172 116.65 104.879 125.123C99.5861 133.595 102.159 144.788 110.633 150.08C119.106 155.373 130.299 152.8 135.592 144.327C140.885 135.855 138.312 124.663 129.838 119.37Z" fill="#E0E0E0"/>
<path fill-rule="evenodd" clip-rule="evenodd" d="M159.903 36.6938C161.304 38.1791 162.476 39.8527 163.438 41.6518H169.087L171.179 50.7311L166.095 53.1788C166.033 55.208 165.698 57.2373 165.091 59.1828L169.108 63.1576L164.15 71.0863L158.815 69.2245C157.329 70.6261 155.656 71.7976 153.856 72.76V78.4084L144.776 80.5004L142.329 75.4168C140.299 75.354 138.27 75.0193 136.324 74.4126L132.349 78.4293L124.42 73.4922L126.282 68.1575C124.88 66.6722 123.709 64.9986 122.746 63.1995H117.097L115.005 54.1202L120.089 51.6725C120.152 49.6433 120.487 47.614 121.093 45.6685L117.097 41.6937L122.056 33.765L127.391 35.6269C128.876 34.2252 130.55 33.0328 132.349 32.0914V26.443L141.429 24.3509L143.877 29.4345C145.906 29.4973 147.936 29.832 149.881 30.4387L153.856 26.422L161.786 31.3801L159.944 36.7147L159.903 36.6938ZM148.751 44.1413C144.065 41.2125 137.872 42.6142 134.922 47.3212C131.993 52.0073 133.395 58.1996 138.102 61.1493C142.789 64.0781 148.982 62.6765 151.932 57.9695C154.861 53.2834 153.438 47.091 148.751 44.1622" fill="#E0E0E0"/>
<path d="M80.6522 53.5344C80.8195 53.5972 80.966 53.6809 81.1124 53.7855C81.5309 54.0574 81.9284 54.3712 82.284 54.7269C83.6021 56.0448 84.4389 57.7812 84.6272 59.664C84.7528 60.961 84.5854 62.2581 84.1251 63.4714C83.5812 64.8731 82.6815 66.0865 81.5099 67.0069C80.2128 68.032 78.6437 68.6387 76.9909 68.7642C73.3296 69.0571 69.9195 66.9233 68.5805 63.5133C67.9738 61.9652 67.8273 60.2916 68.183 58.6808C68.4968 57.2163 69.2081 55.8775 70.2124 54.7896C71.0911 53.8482 72.1999 53.116 73.4133 52.6767C75.1707 52.0282 77.0955 52.0073 78.8738 52.6139C79.355 52.7604 79.8153 52.9905 80.2337 53.2415C80.3802 53.3252 80.5266 53.4298 80.6522 53.5344C80.6312 53.5972 80.0245 53.1788 78.8111 52.8022C77.0746 52.2792 75.2335 52.3629 73.5389 53.0114C71.0283 53.9737 69.1872 56.1494 68.6432 58.7854C68.3294 60.3125 68.455 61.9024 69.0408 63.3459C70.317 66.5467 73.497 68.5341 76.9281 68.2831C78.4763 68.1785 79.9618 67.5927 81.1961 66.6513C83.3301 64.9986 84.4599 62.4045 84.2506 59.7268C84.1042 57.9276 83.351 56.2331 82.1376 54.8942C81.2589 53.9528 80.6312 53.5972 80.6731 53.5553" fill="#E0E0E0"/>
<path d="M89.6902 47.4885C89.6902 47.4885 89.7321 47.3002 89.7739 47.2166L90.0459 46.4007L91.1338 43.1581L91.1757 43.2627L84.7318 39.2879H84.8992L81.6982 42.5305L81.6355 42.5932H81.5518C79.9827 42.0912 78.3508 41.8192 76.7189 41.7773H76.6143L76.5725 41.6937L74.564 37.5724L74.7732 37.677L67.388 39.3925L67.5553 39.2042C67.5553 40.6267 67.5553 42.1748 67.5763 43.7857V43.9112L67.4717 43.974C66.0281 44.748 64.6891 45.6894 63.4966 46.8191L63.392 46.9028L63.2664 46.8609L58.9357 45.3547L59.2077 45.271L55.2117 51.6935L55.1699 51.4006L58.4127 54.6223L58.5173 54.7269L58.4754 54.8733C57.9942 56.4423 57.7223 58.0532 57.6804 59.6849V59.8314L57.5549 59.8941L53.4334 61.8815L53.5589 61.5886L55.2535 68.9734L55.0025 68.7642H59.5843H59.7516L59.8144 68.9107C60.5676 70.3541 61.53 71.693 62.6388 72.8646C62.4087 71.4838 63.3501 70.1659 64.7519 69.9357C66.1327 69.7056 67.4507 70.647 67.6809 72.0487C67.911 73.4294 66.9695 74.7474 65.5678 74.9775C64.2916 75.1867 63.0363 74.3917 62.7016 73.1365V73.1993V73.262L62.6388 73.3876L62.5551 73.6595L62.3668 74.2034L61.9902 75.2913L61.2371 77.446L61.1325 77.1322L67.5553 81.1489L67.2415 81.1907L70.4634 77.9481L70.568 77.8435L70.7145 77.8854C72.2836 78.3665 73.8945 78.6385 75.5264 78.7012H75.6729L75.7356 78.8268L77.7232 82.948L77.4512 82.8225L84.8365 81.128L84.6482 81.3581C84.6482 79.81 84.6482 78.2828 84.6482 76.7766V76.6511L84.7737 76.5883C86.2173 75.8352 87.5562 74.8729 88.7488 73.7641L88.8534 73.6804L88.9789 73.7223L93.2887 75.2285L93.0377 75.3122L97.0755 68.9107V69.1617L93.8536 65.94L93.7699 65.8563L93.8118 65.7517C94.2929 64.1827 94.5649 62.5719 94.6277 60.9401V60.8355L94.7114 60.7728L98.8329 58.8063L98.7492 58.9736L97.0755 51.5889L97.1801 51.6725H92.5983H92.5565V51.6307C91.9707 50.5219 91.2803 49.4969 90.5271 48.5136L89.9413 47.8023C89.9413 47.8023 89.8158 47.6559 89.753 47.5722C89.8367 47.635 89.8994 47.6977 89.9831 47.7814C90.1296 47.9278 90.3388 48.158 90.5898 48.4718C91.3849 49.4341 92.0962 50.4592 92.682 51.5679L92.5983 51.5261L97.1801 51.4843H97.2638V51.5679L99.0212 58.9318V59.0573L98.9375 59.1201L94.816 61.1284L94.8997 60.982C94.8578 62.6556 94.5858 64.3083 94.0837 65.8982L94.0419 65.7099L97.3056 68.9316L97.4102 69.0362L97.3266 69.1617L93.3306 75.5842L93.2469 75.7306L93.0795 75.6678L88.7488 74.1616L88.9789 74.1198C87.7655 75.2704 86.3846 76.2327 84.9201 77.0276L85.0457 76.8184C85.0457 78.3247 85.0457 79.8519 85.0666 81.3999V81.5882L84.8783 81.6301L77.493 83.3455L77.3047 83.3873L77.221 83.22L75.2335 79.0987L75.4427 79.2452C73.769 79.1824 72.1162 78.9105 70.5053 78.4293L70.7563 78.3665L67.5344 81.6091L67.388 81.7556L67.2206 81.651L60.7977 77.6343L60.6303 77.5297L60.6931 77.3414L61.4463 75.1867L61.8229 74.0988L62.0112 73.5549L62.0948 73.283L62.1367 73.1574V73.0947L62.1785 73.0528C62.2831 73.5549 62.1995 73.1784 62.2413 73.283C61.0906 72.0696 60.1282 70.6889 59.3332 69.2035L59.5634 69.35H54.9816H54.7723L54.7305 69.1408L53.0359 61.756L52.994 61.5677L53.1823 61.484L57.3038 59.4966L57.1574 59.7058C57.2201 58.0322 57.4921 56.3796 57.9942 54.7687L58.057 55.0197L54.8142 51.7981L54.6887 51.6725L54.7933 51.5052L58.8102 45.0827L58.9148 44.9363L59.0822 44.999L63.392 46.5053L63.1618 46.5471C64.3962 45.4174 65.777 44.4342 67.2624 43.6602L67.1578 43.8484V39.0996L67.3252 39.0577L74.7105 37.3841L74.8569 37.3423L74.9197 37.4678L76.8863 41.5891L76.7399 41.4845C78.4136 41.5472 80.0664 41.8192 81.6564 42.3213L81.5099 42.3631L84.7528 39.1205L84.8365 39.0577L84.9201 39.1205L91.3221 43.179L91.3849 43.2208V43.2836L90.1923 46.4634L89.8785 47.2793C89.8785 47.2793 89.8158 47.4676 89.753 47.5513" fill="#E0E0E0"/>
</g>
<mask id="mask2_69_65" style="mask-type:luminance" maskUnits="userSpaceOnUse" x="0" y="0" width="465" height="392">
<path d="M465 0H0V392H465V0Z" fill="white"/>
</mask>
<g mask="url(#mask2_69_65)">
<path d="M315.182 387.063L183.858 386.456C168.062 386.393 155.3 373.528 155.363 357.733L156.743 28.4931C156.827 12.6985 169.694 -0.0627585 185.49 1.62131e-06L316.834 0.606683C332.63 0.690363 345.371 13.5353 345.308 29.3299L343.928 358.57C343.865 374.364 330.998 387.126 315.202 387.063" fill="#455A64"/>
<path d="M316.667 11.9663L291.206 11.8408C287.712 11.9035 284.929 14.7905 284.992 18.2841V22.9075C285.034 26.4011 282.251 29.2881 278.757 29.3508L229.132 29.1207C225.638 29.0161 222.897 26.1291 222.981 22.6355V18.0122C223.085 14.5185 220.324 11.6316 216.851 11.527L207.896 11.4851L185.615 11.3805C174.548 11.3387 165.53 20.2506 165.489 31.3173L164.129 352.691C164.087 363.758 172.999 372.754 184.067 372.816L315.14 373.423C326.207 373.465 335.224 364.553 335.266 353.486L336.626 32.1123C336.668 21.0456 327.755 12.05 316.688 11.9872" fill="#FAFAFA"/>
<path d="M278.339 168.469H226.893C221.558 168.469 217.248 164.139 217.248 158.825V107.383C217.248 102.048 221.579 97.7385 226.893 97.7385H278.339C283.674 97.7385 287.984 102.069 287.984 107.383V158.825C287.984 164.16 283.653 168.469 278.339 168.469Z" fill="#5238A0"/>
<path d="M198.565 123.47L200.281 126.922L204.089 127.466L201.327 130.165L201.976 133.972L198.565 132.173L195.155 133.972L195.804 130.165L193.042 127.466L196.85 126.922L198.565 123.47Z" fill="#5238A0"/>
<path d="M308.801 89.2031L310.119 91.8809L313.068 92.2993L310.934 94.3913L311.437 97.3201L308.801 95.9394L306.164 97.3201L306.667 94.3913L304.533 92.2993L307.482 91.8809L308.801 89.2031Z" fill="#5238A0"/>
<path d="M306.206 153.302L307.357 154.85L309.282 154.787L308.152 156.356L308.801 158.177L306.959 157.591L305.432 158.783V156.859L303.821 155.771L305.641 155.164L306.185 153.323L306.206 153.302Z" fill="#5238A0"/>
<path d="M197.268 100.521C196.264 100.521 195.469 99.705 195.469 98.7217C195.469 97.7385 196.285 96.9226 197.268 96.9226C198.252 96.9226 199.068 97.7385 199.068 98.7217C199.068 99.7259 198.252 100.521 197.268 100.521ZM197.268 97.9059C196.808 97.9059 196.452 98.2615 196.452 98.7217C196.452 99.182 196.808 99.5376 197.268 99.5376C197.729 99.5376 198.084 99.182 198.084 98.7217C198.084 98.2615 197.729 97.9059 197.268 97.9059Z" fill="#5238A0"/>
<path d="M299.26 125.458C298.256 125.458 297.461 124.642 297.461 123.658C297.461 122.675 298.277 121.859 299.26 121.859C300.244 121.859 301.06 122.675 301.06 123.658C301.06 124.663 300.244 125.458 299.26 125.458ZM299.26 122.843C298.8 122.843 298.444 123.198 298.444 123.658C298.444 124.119 298.8 124.474 299.26 124.474C299.721 124.474 300.076 124.119 300.076 123.658C300.076 123.198 299.721 122.843 299.26 122.843Z" fill="#5238A0"/>
<path d="M275.703 87.3831C274.699 87.3831 273.904 86.5672 273.904 85.5839C273.904 84.6007 274.72 83.7848 275.703 83.7848C276.686 83.7848 277.502 84.6007 277.502 85.5839C277.502 86.5881 276.686 87.3831 275.703 87.3831ZM275.703 84.7681C275.243 84.7681 274.887 85.1237 274.887 85.5839C274.887 86.0442 275.243 86.3998 275.703 86.3998C276.163 86.3998 276.519 86.0442 276.519 85.5839C276.519 85.1237 276.163 84.7681 275.703 84.7681Z" fill="#5238A0"/>
<path d="M188.753 157.34C188.753 158.072 188.167 158.658 187.435 158.658C186.703 158.658 186.117 158.072 186.117 157.34C186.117 156.608 186.703 156.022 187.435 156.022C188.167 156.022 188.753 156.608 188.753 157.34Z" fill="#5238A0"/>
<path d="M249.174 176.042C249.174 176.774 248.589 177.36 247.856 177.36C247.124 177.36 246.538 176.774 246.538 176.042C246.538 175.31 247.124 174.724 247.856 174.724C248.589 174.724 249.174 175.31 249.174 176.042Z" fill="#5238A0"/>
<path d="M236.475 72.2788C236.475 73.011 235.889 73.5968 235.157 73.5968C234.425 73.5968 233.839 73.011 233.839 72.2788C233.839 71.5466 234.425 70.9608 235.136 70.9608C235.868 70.9608 236.454 71.5466 236.454 72.2579" fill="#5238A0"/>
<path d="M221.516 275.475V269.931H222.541V275.433C222.541 277.735 223.629 278.781 225.512 278.781C227.395 278.781 228.483 277.735 228.483 275.433V269.931H229.487V275.475C229.613 277.672 227.918 279.555 225.721 279.68C223.525 279.806 221.642 278.111 221.516 275.915C221.516 275.768 221.516 275.622 221.516 275.475Z" fill="#263238"/>
<path d="M240.157 273.237C240.157 275.308 238.672 276.542 236.203 276.542H233.609V279.597H232.584V269.911H236.224C238.693 269.911 240.178 271.166 240.178 273.237M239.153 273.237C239.153 271.689 238.128 270.789 236.182 270.789H233.609V275.643H236.182C238.128 275.643 239.153 274.764 239.153 273.237Z" fill="#263238"/>
<path d="M242.354 269.931H246.308C248.986 269.743 251.308 271.772 251.497 274.45C251.685 277.128 249.656 279.45 246.978 279.638C246.748 279.638 246.538 279.638 246.308 279.638H242.354V269.952V269.931ZM246.245 278.739C248.442 278.927 250.367 277.316 250.555 275.12C250.744 272.923 249.133 270.998 246.936 270.81C246.706 270.81 246.476 270.81 246.245 270.81H243.379V278.739H246.245Z" fill="#263238"/>
<path d="M259.74 277.023H254.342L253.17 279.617H252.103L256.539 269.931H257.543L261.978 279.617H260.89L259.719 277.023H259.74ZM259.363 276.187L257.041 270.977L254.719 276.187H259.363Z" fill="#263238"/>
<path d="M264.97 270.81H261.56V269.931H269.405V270.81H265.995V279.617H264.97V270.81Z" fill="#263238"/>
<path d="M277.879 278.739V279.617H271.016V269.931H277.669V270.81H272.042V274.262H277.063V275.141H272.042V278.739H277.879Z" fill="#263238"/>
<path d="M262.188 120.709C263.255 121.504 264.217 122.445 265.033 123.491L268.673 122.822L271.079 128.449L268.087 130.625C268.276 131.943 268.297 133.282 268.129 134.621L271.163 136.713L268.882 142.382L265.242 141.796C264.447 142.863 263.506 143.825 262.46 144.641L263.129 148.281L257.501 150.687L255.325 147.696C254.007 147.884 252.668 147.905 251.329 147.737L249.237 150.771L243.567 148.491L244.153 144.85C243.086 144.055 242.124 143.114 241.308 142.068L237.668 142.738L235.262 137.11L238.253 134.934C238.065 133.616 238.044 132.278 238.212 130.939L235.178 128.847L237.458 123.177L241.099 123.763C241.894 122.696 242.835 121.734 243.902 120.918L243.233 117.278L248.861 114.872L251.036 117.864C252.354 117.675 253.693 117.654 255.032 117.822L257.125 114.788L262.794 117.069L262.208 120.73L262.188 120.709ZM255.869 126.796C252.501 125.437 248.693 127.068 247.333 130.437C245.973 133.805 247.605 137.612 250.974 138.972C254.342 140.332 258.15 138.7 259.51 135.332C260.87 131.964 259.238 128.156 255.869 126.796Z" fill="#FAFAFA"/>
<path d="M255.869 126.796C256.392 126.964 256.873 127.194 257.334 127.529C258.568 128.386 259.468 129.662 259.886 131.106C260.179 132.11 260.221 133.177 260.033 134.202C259.802 135.374 259.259 136.482 258.463 137.382C257.585 138.386 256.413 139.097 255.116 139.432C252.271 140.185 249.258 138.972 247.71 136.462C246.999 135.332 246.664 134.014 246.706 132.675C246.747 131.483 247.124 130.311 247.773 129.286C248.338 128.407 249.112 127.675 250.011 127.152C251.308 126.378 252.836 126.085 254.342 126.336C254.886 126.399 255.409 126.566 255.89 126.817C255.89 126.859 255.346 126.608 254.321 126.483C252.877 126.315 251.413 126.629 250.158 127.382C248.296 128.512 247.124 130.499 247.061 132.675C247.019 133.93 247.354 135.185 248.024 136.252C249.488 138.616 252.334 139.767 255.011 139.056C256.225 138.742 257.334 138.072 258.192 137.152C259.656 135.541 260.2 133.303 259.635 131.19C259.259 129.767 258.422 128.533 257.25 127.654C256.413 127.047 255.869 126.838 255.89 126.817" fill="#FAFAFA"/>
<path d="M262.188 120.709C262.188 120.709 262.188 120.562 262.208 120.479L262.313 119.788C262.397 119.161 262.543 118.24 262.711 117.048L262.752 117.11L257.062 114.872L257.166 114.83L255.074 117.885L255.032 117.947H254.97C253.652 117.801 252.334 117.801 251.015 118.01H250.932L250.89 117.968L248.714 114.977L248.881 115.018L243.254 117.424L243.337 117.257L244.007 120.897V120.981L243.944 121.043C242.898 121.859 241.977 122.801 241.182 123.868L241.12 123.951H241.015L237.375 123.345L237.563 123.24L235.283 128.909L235.22 128.7L238.253 130.792L238.337 130.855V130.96C238.17 132.278 238.191 133.595 238.379 134.893V134.997L238.295 135.06L235.303 137.236L235.366 137.005L237.772 142.633L237.563 142.528L241.203 141.859H241.308L241.371 141.922C242.187 142.968 243.128 143.888 244.174 144.683C244.174 144.683 244.09 144.495 244.258 144.871V145.102L244.195 145.332L244.111 145.792L243.965 146.712L243.672 148.532L243.567 148.323L249.237 150.603L249.007 150.666L251.099 147.633L251.162 147.549H251.267C252.585 147.717 253.903 147.717 255.2 147.528H255.304L255.367 147.612L257.543 150.603L257.334 150.541L262.962 148.156L262.857 148.344C262.627 147.11 262.418 145.896 262.188 144.704V144.599L262.25 144.537C263.296 143.721 264.217 142.779 265.012 141.712L265.075 141.629H265.179L268.82 142.235L268.652 142.34L270.954 136.671L270.995 136.838L267.962 134.725L267.899 134.683V134.6C268.066 133.282 268.046 131.964 267.857 130.646V130.562L267.899 130.52L270.891 128.365L270.849 128.491C269.928 126.315 269.133 124.453 268.464 122.863L268.548 122.905L264.907 123.554H264.845C264.238 122.738 263.547 122.006 262.794 121.336L262.229 120.855C262.229 120.855 262.104 120.751 262.041 120.688C262.104 120.73 262.188 120.771 262.25 120.834C262.376 120.939 262.585 121.085 262.836 121.294C263.61 121.943 264.322 122.654 264.949 123.449H264.886L268.527 122.738H268.59L268.61 122.78L271.037 128.386L271.079 128.47L271.016 128.533L268.025 130.709L268.066 130.583C268.255 131.922 268.276 133.261 268.129 134.6L268.066 134.474L271.121 136.566L271.205 136.629L271.163 136.733L268.882 142.403L268.841 142.507H268.715L265.075 141.901L265.221 141.838C264.405 142.926 263.464 143.888 262.397 144.725L262.46 144.558L263.129 148.198V148.344L263.024 148.407L257.397 150.813L257.271 150.875L257.187 150.75L255.011 147.758L255.179 147.842C253.84 148.03 252.48 148.051 251.141 147.884L251.308 147.8L249.216 150.834L249.133 150.959L248.986 150.896L243.316 148.616L243.17 148.553V148.407L243.484 146.587L243.63 145.666L243.714 145.206L243.756 144.976V144.871V144.809V144.746L243.839 144.934C242.752 144.118 241.789 143.177 240.952 142.11L241.141 142.173L237.5 142.842H237.354L237.291 142.738L234.885 137.11L234.822 136.964L234.948 136.88L237.94 134.704L237.856 134.872C237.668 133.533 237.647 132.173 237.814 130.834L237.898 131.001L234.864 128.888L234.76 128.805L234.801 128.679L237.082 123.01L237.124 122.884H237.249L240.89 123.491L240.743 123.554C241.559 122.466 242.5 121.504 243.567 120.688L243.505 120.834C243.275 119.558 243.044 118.324 242.856 117.194V117.069L242.94 117.027L248.568 114.642L248.672 114.6L248.735 114.684L250.89 117.675L250.764 117.633C252.103 117.445 253.442 117.424 254.781 117.613L254.677 117.654L256.79 114.621L256.832 114.558H256.894L262.564 116.901H262.606V116.964L262.146 119.663C262.083 119.956 262.041 120.186 262.02 120.353C262.02 120.437 261.999 120.52 261.978 120.583" fill="#FAFAFA"/>
<path d="M299.428 191.251H227.186V243.509H299.428V191.251Z" fill="#263238"/>
<path d="M266.435 191.251H203.461V243.509H266.435V191.251Z" fill="#455A64"/>
<path d="M203.44 191.251L192.268 180.08H220.596L231.119 191.251H203.44Z" fill="#455A64"/>
<path d="M266.435 191.251L279.301 180.08H314.575L299.428 191.251H266.435Z" fill="#455A64"/>
<path d="M266.435 191.251C266.435 191.398 252.334 191.502 234.948 191.502C217.562 191.502 203.461 191.398 203.461 191.251C203.461 191.105 217.562 191 234.948 191C252.334 191 266.435 191.105 266.435 191.251Z" fill="#263238"/>
<path d="M310.767 309.387H194.486C191.703 309.387 189.465 307.148 189.465 304.366V304.136C189.465 301.353 191.703 299.115 194.486 299.115H310.767C313.55 299.115 315.788 301.353 315.788 304.136V304.387C315.788 307.169 313.55 309.408 310.767 309.408" fill="#E0E0E0"/>
<path d="M251.455 309.387H194.465C191.682 309.387 189.444 307.148 189.444 304.366V304.136C189.444 301.353 191.682 299.115 194.465 299.115H251.455C254.237 299.115 256.476 301.353 256.476 304.136V304.387C256.476 307.169 254.237 309.408 251.455 309.408" fill="#5238A0"/>
<path d="M244.258 334.637C244.258 336.75 242.793 338.382 239.76 338.382C238.128 338.445 236.538 337.859 235.324 336.792L235.952 335.788C236.977 336.75 238.358 337.252 239.76 337.21C241.873 337.21 242.982 336.185 242.982 334.679C242.982 333.089 241.998 332.106 238.839 332.106H236.203L236.831 325.893H243.609V327.022H237.94L237.521 330.976H239.111C242.856 330.976 244.258 332.441 244.258 334.637Z" fill="#5238A0"/>
<path d="M254.175 334.637C254.175 336.75 252.71 338.382 249.676 338.382C248.045 338.445 246.455 337.859 245.241 336.792L245.869 335.788C246.894 336.75 248.275 337.252 249.676 337.21C251.79 337.21 252.898 336.185 252.898 334.679C252.898 333.089 251.915 332.106 248.756 332.106H246.12L246.747 325.893H253.526V327.022H247.856L247.438 330.976H249.028C252.773 330.976 254.175 332.441 254.175 334.637Z" fill="#5238A0"/>
<path d="M255.451 329.177C255.451 327.169 256.581 325.809 258.254 325.809C259.928 325.809 261.058 327.127 261.058 329.177C261.058 331.227 259.907 332.545 258.254 332.545C256.601 332.545 255.451 331.206 255.451 329.177ZM260.158 329.177C260.158 327.566 259.405 326.604 258.254 326.604C257.104 326.604 256.35 327.566 256.35 329.177C256.35 330.788 257.104 331.75 258.254 331.75C259.405 331.75 260.158 330.788 260.158 329.177ZM265.744 325.893H266.79L258.338 338.277H257.292L265.744 325.893ZM263.045 335.014C263.045 333.005 264.196 331.646 265.849 331.646C267.502 331.646 268.652 332.985 268.652 335.014C268.652 337.043 267.522 338.382 265.849 338.382C264.175 338.382 263.045 337.043 263.045 335.014ZM267.753 335.014C267.753 333.424 266.999 332.441 265.849 332.441C264.698 332.441 263.945 333.403 263.945 335.014C263.945 336.625 264.698 337.587 265.849 337.587C266.999 337.587 267.753 336.625 267.753 335.014Z" fill="#5238A0"/>
</g>
<mask id="mask3_69_65" style="mask-type:luminance" maskUnits="userSpaceOnUse" x="0" y="0" width="465" height="392">
<path d="M465 0H0V392H465V0Z" fill="white"/>
</mask>
<g mask="url(#mask3_69_65)">
<path d="M465 386.77C465 386.916 360.895 387.021 232.521 387.021C104.147 387.021 0 386.916 0 386.77C0 386.624 104.084 386.519 232.5 386.519C360.916 386.519 464.979 386.624 464.979 386.77" fill="#263238"/>
</g>
<mask id="mask4_69_65" style="mask-type:luminance" maskUnits="userSpaceOnUse" x="0" y="0" width="465" height="392">
<path d="M465 0H0V392H465V0Z" fill="white"/>
</mask>
<g mask="url(#mask4_69_65)">
<path d="M181.452 375.494L184.297 386.373L216.119 386.08C216.119 386.08 211.767 382.795 195.783 383.025L194.235 375.494H181.473H181.452Z" fill="#FFBE9D"/>
<path d="M146.764 252.672L122.893 254.911L113.185 257.651C109.043 258.823 105.256 260.999 102.139 263.99L70.9028 293.969L65.1913 247.38L49.5839 248.739L52.1781 308.717C54.5422 316.123 61.4254 321.144 69.1873 321.144C73.8737 321.081 78.3718 319.24 81.761 315.976L104.001 295.077L101.783 322.671L94.1465 339.825L148.752 370.662C148.752 370.662 155.174 338.905 158.606 316.939C161.388 299.178 162.811 260.476 162.811 260.476L146.722 252.672H146.764Z" fill="#5238A0"/>
<path d="M161.43 259.911C161.43 259.911 173.502 264.388 176.431 273.844C179.025 282.232 187.665 329.386 187.665 329.386L196.243 379.302L178.293 379.992L157.622 294.91L161.43 259.911Z" fill="#5238A0"/>
<path d="M101.364 321.437C101.218 321.437 102.034 311.876 103.143 300.098C104.252 288.32 105.298 278.802 105.444 278.802C105.591 278.802 104.775 288.362 103.666 300.14C102.557 311.918 101.511 321.437 101.364 321.437Z" fill="#263238"/>
<path d="M141.115 297.964C141.094 298.132 141.031 298.278 140.948 298.425L140.404 299.722C140.132 300.412 139.797 301.081 139.441 301.73C139.023 302.504 138.605 303.404 137.998 304.324L137.098 305.788C136.784 306.291 136.408 306.793 136.031 307.316C135.32 308.383 134.42 309.449 133.5 310.558C129.399 315.37 124.399 319.324 118.792 322.232C117.495 322.859 116.26 323.508 115.047 323.947C114.44 324.177 113.875 324.449 113.311 324.637L111.679 325.181C110.654 325.558 109.67 325.767 108.833 325.997C108.122 326.206 107.39 326.353 106.658 326.478L105.277 326.709C105.109 326.75 104.942 326.771 104.796 326.75C104.942 326.688 105.109 326.625 105.256 326.604L106.616 326.269C107.222 326.144 107.934 325.976 108.771 325.704C109.607 325.432 110.549 325.223 111.574 324.826L113.185 324.261C113.75 324.052 114.294 323.801 114.901 323.55C116.093 323.068 117.307 322.441 118.583 321.792C124.106 318.864 129.043 314.951 133.144 310.223C134.065 309.115 134.964 308.09 135.676 307.023C136.052 306.5 136.429 306.019 136.764 305.516L137.684 304.073C138.291 303.173 138.751 302.295 139.169 301.542C139.588 300.789 139.944 300.119 140.195 299.575L140.822 298.32C140.885 298.174 140.969 298.027 141.073 297.902" fill="#263238"/>
<g opacity="0.2">
<mask id="mask5_69_65" style="mask-type:luminance" maskUnits="userSpaceOnUse" x="105" y="304" width="32" height="23">
<path d="M136.91 304.24H105.402V326.332H136.91V304.24Z" fill="white"/>
</mask>
<g mask="url(#mask5_69_65)">
<path d="M107.704 326.269C105.946 325.579 105.005 323.696 105.507 321.876C106.072 320.119 107.369 318.717 109.064 318.006C110.737 317.315 112.474 316.792 114.273 316.458C121.951 314.575 128.96 310.642 134.588 305.056C135.111 304.533 135.843 303.968 136.471 304.324C137.328 304.784 136.784 306.102 136.157 306.855C128.437 315.851 118.415 322.566 107.16 326.311" fill="black"/>
</g>
</g>
<path d="M162.225 315.035C162.057 314.721 161.932 314.366 161.869 314.031C161.66 313.361 161.388 312.399 161.074 311.207C160.426 308.822 159.61 305.496 158.773 301.814C157.936 298.132 157.266 294.785 156.827 292.337C156.618 291.123 156.451 290.14 156.346 289.45C156.262 289.094 156.241 288.739 156.241 288.383C156.388 288.718 156.492 289.073 156.534 289.429C156.702 290.203 156.932 291.165 157.183 292.274L159.275 301.709C160.112 305.328 160.844 308.592 161.43 311.123C161.681 312.232 161.89 313.194 162.057 313.989C162.162 314.345 162.225 314.7 162.225 315.056" fill="#263238"/>
<path d="M52.3455 253.216C51.8643 251.689 51.7388 250.057 51.948 248.467C52.4292 249.995 52.5547 251.626 52.3455 253.216Z" fill="#263238"/>
<path d="M56.9273 253.363C56.5089 251.71 56.4043 249.995 56.6762 248.321C57.0947 249.974 57.1993 251.689 56.9273 253.363Z" fill="#263238"/>
<path d="M61.4672 253.07C61.0279 251.229 60.9233 249.325 61.1534 247.463C61.5927 249.304 61.6973 251.208 61.4672 253.07Z" fill="#263238"/>
<path d="M70.2333 301.123C70.1705 298.362 70.4425 295.6 71.0702 292.923C71.1329 295.684 70.8609 298.445 70.2333 301.123Z" fill="#263238"/>
<path d="M181.242 374.783C181.87 376.415 182.163 378.13 182.121 379.866C181.494 378.235 181.201 376.519 181.242 374.783Z" fill="#263238"/>
<path d="M187.121 374.783C187.707 376.247 187.979 377.816 187.895 379.406C187.31 377.942 187.038 376.373 187.121 374.783Z" fill="#263238"/>
<path d="M192.728 374.218C193.23 375.912 193.523 377.649 193.607 379.406C192.854 377.795 192.54 375.996 192.728 374.218Z" fill="#263238"/>
<path d="M171.117 265.727C171.117 265.727 169.861 265.727 167.916 266.145C162.748 267.191 158.522 270.873 156.785 275.852C156.116 277.714 156.032 278.969 155.928 278.969C155.886 278.676 155.886 278.383 155.928 278.09C156.011 277.295 156.179 276.5 156.43 275.747C158.041 270.538 162.455 266.668 167.832 265.789C168.627 265.664 169.422 265.601 170.217 265.622C170.51 265.622 170.803 265.622 171.096 265.727" fill="#263238"/>
<path d="M178.502 286.019C177.539 286.521 176.556 286.939 175.531 287.274C173.669 287.985 171.054 288.885 168.146 289.806C165.238 290.726 162.581 291.437 160.635 291.918C159.61 292.232 158.543 292.441 157.476 292.567C158.48 292.149 159.505 291.814 160.551 291.563L167.999 289.303L175.405 286.919C176.41 286.542 177.456 286.228 178.502 285.998" fill="#FAFAFA"/>
<path d="M186.117 320.412C185.113 320.767 184.067 321.06 183.021 321.248C181.096 321.709 178.439 322.294 175.489 322.922C172.539 323.55 169.861 324.073 167.916 324.449C166.869 324.7 165.802 324.868 164.735 324.93C165.74 324.575 166.765 324.282 167.832 324.093C169.757 323.633 172.435 323.047 175.384 322.42C178.334 321.792 181.012 321.269 182.958 320.893C184.004 320.642 185.05 320.474 186.117 320.412Z" fill="#FAFAFA"/>
<path d="M194.737 363.486C193.754 363.611 192.77 363.674 191.766 363.632C189.946 363.674 187.414 363.758 184.632 363.925C181.849 364.093 179.318 364.302 177.498 364.469C176.514 364.616 175.531 364.678 174.527 364.657C175.489 364.386 176.472 364.197 177.456 364.114C179.276 363.863 181.786 363.591 184.59 363.423C187.393 363.256 189.925 363.235 191.766 363.298C192.749 363.277 193.754 363.34 194.737 363.507" fill="#FAFAFA"/>
<path d="M115.528 323.006C114.817 322.796 114.127 322.504 113.478 322.127L108.645 319.805L103.791 317.525C103.101 317.253 102.431 316.897 101.825 316.479C102.557 316.625 103.268 316.855 103.938 317.19C105.214 317.692 106.971 318.445 108.875 319.345C110.779 320.244 112.453 321.123 113.666 321.792C114.336 322.106 114.963 322.524 115.549 322.985" fill="#FAFAFA"/>
<path d="M155.3 329.742C154.902 329.637 154.505 329.491 154.128 329.303L151.011 327.943C148.396 326.792 144.755 325.244 140.697 323.612C136.638 321.981 132.935 320.621 130.236 319.638L127.056 318.466C126.658 318.34 126.261 318.194 125.905 317.985C126.324 318.048 126.721 318.131 127.119 318.278C127.893 318.487 129.002 318.843 130.362 319.282C133.081 320.181 136.826 321.499 140.885 323.131C144.944 324.763 148.563 326.374 151.157 327.608C152.455 328.215 153.501 328.738 154.212 329.114C154.589 329.282 154.965 329.491 155.3 329.742Z" fill="#FAFAFA"/>
<path d="M158.396 301.667C158.208 301.667 158.02 301.667 157.831 301.625L156.241 301.395L150.446 300.454C145.551 299.659 138.793 298.571 131.303 297.462C123.813 296.354 117.035 295.454 112.118 294.805L106.302 294.031L104.712 293.801C104.524 293.801 104.335 293.738 104.168 293.697C104.356 293.697 104.544 293.697 104.733 293.697L106.323 293.822C107.704 293.948 109.691 294.157 112.16 294.429C117.097 294.973 123.897 295.831 131.387 296.939C138.877 298.048 145.634 299.178 150.509 300.077C152.957 300.517 154.923 300.893 156.283 301.186L157.852 301.521C158.041 301.542 158.208 301.604 158.396 301.667Z" fill="#FAFAFA"/>
<path d="M156.158 272.003C156.158 272.149 145.446 270.664 132.265 268.697C119.085 266.731 108.436 265.015 108.457 264.869C108.478 264.722 119.169 266.208 132.349 268.174C145.53 270.141 156.179 271.856 156.158 272.003Z" fill="#FAFAFA"/>
<path d="M100.13 297.943C99.5443 296.918 99.0421 295.83 98.6028 294.722L95.1298 286.898L91.5732 279.115C91.0292 278.069 90.569 276.961 90.1714 275.852C90.3807 276.103 90.548 276.375 90.6736 276.668C90.9665 277.212 91.3849 277.986 91.887 278.969C92.8912 280.915 94.2093 283.655 95.5692 286.709C96.9291 289.764 98.1007 292.567 98.9166 294.596C99.3141 295.621 99.6279 296.458 99.8372 297.023C99.9627 297.316 100.067 297.63 100.109 297.943" fill="#FAFAFA"/>
<path d="M78.832 318.78C78.6856 318.801 77.3257 312.838 75.7775 305.454C74.2293 298.069 73.0995 292.044 73.246 292.023C73.3924 292.002 74.7523 297.964 76.2796 305.349C77.8069 312.734 78.9575 318.759 78.8111 318.78" fill="#FAFAFA"/>
<path d="M70.045 286.354C66.9905 287.274 63.915 288.027 60.7768 288.592C57.6804 289.345 54.5631 289.931 51.404 290.329C54.4585 289.408 57.534 288.655 60.6722 288.09C63.7686 287.337 66.8859 286.751 70.045 286.354Z" fill="#FAFAFA"/>
<path d="M66.9487 259.304C66.1537 259.576 65.3377 259.743 64.5009 259.848C62.9945 260.099 60.8814 260.413 58.5382 260.685C56.195 260.957 54.082 261.124 52.5547 261.208C51.7179 261.312 50.881 261.312 50.0651 261.229C50.881 261.02 51.6969 260.894 52.5338 260.831L58.4964 260.162L64.459 259.492C65.275 259.346 66.1118 259.283 66.9487 259.325" fill="#FAFAFA"/>
<path d="M74.9616 212.359C75.2545 212.924 82.6607 251.082 82.6607 251.082L65.1703 251.898L58.3918 219.096L74.9616 212.38V212.359Z" fill="#455A64"/>
<path d="M82.6816 251.082L84.69 250.246L77.1165 212.631L74.7314 212.464L82.6816 251.082Z" fill="#263238"/>
<path d="M67.932 220.707C67.9947 221.209 67.6391 221.648 67.137 221.711C66.6348 221.774 66.1955 221.418 66.1327 220.916C66.07 220.414 66.4256 219.974 66.9277 219.912C67.4299 219.849 67.8692 220.204 67.932 220.707Z" fill="#263238"/>
<path d="M64.3335 247.484L64.0824 242.484L71.5514 239.409L68.6433 232.485C67.3043 229.43 63.7477 228.05 60.6932 229.388C60.5467 229.451 60.4003 229.535 60.2538 229.598L57.262 231.229C55.1281 232.38 53.5799 234.388 53.015 236.773C52.199 240.811 51.6342 244.869 51.2785 248.97" fill="#FFBE9D"/>
<path d="M44.3116 374.678C44.3116 374.678 13.5571 383.193 12.3227 383.632C10.4607 384.28 10.7746 391.08 13.6617 390.975C15.0216 390.933 37.282 391.812 40.1064 391.623C43.9769 390.787 47.7427 389.594 51.404 388.109L44.3116 374.699V374.678Z" fill="#5238A0"/>
<path d="M31.5077 386.414C31.1311 385.285 30.6709 384.176 30.1478 383.109C29.4783 382.126 28.7461 381.184 27.972 380.285C30.1897 381.519 31.5496 383.883 31.5077 386.414Z" fill="#263238"/>
<path d="M34.7087 384.971C34.5622 384.992 34.2484 383.548 33.4325 381.937C32.6165 380.327 31.6541 379.197 31.7588 379.092C33.5789 380.515 34.6459 382.67 34.7087 384.971Z" fill="#263238"/>
<path d="M37.7214 384.155C37.575 383.046 37.3239 381.958 37.0101 380.912C36.5289 379.908 35.964 378.946 35.3364 378.025C37.3239 379.364 38.2863 381.812 37.7214 384.155Z" fill="#263238"/>
<path d="M37.1775 380.18C36.9055 379.448 36.8009 378.674 36.8427 377.9C36.8427 377.063 36.9473 376.205 37.1565 375.389C37.2821 374.908 37.4285 374.427 37.6168 373.967C37.7005 373.674 37.8888 373.423 38.1189 373.214C38.4327 372.963 38.893 373.005 39.1859 373.256C39.437 373.486 39.5834 373.8 39.6043 374.134C39.6462 374.406 39.6462 374.678 39.6462 374.95C39.6462 375.452 39.5834 375.954 39.4579 376.456C39.2487 377.272 38.9349 378.067 38.5164 378.799C38.1817 379.49 37.7005 380.117 37.1356 380.661C37.0728 380.619 37.575 379.887 38.2026 378.653C38.5583 377.921 38.8302 377.168 39.0185 376.373C39.1231 375.912 39.165 375.431 39.165 374.971C39.165 374.49 39.165 373.904 38.893 373.674C38.7884 373.548 38.6001 373.548 38.4955 373.632C38.349 373.779 38.2235 373.967 38.1608 374.176C37.9725 374.615 37.826 375.076 37.7005 375.536C37.4913 376.331 37.3448 377.126 37.303 377.942C37.2193 379.343 37.3448 380.201 37.2611 380.222" fill="#263238"/>
<path d="M37.1984 379.866C37.826 379.594 38.4955 379.49 39.1859 379.553C39.9181 379.553 40.6504 379.636 41.3617 379.825C41.8011 379.929 42.2195 380.076 42.617 380.285C43.1401 380.536 43.412 381.122 43.3074 381.686C43.161 382.23 42.7425 382.649 42.1986 382.774C41.7383 382.879 41.278 382.879 40.8178 382.774C40.0855 382.586 39.416 382.251 38.8093 381.791C38.2444 381.414 37.7632 380.933 37.3867 380.389C37.9515 380.724 38.5164 381.08 39.0185 381.498C39.5834 381.896 40.232 382.168 40.9015 382.314C41.278 382.398 41.6756 382.398 42.0521 382.314C42.4078 382.23 42.7007 381.937 42.8053 381.582C42.8681 381.226 42.6798 380.871 42.345 380.724C41.9894 380.536 41.6128 380.389 41.2362 380.285C40.5667 380.096 39.8554 379.971 39.165 379.929C37.9515 379.845 37.1984 379.971 37.1984 379.887" fill="#263238"/>
<path d="M26.7794 386.749C26.6539 385.808 26.4447 384.887 26.1727 383.967C25.7334 383.13 25.2313 382.314 24.6664 381.561C26.5075 382.565 27.4071 384.741 26.7794 386.749Z" fill="#263238"/>
<path d="M48.2449 388.172C47.8683 388.402 47.4708 388.59 47.0524 388.736C45.9435 389.176 44.7928 389.531 43.6212 389.803C39.7717 390.64 35.8175 391.017 31.8843 390.912C27.2816 390.87 23.1182 390.661 20.1055 390.536L16.5489 390.347C16.1095 390.347 15.6702 390.305 15.2518 390.201C15.6911 390.138 16.1305 390.117 16.5698 390.138H20.1474L31.9052 390.389C35.8175 390.494 39.7299 390.159 43.5585 389.427C46.5084 388.82 48.224 388.067 48.2449 388.172Z" fill="#263238"/>
<path d="M49.1445 388.862C49.1445 388.862 48.2658 388.444 46.8431 387.816C45.0229 386.958 43.0145 386.624 41.0269 386.854C39.0813 387.272 37.3029 388.339 36.0058 389.845C35.4618 390.494 34.876 391.1 34.2275 391.644C34.6459 390.891 35.148 390.201 35.7338 389.594C36.3405 388.883 37.0309 388.234 37.7632 387.69C38.7047 387 39.7926 386.54 40.9433 386.352C43.0354 386.101 45.1485 386.498 46.9896 387.502C47.7846 387.837 48.4959 388.318 49.1445 388.883" fill="#263238"/>
<path d="M76.97 366.185C76.97 366.185 106.072 385.243 107.118 386.038C108.687 387.23 106.888 392.858 104.168 391.895C102.892 391.435 78.4554 384.636 75.8402 383.611C72.4091 381.645 69.1663 379.364 66.1327 376.833L76.97 366.206V366.185Z" fill="#5238A0"/>
<path d="M85.6106 381.268C86.3219 378.82 88.3513 376.979 90.841 376.498C89.8158 377.126 88.8534 377.795 87.912 378.527C87.096 379.385 86.3219 380.306 85.6106 381.268Z" fill="#263238"/>
<path d="M82.9954 378.904C83.7485 376.728 85.4432 375.013 87.5981 374.218C87.6818 374.343 86.4056 375.117 85.1293 376.415C83.8531 377.712 83.1209 378.988 82.9954 378.925" fill="#263238"/>
<path d="M80.3593 377.23C80.5476 374.825 82.2004 372.795 84.5018 372.126C83.6231 372.795 82.7862 373.548 82.033 374.364C81.4054 375.285 80.8405 376.247 80.3593 377.251" fill="#263238"/>
<path d="M82.0958 373.611C82.0958 373.611 82.4096 372.795 82.7653 371.436C82.9535 370.641 83.0791 369.846 83.1 369.03C83.1 368.549 83.1 368.067 83.0791 367.586C83.0791 367.377 83.0163 367.168 82.9117 366.98C82.828 366.854 82.6606 366.812 82.5142 366.896C82.1794 367.021 82.0121 367.586 81.8447 368.046C81.6983 368.486 81.6146 368.967 81.5518 369.427C81.489 370.243 81.51 371.059 81.6355 371.854C81.8447 373.235 82.1167 374.072 82.033 374.092C81.6564 373.423 81.3844 372.67 81.2798 371.917C81.0915 371.08 81.0288 370.243 81.0915 369.385C81.1334 368.883 81.2171 368.381 81.3635 367.9C81.4472 367.649 81.5309 367.377 81.6564 367.147C81.7819 366.833 82.0121 366.582 82.305 366.436C82.6606 366.268 83.1 366.373 83.3301 366.708C83.4766 366.98 83.5603 367.272 83.5603 367.586C83.6649 368.925 83.4975 370.285 83.1 371.561C82.9117 372.314 82.577 373.025 82.0958 373.632" fill="#263238"/>
<path d="M82.1585 373.297C82.1585 373.297 81.4472 373.026 80.2756 372.733C79.5852 372.565 78.8948 372.482 78.1835 372.44C77.786 372.419 77.3885 372.44 76.9909 372.523C76.6353 372.565 76.3424 372.837 76.3005 373.214C76.3005 373.59 76.4679 373.946 76.8027 374.134C77.1374 374.343 77.4931 374.469 77.8906 374.49C78.581 374.553 79.2714 374.49 79.9409 374.281C80.5685 374.051 81.1962 373.862 81.8447 373.716C81.3008 374.134 80.694 374.427 80.0455 374.615C79.3341 374.887 78.6019 374.992 77.8487 374.95C77.3885 374.929 76.9282 374.783 76.5307 374.532C76.0495 374.239 75.7775 373.716 75.7984 373.151C75.8612 372.565 76.3215 372.105 76.8863 372.021C77.3257 371.938 77.786 371.917 78.2253 371.959C78.9576 372 79.6898 372.147 80.3802 372.377C81.0497 372.523 81.6564 372.837 82.1795 373.277" fill="#263238"/>
<path d="M100.465 390.828C100.465 390.828 99.9836 390.536 99.7535 389.699C99.5233 388.611 99.7116 387.481 100.297 386.54C100.59 386.038 100.904 385.536 101.281 385.075C101.553 384.678 101.887 384.322 102.264 384.009C102.536 383.799 102.85 383.653 103.185 383.611C103.436 383.611 103.561 383.653 103.54 383.695C103.143 383.799 102.787 384.009 102.473 384.28C102.159 384.594 101.887 384.95 101.636 385.347C101.302 385.808 101.009 386.289 100.737 386.77C100.214 387.628 99.9836 388.611 100.088 389.615C100.193 390.368 100.507 390.766 100.444 390.808" fill="#263238"/>
<path d="M90.0041 383.025C90.0041 380.912 91.5314 379.134 93.5817 378.737C91.9289 379.72 90.6527 381.226 90.0041 383.025Z" fill="#263238"/>
<path d="M69.1245 377.858C69.5638 378.109 70.0032 378.402 70.4007 378.737C71.5514 379.532 72.7439 380.264 73.9783 380.933C75.8193 381.896 77.7232 382.753 79.6689 383.465C81.8656 384.28 84.3553 385.055 86.9705 385.829C92.2008 387.335 96.95 388.716 100.36 389.741L104.398 390.975C104.9 391.1 105.381 391.289 105.863 391.498C105.339 391.435 104.837 391.331 104.335 391.163L100.235 390.075C96.7826 389.134 92.0335 387.816 86.7822 386.31C84.167 385.557 81.6773 384.762 79.4597 383.904C77.4931 383.151 75.5892 382.272 73.7481 381.247C72.5137 380.557 71.3422 379.762 70.2124 378.883C69.794 378.569 69.3964 378.214 69.0617 377.837" fill="#263238"/>
<path d="M68.0575 378.235C68.8316 377.879 69.6684 377.67 70.5262 377.586C72.5974 377.189 74.7314 377.461 76.6353 378.339C77.6814 378.862 78.581 379.636 79.2505 380.599C79.7944 381.352 80.2547 382.168 80.6104 383.046C80.9869 383.82 81.2589 384.615 81.4263 385.452C80.9869 384.72 80.6104 383.967 80.2965 383.193C79.5015 381.352 78.1416 379.804 76.4052 378.82C74.585 378.004 72.5556 377.712 70.5681 377.984C69.0199 378.151 68.0784 378.36 68.0575 378.276" fill="#263238"/>
<path d="M145.174 215.226L147.078 253.677C147.413 259.994 142.559 265.371 136.241 265.706C129.922 266.04 124.545 261.187 124.211 254.869C124.211 254.848 124.211 254.806 124.211 254.785C124.064 251.898 123.939 249.472 123.918 249.179C123.918 249.179 114.085 248.739 112.892 239.095C112.327 234.43 111.93 224.723 111.658 215.937C111.386 206.502 118.395 198.448 127.788 197.423L128.73 197.318C138.856 196.795 144.944 205.1 145.195 215.226" fill="#FFBE9D"/>
<path d="M123.876 249.032C128.353 248.614 132.6 246.898 136.073 244.053C136.073 244.053 133.855 251.334 124.127 251.522L123.876 249.011V249.032Z" fill="#EB996E"/>
<path d="M114.733 221.962C114.796 222.715 115.466 223.28 116.219 223.217C116.951 223.196 117.537 222.589 117.495 221.857C117.495 221.857 117.495 221.836 117.495 221.815C117.432 221.062 116.763 220.497 116.009 220.56C115.277 220.581 114.691 221.188 114.712 221.941C114.712 221.941 114.712 221.941 114.712 221.962" fill="#263238"/>
<path d="M114.252 220.456C114.44 220.623 115.403 219.723 116.888 219.577C118.374 219.43 119.545 220.037 119.692 219.849C119.754 219.765 119.545 219.451 119.043 219.158C118.353 218.782 117.558 218.635 116.784 218.719C116.009 218.803 115.277 219.138 114.712 219.661C114.294 220.058 114.168 220.393 114.273 220.476" fill="#263238"/>
<path d="M129.315 220.707C129.378 221.46 130.048 222.025 130.801 221.962C131.533 221.941 132.119 221.334 132.077 220.602C132.077 220.602 132.077 220.581 132.077 220.56C132.014 219.807 131.345 219.242 130.592 219.305C129.859 219.326 129.274 219.933 129.295 220.686C129.295 220.686 129.295 220.686 129.295 220.707" fill="#263238"/>
<path d="M128.876 219.117C129.064 219.284 130.027 218.384 131.512 218.238C132.998 218.092 134.169 218.698 134.316 218.51C134.378 218.426 134.169 218.112 133.667 217.82C132.977 217.443 132.182 217.297 131.408 217.38C130.633 217.464 129.901 217.778 129.336 218.322C128.918 218.719 128.792 219.054 128.897 219.138" fill="#263238"/>
<path d="M124.713 230.727C123.897 230.56 123.081 230.518 122.244 230.56C121.867 230.56 121.491 230.518 121.407 230.267C121.323 229.87 121.386 229.472 121.533 229.116C121.784 228.154 122.056 227.15 122.328 226.104C123.102 223.552 123.667 220.916 124.022 218.28C123.039 220.769 122.265 223.343 121.7 225.958C121.428 227.004 121.177 228.029 120.947 228.991C120.759 229.472 120.738 230.016 120.905 230.497C121.052 230.748 121.303 230.936 121.595 230.978C121.805 231.02 122.035 231.02 122.244 230.978C123.06 230.978 123.897 230.895 124.692 230.706" fill="#263238"/>
<path d="M129.19 231.271C128.939 231.271 129.127 232.903 127.872 234.2C126.617 235.497 124.88 235.518 124.901 235.727C124.901 235.832 125.319 235.999 126.052 235.936C126.993 235.853 127.872 235.434 128.541 234.744C129.169 234.095 129.546 233.217 129.546 232.317C129.546 231.627 129.315 231.25 129.211 231.271" fill="#263238"/>
<path d="M127.851 213.343C128.039 213.719 129.504 213.385 131.261 213.385C133.019 213.385 134.483 213.719 134.671 213.343C134.755 213.154 134.462 212.799 133.855 212.485C132.203 211.69 130.299 211.69 128.646 212.485C128.039 212.82 127.746 213.175 127.83 213.343" fill="#263238"/>
<path d="M114.336 216.083C114.629 216.397 115.612 215.937 116.846 215.769C118.06 215.581 119.148 215.749 119.336 215.372C119.42 215.184 119.21 214.87 118.729 214.598C117.39 213.949 115.8 214.18 114.691 215.163C114.294 215.56 114.189 215.916 114.315 216.062" fill="#263238"/>
<path d="M145.174 222.464C145.32 222.38 151.597 219.765 152.12 226.397C152.643 233.028 145.864 232.171 145.843 231.982C145.823 231.794 145.174 222.464 145.174 222.464Z" fill="#FFBE9D"/>
<path d="M147.664 229.326C147.664 229.326 147.789 229.388 147.977 229.472C148.27 229.577 148.563 229.556 148.835 229.43C149.672 228.803 150.09 227.798 149.965 226.773C149.944 226.209 149.777 225.644 149.505 225.142C149.337 224.723 149.003 224.43 148.563 224.326C148.291 224.284 147.998 224.43 147.915 224.702C147.831 224.891 147.915 225.016 147.852 225.037C147.789 225.058 147.705 224.932 147.726 224.66C147.747 224.493 147.831 224.347 147.956 224.221C148.124 224.075 148.354 223.991 148.584 224.012C149.149 224.075 149.63 224.43 149.881 224.953C150.216 225.497 150.404 226.125 150.425 226.773C150.593 227.966 150.007 229.158 148.961 229.765C148.605 229.89 148.208 229.87 147.894 229.681C147.685 229.535 147.622 229.388 147.643 229.367" fill="#EB996E"/>
<path d="M148.814 221.836C147.517 221.899 146.366 222.652 145.823 223.824C145.509 224.807 145.509 225.895 145.195 226.878C144.881 227.861 144.002 228.824 142.956 228.698C142.245 228.552 141.638 228.029 141.408 227.338C141.178 226.648 141.094 225.937 141.157 225.204C141.199 222.066 141.513 218.949 141.303 215.832C141.199 212.673 140.195 209.64 138.354 207.067C136.471 204.494 133.311 203.155 130.152 203.573C128.123 203.971 126.345 205.247 124.336 205.749C121.909 206.334 119.357 205.791 117.39 204.242C117.139 204.054 116.03 203.468 116.03 203.468C115.989 202.736 116.135 202.004 116.491 201.356C120.131 197.172 127.307 195.31 132.788 196.084C138.437 196.837 143.479 200.017 146.555 204.828C149.4 209.577 149.484 216.627 148.793 221.836" fill="#263238"/>
<path d="M40.8177 374.343C40.8177 374.343 112.202 327.524 115.11 326.541C118.018 325.558 125.089 320.935 132.161 322.88C139.232 324.826 145.55 331.164 148.731 340.411C151.911 349.658 152.141 370.369 152.141 370.369C152.141 370.369 146.534 386.686 135.571 390.096C134.629 390.389 133.688 390.619 132.726 390.808C119.273 393.297 105.653 387.418 98.2471 375.912L96.6571 373.486C96.6571 373.486 49.9604 390.64 49.2282 390.389L40.8177 374.302V374.343Z" fill="#263238"/>
<path d="M16.4652 319.721C11.1721 321.834 7.72003 326.939 7.69911 332.629C7.63635 351.373 45.5879 372.063 45.5879 372.063L96.1131 338.591V335.076C96.1131 335.076 31.0893 311.688 16.4652 319.742" fill="#263238"/>
<path d="M129.127 361.436C129.127 361.436 129.002 361.499 128.73 361.603L127.558 362.063L123.039 363.8L106.218 370.139C99.0631 372.795 90.5271 375.975 80.9242 379.469C71.3212 382.963 60.6722 386.791 49.3119 390.64L49.1027 390.703L48.998 390.515L43.412 379.866L40.5667 374.427L40.4621 374.218L40.6504 374.092L95.088 339.533L111.449 329.219L115.884 326.437L117.035 325.725C117.307 325.558 117.432 325.495 117.432 325.495C117.432 325.495 117.307 325.6 117.056 325.767L115.926 326.52L111.532 329.365L95.2554 339.825L40.9014 374.511L40.9851 374.176L43.8305 379.615L49.3956 390.264L49.0817 390.138C60.4421 386.31 71.0911 382.481 80.694 379.03L106.03 369.804L122.893 363.611L127.453 361.959L128.646 361.54C128.918 361.457 129.064 361.415 129.064 361.415" fill="#455A64"/>
<path d="M70.5262 355.494C70.0659 355.243 69.6266 354.93 69.2082 354.595C68.3713 353.988 67.1997 353.11 65.7561 351.98C62.869 349.741 58.9357 346.583 54.6887 342.942C50.4416 339.302 46.7176 335.892 44.0815 333.382C42.7635 332.127 41.6965 331.081 40.9851 330.37C40.5876 330.014 40.232 329.616 39.8972 329.198C40.3366 329.512 40.7341 329.847 41.1107 330.223L44.3116 333.131C47.0105 335.579 50.7764 338.947 55.0025 342.587C59.2286 346.227 63.12 349.428 65.9653 351.729L69.3128 354.469C69.7312 354.783 70.1287 355.139 70.5053 355.515" fill="#455A64"/>
<path d="M30.7336 326.729C32.3655 326.478 34.0392 326.625 35.6083 327.169C37.2193 327.545 38.7047 328.34 39.9391 329.449C39.8554 329.575 38.0143 328.403 35.4619 327.671C32.9095 326.939 30.7336 326.897 30.7336 326.729Z" fill="#455A64"/>
<path d="M35.0853 323.78C37.4494 324.784 39.165 326.897 39.6462 329.428C39.4997 329.47 38.9558 327.901 37.6796 326.353C36.4033 324.805 35.0016 323.905 35.0853 323.78Z" fill="#455A64"/>
<path d="M13.7036 383.151C13.7036 383.151 14.3103 382.963 15.0007 383.548C15.8166 384.322 16.3397 385.347 16.4652 386.477C16.6326 387.586 16.4652 388.695 16.0049 389.72C15.6492 390.494 15.2517 390.849 15.2099 390.808C15.1681 390.766 15.4191 390.326 15.6702 389.573C16.0049 388.611 16.1095 387.565 15.9631 386.54C15.8585 385.536 15.44 384.573 14.7705 383.799C14.2266 383.234 13.7036 383.214 13.7036 383.13" fill="#263238"/>
</g>
<path d="M433.032 329.261H364.075V338.738H433.032V329.261Z" fill="#263238"/>
<path d="M433.158 338.863H363.97V329.156H433.158V338.863ZM364.2 338.633H432.927V329.386H364.2V338.633Z" fill="#263238"/>
<path d="M370.477 335.579L380.394 384.552H417.111L426.714 338.738L370.477 335.579Z" fill="#263238"/>
<path d="M370.477 379.908L375.77 387.188H420.416L426.735 379.908H370.477Z" fill="#455A64"/>
<mask id="mask6_69_65" style="mask-type:luminance" maskUnits="userSpaceOnUse" x="0" y="0" width="465" height="392">
<path d="M465 0H0V392H465V0Z" fill="white"/>
</mask>
<g mask="url(#mask6_69_65)">
<path d="M395.959 337.022C395.813 337.022 395.646 314.345 395.562 286.354C395.478 258.363 395.52 235.685 395.666 235.685C395.813 235.685 395.98 258.363 396.043 286.354C396.106 314.345 396.085 337.022 395.938 337.022" fill="#263238"/>
<path d="M411.337 280.245C411.295 280.433 411.232 280.601 411.148 280.768L410.542 282.232L410.102 283.299L409.642 284.576L409.119 286.061C408.931 286.584 408.784 287.149 408.617 287.734C407.801 290.496 407.152 293.32 406.692 296.186C406.148 299.68 405.792 303.215 405.625 306.751C405.374 313.194 405.541 319.638 406.169 326.039C406.399 328.508 406.608 330.495 406.776 331.855C406.838 332.503 406.901 333.026 406.943 333.445C407.089 333.445 407.215 333.57 407.215 333.738C407.215 333.884 407.089 334.01 406.922 334.01C406.776 334.01 406.65 333.884 406.65 333.717C406.65 333.591 406.734 333.508 406.838 333.466C406.776 333.047 406.671 332.524 406.566 331.897C406.336 330.537 406.064 328.549 405.792 326.081C405.06 319.658 404.83 313.194 405.102 306.73C405.269 303.173 405.646 299.638 406.211 296.123C406.692 293.257 407.382 290.433 408.261 287.651C408.449 287.065 408.617 286.5 408.805 285.977L409.37 284.513C409.537 284.053 409.705 283.634 409.872 283.237C410.039 282.86 410.207 282.504 410.353 282.191L411.044 280.747C411.106 280.58 411.211 280.412 411.316 280.266" fill="#263238"/>
<path d="M409.579 261.898C409.537 262.149 409.454 262.4 409.37 262.651L408.659 264.764L408.136 266.291L407.571 268.132C407.173 269.45 406.692 270.936 406.294 272.609L405.604 275.224L404.956 278.09C404.474 280.057 404.119 282.212 403.679 284.45C402.926 288.948 402.257 293.927 401.796 299.199C401.336 304.47 401.169 309.491 401.106 314.052C401.106 318.612 401.148 322.734 401.336 326.185C401.399 327.922 401.503 329.47 401.587 330.851C401.671 332.231 401.755 333.403 401.838 334.365C401.901 335.286 401.964 336.039 402.006 336.583C402.026 336.834 402.047 337.106 402.027 337.357C401.964 337.106 401.922 336.855 401.901 336.583C401.838 336.039 401.755 335.286 401.65 334.365C401.524 333.403 401.42 332.231 401.315 330.851C401.211 329.47 401.064 327.922 400.98 326.185C400.75 322.734 400.646 318.612 400.646 314.031C400.688 309.449 400.855 304.408 401.294 299.136C401.734 293.864 402.445 288.864 403.219 284.366C403.679 282.128 404.035 279.973 404.537 277.986L405.207 275.12L405.939 272.505C406.378 270.831 406.88 269.346 407.299 268.028L407.885 266.208L408.449 264.701L409.265 262.63C409.349 262.379 409.454 262.149 409.579 261.919" fill="#263238"/>
<path d="M391.608 341.039C391.608 341.039 391.566 340.871 391.566 340.767C391.566 340.558 391.524 340.307 391.503 339.993C391.461 339.261 391.377 338.256 391.294 336.98C391.126 334.323 390.896 330.558 390.603 325.934C389.997 316.604 389.139 303.717 387.57 289.554C386.775 282.463 385.833 275.747 384.871 269.639C384.348 266.584 383.888 263.697 383.365 260.999C382.883 258.3 382.36 255.79 381.879 253.509C381.398 251.229 380.917 249.158 380.519 247.359C380.122 245.56 379.724 243.991 379.41 242.735C379.097 241.48 378.866 240.518 378.699 239.807L378.532 239.033C378.532 239.033 378.49 238.865 378.49 238.761C378.532 238.844 378.553 238.928 378.574 239.012L378.804 239.765L379.62 242.673C379.975 243.928 380.394 245.476 380.812 247.296C381.231 249.116 381.775 251.145 382.256 253.446C382.737 255.748 383.302 258.237 383.804 260.936C384.348 263.635 384.829 266.522 385.352 269.576C386.335 275.684 387.298 282.421 388.093 289.513C389.662 303.696 390.478 316.604 390.98 325.934C391.231 330.6 391.419 334.386 391.524 337.001C391.566 338.277 391.608 339.281 391.629 340.014C391.629 340.327 391.629 340.599 391.629 340.788C391.629 340.871 391.629 340.976 391.629 341.06" fill="#263238"/>
<path d="M395.415 246.585C394.85 243.3 391.984 240.894 388.637 240.915C385.352 241.062 382.339 242.694 380.436 245.371C378.574 248.028 377.235 250.999 376.481 254.137C374.138 261.689 373.301 269.618 374.055 277.484C374.829 285.391 378.26 292.818 383.762 298.529C384.557 299.554 385.812 300.119 387.11 300.056C387.779 299.847 388.386 299.471 388.867 298.969C399.976 288.78 406.169 274.304 405.834 259.241C405.939 256.25 405.207 253.3 403.7 250.685C402.047 248.216 398.219 245.581 395.415 246.564" fill="#5238A0"/>
<path d="M371.314 220.853L366.774 229.075C366.669 229.263 366.523 229.472 366.314 229.493C366.104 229.514 365.895 229.284 365.77 229.075L353.761 210.623L356.522 209.054L371.335 220.832L371.314 220.853Z" fill="#5238A0"/>
<g opacity="0.2">
<mask id="mask7_69_65" style="mask-type:luminance" maskUnits="userSpaceOnUse" x="353" y="209" width="19" height="21">
<path d="M371.293 209.096H353.719V229.514H371.293V209.096Z" fill="white"/>
</mask>
<g mask="url(#mask7_69_65)">
<path d="M371.314 220.853L366.774 229.075C366.669 229.263 366.523 229.472 366.314 229.493C366.104 229.514 365.895 229.284 365.77 229.075L353.761 210.623L356.522 209.054L371.335 220.832L371.314 220.853Z" fill="black"/>
</g>
</g>
<path d="M395.687 235.685L354.681 211.502C354.242 211.313 353.865 210.937 353.677 210.498C353.51 209.891 353.97 209.305 354.409 208.845C360.121 202.925 368.113 199.787 376.314 200.247C384.536 200.833 391.963 205.456 396.127 212.569C400.227 219.786 400.06 228.656 395.687 235.706" fill="#5238A0"/>
<path d="M360.602 203.782C360.769 203.74 360.958 203.719 361.146 203.719C361.502 203.719 362.025 203.636 362.694 203.636C364.598 203.615 366.502 203.761 368.385 204.096C381.147 206.251 391.503 215.623 394.913 228.091C395.415 229.932 395.771 231.815 395.938 233.698C396.022 234.367 396.001 234.89 396.022 235.246C396.022 235.434 396.022 235.602 396.022 235.79C395.98 235.79 395.917 235.058 395.771 233.719C395.541 231.836 395.143 229.995 394.62 228.175C391.106 215.895 380.917 206.669 368.364 204.41C366.502 204.054 364.619 203.866 362.736 203.803C361.397 203.782 360.644 203.803 360.644 203.761" fill="#263238"/>
<path d="M390.143 218.991C389.495 219.389 388.804 219.702 388.072 219.933C386.775 220.456 384.934 221.104 382.904 221.753C380.875 222.401 378.992 222.924 377.632 223.259C376.9 223.489 376.147 223.614 375.393 223.677C376.084 223.343 376.795 223.091 377.527 222.924L382.758 221.292L387.967 219.619C388.679 219.347 389.411 219.138 390.164 219.012" fill="#263238"/>
<path d="M383.699 201.627C384.264 204.64 384.348 207.736 383.929 210.79C383.699 207.736 383.616 204.682 383.699 201.627Z" fill="#263238"/>
<path d="M354.326 211.042C355.288 210.602 356.292 210.267 357.296 209.996C359.158 209.431 361.753 208.698 364.64 207.987C367.527 207.276 370.163 206.753 372.088 206.418C373.113 206.188 374.18 206.042 375.226 206C374.222 206.335 373.197 206.586 372.172 206.774C370.268 207.192 367.653 207.778 364.765 208.489C361.878 209.201 359.284 209.849 357.401 210.351C356.397 210.665 355.372 210.895 354.326 211.062" fill="#263238"/>
<path d="M376.774 238.991C373.385 236.564 369.222 235.497 365.1 235.957C360.665 236.25 356.334 237.38 352.317 239.263C345.267 242.087 339.178 246.878 334.764 253.07C330.391 259.388 329.471 267.484 332.295 274.638C332.546 275.35 333.028 275.956 333.697 276.333C334.471 276.542 335.287 276.479 336.019 276.166C343.969 273.844 351.669 270.789 359.033 267.003C366.418 263.174 372.569 257.317 376.712 250.099C377.716 248.384 378.343 246.459 378.574 244.493C378.783 242.484 378.134 240.497 376.774 239.012" fill="#5238A0"/>
<path d="M376.858 238.154C376.67 238.259 376.481 238.321 376.293 238.384L374.64 238.949L373.448 239.346C373.008 239.493 372.548 239.702 372.046 239.89C371.042 240.288 369.891 240.685 368.678 241.292L366.753 242.171C366.083 242.484 365.414 242.861 364.703 243.217C363.28 243.928 361.836 244.806 360.309 245.727C353.719 249.806 347.861 254.974 342.965 260.978C341.877 262.379 340.789 263.697 339.932 265.015C339.492 265.664 339.032 266.291 338.635 266.898L337.526 268.697C336.793 269.827 336.249 270.915 335.706 271.856C335.454 272.337 335.203 272.756 334.994 273.174L334.45 274.304L333.676 275.873C333.592 276.061 333.488 276.228 333.383 276.396C333.425 276.207 333.509 275.998 333.592 275.831L334.283 274.22L334.785 273.069C334.994 272.651 335.224 272.212 335.475 271.731C335.977 270.789 336.501 269.66 337.233 268.509L338.321 266.689C338.697 266.061 339.158 265.434 339.597 264.764C340.455 263.425 341.522 262.086 342.631 260.664C347.505 254.576 353.405 249.388 360.079 245.309C361.627 244.409 363.092 243.53 364.535 242.84C365.247 242.484 365.916 242.108 366.606 241.815L368.552 240.957C369.787 240.392 370.958 239.995 371.962 239.618C372.464 239.43 372.946 239.263 373.385 239.116L374.598 238.761L376.272 238.279C376.46 238.217 376.67 238.175 376.858 238.154Z" fill="#263238"/>
<path d="M349.304 253.07C343.635 255.078 337.86 256.752 332.002 258.133C337.672 256.124 343.446 254.451 349.304 253.07Z" fill="#263238"/>
<path d="M348.949 272.003C348.802 271.124 348.74 270.224 348.761 269.325C348.719 267.672 348.719 265.392 348.761 262.86C348.802 260.329 348.97 258.049 349.095 256.417C349.116 255.518 349.242 254.639 349.43 253.76C349.514 254.66 349.514 255.538 349.43 256.438C349.367 258.258 349.304 260.455 349.221 262.881C349.137 265.308 349.116 267.505 349.053 269.325C349.074 270.224 349.032 271.124 348.886 272.003" fill="#263238"/>
<path d="M365.163 263.739C365.016 263.739 364.598 259.116 364.201 253.384C363.803 247.652 363.594 242.986 363.719 242.986C363.845 242.986 364.284 247.61 364.682 253.342C365.079 259.074 365.288 263.739 365.163 263.739Z" fill="#263238"/>
<path d="M344.974 242.526C345.894 242.422 346.815 242.38 347.714 242.443C349.409 242.443 351.752 242.505 354.326 242.589C356.899 242.673 359.242 242.777 360.937 242.882C361.857 242.882 362.778 242.966 363.678 243.154C362.757 243.258 361.857 243.3 360.937 243.237C359.242 243.237 356.899 243.175 354.305 243.091C351.71 243.007 349.388 242.903 347.694 242.798C346.773 242.798 345.852 242.714 344.953 242.526" fill="#263238"/>
<path d="M385.519 300.747C385.478 300.558 385.457 300.37 385.457 300.182C385.457 299.763 385.415 299.22 385.394 298.571C385.331 297.169 385.31 295.14 385.373 292.651C385.436 290.161 385.582 287.17 385.875 283.864C386.168 280.559 386.649 276.961 387.319 273.195C387.988 269.429 388.804 265.873 389.641 262.672C390.478 259.471 391.378 256.626 392.193 254.262C393.009 251.898 393.721 249.995 394.265 248.698L394.892 247.212C394.955 247.045 395.039 246.857 395.143 246.71C395.122 246.898 395.06 247.087 394.976 247.254L394.432 248.781C393.951 250.099 393.281 252.003 392.507 254.388C391.733 256.773 390.896 259.618 390.059 262.819C389.223 266.019 388.449 269.555 387.779 273.321C387.11 277.086 386.649 280.663 386.314 283.948C385.98 287.232 385.791 290.203 385.708 292.692C385.624 295.182 385.561 297.211 385.582 298.613C385.582 299.261 385.582 299.805 385.582 300.224C385.582 300.412 385.582 300.6 385.54 300.789" fill="#263238"/>
<path d="M387.674 272.777C387.193 273.425 386.649 274.032 386.043 274.576C384.976 275.643 383.469 277.044 381.754 278.551C380.038 280.057 378.427 281.375 377.235 282.274C376.628 282.797 375.958 283.278 375.247 283.655C375.791 283.048 376.377 282.483 377.025 282.002L381.44 278.174L385.812 274.304C386.398 273.739 387.026 273.216 387.695 272.756" fill="#263238"/>
<path d="M400.646 283.237C399.997 282.483 399.411 281.668 398.909 280.831L394.85 274.91L390.708 269.053C390.101 268.279 389.536 267.442 389.055 266.584C389.767 267.275 390.415 268.028 390.98 268.844C392.11 270.287 393.637 272.316 395.248 274.618C396.859 276.919 398.219 279.053 399.181 280.622C399.746 281.437 400.227 282.316 400.625 283.216" fill="#263238"/>
<path d="M393.846 250.371C393.93 250.476 389.599 253.384 384.222 256.856C378.846 260.329 374.41 263.028 374.327 262.923C374.243 262.819 378.553 259.911 383.95 256.438C389.348 252.965 393.763 250.267 393.846 250.371Z" fill="#263238"/>
<path d="M406.002 263.488C401.545 259.597 397.298 255.455 393.302 251.082C397.759 254.974 402.006 259.116 406.002 263.488Z" fill="#263238"/>
<path d="M409.056 263.216L412.759 262.902C415.395 262.693 417.927 261.898 420.228 260.622C421.358 259.974 422.509 259.388 423.722 258.865C428.304 257.024 433.409 257.359 438.325 257.107C446.38 256.689 454.288 254.681 461.548 251.166C461.966 250.978 462.322 250.643 462.552 250.246C463.305 248.865 461.904 247.631 460.69 246.878C454.644 242.735 448.012 239.493 441.045 237.233C433.974 235.33 425.961 235.643 419.914 239.807C412.822 244.681 410.249 254.681 409.056 263.195" fill="#5238A0"/>
<path d="M462.657 249.806C462.448 249.723 462.238 249.639 462.029 249.513L460.272 248.593C458.745 247.798 456.569 246.606 453.786 245.288C450.564 243.698 447.217 242.422 443.765 241.417C439.539 240.204 435.124 239.848 430.773 240.371C426.4 240.853 422.278 242.631 418.931 245.455C416.316 247.903 414.203 250.852 412.759 254.116C411.755 256.313 410.855 258.572 410.081 260.873C409.809 261.647 409.579 262.275 409.412 262.735C409.349 262.965 409.265 263.174 409.161 263.383C409.203 263.153 409.244 262.923 409.328 262.714L409.893 260.81C410.604 258.488 411.462 256.208 412.445 253.969C413.868 250.622 415.981 247.61 418.638 245.12C422.048 242.212 426.254 240.392 430.731 239.89C435.145 239.367 439.643 239.744 443.911 240.999C447.384 242.003 450.753 243.342 453.974 244.995C456.736 246.375 458.891 247.589 460.397 248.447L462.113 249.451C462.322 249.555 462.51 249.681 462.699 249.827" fill="#263238"/>
<path d="M453.765 254.576C453.682 254.681 448.849 251.564 442.949 247.589C437.049 243.614 432.342 240.309 432.404 240.183C432.467 240.058 437.321 243.196 443.221 247.17C449.121 251.145 453.828 254.451 453.765 254.576Z" fill="#263238"/>
<path d="M449.121 239.723C446.652 240.497 444.058 240.727 441.484 240.434C444.016 240.099 446.568 239.848 449.121 239.723Z" fill="#263238"/>
<path d="M427.425 235.853C426.505 238.049 425.291 240.099 423.827 241.961C424.203 240.832 424.747 239.765 425.417 238.782C425.94 237.715 426.63 236.731 427.425 235.853Z" fill="#263238"/>
<path d="M431.756 257.421C430.94 257.087 430.166 256.668 429.434 256.166C428.032 255.308 426.149 254.074 424.12 252.61C422.09 251.145 420.312 249.765 419.036 248.739C418.324 248.237 417.634 247.652 417.027 247.024C417.801 247.442 418.554 247.924 419.245 248.467L424.392 252.212C426.4 253.677 428.262 254.953 429.601 255.873C430.354 256.333 431.065 256.856 431.735 257.421" fill="#263238"/>
<path d="M414.517 278.948C410.981 278.007 406.776 281.458 406.043 285.015C405.625 288.676 406.378 292.358 408.219 295.538C411.588 302.922 416.567 309.449 422.822 314.638C429.12 319.826 436.986 322.713 445.146 322.859C443.66 315.935 445.543 308.696 444.706 301.646C443.2 288.864 433.053 278.843 420.27 277.463C418.01 277.212 415.416 276.856 414.517 278.948Z" fill="#5238A0"/>
<path d="M445.146 322.88C444.978 322.817 444.811 322.755 444.643 322.65C444.183 322.399 443.744 322.106 443.325 321.771C441.84 320.474 440.647 318.884 439.832 317.106C439.267 316.018 438.639 314.826 438.032 313.508L436.128 309.303C435.438 307.755 434.664 306.27 433.806 304.826C432.844 303.299 431.777 301.835 430.584 300.454C428.178 297.609 425.584 295.161 423.325 292.818C421.295 290.768 419.433 288.55 417.801 286.186C416.692 284.576 415.793 282.839 415.102 281.019C414.914 280.517 414.768 280.015 414.621 279.513C414.558 279.345 414.517 279.157 414.517 278.969C414.558 278.969 414.768 279.68 415.27 280.956C416.023 282.735 416.964 284.429 418.073 285.998C419.747 288.32 421.609 290.496 423.638 292.525C425.898 294.847 428.513 297.295 430.94 300.161C432.132 301.542 433.22 303.027 434.183 304.596C435.061 306.06 435.836 307.588 436.526 309.136L438.388 313.341C438.974 314.638 439.601 315.851 440.124 316.939C440.899 318.696 442.028 320.286 443.43 321.604C444.455 322.483 445.166 322.817 445.125 322.88" fill="#263238"/>
<path d="M426.902 317.106C426.902 316.311 427.028 315.516 427.216 314.721C427.488 313.257 427.948 311.269 428.555 309.094C429.162 306.918 429.831 304.973 430.354 303.592C430.584 302.818 430.919 302.086 431.317 301.395C431.191 302.19 430.961 302.943 430.689 303.696C430.25 305.098 429.643 307.044 429.036 309.219C428.429 311.395 427.927 313.362 427.572 314.784C427.425 315.579 427.195 316.332 426.902 317.085" fill="#263238"/>
<path d="M444.476 300.098C443.639 299.973 442.802 299.784 441.986 299.533C440.459 299.136 438.367 298.592 436.024 298.069C433.681 297.546 431.547 297.128 430.019 296.835C429.182 296.73 428.346 296.542 427.53 296.291C428.388 296.27 429.245 296.333 430.082 296.5C431.651 296.709 433.806 297.065 436.149 297.588C438.493 298.111 440.585 298.717 442.091 299.199C442.907 299.408 443.723 299.722 444.476 300.098Z" fill="#263238"/>
<path d="M413.805 305.035C413.847 304.115 413.973 303.194 414.182 302.295C414.496 300.621 414.998 298.299 415.646 295.768C416.295 293.236 417.006 290.977 417.571 289.345C417.822 288.446 418.157 287.588 418.575 286.751C418.429 287.672 418.199 288.571 417.885 289.45C417.425 291.103 416.776 293.362 416.107 295.893C415.437 298.425 414.893 300.705 414.517 302.378C414.349 303.299 414.098 304.178 413.784 305.056" fill="#263238"/>
<path d="M436.38 285.266C436.38 285.391 431.965 285.036 426.546 284.471C421.128 283.906 416.734 283.32 416.755 283.195C416.776 283.069 421.17 283.425 426.588 283.99C432.007 284.555 436.4 285.14 436.38 285.266Z" fill="#263238"/>
<path d="M433.158 338.696C433.158 338.842 417.676 338.947 398.574 338.947C379.473 338.947 363.97 338.842 363.97 338.696C363.97 338.549 379.452 338.445 398.574 338.445C417.697 338.445 433.158 338.549 433.158 338.696Z" fill="#455A64"/>
<path d="M422.383 358.632C422.383 358.779 411.943 358.884 399.077 358.884C386.21 358.884 375.77 358.779 375.77 358.632C375.77 358.486 386.21 358.381 399.077 358.381C411.943 358.381 422.383 358.486 422.383 358.632Z" fill="#455A64"/>
<path d="M422.781 361.478C422.781 361.624 412.341 361.729 399.474 361.729C386.607 361.729 376.168 361.624 376.168 361.478C376.168 361.331 386.607 361.227 399.474 361.227C412.341 361.227 422.781 361.331 422.781 361.478Z" fill="#455A64"/>
<path d="M422.781 356.289C422.781 356.436 411.985 356.54 398.679 356.54C385.373 356.54 374.578 356.436 374.578 356.289C374.578 356.143 385.373 356.038 398.679 356.038C411.985 356.038 422.781 356.143 422.781 356.289Z" fill="#455A64"/>
</g>
</g>
</g>
<defs>
<clipPath id="clip0_69_65">
<rect width="465" height="392" fill="white"/>
</clipPath>
</defs>
</svg>
